<svg width="192" height="40" viewBox="0 0 192 40" fill="none" xmlns="http://www.w3.org/2000/svg">
<path d="M63.1856 32V12.28H56.2496V8.2H74.6096V12.28H67.6736V32H63.1856ZM82.2984 32.476C80.621 32.476 79.1364 32.1247 77.8444 31.422C76.575 30.6967 75.5777 29.688 74.8524 28.396C74.1497 27.0813 73.7984 25.54 73.7984 23.772V23.364C73.7984 21.596 74.1497 20.066 74.8524 18.774C75.555 17.4593 76.541 16.4507 77.8104 15.748C79.0797 15.0227 80.553 14.66 82.2304 14.66C83.885 14.66 85.3244 15.034 86.5484 15.782C87.7724 16.5073 88.7244 17.5273 89.4044 18.842C90.0844 20.134 90.4244 21.6413 90.4244 23.364V24.826H78.1504C78.1957 25.982 78.6264 26.9227 79.4424 27.648C80.2584 28.3733 81.2557 28.736 82.4344 28.736C83.6357 28.736 84.5197 28.4753 85.0864 27.954C85.653 27.4327 86.0837 26.8547 86.3784 26.22L89.8804 28.056C89.563 28.6453 89.0984 29.2913 88.4864 29.994C87.897 30.674 87.1037 31.2633 86.1064 31.762C85.109 32.238 83.8397 32.476 82.2984 32.476ZM78.1844 21.63H86.0724C85.9817 20.6553 85.585 19.8733 84.8824 19.284C84.2024 18.6947 83.307 18.4 82.1964 18.4C81.0404 18.4 80.1224 18.6947 79.4424 19.284C78.7624 19.8733 78.343 20.6553 78.1844 21.63ZM102.159 32.476C100.527 32.476 99.0428 32.136 97.7054 31.456C96.3908 30.776 95.3481 29.79 94.5774 28.498C93.8068 27.206 93.4214 25.642 93.4214 23.806V23.33C93.4214 21.494 93.8068 19.93 94.5774 18.638C95.3481 17.346 96.3908 16.36 97.7054 15.68C99.0428 15 100.527 14.66 102.159 14.66C103.769 14.66 105.151 14.9433 106.307 15.51C107.463 16.0767 108.393 16.8587 109.095 17.856C109.821 18.8307 110.297 19.9413 110.523 21.188L106.375 22.072C106.285 21.392 106.081 20.78 105.763 20.236C105.446 19.692 104.993 19.2613 104.403 18.944C103.837 18.6267 103.123 18.468 102.261 18.468C101.4 18.468 100.618 18.6607 99.9154 19.046C99.2354 19.4087 98.6914 19.964 98.2834 20.712C97.8981 21.4373 97.7054 22.3327 97.7054 23.398V23.738C97.7054 24.8033 97.8981 25.71 98.2834 26.458C98.6914 27.1833 99.2354 27.7387 99.9154 28.124C100.618 28.4867 101.4 28.668 102.261 28.668C103.553 28.668 104.528 28.3393 105.185 27.682C105.865 27.002 106.296 26.118 106.477 25.03L110.625 26.016C110.331 27.2173 109.821 28.3167 109.095 29.314C108.393 30.2887 107.463 31.0593 106.307 31.626C105.151 32.1927 103.769 32.476 102.159 32.476ZM114.159 32V8.2H118.443V17.21H119.055C119.237 16.8473 119.52 16.4847 119.905 16.122C120.291 15.7593 120.801 15.4647 121.435 15.238C122.093 14.9887 122.92 14.864 123.917 14.864C125.232 14.864 126.377 15.17 127.351 15.782C128.349 16.3713 129.119 17.1987 129.663 18.264C130.207 19.3067 130.479 20.5307 130.479 21.936V32H126.195V22.276C126.195 21.0067 125.878 20.0547 125.243 19.42C124.631 18.7853 123.747 18.468 122.591 18.468C121.277 18.468 120.257 18.91 119.531 19.794C118.806 20.6553 118.443 21.868 118.443 23.432V32H114.159ZM142.779 25.268V21.392H152.843V25.268H142.779ZM170.495 32.476C169.294 32.476 168.217 32.272 167.265 31.864C166.313 31.4333 165.554 30.8213 164.987 30.028C164.443 29.212 164.171 28.226 164.171 27.07C164.171 25.914 164.443 24.9507 164.987 24.18C165.554 23.3867 166.324 22.7973 167.299 22.412C168.296 22.004 169.43 21.8 170.699 21.8H175.323V20.848C175.323 20.0547 175.074 19.4087 174.575 18.91C174.076 18.3887 173.283 18.128 172.195 18.128C171.13 18.128 170.336 18.3773 169.815 18.876C169.294 19.352 168.954 19.9753 168.795 20.746L164.851 19.42C165.123 18.5587 165.554 17.7767 166.143 17.074C166.755 16.3487 167.56 15.7707 168.557 15.34C169.577 14.8867 170.812 14.66 172.263 14.66C174.484 14.66 176.241 15.2153 177.533 16.326C178.825 17.4367 179.471 19.046 179.471 21.154V27.444C179.471 28.124 179.788 28.464 180.423 28.464H181.783V32H178.927C178.088 32 177.397 31.796 176.853 31.388C176.309 30.98 176.037 30.436 176.037 29.756V29.722H175.391C175.3 29.994 175.096 30.3567 174.779 30.81C174.462 31.2407 173.963 31.626 173.283 31.966C172.603 32.306 171.674 32.476 170.495 32.476ZM171.243 29.008C172.444 29.008 173.419 28.6793 174.167 28.022C174.938 27.342 175.323 26.4467 175.323 25.336V24.996H171.005C170.212 24.996 169.588 25.166 169.135 25.506C168.682 25.846 168.455 26.322 168.455 26.934C168.455 27.546 168.693 28.0447 169.169 28.43C169.645 28.8153 170.336 29.008 171.243 29.008ZM184.915 32V15.136H189.199V32H184.915ZM187.057 13.164C186.286 13.164 185.629 12.9147 185.085 12.416C184.564 11.9173 184.303 11.26 184.303 10.444C184.303 9.628 184.564 8.97067 185.085 8.472C185.629 7.97333 186.286 7.724 187.057 7.724C187.85 7.724 188.508 7.97333 189.029 8.472C189.55 8.97067 189.811 9.628 189.811 10.444C189.811 11.26 189.55 11.9173 189.029 12.416C188.508 12.9147 187.85 13.164 187.057 13.164Z" fill="#101221"/>
<path fill-rule="evenodd" clip-rule="evenodd" d="M44.2048 0.00292969H33.9149H32.6361C29.2017 2.84923 27.0137 7.14432 27.0137 11.9547C27.0137 12.2353 27.0218 12.5132 27.0353 12.7884C27.0218 13.077 27.0137 13.3657 27.0137 13.6571C27.0137 14.0699 27.0299 14.4773 27.0568 14.8819C27.0892 15.3352 27.1405 15.7803 27.2079 16.2201C27.2673 16.6221 27.3428 17.0187 27.4318 17.4099C28.1144 20.4289 29.601 23.143 31.6568 25.3148C31.6919 25.3364 31.7269 25.3552 31.762 25.3741C32.0858 25.5522 32.218 25.5063 32.1964 25.1259C32.1883 24.9937 32.1964 24.8588 32.1964 24.7266C32.1964 19.3497 32.1937 13.97 32.1964 8.5931C32.1964 7.38713 32.0588 7.51663 33.2513 7.51393C36.9312 7.51123 40.6112 7.51393 44.2911 7.51123C44.9386 7.51123 44.9629 7.48965 44.9629 6.83675C44.9629 4.80522 44.9629 2.77369 44.9629 0.742159C44.9629 0.0056276 44.9602 0.00292969 44.2048 0.00292969ZM30.1783 3.7908C30.1756 3.7935 30.1729 3.7962 30.1729 3.7989C30.1756 3.7962 30.1756 3.7935 30.1783 3.7908ZM27.0487 12.5536C27.0487 12.5725 27.046 12.5914 27.046 12.6103C27.0487 12.5914 27.0487 12.5725 27.0487 12.5536ZM29.9382 4.13344C29.9976 4.0498 30.0542 3.96347 30.1136 3.87984C30.0542 3.96347 29.9949 4.0498 29.9382 4.13344ZM31.5543 2.11C31.7134 1.94003 31.8753 1.77276 32.0399 1.60819C31.8726 1.77276 31.7107 1.94003 31.5543 2.11ZM32.8547 0.850075C32.8439 0.858169 32.8331 0.868961 32.8223 0.877055C32.682 0.998461 32.5444 1.12256 32.4095 1.24937C32.5444 1.12256 32.682 0.998461 32.8223 0.874357C32.8331 0.868961 32.8439 0.860867 32.8547 0.850075C33.1406 0.601867 33.4347 0.36445 33.7369 0.135128C33.4374 0.36445 33.1406 0.601867 32.8547 0.850075Z" fill="#A4E445"/>
<path d="M18.1481 39.9891C14.6489 39.9918 11.147 39.9918 7.64785 39.9918H0.665641C0.0235364 39.9918 0.00195312 39.9702 0.00195312 39.3093V13.528C0.00195312 12.8508 0.0397239 12.8103 0.695318 12.8103H2.79699C4.62079 12.8103 6.44188 12.8076 8.26297 12.8076C8.11189 13.0019 7.9635 13.1988 7.81782 13.3985C7.79354 13.4308 7.77195 13.4632 7.75037 13.4956C7.68022 13.5927 7.61278 13.6898 7.54533 13.787C7.07319 14.4803 6.65232 15.2088 6.2854 15.9696C6.17209 16.2097 6.06147 16.4525 5.95895 16.698C5.89151 16.8545 5.82676 17.0137 5.7647 17.1728C5.69726 17.3482 5.62981 17.529 5.56775 17.707C5.2467 18.6243 5.00119 19.5767 4.84202 20.5587C4.79076 20.8852 4.74489 21.2089 4.71252 21.5408C4.65046 22.1235 4.62079 22.7144 4.62079 23.3133C4.62079 23.521 4.62348 23.7261 4.63158 23.9284C4.63697 24.066 4.64237 24.2009 4.65046 24.3358C4.65316 24.4033 4.65586 24.4707 4.66126 24.5382C4.66665 24.5894 4.66935 24.6407 4.67474 24.6919C4.65046 24.9374 4.63158 25.1857 4.62079 25.4339C5.01738 32.9584 10.7774 39.061 18.1481 39.9891Z" fill="#E6E62E"/>
<path d="M44.9629 13.4929C44.9656 20.0003 44.9656 26.513 44.9629 33.0204C42.1463 35.1275 38.6552 36.3793 34.87 36.3928H34.7513C34.031 36.3901 33.3268 36.3442 32.6334 36.2525C32.5417 36.2417 32.4473 36.2282 32.3556 36.2147C32.164 36.1878 31.9752 36.1581 31.789 36.123C31.6622 36.1014 31.5354 36.0771 31.4086 36.0502C31.2791 36.0232 31.1496 35.9962 31.0228 35.9665C30.9014 35.9396 30.78 35.9099 30.6586 35.8802C30.2863 35.7858 29.9193 35.6806 29.5578 35.5618C29.4121 35.516 29.2691 35.4674 29.1289 35.4162C28.2358 35.1005 27.3779 34.7093 26.5631 34.2534C22.4191 31.9439 19.3435 27.9429 18.2697 23.1865C18.1807 22.7926 18.1052 22.396 18.0458 21.994C17.9784 21.5543 17.9298 21.1091 17.8947 20.6559C17.8678 20.2512 17.8516 19.8438 17.8516 19.431C17.8516 18.8321 17.8839 18.2412 17.946 17.6585C17.9784 17.3293 18.0215 17.0029 18.0755 16.6791C18.2347 15.6971 18.4802 14.7447 18.8012 13.8274C18.8633 13.6467 18.9307 13.4686 18.9982 13.2932C19.0602 13.1341 19.125 12.9749 19.1924 12.8184C19.562 12.8454 19.5998 12.9749 19.5755 13.5253C19.446 16.4309 19.9802 19.1963 21.34 21.7782C23.5091 25.8844 26.7655 28.8494 30.9634 30.7973C32.8358 31.6661 34.7945 32.2245 36.8584 32.4026C37.4762 32.4538 37.4789 32.4673 37.4789 31.801V13.7654C37.4789 12.8103 37.4789 12.8076 38.4367 12.8076C40.3846 12.8076 42.3325 12.8076 44.2831 12.8103C44.9198 12.8103 44.9629 12.8535 44.9629 13.4929Z" fill="#E6E62E"/>
<path fill-rule="evenodd" clip-rule="evenodd" d="M27.4324 17.41C28.115 20.4289 29.6015 23.143 31.6573 25.3149C30.2382 24.5163 29.0296 23.4614 27.9963 22.215C25.7975 19.5575 24.748 16.4873 24.7723 13.0393C24.7858 11.4746 24.775 9.90976 24.775 8.34497C24.775 7.51401 24.775 7.51401 23.9656 7.51401H1.01172C0.852542 7.51401 0.687969 7.50592 0.528792 7.51401H0.46674C0.461344 7.51401 0.458646 7.51671 0.45325 7.51671C0.415479 7.51671 0.377708 7.51401 0.345333 7.50861C0.213135 7.49243 0.121406 7.43847 0.0674479 7.34134C0.0512604 7.31706 0.0404687 7.29008 0.0296771 7.26041C0.032375 7.25771 0.032375 7.25771 0.0296771 7.25771C0.00809375 7.19835 0 7.13091 0 7.04997V7.04727C0.00539583 4.84847 0.00539583 2.65237 0.00269792 0.453564C0.00269792 0.410397 0.00539583 0.369928 0.0107917 0.332157C0.0134896 0.305178 0.0188854 0.280897 0.0269792 0.259314C0.0350729 0.232334 0.0431667 0.205355 0.0539583 0.183772L0.0566562 0.181074C0.102521 0.083949 0.188854 0.0245949 0.32375 0.00840736C0.348031 0.00301153 0.37501 0.000313614 0.404687 0.00301153H0.485625C0.644802 0.0111053 0.809375 0.00301153 0.968552 0.00301153H32.6367C29.2022 2.84931 27.0142 7.14709 27.0142 11.9548C27.0142 12.2354 27.0223 12.5133 27.0358 12.7884C27.0223 13.0771 27.0142 13.3658 27.0142 13.6572C27.0142 14.0699 27.0304 14.4773 27.0574 14.882C27.0898 15.3353 27.141 15.7804 27.2085 16.2202C27.2678 16.6222 27.3434 17.0188 27.4324 17.41Z" fill="#FF2F60"/>
<path fill-rule="evenodd" clip-rule="evenodd" d="M33.9157 0.00292969C33.8563 0.0460964 33.797 0.089263 33.7376 0.135128C33.4382 0.361753 33.1414 0.601867 32.8554 0.850076C32.8446 0.858169 32.8338 0.868961 32.823 0.877055C32.3158 1.31951 31.8356 1.79435 31.385 2.29346C30.9669 2.7548 30.5757 3.24043 30.2114 3.74494C30.1872 3.77731 30.1656 3.80969 30.1413 3.84206C30.0712 3.93919 30.0037 4.03631 29.9363 4.13344C29.4641 4.8268 29.0432 5.55524 28.6763 6.31605C28.5603 6.55617 28.4524 6.79898 28.3499 7.04449C28.2824 7.20097 28.2177 7.36015 28.1556 7.51933C28.0882 7.69469 28.0207 7.87275 27.9587 8.05351C27.6376 8.9708 27.3921 9.92317 27.2329 10.9052C27.179 11.229 27.1358 11.5554 27.1034 11.8846C27.0711 12.184 27.0468 12.4862 27.0333 12.7884C27.0198 12.5132 27.0117 12.2353 27.0117 11.9547C27.0117 7.14701 29.1997 2.84923 32.6342 0.00292969H33.9157Z" fill="#64D445"/>
<path fill-rule="evenodd" clip-rule="evenodd" d="M34.8701 36.3928H34.7514C34.0311 36.3901 33.3269 36.3442 32.6336 36.2525C32.6093 36.2498 32.5823 36.2471 32.558 36.2444C32.4906 36.2363 32.4231 36.2255 32.3557 36.2147C32.1641 36.1878 31.9753 36.1581 31.7891 36.123C31.6623 36.1014 31.5355 36.0771 31.4087 36.0502C31.2792 36.0232 31.1497 35.9962 31.0229 35.9665C30.9015 35.9396 30.7801 35.9099 30.6587 35.8802C30.2864 35.7858 29.9195 35.6806 29.5579 35.5618C29.4123 35.516 29.2693 35.4674 29.129 35.4162C28.236 35.1005 27.378 34.7093 26.5632 34.2534C22.4193 31.9439 19.3436 27.9429 18.2699 23.1865C18.1808 22.7926 18.1053 22.396 18.0459 21.994C17.9785 21.5543 17.9299 21.1091 17.8948 20.6559C17.8679 20.2512 17.8517 19.8438 17.8517 19.431C17.8517 18.8321 17.8841 18.2412 17.9461 17.6585C17.9785 17.3293 18.0216 17.0029 18.0756 16.6791C18.2348 15.6971 18.4803 14.7447 18.8013 13.8274C18.8634 13.6467 18.9308 13.4686 18.9983 13.2932C19.0603 13.1341 19.1251 12.9749 19.1925 12.8184C19.1062 12.8103 19.0037 12.8103 18.8823 12.8103C15.3426 12.8076 11.8029 12.8076 8.26328 12.8076C8.1122 13.0019 7.96381 13.1988 7.81813 13.3985C7.79384 13.4308 7.77226 13.4632 7.75068 13.4956C7.68053 13.5927 7.61308 13.6898 7.54564 13.787C7.0735 14.4803 6.65263 15.2088 6.28571 15.9696C6.1724 16.2097 6.06178 16.4525 5.95926 16.698C5.89181 16.8545 5.82706 17.0137 5.76501 17.1728C5.69756 17.3482 5.63011 17.529 5.56806 17.707C5.24701 18.6243 5.0015 19.5767 4.84232 20.5587C4.79106 20.8852 4.7452 21.2089 4.71282 21.5408C4.65077 22.1235 4.62109 22.7144 4.62109 23.3133C4.62109 23.521 4.62379 23.7261 4.63189 23.9284C4.63728 24.066 4.64268 24.2009 4.65077 24.3358C4.65617 24.4033 4.65887 24.4707 4.66426 24.5382C4.66966 24.6164 4.67505 24.6946 4.68315 24.7675C4.68045 24.7405 4.67775 24.7162 4.67505 24.6919C4.65077 24.9374 4.63189 25.1857 4.62109 25.4339C5.01769 32.9584 10.7777 39.061 18.1484 39.9891H18.4749H20.6521C20.8248 39.9891 21.0163 40.0458 21.2295 39.8596C21.0244 39.7031 20.8572 39.5709 20.6818 39.4495C18.0378 37.6608 15.7905 35.4512 13.8453 32.9287C13.5917 32.6049 13.3246 32.47 12.9199 32.4754C11.3065 32.4916 9.69048 32.4727 8.07443 32.4889C7.65355 32.4916 7.47819 32.3675 7.48089 31.9224C7.49168 28.2397 7.49168 24.5597 7.48089 20.8798C7.47819 20.4373 7.63736 20.3024 8.06633 20.3078C9.51242 20.3294 10.9639 20.3348 12.4127 20.3051C12.8875 20.297 13.0629 20.4805 13.2005 20.9203C14.9109 26.3916 17.9299 30.9916 22.4867 34.5124C24.6531 36.1851 26.9544 37.4693 29.3853 38.3758C32.2882 39.4549 35.3746 39.9918 38.6391 39.9918H44.2859C44.9415 39.9918 44.963 39.9729 44.963 39.3227V33.0204C42.1464 35.1275 38.6553 36.3793 34.8701 36.3928ZM18.2294 39.9406C18.1484 39.9244 18.0648 39.9109 17.9839 39.892C17.911 39.8785 17.8355 39.8569 17.7626 39.8407C17.8355 39.8569 17.9083 39.8785 17.9839 39.892C18.0648 39.9082 18.1484 39.9244 18.2294 39.9406ZM16.8534 39.6087C16.8534 39.6087 16.8534 39.6087 16.8507 39.6087C16.8507 39.6087 16.8508 39.6087 16.8534 39.6087Z" fill="#E6E62E"/>
<path opacity="0.16" fill-rule="evenodd" clip-rule="evenodd" d="M18.853 0.00292969C16.406 1.05242 14.1776 2.46343 12.2458 4.16042C12.0516 4.33039 11.8627 4.50305 11.6739 4.67842C11.4877 4.85648 11.3043 5.03454 11.1235 5.2153C10.3978 5.93835 9.72599 6.70455 9.10817 7.51123V7.51393H1.01172C0.852542 7.51393 0.687969 7.50584 0.528792 7.51393C0.501813 7.51663 0.477531 7.51663 0.45325 7.51663C0.299469 7.51393 0.188854 7.47886 0.113312 7.40331C0.0755417 7.36554 0.0485625 7.31698 0.0269792 7.26032C0.0296771 7.25763 0.0296771 7.25763 0.0269792 7.25763C0.0107917 7.19827 0 7.13082 0 7.04989V7.04719C0.00539583 4.84839 0.00539583 2.65228 0.00269792 0.453482C0.00269792 0.410315 0.00539583 0.369846 0.0107917 0.332075C0.0134896 0.305096 0.0188854 0.280815 0.0269792 0.259232C0.0350729 0.232253 0.0458646 0.205273 0.0566562 0.18369V0.180992C0.0701458 0.159409 0.0836354 0.137826 0.102521 0.11894C0.172667 0.0433984 0.283281 0.00292969 0.43976 0.00292969H0.485625C0.644802 0.0110234 0.809375 0.00292969 0.968552 0.00292969H18.853Z" fill="#101221"/>
<path fill-rule="evenodd" clip-rule="evenodd" d="M18.853 0.000674479C18.8503 0.000674479 18.8503 0.0033724 18.8476 0.0033724C16.4033 1.05286 14.1749 2.46117 12.2458 4.16086C12.0516 4.33083 11.8627 4.5035 11.6739 4.67886C11.4877 4.85423 11.3016 5.03499 11.1235 5.21575C10.3978 5.93879 9.72599 6.705 9.10817 7.51167H1.01172C0.852542 7.51167 0.687969 7.50358 0.528792 7.51167C0.515302 7.51167 0.501812 7.51167 0.488323 7.51437H0.46674C0.307563 7.51437 0.191552 7.4793 0.113312 7.40376C0.0755417 7.36599 0.0485625 7.31742 0.0269792 7.26077C0.0296771 7.25807 0.0296771 7.25807 0.0269792 7.25807C0.0107917 7.19872 0 7.13127 0 7.05033V7.04763C0.00539583 4.84883 0.00539583 2.65273 0.00269792 0.453924C0.00269792 0.410758 0.00539583 0.370289 0.0107917 0.332518C0.0134896 0.305539 0.0188854 0.281258 0.0269792 0.259674C0.0350729 0.232695 0.0431667 0.205716 0.0539583 0.184133H0.0566562V0.181435C0.0701458 0.159852 0.0836354 0.138268 0.102521 0.119383C0.124104 0.0977995 0.148385 0.0789141 0.178062 0.0627266C0.191552 0.0546328 0.20774 0.0465391 0.226625 0.0411432C0.240115 0.0357474 0.253604 0.0303516 0.269792 0.0276536C0.288677 0.0222578 0.302167 0.0141641 0.32375 0.0114661C0.348031 0.0033724 0.37501 0.000674479 0.404687 0.0033724C0.428969 -0.00202344 0.455948 0.000674479 0.485625 0.000674479C0.644802 0.00876823 0.809375 0.000674479 0.968552 0.000674479H18.853Z" fill="#FFFFB2"/>
<path d="M13.8334 0.00292969L13.7363 0.00832552C13.7336 0.0110234 13.7336 0.0110234 13.7309 0.0110234C10.7335 1.90226 8.15697 4.47338 6.174 7.51663H5.55078V7.51393C7.67944 4.37355 10.4664 1.79165 13.6877 0.0056276C13.6904 0.0056276 13.6904 0.0056276 13.6931 0.00292969H13.8334Z" fill="#FFFF60"/>
<path opacity="0.39" d="M27.0133 11.9574C27.0133 12.238 27.0214 12.5159 27.0349 12.7911C27.0214 13.0797 27.0133 13.3684 27.0133 13.6598C27.0133 14.0726 27.0295 14.4799 27.0564 14.8846C27.0888 15.3379 27.1401 15.783 27.2075 16.2228C27.2669 16.6248 27.3424 17.0214 27.4315 17.4126C27.6527 18.3838 27.9549 19.3227 28.3326 20.2238C29.1284 22.1204 30.2616 23.8444 31.6564 25.3175C30.2373 24.5189 29.0286 23.464 27.9953 22.2176C25.7965 19.5601 24.747 16.4899 24.7713 13.042C24.7848 11.4772 24.774 9.91238 24.774 8.34758C24.774 7.51663 24.774 7.51663 23.9646 7.51663H6.17188C8.15484 4.47338 10.7314 1.90226 13.7287 0.0110234C13.7314 0.0110234 13.7314 0.0110234 13.7341 0.00832552L13.8313 0.00292969H18.8521C18.8494 0.00292969 18.8494 0.0056276 18.8467 0.0056276H32.6357C32.4739 0.140523 32.3147 0.278117 32.1582 0.421107C28.9989 3.25931 27.0133 7.37634 27.0133 11.9574Z" fill="#101221"/>
<path d="M8.60644 39.9941H7.64868C3.56673 35.4643 1.04688 29.2564 1.04688 22.4145C1.04688 22.2418 1.04957 22.0692 1.05227 21.8965C1.06576 22.4577 1.09544 23.0242 1.144 23.5962C1.69168 30.1089 4.48132 35.8555 8.60644 39.9941Z" fill="#E6E62E"/>
<path opacity="0.71" d="M44.9667 20.594C44.9667 24.738 44.9667 28.882 44.964 33.0233V33.5386C43.8768 35.9317 42.4469 38.1089 40.7472 39.9948H38.6401C35.3756 39.9948 32.2892 39.4579 29.3863 38.3787C26.9554 37.4722 24.6541 36.188 22.4877 34.5153C18.3653 31.329 15.5001 27.2606 13.7248 22.461C13.7221 22.4529 13.7195 22.4475 13.7168 22.4394C13.5333 21.9403 13.3606 21.4358 13.2015 20.9232C13.0639 20.4834 12.8885 20.3 12.4137 20.3081C10.9649 20.3377 9.5134 20.3323 8.06732 20.3108C7.63835 20.3054 7.47917 20.4403 7.48187 20.8827V21.1282C7.48457 21.4817 7.48457 21.8351 7.48457 22.1885C7.49266 25.4341 7.49266 28.677 7.48187 31.9253C7.47917 32.3704 7.65454 32.4945 8.07541 32.4918C8.16714 32.4918 8.25617 32.4891 8.3479 32.4918C9.87222 32.4784 11.3992 32.4945 12.9209 32.4784C13.1799 32.4757 13.3849 32.5296 13.563 32.6537C13.6628 32.7239 13.7545 32.8156 13.8463 32.9316C15.7915 35.4542 18.0388 37.6638 20.6828 39.4525C20.7421 39.4929 20.7988 39.5361 20.8581 39.5793C20.9741 39.6656 21.0956 39.76 21.2305 39.8626C21.0173 40.0487 20.8258 39.9921 20.6531 39.9921H15.9695C13.5144 39.9948 11.0593 39.9948 8.6069 39.9948C4.48179 35.8562 1.69214 30.1096 1.14446 23.5968C1.0959 23.0249 1.06622 22.4583 1.05273 21.8971C1.10399 19.0778 1.58692 16.3691 2.42867 13.8519C2.54468 13.5012 2.66879 13.1559 2.79829 12.8132C4.62208 12.8132 6.44317 12.8105 8.26427 12.8105C10.4469 12.8105 12.6322 12.8105 14.8148 12.8132C16.153 12.8105 17.4938 12.8132 18.832 12.8132H18.8833C19.0047 12.8132 19.1072 12.8132 19.1935 12.8213C19.5631 12.8483 19.6009 12.9778 19.5766 13.5282C19.4822 15.6595 19.7439 17.7181 20.4292 19.6794C20.6747 20.3917 20.9795 21.0932 21.3411 21.7811C23.5102 25.8874 26.7666 28.8524 30.9645 30.8003C32.8369 31.669 34.7956 32.2275 36.8595 32.4055C37.4773 32.4568 37.48 32.4703 37.48 31.8039V13.7683C37.48 12.8132 37.48 12.8105 38.4378 12.8105C40.3857 12.8105 42.3336 12.8105 44.2842 12.8132H44.3111C44.9209 12.8159 44.964 12.8645 44.964 13.4958C44.9667 15.8619 44.9667 18.228 44.9667 20.594Z" fill="#101221"/>
</svg>
