<svg width="13" height="12" viewBox="0 0 13 12" fill="none" xmlns="http://www.w3.org/2000/svg">
<path fill-rule="evenodd" clip-rule="evenodd" d="M0.0769234 6C0.0769234 6.22729 0.162008 6.44527 0.313463 6.60598C0.464918 6.7667 0.670336 6.85699 0.884525 6.85699L10.2414 6.85699L6.77356 10.5352C6.69847 10.6149 6.63891 10.7095 6.59827 10.8136C6.55763 10.9177 6.53672 11.0292 6.53672 11.1419C6.53672 11.2546 6.55763 11.3662 6.59827 11.4703C6.63891 11.5744 6.69847 11.669 6.77356 11.7487C6.84865 11.8284 6.93779 11.8916 7.03589 11.9347C7.134 11.9778 7.23915 12 7.34534 12C7.45153 12 7.55668 11.9778 7.65479 11.9347C7.75289 11.8916 7.84204 11.8284 7.91712 11.7487L12.7627 6.60675C12.8379 6.52714 12.8976 6.43257 12.9383 6.32845C12.979 6.22434 13 6.11272 13 6C13 5.88728 12.979 5.77566 12.9383 5.67154C12.8976 5.56743 12.8379 5.47286 12.7627 5.39325L7.91712 0.251323C7.76548 0.0904038 7.5598 0 7.34534 0C7.13088 0 6.92521 0.0904038 6.77356 0.251323C6.62191 0.412243 6.53672 0.630497 6.53672 0.858071C6.53672 1.08565 6.62191 1.3039 6.77356 1.46482L10.2414 5.14301L0.884525 5.14301C0.670336 5.14301 0.464918 5.2333 0.313463 5.39402C0.162008 5.55473 0.0769234 5.77271 0.0769234 6Z" fill="white"/>
</svg>
