<svg width="30" height="30" viewBox="0 0 30 30" fill="none" xmlns="http://www.w3.org/2000/svg">
<path fill-rule="evenodd" clip-rule="evenodd" d="M9.07692 15C9.07692 15.2273 9.16201 15.4453 9.31346 15.606C9.46492 15.7667 9.67034 15.857 9.88453 15.857H19.2414L15.7736 19.5352C15.6985 19.6149 15.6389 19.7095 15.5983 19.8136C15.5576 19.9177 15.5367 20.0292 15.5367 20.1419C15.5367 20.2546 15.5576 20.3662 15.5983 20.4703C15.6389 20.5744 15.6985 20.669 15.7736 20.7487C15.8486 20.8284 15.9378 20.8916 16.0359 20.9347C16.134 20.9778 16.2392 21 16.3453 21C16.4515 21 16.5567 20.9778 16.6548 20.9347C16.7529 20.8916 16.842 20.8284 16.9171 20.7487L21.7627 15.6067C21.8379 15.5271 21.8976 15.4326 21.9383 15.3285C21.979 15.2243 22 15.1127 22 15C22 14.8873 21.979 14.7757 21.9383 14.6715C21.8976 14.5674 21.8379 14.4729 21.7627 14.3933L16.9171 9.25132C16.7655 9.0904 16.5598 9 16.3453 9C16.1309 9 15.9252 9.0904 15.7736 9.25132C15.6219 9.41224 15.5367 9.6305 15.5367 9.85807C15.5367 10.0856 15.6219 10.3039 15.7736 10.4648L19.2414 14.143H9.88453C9.67034 14.143 9.46492 14.2333 9.31346 14.394C9.16201 14.5547 9.07692 14.7727 9.07692 15Z" fill="white"/>
<circle cx="15" cy="15" r="14.25" stroke="url(#paint0_linear_9363_1467)" stroke-width="1.5"/>
<defs>
<linearGradient id="paint0_linear_9363_1467" x1="0" y1="15" x2="30" y2="15" gradientUnits="userSpaceOnUse">
<stop offset="0.331822" stop-color="white" stop-opacity="0"/>
<stop offset="1" stop-color="white"/>
</linearGradient>
</defs>
</svg>
