<svg width="60" height="60" viewBox="0 0 60 60" fill="none" xmlns="http://www.w3.org/2000/svg">
<path d="M34.8638 42.8123C34.4115 44.9886 33.22 46.5058 31.0256 47.1778V51.8793C31.4004 51.9129 31.7286 51.9697 32.0595 51.9697C34.1711 51.9775 36.2802 51.9568 38.3918 51.9826C39.0302 51.9904 39.6971 52.0266 40.3045 52.2101C41.8191 52.6624 42.8581 53.6523 43.0959 55.2626C43.2458 56.2783 43.2975 57.3174 43.2768 58.3435C43.251 59.5247 42.7521 59.9563 41.5968 59.9951C41.3823 60.0028 41.1652 59.9951 40.9506 59.9951C33.5405 59.9951 26.1329 59.9951 18.7227 59.9951C18.4642 59.9951 18.2058 60.008 17.9473 59.9899C17.0866 59.9304 16.6369 59.6151 16.5231 58.7803C16.3319 57.3665 16.306 55.9191 16.8204 54.5751C17.5415 52.6857 19.1207 52.0007 21.0334 51.9775C23.145 51.9516 25.2541 51.9723 27.3657 51.9723C27.787 51.9723 28.2058 51.9723 28.7046 51.9723V47.3897C27.8878 46.8134 26.9264 46.3455 26.2647 45.6089C25.5978 44.8697 25.2282 43.8617 24.6053 42.7503C24.4399 42.7038 23.9876 42.59 23.543 42.4531C19.2189 41.122 16.5051 38.2944 15.6056 33.8255C15.4376 32.9907 15.3781 32.1196 15.3756 31.2667C15.3575 24.5466 15.3239 17.8265 15.3833 11.1065C15.4169 7.1261 17.1693 3.98833 20.4906 1.77588C22.3774 0.522323 24.5304 0.101025 26.748 0.0389935C28.8131 -0.0178687 30.8834 -0.00494552 32.9512 0.0338242C36.9961 0.108779 40.3097 1.63889 42.5816 5.08422C43.7705 6.88572 44.3624 8.90175 44.3675 11.0573C44.3856 17.992 44.4037 24.9291 44.365 31.8638C44.3365 37.1597 40.6276 41.4114 35.9907 42.4944C35.6573 42.5719 35.3316 42.6805 34.8612 42.8123H34.8638ZM41.1031 6.72806C39.3068 4.03486 37.1099 2.52284 34.1608 2.39619C31.496 2.28247 28.8235 2.39102 26.1535 2.35484C24.5459 2.33416 23.0882 2.79164 21.7519 3.61615C20.5552 4.35277 19.4852 5.24706 18.8493 6.73065C20.6095 6.73065 22.2404 6.71514 23.8713 6.73581C24.8716 6.74874 25.4634 7.19847 25.4789 7.87564C25.4945 8.54765 24.8845 9.0103 23.9101 9.05941C23.6516 9.07234 23.3931 9.062 23.1347 9.062C21.7131 9.062 20.2941 9.05683 18.8726 9.06717C18.5418 9.06717 18.2109 9.12144 17.8025 9.15763C17.7483 10.6128 17.2856 11.9826 17.7224 13.4637C19.5704 13.4637 21.3745 13.4559 23.1786 13.4688C23.6051 13.4714 24.0445 13.4843 24.4554 13.5851C25.1274 13.748 25.5255 14.2442 25.466 14.7379C25.404 15.2652 24.9543 15.6787 24.2978 15.7717C24.0005 15.8131 23.6955 15.795 23.3957 15.795C21.8036 15.795 20.2089 15.7898 18.6167 15.8002C18.2885 15.8002 17.9602 15.8622 17.6294 15.8958V20.1656C18.1334 20.1656 18.5573 20.1656 18.9811 20.1656C20.5319 20.1656 22.0801 20.1553 23.6309 20.1734C24.0109 20.1786 24.458 20.1708 24.7501 20.3595C25.068 20.5688 25.4273 21.0005 25.4273 21.3339C25.4273 21.6673 25.068 22.0964 24.7475 22.3057C24.4554 22.4944 24.0083 22.4892 23.6283 22.4918C21.9483 22.5099 20.2709 22.4918 18.5909 22.5047C18.2652 22.5047 17.9421 22.5771 17.5467 22.6236C17.5467 23.399 17.5441 24.084 17.5467 24.7663C17.5493 25.4409 17.5596 26.1129 17.5673 26.7823H42.1189V22.497C41.6252 22.497 41.2065 22.497 40.7852 22.497C39.1052 22.497 37.4252 22.5177 35.7477 22.4867C34.8431 22.4686 34.2823 21.9982 34.2642 21.3572C34.2461 20.7213 34.8224 20.2354 35.6961 20.1708C35.9519 20.1501 36.213 20.1656 36.4715 20.1656C38.0222 20.1656 39.5704 20.1708 41.1212 20.1605C41.4495 20.1605 41.7777 20.0984 42.1137 20.0648V15.795C41.6097 15.795 41.1884 15.795 40.7645 15.795C39.2138 15.795 37.6656 15.8053 36.1148 15.7872C35.7348 15.7821 35.2877 15.795 34.9956 15.6037C34.6751 15.397 34.3495 14.9808 34.3133 14.6267C34.2848 14.345 34.6234 13.8953 34.9155 13.7454C35.3135 13.5386 35.8201 13.4843 36.2828 13.474C37.9189 13.443 39.5549 13.4688 41.191 13.4559C41.5141 13.4559 41.8372 13.3809 42.1913 13.3344C42.1913 11.8741 42.4136 10.4991 41.8113 9.062C41.4081 9.062 40.9868 9.062 40.5655 9.062C39.0587 9.062 37.5518 9.08267 36.045 9.04649C35.6366 9.03615 35.1714 8.95086 34.8354 8.73633C34.1401 8.29177 34.1298 7.49053 34.8302 7.05631C35.1998 6.82628 35.7141 6.75132 36.1665 6.7384C37.7095 6.70221 39.2525 6.72548 41.1057 6.72548L41.1031 6.72806ZM42.1525 29.0982H17.6604C16.6886 36.5678 21.5994 40.3 25.2851 40.2484C26.2363 38.4313 27.7069 37.2372 29.8444 37.2217C32.0336 37.2062 33.5301 38.4313 34.52 40.3026C34.7888 40.3026 35.0034 40.3181 35.2127 40.2975C35.4247 40.2768 35.6418 40.2432 35.8434 40.1786C37.7379 39.5686 39.3146 38.5192 40.5035 36.8909C42.2145 34.5492 42.3877 31.9051 42.1525 29.0982ZM18.7951 57.4724C19.0483 57.5474 19.1672 57.6146 19.2887 57.6146C26.2156 57.6223 33.1424 57.6275 40.0719 57.6275C40.2838 57.6275 40.4983 57.5913 40.7103 57.5655C40.7465 57.5603 40.7801 57.5215 40.8111 57.4931C40.8421 57.4647 40.8705 57.4311 40.961 57.3355C40.961 56.8857 40.9868 56.3714 40.9558 55.8596C40.8964 54.8878 40.3949 54.3838 39.4257 54.2959C39.1259 54.2701 38.8235 54.2804 38.5237 54.2804C32.7573 54.2804 26.991 54.2804 21.2272 54.2804C20.8834 54.2804 20.5371 54.2675 20.1959 54.3062C19.3766 54.4019 18.8726 54.9033 18.808 55.7304C18.764 56.2835 18.8002 56.8444 18.8002 57.4776L18.7951 57.4724ZM29.9116 44.9679C31.297 45.1075 32.6901 43.7144 32.6669 42.1843C32.6436 40.7213 31.2866 39.3799 29.8315 39.4161C28.3453 39.4523 27.0582 40.8015 27.0763 42.267C27.0944 43.6808 28.3867 45.123 29.9116 44.9705V44.9679Z" fill="#101221"/>
<path d="M54.6754 16.1515C54.6754 19.16 54.6806 22.1685 54.6677 25.177C54.6677 25.5983 54.6237 26.0377 54.4997 26.4384C54.3446 26.9372 53.9181 27.175 53.3986 27.1646C52.9049 27.1543 52.6103 26.826 52.481 26.3892C52.3854 26.0662 52.3466 25.7172 52.3441 25.3786C52.3363 19.2324 52.3337 13.0887 52.3492 6.94236C52.3492 6.52623 52.4087 6.05324 52.6154 5.71724C52.7834 5.44326 53.2228 5.1848 53.5356 5.19255C53.8457 5.20031 54.2825 5.47945 54.4247 5.76118C54.6237 6.15921 54.6599 6.66839 54.6625 7.12845C54.6806 10.137 54.6728 13.1455 54.6728 16.154L54.6754 16.1515Z" fill="#101221"/>
<path d="M7.40527 16.1642C7.40527 19.1366 7.41044 22.1063 7.4001 25.0787C7.4001 25.5051 7.382 25.9445 7.27603 26.3529C7.14939 26.844 6.81338 27.2033 6.2551 27.1671C5.74592 27.1335 5.35047 26.8647 5.20573 26.3529C5.12302 26.0686 5.07908 25.7636 5.07908 25.4664C5.07133 19.2658 5.06875 13.0652 5.07908 6.86466C5.07908 5.77653 5.52106 5.18464 6.2551 5.15621C6.95554 5.12778 7.39751 5.74551 7.40268 6.86466C7.41561 9.96624 7.40785 13.0652 7.40785 16.1668L7.40527 16.1642Z" fill="#101221"/>
<path d="M10.204 16.0995C10.204 15.151 10.1601 14.2024 10.2247 13.259C10.2506 12.8661 10.416 12.3983 10.6822 12.1243C11.2172 11.5712 12.0753 11.8219 12.3286 12.5741C12.463 12.9747 12.5199 13.4167 12.5251 13.8405C12.5483 15.3913 12.5406 16.9421 12.5276 18.4929C12.5251 18.8341 12.4785 19.1804 12.3958 19.5113C12.2149 20.2375 11.8427 20.5296 11.2482 20.4676C10.6848 20.4107 10.2687 19.9972 10.2221 19.3303C10.173 18.6015 10.204 17.8674 10.2015 17.1334C10.2015 16.7896 10.2015 16.4433 10.2015 16.0995H10.204Z" fill="#101221"/>
<path d="M57.5082 16.1306C57.5082 15.182 57.4876 14.2335 57.5212 13.2875C57.5315 12.9592 57.6039 12.5845 57.7796 12.3183C58.2655 11.592 59.3123 11.7264 59.6277 12.5431C59.7491 12.8584 59.8241 13.2125 59.8267 13.5511C59.8448 15.3164 59.8396 17.0843 59.8267 18.8497C59.8267 19.103 59.7569 19.3614 59.6819 19.607C59.4881 20.2531 59.1443 20.5116 58.586 20.4702C58.0588 20.4315 57.6504 20.067 57.5418 19.4906C57.4953 19.2399 57.5108 18.9763 57.5082 18.7178C57.5057 17.8571 57.5082 16.9939 57.5082 16.1332V16.1306Z" fill="#101221"/>
<path d="M49.5416 16.2628C49.5416 17.1674 49.5545 18.0694 49.5338 18.9741C49.5287 19.2687 49.4925 19.584 49.3762 19.8477C49.1875 20.2715 48.8205 20.4938 48.3397 20.4731C47.8538 20.4525 47.5178 20.2121 47.4015 19.7391C47.3085 19.3669 47.2258 18.9792 47.2206 18.5993C47.1999 16.9658 47.1999 15.3297 47.2206 13.6962C47.2258 13.3163 47.2542 12.8872 47.4299 12.5693C47.5928 12.2746 47.9365 11.9955 48.2596 11.8921C48.7068 11.75 49.1255 11.9878 49.3012 12.4401C49.4382 12.7916 49.5209 13.1819 49.5338 13.5566C49.5674 14.4587 49.5442 15.3633 49.5442 16.2679L49.5416 16.2628Z" fill="#101221"/>
<path d="M2.23772 16.2962C2.23772 17.1129 2.24806 17.9297 2.23255 18.7438C2.22738 19.0411 2.20929 19.3512 2.12141 19.6304C1.93532 20.2326 1.52436 20.5117 0.981584 20.4678C0.4233 20.4213 0.149328 20.0827 0.045942 19.5657C0.038188 19.5244 0.0149262 19.483 0.0149262 19.4417C0.0149262 17.2577 -0.0367667 15.0736 0.0407727 12.8922C0.0666192 12.1245 0.518933 11.8402 1.11082 11.8609C1.7027 11.8816 2.1576 12.3081 2.20412 13.0757C2.26615 14.1457 2.21963 15.2235 2.21963 16.2962H2.23772Z" fill="#101221"/>
<path d="M29.8783 32.2925C30.9096 32.2925 31.9383 32.2925 32.9696 32.2925C33.228 32.2925 33.4891 32.2744 33.7424 32.3106C34.3291 32.3933 34.74 32.781 34.7995 33.2747C34.8564 33.7477 34.5384 34.2413 33.9724 34.4378C33.6545 34.5489 33.303 34.6135 32.967 34.6161C30.907 34.6316 28.8445 34.6316 26.7845 34.6161C26.4459 34.6161 26.0996 34.5515 25.7739 34.461C25.1303 34.2827 24.877 33.9338 24.9184 33.3677C24.9572 32.8405 25.3164 32.4347 25.8902 32.3235C26.1409 32.2744 26.402 32.2899 26.6604 32.2899C27.7331 32.2873 28.8057 32.2899 29.8809 32.2899L29.8783 32.2925Z" fill="#101221"/>
</svg>
