<svg width="60" height="64" viewBox="0 0 60 64" fill="none" xmlns="http://www.w3.org/2000/svg">
<path d="M15.7595 3.66758L15.4471 3.19893V3.85953V47.1668V47.3538L15.6337 47.3663C15.7589 47.3747 15.8863 47.3857 16.0149 47.3967C16.2801 47.4195 16.5499 47.4427 16.8132 47.4446M15.7595 3.66758L22.0482 47.2661L22.0457 47.466C21.0593 47.4539 20.0764 47.4529 19.0923 47.452C18.3341 47.4512 17.5752 47.4504 16.8132 47.4446M15.7595 3.66758H15.7599H15.7626H15.7653H15.768H15.7706H15.7733H15.7759H15.7786H15.7813H15.7839H15.7866H15.7892H15.7918H15.7945H15.7971H15.7997H15.8024H15.805H15.8076H15.8102H15.8128H15.8154H15.818H15.8206H15.8232H15.8258H15.8284H15.831H15.8336H15.8362H15.8387H15.8413H15.8439H15.8464H15.849H15.8516H15.8541H15.8567H15.8592H15.8618H15.8643H15.8668H15.8694H15.8719H15.8744H15.877H15.8795H15.882H15.8845H15.887H15.8895H15.892H15.8945H15.897H15.8995H15.902H15.9045H15.907H15.9095H15.9119H15.9144H15.9169H15.9194H15.9218H15.9243H15.9267H15.9292H15.9317H15.9341H15.9366H15.939H15.9414H15.9439H15.9463H15.9487H15.9512H15.9536H15.956H15.9584H15.9608H15.9633H15.9657H15.9681H15.9705H15.9729H15.9753H15.9777H15.9801H15.9824H15.9848H15.9872H15.9896H15.992H15.9943H15.9967H15.9991H16.0014H16.0038H16.0062H16.0085H16.0109H16.0132H16.0156H16.0179H16.0203H16.0226H16.0249H16.0273H16.0296H16.0319H16.0342H16.0366H16.0389H16.0412H16.0435H16.0458H16.0481H16.0504H16.0527H16.055H16.0573H16.0596H16.0619H16.0642H16.0665H16.0688H16.071H16.0733H16.0756H16.0779H16.0801H16.0824H16.0847H16.0869H16.0892H16.0914H16.0937H16.0959H16.0982H16.1004H16.1027H16.1049H16.1071H16.1094H16.1116H16.1138H16.1161H16.1183H16.1205H16.1227H16.1249H16.1272H16.1294H16.1316H16.1338H16.136H16.1382H16.1404H16.1426H16.1448H16.147H16.1492H16.1514H16.1535H16.1557H16.1579H16.1601H16.1622H16.1644H16.1666H16.1688H16.1709H16.1731H16.1752H16.1774H16.1796H16.1817H16.1839H16.186H16.1882H16.1903H16.1924H16.1946H16.1967H16.1989H16.201H16.2031H16.2053H16.2074H16.2095H16.2116H16.2137H16.2159H16.218H16.2201H16.2222H16.2243H16.2264H16.2285H16.2306H16.2327H16.2348H16.2369H16.239H16.2411H16.2432H16.2453H16.2474H16.2494H16.2515H16.2536H16.2557H16.2578H16.2598H16.2619H16.264H16.266H16.2681H16.2702H16.2722H16.2743H16.2763H16.2784H16.2805H16.2825H16.2846H16.2866H16.2886H16.2907H16.2927H16.2948H16.2968H16.2988H16.3009H16.3029H16.3049H16.307H16.309H16.311H16.313H16.3151H16.3171H16.3191H16.3211H16.3231H16.3251H16.3272H16.3292H16.3312H16.3332H16.3352H16.3372H16.3392H16.3412H16.3432H16.3452H16.3472H16.3492H16.3511H16.3531H16.3551H16.3571H16.3591H16.3611H16.363H16.365H16.367H16.369H16.3709H16.3729H16.3749H16.3769H16.3788H16.3808H16.3828H16.3847H16.3867H16.3886H16.3906H16.3925H16.3945H16.3965H16.3984H16.4004H16.4023H16.4043H16.4062H16.4081H16.4101H16.412H16.414H16.4159H16.4178H16.4198H16.4217H16.4236H16.4256H16.4275H16.4294H16.4314H16.4333H16.4352H16.4371H16.4391H16.441H16.4429H16.4448H16.4467H16.4486H16.4506H16.4525H16.4544H16.4563H16.4582H16.4601H16.462H16.4639H16.4658H16.4677H16.4696H16.4715H16.4734H16.4753H16.4772H16.4791H16.481H16.4829H16.4848H16.4867H16.4886H16.4905H16.4924H16.4942H16.4961H16.498H16.4999H16.5018H16.5037H16.5055H16.5074H16.5093H16.5112H16.5131H16.5149H16.5168H16.5187H16.5205H16.5224H16.5243H16.5262H16.528H16.5299H16.5318H16.5336H16.5355H16.5373H16.5392H16.5411H16.5429H16.5448H16.5466H16.5485H16.5504H16.5522H16.5541H16.5559H16.5578H16.5596H16.5615H16.5633H16.5652H16.567H16.5689H16.5707H16.5726H16.5744H16.5763H16.5781H16.58H16.5818H16.5837H16.5855H16.5873H16.5892H16.591H16.5929H16.5947H16.5965H16.5984H16.6002H16.602H16.6039H16.6057H16.6075H16.6094H16.6112H16.613H16.6149H16.6167H16.6185H16.6204H16.6222H16.624H16.6258H16.6277H16.6295H16.6313H16.6332H16.635H16.6368H16.6386H16.6404H16.6423H16.6441H16.6459H16.6477H16.6496H16.6514H16.6532H16.655H16.6568H16.6587H16.6605H16.6623H16.6641H16.6659H16.6678H16.6696H16.6714H16.6732H16.675H16.6768H16.6786H16.6805H16.6823H16.6841H16.6859H16.6877H16.6895H16.6913H16.6932H16.695H16.6968H16.6986H16.7004H16.7022H16.704H16.7058H16.7077H16.7095H16.7113H16.7131H16.7149H16.7167H16.7185H16.7203H16.7221H16.7239H16.7258H16.7276H16.7294H16.7312H16.733H16.7348H16.7366H16.7384H16.7402H16.742H16.7438H16.7456H16.7475H16.7493H16.7511H16.7529C20.242 3.66758 23.7308 3.66729 27.2196 3.66699C34.1968 3.66639 41.1737 3.66579 48.1517 3.66758L48.1532 3.66758C48.198 3.66793 48.2434 3.66808 48.2893 3.66823C48.5996 3.66924 48.9333 3.67034 49.2562 3.72995C50.6058 3.97823 51.6126 4.99854 51.7827 6.31649C51.8241 6.63633 51.82 6.96805 51.8161 7.28217C51.815 7.37219 51.8139 7.46076 51.8139 7.5472V7.58939V7.63158V7.67377V7.71597V7.75816V7.80035V7.84254V7.88474V7.92693V7.96912V8.01131V8.05351V8.0957V8.13789V8.18009V8.22228V8.26447V8.30666V8.34886V8.39105V8.43324V8.47543V8.51763V8.55982V8.60201V8.6442V8.6864V8.72859V8.77078V8.81297V8.85517V8.89736V8.93955V8.98174V9.02394V9.06613V9.10832V9.15051V9.19271V9.2349V9.27709V9.31929V9.36148V9.40367V9.44586V9.48806V9.53025V9.57244V9.61463V9.65683V9.69902V9.74121V9.7834V9.8256V9.86779V9.90998V9.95217V9.99437V10.0366V10.0788V10.1209V10.1631V10.2053V10.2475V10.2897V10.3319V10.3741V10.4163V10.4585V10.5007V10.5429V10.5851V10.6273V10.6694V10.7116V10.7538V10.796V10.8382V10.8804V10.9226V10.9648V11.007V11.0492V11.0914V11.1336V11.1758V11.218V11.2601V11.3023V11.3445V11.3867V11.4289V11.4711V11.5133V11.5555V11.5977V11.6399V11.6821V11.7243V11.7665V11.8086V11.8508V11.893V11.9352V11.9774V12.0196V12.0618V12.104V12.1462V12.1884V12.2306V12.2728V12.315V12.3572V12.3993V12.4415V12.4837V12.5259V12.5681V12.6103V12.6525V12.6947V12.7369V12.7791V12.8213V12.8635V12.9057V12.9479V12.99V13.0322V13.0744V13.1166V13.1588V13.201V13.2432V13.2854V13.3276V13.3698V13.412V13.4542V13.4964V13.5385V13.5807V13.6229V13.6651V13.7073V13.7495V13.7917V13.8339V13.8761V13.9183V13.9605V14.0027V14.0449V14.0871V14.1292V14.1714V14.2136V14.2558V14.298V14.3402V14.3824V14.4246V14.4668V14.509V14.5512V14.5934V14.6356V14.6777V14.7199V14.7621V14.8043V14.8465V14.8887V14.9309V14.9731V15.0153V15.0575V15.0997V15.1419V15.1841V15.2263V15.2684V15.3106V15.3528V15.395V15.4372V15.4794V15.5216V15.5638V15.606V15.6482V15.6904V15.7326V15.7748V15.8169V15.8591V15.9013V15.9435V15.9857V16.0279V16.0701V16.1123V16.1545V16.1967V16.2389V16.2811V16.3233V16.3655V16.4076V16.4498V16.492V16.5342V16.5764V16.6186V16.6608V16.703V16.7452V16.7874V16.8296V16.8718V16.914V16.9561V16.9983V17.0405V17.0827V17.1249V17.1671V17.2093V17.2515V17.2937V17.3359V17.3781V17.4203V17.4625V17.5047V17.5468V17.589V17.6312V17.6734V17.7156V17.7578V17.8V17.8422V17.8844V17.9266V17.9688V18.011V18.0532V18.0953V18.1375V18.1797V18.2219V18.2641V18.3063V18.3485V18.3907V18.4329V18.4751V18.5173V18.5595V18.6017V18.6439V18.686V18.7282V18.7704V18.8126V18.8548V18.897V18.9392V18.9814V19.0236V19.0658V19.108V19.1502V19.1924V19.2345V19.2767V19.3189V19.3611V19.4033V19.4455V19.4877V19.5299V19.5721V19.6143V19.6565V19.6987V19.7409V19.7831V19.8252V19.8674V19.9096V19.9518V19.994V20.0362V20.0784V20.1206V20.1628V20.205V20.2472V20.2894V20.3316V20.3737V20.4159V20.4581V20.5003V20.5425V20.5847V20.6269V20.6691V20.7113V20.7535V20.7957V20.8379V20.8801V20.9223V20.9644V21.0066V21.0488V21.091V21.1332V21.1754V21.2176V21.2598V21.302V21.3442V21.3864V21.4286V21.4708V21.513V21.5551V21.5973V21.6395V21.6817V21.7239V21.7661V21.8083V21.8505V21.8927V21.9349V21.9771V22.0193V22.0615V22.1036V22.1458V22.188V22.2302V22.2724V22.3146V22.3568V22.399V22.4412V22.4834V22.5256V22.5678V22.61V22.6522V22.6943V22.7365V22.7787V22.8209V22.8631V22.9053V22.9475V22.9897V23.0319V23.0741V23.1163V23.1585V23.2007V23.2428V23.285V23.3272V23.3694V23.4116V23.4538V23.496V23.5382V23.5804V23.6226V23.6648V23.707V23.7492V23.7914V23.8335V23.8757V23.9179V23.9601V24.0023V24.0445V24.0867V24.1289V24.1711V24.2133V24.2555V24.2977V24.3399V24.382V24.4242V24.4664V24.5086V24.5508V24.593V24.6352V24.6774V24.7196V24.7618V24.804V24.8462V24.8884V24.9306V24.9727V25.0149V25.0571V25.0993V25.1415V25.1837V25.2259V25.2681V25.3103V25.3525V25.3947V25.4369V25.4791V25.5212V25.5634V25.6056V25.6478V25.69V25.7322V25.7744V25.8166V25.8588V25.901V25.9432V25.9854V26.0276V26.0698V26.1119V26.1541V26.1963V26.2385V26.2807V26.3229V26.3651V26.4073V26.4495V26.4917V26.5339V26.5761V26.6183V26.6604V26.7026V26.7448V26.787V26.8292V26.8714V26.9136V26.9558V26.998V27.0402V27.0824V27.1246V27.1668V27.209V27.2511V27.2933V27.3355V27.3777V27.4199V27.4621V27.5043V27.5465V27.5887V27.6309V27.6731V27.7153V27.7575V27.7996V27.8418V27.884V27.9262V27.9684V28.0106V28.0528V28.095V28.1372V28.1794V28.2216V28.2638V28.306V28.3482V28.3903V28.4325V28.4747V28.5169V28.5591V28.6013V28.6435V28.6857V28.7279V28.7701V28.8123V28.8545V28.8967V28.9389V28.981V29.0232V29.0654V29.1076V29.1498C51.8139 29.2507 51.8124 29.3493 51.8109 29.446C51.8063 29.7522 51.8019 30.0396 51.8464 30.324L51.8465 30.3244C51.9871 31.2362 52.7237 31.8438 53.5961 31.827C54.0331 31.8184 54.4037 31.6772 54.6826 31.4327C54.9616 31.1882 55.1604 30.8302 55.2357 30.3683L55.2358 30.3674C55.3088 29.9323 55.3085 29.4792 55.3083 29.0118C55.3083 28.9845 55.3082 28.9571 55.3082 28.9297V28.9296C55.31 24.6962 55.3094 20.4616 55.3088 16.2274C55.3085 14.1104 55.3082 11.9935 55.3082 9.87681C55.3082 8.80425 55.3002 7.73187 55.2814 6.65964V6.65957C55.2138 2.70995 51.8595 0.181809 48.5151 0.200098L48.515 0.200099C39.3226 0.246375 30.1298 0.241588 20.9377 0.236801C16.8015 0.234647 12.6654 0.232493 8.52957 0.234992L8.52945 0.234992C7.9124 0.234992 7.29232 0.267069 6.7057 0.391661L6.70552 0.391699C2.68372 1.24211 0.186926 4.90852 0.200051 8.63078C0.239084 18.9211 0.232377 29.2106 0.225671 39.4985C0.222233 44.7738 0.218795 50.0487 0.221524 55.323L0.221524 55.3231C0.221524 56.0702 0.26958 56.8275 0.443809 57.5322L0.443843 57.5324C1.35866 61.2441 4.50544 63.7364 8.34046 63.7652C11.4576 63.7895 14.5729 63.7839 17.6898 63.7782C19.0456 63.7757 20.4017 63.7733 21.7583 63.7733C21.7946 63.7733 21.8303 63.7734 21.8657 63.7735C22.1017 63.7743 22.3187 63.7751 22.5263 63.7387C23.3413 63.5943 23.9622 62.8424 23.9551 62.0453C23.9479 61.2409 23.3241 60.5037 22.5019 60.3814L22.5017 60.3814C22.2076 60.3374 21.9085 60.3407 21.5919 60.3441C21.5047 60.3451 21.4163 60.346 21.3262 60.346H21.3013H21.2764H21.2515H21.2266H21.2017H21.1768H21.1519H21.127H21.102H21.0771H21.0522H21.0273H21.0024H20.9775H20.9526H20.9277H20.9028H20.8779H20.853H20.828H20.8031H20.7782H20.7533H20.7284H20.7035H20.6786H20.6537H20.6288H20.6039H20.579H20.5541H20.5291H20.5042H20.4793H20.4544H20.4295H20.4046H20.3797H20.3548H20.3299H20.305H20.2801H20.2552H20.2303H20.2054H20.1804H20.1555H20.1306H20.1057H20.0808H20.0559H20.031H20.0061H19.9812H19.9563H19.9314H19.9065H19.8816H19.8567H19.8317H19.8068H19.7819H19.757H19.7321H19.7072H19.6823H19.6574H19.6325H19.6076H19.5827H19.5578H19.5329H19.508H19.4831H19.4582H19.4333H19.4083H19.3834H19.3585H19.3336H19.3087H19.2838H19.2589H19.234H19.2091H19.1842H19.1593H19.1344H19.1095H19.0846H19.0597H19.0348H19.0099H18.985H18.9601H18.9352H18.9102H18.8853H18.8604H18.8355H18.8106H18.7857H18.7608H18.7359H18.711H18.6861H18.6612H18.6363H18.6114H18.5865H18.5616H18.5367H18.5118H18.4869H18.462H18.4371H18.4122H18.3873H18.3624H18.3375H18.3126H18.2877H18.2628H18.2378H18.2129H18.188H18.1631H18.1382H18.1133H18.0884H18.0635H18.0386H18.0137H17.9888H17.9639H17.939H17.9141H17.8892H17.8643H17.8394H17.8145H17.7896H17.7647H17.7398H17.7149H17.69H17.6651H17.6402H17.6153H17.5904H17.5655H17.5406H17.5157H17.4908H17.4659H17.441H17.4161H17.3912H17.3663H17.3414H17.3165H17.2916H17.2667H17.2418H17.2169H17.192H17.1671H17.1422H17.1173H17.0923H17.0674H17.0425H17.0176H16.9927H16.9678H16.9429H16.918H16.8931H16.8682H16.8433H16.8184H16.7935H16.7686H16.7437H16.7188H16.6939H16.669H16.6441H16.6192H16.5943H16.5694H16.5445H16.5196H16.4947H16.4698H16.4449H16.42H16.3951H16.3702H16.3453H16.3204H16.2955H16.2706H16.2457H16.2208H16.1959H16.171H16.1461H16.1212H16.0963H16.0714H16.0465H16.0216H15.9967H15.9718H15.9469H15.922H15.8971H15.8722H15.8473H15.8224H15.7975H15.7726H15.7477H15.7228H15.6979H15.673H15.6481H15.6232H15.5984H15.5735H15.5486H15.5237H15.4988H15.4739H15.449H15.4241H15.3992H15.3743H15.3494H15.3245H15.2996H15.2747H15.2498H15.2249H15.2H15.1751H15.1502H15.1253H15.1004H15.0755H15.0506H15.0257H15.0008H14.9759H14.951H14.9261H14.9012H14.8763H14.8514H14.8265H14.8016H14.7767H14.7518H14.7269H14.702H14.6771H14.6522H14.6273H14.6024H14.5775H14.5526H14.5277H14.5028H14.4779H14.453H14.4281H14.4032H14.3783H14.3534H14.3285H14.3037H14.2788H14.2539H14.229H14.2041H14.1792H14.1543H14.1294H14.1045H14.0796H14.0547H14.0298H14.0049H13.98H13.9551H13.9302H13.9053H13.8804H13.8555H13.8306H13.8057H13.7808H13.7559H13.731H13.7061H13.6812H13.6563H13.6314H13.6065H13.5816H13.5567H13.5318H13.507H13.4821H13.4572H13.4323H13.4074H13.3825H13.3576H13.3327H13.3078H13.2829H13.258H13.2331H13.2082H13.1833H13.1584H13.1335H13.1086H13.0837H13.0588H13.0339H13.009H12.9841H12.9592H12.9343H12.9094H12.8845H12.8597H12.8348H12.8099H12.785H12.7601H12.7352H12.7103H12.6854H12.6605H12.6356H12.6107H12.5858H12.5609H12.536H12.5111H12.4862H12.4613H12.4364H12.4115H12.3866H12.3617H12.3368H12.3119H12.2871H12.2622H12.2373H12.2124H12.1875H12.1626H12.1377H12.1128H12.0879H12.063H12.0381H12.0132H11.9883H11.9634H11.9385H11.9136H11.8887H11.8638H11.8389H11.814H11.7891H11.7642H11.7394H11.7145H11.6896H11.6647H11.6398H11.6149H11.59H11.5651H11.5402H11.5153H11.4904H11.4655H11.4406H11.4157H11.3908H11.3659H11.341H11.3161H11.2912H11.2664H11.2415H11.2166H11.1917H11.1668H11.1419H11.117H11.0921H11.0672H11.0423H11.0174H10.9925H10.9676H10.9427H10.9178H10.8929H10.868H10.8431H10.8182H10.7934H10.7685H10.7436H10.7187H10.6938H10.6689H10.644H10.6191H10.5942H10.5693H10.5444H10.5195H10.4946H10.4697H10.4448H10.4199H10.395H10.3701H10.3453H10.3204H10.2955H10.2706H10.2457H10.2208H10.1959H10.171H10.1461H10.1212H10.0963H10.0714H10.0465H10.0216H9.99673H9.97184H9.94694H9.92205H9.89715H9.87226H9.84736H9.82247H9.79757H9.77268H9.74779H9.72289H9.698H9.6731H9.64821H9.62331H9.59842H9.57353H9.54863H9.52374H9.49884H9.47395H9.44906H9.42416H9.39927H9.37437H9.34948H9.32458H9.29969H9.2748H9.2499H9.22501H9.20011H9.17522H9.15033H9.12543H9.10054H9.07564H9.05075H9.02586H9.00096H8.97607H8.95117H8.92628H8.90138H8.87649H8.8516H8.8267H8.80181H8.77691H8.75202H8.72713H8.70223H8.67734H8.65244H8.62755H8.60265H8.57792M15.7595 3.66758L8.57776 60.146M16.8132 47.4446C16.8132 47.4446 16.8131 47.4446 16.8131 47.4446L16.8146 47.2446L16.8132 47.4446ZM8.57776 60.146V60.346H8.57792M8.57776 60.146L8.57792 60.346M8.57776 60.146L8.57792 60.346M55.4331 30.4005C55.5089 29.9483 55.5086 29.4795 55.5083 29.0164C55.5083 28.9875 55.5082 28.9586 55.5082 28.9297L55.4331 30.4005ZM55.4331 30.4005C55.2694 31.4043 54.5581 32.0082 53.6 32.0269L55.4331 30.4005ZM11.7783 47.357L11.7197 47.4156L11.7783 47.357ZM11.7783 47.357V47.2741M11.7783 47.357V47.2741M11.7783 47.2741V3.85953V3.65953M11.7783 47.2741V3.65953M11.7783 3.65953H11.5783M11.7783 3.65953H11.5783M11.5783 3.65953C11.2902 3.65953 11.0077 3.65879 10.7292 3.65805C10.0918 3.65637 9.4754 3.65475 8.85982 3.66223L8.85957 3.66223M11.5783 3.65953L8.85957 3.66223M8.85957 3.66223L8.8494 3.66237C8.45582 3.66765 8.03387 3.67331 7.62539 3.75158C5.37473 4.17119 3.83822 5.90814 3.67342 8.19575L3.67338 8.19636M8.85957 3.66223L3.67338 8.19636M3.67338 8.19636C3.65594 8.44914 3.65737 8.70517 3.65875 8.95276M3.67338 8.19636L3.65875 8.95276M3.85948 48.251H3.65948V48.5089L3.9092 48.4448L3.85948 48.251ZM3.85948 48.251C4.26757 48.1463 4.66639 48.0316 5.05992 47.9183C5.9372 47.6659 6.78824 47.421 7.65719 47.3117L3.85874 8.94756C3.85911 9.01485 3.85948 9.08216 3.85948 9.14948V46.9655V48.251ZM3.65875 8.95276C3.65912 9.01901 3.65948 9.08466 3.65948 9.14948M3.65875 8.95276L3.65948 9.14948M3.65948 9.14948V9.22334M3.65948 9.14948V9.22334M3.65948 9.22334V9.29721M3.65948 9.22334V9.29721M3.65948 9.29721V9.37107M3.65948 9.29721V9.37107M3.65948 9.37107V9.44493M3.65948 9.37107V9.44493M3.65948 9.44493V9.5188M3.65948 9.44493V9.5188M3.65948 9.5188V9.59266M3.65948 9.5188V9.59266M3.65948 9.59266V9.66653M3.65948 9.59266V9.66653M3.65948 9.66653V9.74039M3.65948 9.66653V9.74039M3.65948 9.74039V9.81426M3.65948 9.74039V9.81426M3.65948 9.81426V9.88812M3.65948 9.81426V9.88812M3.65948 9.88812V9.96198M3.65948 9.88812V9.96198M3.65948 9.96198V10.0358M3.65948 9.96198V10.0358M3.65948 10.0358V10.1097M3.65948 10.0358V10.1097M3.65948 10.1097V10.1836M3.65948 10.1097V10.1836M3.65948 10.1836V10.2574M3.65948 10.1836V10.2574M3.65948 10.2574V10.3313M3.65948 10.2574V10.3313M3.65948 10.3313V10.4052M3.65948 10.3313V10.4052M3.65948 10.4052V10.479M3.65948 10.4052V10.479M3.65948 10.479V10.5529M3.65948 10.479V10.5529M3.65948 10.5529V10.6268M3.65948 10.5529V10.6268M3.65948 10.6268V10.7006M3.65948 10.6268V10.7006M3.65948 10.7006V10.7745M3.65948 10.7006V10.7745M3.65948 10.7745V10.8483M3.65948 10.7745V10.8483M3.65948 10.8483V10.9222M3.65948 10.8483V10.9222M3.65948 10.9222V10.9961M3.65948 10.9222V10.9961M3.65948 10.9961V11.0699M3.65948 10.9961V11.0699M3.65948 11.0699V11.1438M3.65948 11.0699V11.1438M3.65948 11.1438V11.2177M3.65948 11.1438V11.2177M3.65948 11.2177V11.2915M3.65948 11.2177V11.2915M3.65948 11.2915V11.3654M3.65948 11.2915V11.3654M3.65948 11.3654V11.4393M3.65948 11.3654V11.4393M3.65948 11.4393V11.5131M3.65948 11.4393V11.5131M3.65948 11.5131V11.587M3.65948 11.5131V11.587M3.65948 11.587V11.6608M3.65948 11.587V11.6608M3.65948 11.6608V11.7347M3.65948 11.6608V11.7347M3.65948 11.7347V11.8086M3.65948 11.7347V11.8086M3.65948 11.8086V11.8824M3.65948 11.8086V11.8824M3.65948 11.8824V11.9563M3.65948 11.8824V11.9563M3.65948 11.9563V12.0302M3.65948 11.9563V12.0302M3.65948 12.0302V12.104M3.65948 12.0302V12.104M3.65948 12.104V12.1779M3.65948 12.104V12.1779M3.65948 12.1779V12.2517M3.65948 12.1779V12.2517M3.65948 12.2517V12.3256M3.65948 12.2517V12.3256M3.65948 12.3256V12.3995M3.65948 12.3256V12.3995M3.65948 12.3995V12.4733M3.65948 12.3995V12.4733M3.65948 12.4733V12.5472M3.65948 12.4733V12.5472M3.65948 12.5472V12.621M3.65948 12.5472V12.621M3.65948 12.621V12.6949M3.65948 12.621V12.6949M3.65948 12.6949V12.7688M3.65948 12.6949V12.7688M3.65948 12.7688V12.8426M3.65948 12.7688V12.8426M3.65948 12.8426V12.9165M3.65948 12.8426V12.9165M3.65948 12.9165V12.9904M3.65948 12.9165V12.9904M3.65948 12.9904V13.0642M3.65948 12.9904V13.0642M3.65948 13.0642V13.1381M3.65948 13.0642V13.1381M3.65948 13.1381V13.2119M3.65948 13.1381V13.2119M3.65948 13.2119V13.2858M3.65948 13.2119V13.2858M3.65948 13.2858V13.3597M3.65948 13.2858V13.3597M3.65948 13.3597V13.4335M3.65948 13.3597V13.4335M3.65948 13.4335V13.5074M3.65948 13.4335V13.5074M3.65948 13.5074V13.5813M3.65948 13.5074V13.5813M3.65948 13.5813V13.6551M3.65948 13.5813V13.6551M3.65948 13.6551V13.729M3.65948 13.6551V13.729M3.65948 13.729V13.8028M3.65948 13.729V13.8028M3.65948 13.8028V13.8767M3.65948 13.8028V13.8767M3.65948 13.8767V13.9506M3.65948 13.8767V13.9506M3.65948 13.9506V14.0244M3.65948 13.9506V14.0244M3.65948 14.0244V14.0983M3.65948 14.0244V14.0983M3.65948 14.0983V14.1721M3.65948 14.0983V14.1721M3.65948 14.1721V14.246M3.65948 14.1721V14.246M3.65948 14.246V14.3199M3.65948 14.246V14.3199M3.65948 14.3199V14.3937M3.65948 14.3199V14.3937M3.65948 14.3937V14.4676M3.65948 14.3937V14.4676M3.65948 14.4676V14.5414M3.65948 14.4676V14.5414M3.65948 14.5414V14.6153M3.65948 14.5414V14.6153M3.65948 14.6153V14.6892M3.65948 14.6153V14.6892M3.65948 14.6892V14.763M3.65948 14.6892V14.763M3.65948 14.763V14.8369M3.65948 14.763V14.8369M3.65948 14.8369V14.9107M3.65948 14.8369V14.9107M3.65948 14.9107V14.9846M3.65948 14.9107V14.9846M3.65948 14.9846V15.0585M3.65948 14.9846V15.0585M3.65948 15.0585V15.1323M3.65948 15.0585V15.1323M3.65948 15.1323V15.2062M3.65948 15.1323V15.2062M3.65948 15.2062V15.28M3.65948 15.2062V15.28M3.65948 15.28V15.3539M3.65948 15.28V15.3539M3.65948 15.3539V15.4278M3.65948 15.3539V15.4278M3.65948 15.4278V15.5016M3.65948 15.4278V15.5016M3.65948 15.5016V15.5755M3.65948 15.5016V15.5755M3.65948 15.5755V15.6494M3.65948 15.5755V15.6494M3.65948 15.6494V15.7232M3.65948 15.6494V15.7232M3.65948 15.7232V15.7971M3.65948 15.7232V15.7971M3.65948 15.7971V15.8709M3.65948 15.7971V15.8709M3.65948 15.8709V15.9448M3.65948 15.8709V15.9448M3.65948 15.9448V16.0187M3.65948 15.9448V16.0187M3.65948 16.0187V16.0925M3.65948 16.0187V16.0925M3.65948 16.0925V16.1664M3.65948 16.0925V16.1664M3.65948 16.1664V16.2402M3.65948 16.1664V16.2402M3.65948 16.2402V16.3141M3.65948 16.2402V16.3141M3.65948 16.3141V16.3879M3.65948 16.3141V16.3879M3.65948 16.3879V16.4618M3.65948 16.3879V16.4618M3.65948 16.4618V16.5357M3.65948 16.4618V16.5357M3.65948 16.5357V16.6095M3.65948 16.5357V16.6095M3.65948 16.6095V16.6834M3.65948 16.6095V16.6834M3.65948 16.6834V16.7572M3.65948 16.6834V16.7572M3.65948 16.7572V16.8311M3.65948 16.7572V16.8311M3.65948 16.8311V16.905M3.65948 16.8311V16.905M3.65948 16.905V16.9788M3.65948 16.905V16.9788M3.65948 16.9788V17.0527M3.65948 16.9788V17.0527M3.65948 17.0527V17.1265M3.65948 17.0527V17.1265M3.65948 17.1265V17.2004M3.65948 17.1265V17.2004M3.65948 17.2004V17.2743M3.65948 17.2004V17.2743M3.65948 17.2743V17.3481M3.65948 17.2743V17.3481M3.65948 17.3481V17.422M3.65948 17.3481V17.422M3.65948 17.422V17.4958M3.65948 17.422V17.4958M3.65948 17.4958V17.5697M3.65948 17.4958V17.5697M3.65948 17.5697V17.6436M3.65948 17.5697V17.6436M3.65948 17.6436V17.7174M3.65948 17.6436V17.7174M3.65948 17.7174V17.7913M3.65948 17.7174V17.7913M3.65948 17.7913V17.8651M3.65948 17.7913V17.8651M3.65948 17.8651V17.939M3.65948 17.8651V17.939M3.65948 17.939V18.0129M3.65948 17.939V18.0129M3.65948 18.0129V18.0867M3.65948 18.0129V18.0867M3.65948 18.0867V18.1606M3.65948 18.0867V18.1606M3.65948 18.1606V18.2344M3.65948 18.1606V18.2344M3.65948 18.2344V18.3083M3.65948 18.2344V18.3083M3.65948 18.3083V18.3821M3.65948 18.3083V18.3821M3.65948 18.3821V18.456M3.65948 18.3821V18.456M3.65948 18.456V18.5299M3.65948 18.456V18.5299M3.65948 18.5299V18.6037M3.65948 18.5299V18.6037M3.65948 18.6037V18.6776M3.65948 18.6037V18.6776M3.65948 18.6776V18.7514M3.65948 18.6776V18.7514M3.65948 18.7514V18.8253M3.65948 18.7514V18.8253M3.65948 18.8253V18.8992M3.65948 18.8253V18.8992M3.65948 18.8992V18.973M3.65948 18.8992V18.973M3.65948 18.973V19.0469M3.65948 18.973V19.0469M3.65948 19.0469V19.1207M3.65948 19.0469V19.1207M3.65948 19.1207V19.1946M3.65948 19.1207V19.1946M3.65948 19.1946V19.2685M3.65948 19.1946V19.2685M3.65948 19.2685V19.3423M3.65948 19.2685V19.3423M3.65948 19.3423V19.4162M3.65948 19.3423V19.4162M3.65948 19.4162V19.49M3.65948 19.4162V19.49M3.65948 19.49V19.5639M3.65948 19.49V19.5639M3.65948 19.5639V19.6377M3.65948 19.5639V19.6377M3.65948 19.6377V19.7116M3.65948 19.6377V19.7116M3.65948 19.7116V19.7855M3.65948 19.7116V19.7855M3.65948 19.7855V19.8593M3.65948 19.7855V19.8593M3.65948 19.8593V19.9332M3.65948 19.8593V19.9332M3.65948 19.9332V20.007M3.65948 19.9332V20.007M3.65948 20.007V20.0809M3.65948 20.007V20.0809M3.65948 20.0809V20.1548M3.65948 20.0809V20.1548M3.65948 20.1548V20.2286M3.65948 20.1548V20.2286M3.65948 20.2286V20.3025M3.65948 20.2286V20.3025M3.65948 20.3025V20.3763M3.65948 20.3025V20.3763M3.65948 20.3763V20.4502M3.65948 20.3763V20.4502M3.65948 20.4502V20.524M3.65948 20.4502V20.524M3.65948 20.524V20.5979M3.65948 20.524V20.5979M3.65948 20.5979V20.6718M3.65948 20.5979V20.6718M3.65948 20.6718V20.7456M3.65948 20.6718V20.7456M3.65948 20.7456V20.8195M3.65948 20.7456V20.8195M3.65948 20.8195V20.8933M3.65948 20.8195V20.8933M3.65948 20.8933V20.9672M3.65948 20.8933V20.9672M3.65948 20.9672V21.041M3.65948 20.9672V21.041M3.65948 21.041V21.1149M3.65948 21.041V21.1149M3.65948 21.1149V21.1888M3.65948 21.1149V21.1888M3.65948 21.1888V21.2626M3.65948 21.1888V21.2626M3.65948 21.2626V21.3365M3.65948 21.2626V21.3365M3.65948 21.3365V21.4103M3.65948 21.3365V21.4103M3.65948 21.4103V21.4842M3.65948 21.4103V21.4842M3.65948 21.4842V21.5581M3.65948 21.4842V21.5581M3.65948 21.5581V21.6319M3.65948 21.5581V21.6319M3.65948 21.6319V21.7058M3.65948 21.6319V21.7058M3.65948 21.7058V21.7796M3.65948 21.7058V21.7796M3.65948 21.7796V21.8535M3.65948 21.7796V21.8535M3.65948 21.8535V21.9273M3.65948 21.8535V21.9273M3.65948 21.9273V22.0012M3.65948 21.9273V22.0012M3.65948 22.0012V22.0751M3.65948 22.0012V22.0751M3.65948 22.0751V22.1489M3.65948 22.0751V22.1489M3.65948 22.1489V22.2228M3.65948 22.1489V22.2228M3.65948 22.2228V22.2966M3.65948 22.2228V22.2966M3.65948 22.2966V22.3705M3.65948 22.2966V22.3705M3.65948 22.3705V22.4443M3.65948 22.3705V22.4443M3.65948 22.4443V22.5182M3.65948 22.4443V22.5182M3.65948 22.5182V22.5921M3.65948 22.5182V22.5921M3.65948 22.5921V22.6659M3.65948 22.5921V22.6659M3.65948 22.6659V22.7398M3.65948 22.6659V22.7398M3.65948 22.7398V22.8136M3.65948 22.7398V22.8136M3.65948 22.8136V22.8875M3.65948 22.8136V22.8875M3.65948 22.8875V22.9613M3.65948 22.8875V22.9613M3.65948 22.9613V23.0352M3.65948 22.9613V23.0352M3.65948 23.0352V23.1091M3.65948 23.0352V23.1091M3.65948 23.1091V23.1829M3.65948 23.1091V23.1829M3.65948 23.1829V23.2568M3.65948 23.1829V23.2568M3.65948 23.2568V23.3306M3.65948 23.2568V23.3306M3.65948 23.3306V23.4045M3.65948 23.3306V23.4045M3.65948 23.4045V23.4783M3.65948 23.4045V23.4783M3.65948 23.4783V23.5522M3.65948 23.4783V23.5522M3.65948 23.5522V23.6261M3.65948 23.5522V23.6261M3.65948 23.6261V23.6999M3.65948 23.6261V23.6999M3.65948 23.6999V23.7738M3.65948 23.6999V23.7738M3.65948 23.7738V23.8476M3.65948 23.7738V23.8476M3.65948 23.8476V23.9215M3.65948 23.8476V23.9215M3.65948 23.9215V23.9953M3.65948 23.9215V23.9953M3.65948 23.9953V24.0692M3.65948 23.9953V24.0692M3.65948 24.0692V24.1431M3.65948 24.0692V24.1431M3.65948 24.1431V24.2169M3.65948 24.1431V24.2169M3.65948 24.2169V24.2908M3.65948 24.2169V24.2908M3.65948 24.2908V24.3646M3.65948 24.2908V24.3646M3.65948 24.3646V24.4385M3.65948 24.3646V24.4385M3.65948 24.4385V24.5123M3.65948 24.4385V24.5123M3.65948 24.5123V24.5862M3.65948 24.5123V24.5862M3.65948 24.5862V24.6601M3.65948 24.5862V24.6601M3.65948 24.6601V24.7339M3.65948 24.6601V24.7339M3.65948 24.7339V24.8078M3.65948 24.7339V24.8078M3.65948 24.8078V24.8816M3.65948 24.8078V24.8816M3.65948 24.8816V24.9555M3.65948 24.8816V24.9555M3.65948 24.9555V25.0293M3.65948 24.9555V25.0293M3.65948 25.0293V25.1032M3.65948 25.0293V25.1032M3.65948 25.1032V25.1771M3.65948 25.1032V25.1771M3.65948 25.1771V25.2509M3.65948 25.1771V25.2509M3.65948 25.2509V25.3248M3.65948 25.2509V25.3248M3.65948 25.3248V25.3986M3.65948 25.3248V25.3986M3.65948 25.3986V25.4725M3.65948 25.3986V25.4725M3.65948 25.4725V25.5463M3.65948 25.4725V25.5463M3.65948 25.5463V25.6202M3.65948 25.5463V25.6202M3.65948 25.6202V25.6941M3.65948 25.6202V25.6941M3.65948 25.6941V25.7679M3.65948 25.6941V25.7679M3.65948 25.7679V25.8418M3.65948 25.7679V25.8418M3.65948 25.8418V25.9156M3.65948 25.8418V25.9156M3.65948 25.9156V25.9895M3.65948 25.9156V25.9895M3.65948 25.9895V26.0633M3.65948 25.9895V26.0633M3.65948 26.0633V26.1372M3.65948 26.0633V26.1372M3.65948 26.1372V26.2111M3.65948 26.1372V26.2111M3.65948 26.2111V26.2849M3.65948 26.2111V26.2849M3.65948 26.2849V26.3588M3.65948 26.2849V26.3588M3.65948 26.3588V26.4326M3.65948 26.3588V26.4326M3.65948 26.4326V26.5065M3.65948 26.4326V26.5065M3.65948 26.5065V26.5803M3.65948 26.5065V26.5803M3.65948 26.5803V26.6542M3.65948 26.5803V26.6542M3.65948 26.6542V26.7281M3.65948 26.6542V26.7281M3.65948 26.7281V26.8019M3.65948 26.7281V26.8019M3.65948 26.8019V26.8758M3.65948 26.8019V26.8758M3.65948 26.8758V26.9496M3.65948 26.8758V26.9496M3.65948 26.9496V27.0235M3.65948 26.9496V27.0235M3.65948 27.0235V27.0973M3.65948 27.0235V27.0973M3.65948 27.0973V27.1712M3.65948 27.0973V27.1712M3.65948 27.1712V27.245M3.65948 27.1712V27.245M3.65948 27.245V27.3189M3.65948 27.245V27.3189M3.65948 27.3189V27.3928M3.65948 27.3189V27.3928M3.65948 27.3928V27.4666M3.65948 27.3928V27.4666M3.65948 27.4666V27.5405M3.65948 27.4666V27.5405M3.65948 27.5405V27.6143M3.65948 27.5405V27.6143M3.65948 27.6143V27.6882M3.65948 27.6143V27.6882M3.65948 27.6882V27.762M3.65948 27.6882V27.762M3.65948 27.762V27.8359M3.65948 27.762V27.8359M3.65948 27.8359V27.9098M3.65948 27.8359V27.9098M3.65948 27.9098V27.9836M3.65948 27.9098V27.9836M3.65948 27.9836V28.0575M3.65948 27.9836V28.0575M3.65948 28.0575V28.1313M3.65948 28.0575V28.1313M3.65948 28.1313V28.2052M3.65948 28.1313V28.2052M3.65948 28.2052V28.279M3.65948 28.2052V28.279M3.65948 28.279V28.3529M3.65948 28.279V28.3529M3.65948 28.3529V28.4268M3.65948 28.3529V28.4268M3.65948 28.4268V28.5006M3.65948 28.4268V28.5006M3.65948 28.5006V28.5745M3.65948 28.5006V28.5745M3.65948 28.5745V28.6483M3.65948 28.5745V28.6483M3.65948 28.6483V28.7222M3.65948 28.6483V28.7222M3.65948 28.7222V28.796M3.65948 28.7222V28.796M3.65948 28.796V28.8699M3.65948 28.796V28.8699M3.65948 28.8699V28.9438M3.65948 28.8699V28.9438M3.65948 28.9438V29.0176M3.65948 28.9438V29.0176M3.65948 29.0176V29.0915M3.65948 29.0176V29.0915M3.65948 29.0915V29.1653M3.65948 29.0915V29.1653M3.65948 29.1653V29.2392M3.65948 29.1653V29.2392M3.65948 29.2392V29.313M3.65948 29.2392V29.313M3.65948 29.313V29.3869M3.65948 29.313V29.3869M3.65948 29.3869V29.4607M3.65948 29.3869V29.4607M3.65948 29.4607V29.5346M3.65948 29.4607V29.5346M3.65948 29.5346V29.6085M3.65948 29.5346V29.6085M3.65948 29.6085V29.6823M3.65948 29.6085V29.6823M3.65948 29.6823V29.7562M3.65948 29.6823V29.7562M3.65948 29.7562V29.83M3.65948 29.7562V29.83M3.65948 29.83V29.9039M3.65948 29.83V29.9039M3.65948 29.9039V29.9777M3.65948 29.9039V29.9777M3.65948 29.9777V30.0516M3.65948 29.9777V30.0516M3.65948 30.0516V30.1255M3.65948 30.0516V30.1255M3.65948 30.1255V30.1993M3.65948 30.1255V30.1993M3.65948 30.1993V30.2732M3.65948 30.1993V30.2732M3.65948 30.2732V30.347M3.65948 30.2732V30.347M3.65948 30.347V30.4209M3.65948 30.347V30.4209M3.65948 30.4209V30.4947M3.65948 30.4209V30.4947M3.65948 30.4947V30.5686M3.65948 30.4947V30.5686M3.65948 30.5686V30.6425M3.65948 30.5686V30.6425M3.65948 30.6425V30.7163M3.65948 30.6425V30.7163M3.65948 30.7163V30.7902M3.65948 30.7163V30.7902M3.65948 30.7902V30.864M3.65948 30.7902V30.864M3.65948 30.864V30.9379M3.65948 30.864V30.9379M3.65948 30.9379V31.0117M3.65948 30.9379V31.0117M3.65948 31.0117V31.0856M3.65948 31.0117V31.0856M3.65948 31.0856V31.1595M3.65948 31.0856V31.1595M3.65948 31.1595V31.2333M3.65948 31.1595V31.2333M3.65948 31.2333V31.3072M3.65948 31.2333V31.3072M3.65948 31.3072V31.381M3.65948 31.3072V31.381M3.65948 31.381V31.4549M3.65948 31.381V31.4549M3.65948 31.4549V31.5287M3.65948 31.4549V31.5287M3.65948 31.5287V31.6026M3.65948 31.5287V31.6026M3.65948 31.6026V31.6765M3.65948 31.6026V31.6765M3.65948 31.6765V31.7503M3.65948 31.6765V31.7503M3.65948 31.7503V31.8242M3.65948 31.7503V31.8242M3.65948 31.8242V31.898M3.65948 31.8242V31.898M3.65948 31.898V31.9719M3.65948 31.898V31.9719M3.65948 31.9719V32.0457M3.65948 31.9719V32.0457M3.65948 32.0457V32.1196M3.65948 32.0457V32.1196M3.65948 32.1196V32.1935M3.65948 32.1196V32.1935M3.65948 32.1935V32.2673M3.65948 32.1935V32.2673M3.65948 32.2673V32.3412M3.65948 32.2673V32.3412M3.65948 32.3412V32.415M3.65948 32.3412V32.415M3.65948 32.415V32.4889M3.65948 32.415V32.4889M3.65948 32.4889V32.5627M3.65948 32.4889V32.5627M3.65948 32.5627V32.6366M3.65948 32.5627V32.6366M3.65948 32.6366V32.7105M3.65948 32.6366V32.7105M3.65948 32.7105V32.7843M3.65948 32.7105V32.7843M3.65948 32.7843V32.8582M3.65948 32.7843V32.8582M3.65948 32.8582V32.932M3.65948 32.8582V32.932M3.65948 32.932V33.0059M3.65948 32.932V33.0059M3.65948 33.0059V33.0797M3.65948 33.0059V33.0797M3.65948 33.0797V33.1536M3.65948 33.0797V33.1536M3.65948 33.1536V33.2275M3.65948 33.1536V33.2275M3.65948 33.2275V33.3013M3.65948 33.2275V33.3013M3.65948 33.3013V33.3752M3.65948 33.3013V33.3752M3.65948 33.3752V33.449M3.65948 33.3752V33.449M3.65948 33.449V33.5229M3.65948 33.449V33.5229M3.65948 33.5229V33.5967M3.65948 33.5229V33.5967M3.65948 33.5967V33.6706M3.65948 33.5967V33.6706M3.65948 33.6706V33.7445M3.65948 33.6706V33.7445M3.65948 33.7445V33.8183M3.65948 33.7445V33.8183M3.65948 33.8183V33.8922M3.65948 33.8183V33.8922M3.65948 33.8922V33.966M3.65948 33.8922V33.966M3.65948 33.966V34.0399M3.65948 33.966V34.0399M3.65948 34.0399V34.1137M3.65948 34.0399V34.1137M3.65948 34.1137V34.1876M3.65948 34.1137V34.1876M3.65948 34.1876V34.2615M3.65948 34.1876V34.2615M3.65948 34.2615V34.3353M3.65948 34.2615V34.3353M3.65948 34.3353V34.4092M3.65948 34.3353V34.4092M3.65948 34.4092V34.483M3.65948 34.4092V34.483M3.65948 34.483V34.5569M3.65948 34.483V34.5569M3.65948 34.5569V34.6307M3.65948 34.5569V34.6307M3.65948 34.6307V34.7046M3.65948 34.6307V34.7046M3.65948 34.7046V34.7785M3.65948 34.7046V34.7785M3.65948 34.7785V34.8523M3.65948 34.7785V34.8523M3.65948 34.8523V34.9262M3.65948 34.8523V34.9262M3.65948 34.9262V35M3.65948 34.9262V35M3.65948 35V35.0739M3.65948 35V35.0739M3.65948 35.0739V35.1478M3.65948 35.0739V35.1478M3.65948 35.1478V35.2216M3.65948 35.1478V35.2216M3.65948 35.2216V35.2955M3.65948 35.2216V35.2955M3.65948 35.2955V35.3693M3.65948 35.2955V35.3693M3.65948 35.3693V35.4432M3.65948 35.3693V35.4432M3.65948 35.4432V35.517M3.65948 35.4432V35.517M3.65948 35.517V35.5909M3.65948 35.517V35.5909M3.65948 35.5909V35.6648M3.65948 35.5909V35.6648M3.65948 35.6648V35.7386M3.65948 35.6648V35.7386M3.65948 35.7386V35.8125M3.65948 35.7386V35.8125M3.65948 35.8125V35.8863M3.65948 35.8125V35.8863M3.65948 35.8863V35.9602M3.65948 35.8863V35.9602M3.65948 35.9602V36.034M3.65948 35.9602V36.034M3.65948 36.034V36.1079M3.65948 36.034V36.1079M3.65948 36.1079V36.1818M3.65948 36.1079V36.1818M3.65948 36.1818V36.2556M3.65948 36.1818V36.2556M3.65948 36.2556V36.3295M3.65948 36.2556V36.3295M3.65948 36.3295V36.4033M3.65948 36.3295V36.4033M3.65948 36.4033V36.4772M3.65948 36.4033V36.4772M3.65948 36.4772V36.5511M3.65948 36.4772V36.5511M3.65948 36.5511V36.6249M3.65948 36.5511V36.6249M3.65948 36.6249V36.6988M3.65948 36.6249V36.6988M3.65948 36.6988V36.7726M3.65948 36.6988V36.7726M3.65948 36.7726V36.8465M3.65948 36.7726V36.8465M3.65948 36.8465V36.9203M3.65948 36.8465V36.9203M3.65948 36.9203V36.9942M3.65948 36.9203V36.9942M3.65948 36.9942V37.0681M3.65948 36.9942V37.0681M3.65948 37.0681V37.1419M3.65948 37.0681V37.1419M3.65948 37.1419V37.2158M3.65948 37.1419V37.2158M3.65948 37.2158V37.2896M3.65948 37.2158V37.2896M3.65948 37.2896V37.3635M3.65948 37.2896V37.3635M3.65948 37.3635V37.4374M3.65948 37.3635V37.4374M3.65948 37.4374V37.5112M3.65948 37.4374V37.5112M3.65948 37.5112V37.5851M3.65948 37.5112V37.5851M3.65948 37.5851V37.6589M3.65948 37.5851V37.6589M3.65948 37.6589V37.7328M3.65948 37.6589V37.7328M3.65948 37.7328V37.8067M3.65948 37.7328V37.8067M3.65948 37.8067V37.8805M3.65948 37.8067V37.8805M3.65948 37.8805V37.9544M3.65948 37.8805V37.9544M3.65948 37.9544V38.0282M3.65948 37.9544V38.0282M3.65948 38.0282V38.1021M3.65948 38.0282V38.1021M3.65948 38.1021V38.1759M3.65948 38.1021V38.1759M3.65948 38.1759V38.2498M3.65948 38.1759V38.2498M3.65948 38.2498V38.3237M3.65948 38.2498V38.3237M3.65948 38.3237V38.3975M3.65948 38.3237V38.3975M3.65948 38.3975V38.4714M3.65948 38.3975V38.4714M3.65948 38.4714V38.5452M3.65948 38.4714V38.5452M3.65948 38.5452V38.6191M3.65948 38.5452V38.6191M3.65948 38.6191V38.693M3.65948 38.6191V38.693M3.65948 38.693V38.7668M3.65948 38.693V38.7668M3.65948 38.7668V38.8407M3.65948 38.7668V38.8407M3.65948 38.8407V38.9145M3.65948 38.8407V38.9145M3.65948 38.9145V38.9884M3.65948 38.9145V38.9884M3.65948 38.9884V39.0623M3.65948 38.9884V39.0623M3.65948 39.0623V39.1361M3.65948 39.0623V39.1361M3.65948 39.1361V39.21M3.65948 39.1361V39.21M3.65948 39.21V39.2838M3.65948 39.21V39.2838M3.65948 39.2838V39.3577M3.65948 39.2838V39.3577M3.65948 39.3577V39.4316M3.65948 39.3577V39.4316M3.65948 39.4316V39.5054M3.65948 39.4316V39.5054M3.65948 39.5054V39.5793M3.65948 39.5054V39.5793M3.65948 39.5793V39.6531M3.65948 39.5793V39.6531M3.65948 39.6531V39.727M3.65948 39.6531V39.727M3.65948 39.727V39.8009M3.65948 39.727V39.8009M3.65948 39.8009V39.8747M3.65948 39.8009V39.8747M3.65948 39.8747V39.9486M3.65948 39.8747V39.9486M3.65948 39.9486V40.0224M3.65948 39.9486V40.0224M3.65948 40.0224V40.0963M3.65948 40.0224V40.0963M3.65948 40.0963V40.1702M3.65948 40.0963V40.1702M3.65948 40.1702V40.244M3.65948 40.1702V40.244M3.65948 40.244V40.3179M3.65948 40.244V40.3179M3.65948 40.3179V40.3917M3.65948 40.3179V40.3917M3.65948 40.3917V40.4656M3.65948 40.3917V40.4656M3.65948 40.4656V40.5395M3.65948 40.4656V40.5395M3.65948 40.5395V40.6133M3.65948 40.5395V40.6133M3.65948 40.6133V40.6872M3.65948 40.6133V40.6872M3.65948 40.6872V40.761M3.65948 40.6872V40.761M3.65948 40.761V40.8349M3.65948 40.761V40.8349M3.65948 40.8349V40.9088M3.65948 40.8349V40.9088M3.65948 40.9088V40.9826M3.65948 40.9088V40.9826M3.65948 40.9826V41.0565M3.65948 40.9826V41.0565M3.65948 41.0565V41.1303M3.65948 41.0565V41.1303M3.65948 41.1303V41.2042M3.65948 41.1303V41.2042M3.65948 41.2042V41.2781M3.65948 41.2042V41.2781M3.65948 41.2781V41.3519M3.65948 41.2781V41.3519M3.65948 41.3519V41.4258M3.65948 41.3519V41.4258M3.65948 41.4258V41.4996M3.65948 41.4258V41.4996M3.65948 41.4996V41.5735M3.65948 41.4996V41.5735M3.65948 41.5735V41.6474M3.65948 41.5735V41.6474M3.65948 41.6474V41.7212M3.65948 41.6474V41.7212M3.65948 41.7212V41.7951M3.65948 41.7212V41.7951M3.65948 41.7951V41.8689M3.65948 41.7951V41.8689M3.65948 41.8689V41.9428M3.65948 41.8689V41.9428M3.65948 41.9428V42.0167M3.65948 41.9428V42.0167M3.65948 42.0167V42.0905M3.65948 42.0167V42.0905M3.65948 42.0905V42.1644M3.65948 42.0905V42.1644M3.65948 42.1644V42.2382M3.65948 42.1644V42.2382M3.65948 42.2382V42.3121M3.65948 42.2382V42.3121M3.65948 42.3121V42.386M3.65948 42.3121V42.386M3.65948 42.386V42.4598M3.65948 42.386V42.4598M3.65948 42.4598V42.5337M3.65948 42.4598V42.5337M3.65948 42.5337V42.6076M3.65948 42.5337V42.6076M3.65948 42.6076V42.6814M3.65948 42.6076V42.6814M3.65948 42.6814V42.7553M3.65948 42.6814V42.7553M3.65948 42.7553V42.8291M3.65948 42.7553V42.8291M3.65948 42.8291V42.903M3.65948 42.8291V42.903M3.65948 42.903V42.9769M3.65948 42.903V42.9769M3.65948 42.9769V43.0507M3.65948 42.9769V43.0507M3.65948 43.0507V43.1246M3.65948 43.0507V43.1246M3.65948 43.1246V43.1984M3.65948 43.1246V43.1984M3.65948 43.1984V43.2723M3.65948 43.1984V43.2723M3.65948 43.2723V43.3462M3.65948 43.2723V43.3462M3.65948 43.3462V43.42M3.65948 43.3462V43.42M3.65948 43.42V43.4939M3.65948 43.42V43.4939M3.65948 43.4939V43.5678M3.65948 43.4939V43.5678M3.65948 43.5678V43.6416M3.65948 43.5678V43.6416M3.65948 43.6416V43.7155M3.65948 43.6416V43.7155M3.65948 43.7155V43.7893M3.65948 43.7155V43.7893M3.65948 43.7893V43.8632M3.65948 43.7893V43.8632M3.65948 43.8632V43.9371M3.65948 43.8632V43.9371M3.65948 43.9371V44.0109M3.65948 43.9371V44.0109M3.65948 44.0109V44.0848M3.65948 44.0109V44.0848M3.65948 44.0848V44.1587M3.65948 44.0848V44.1587M3.65948 44.1587V44.2325M3.65948 44.1587V44.2325M3.65948 44.2325V44.3064M3.65948 44.2325V44.3064M3.65948 44.3064V44.3802M3.65948 44.3064V44.3802M3.65948 44.3802V44.4541M3.65948 44.3802V44.4541M3.65948 44.4541V44.528M3.65948 44.4541V44.528M3.65948 44.528V44.6018M3.65948 44.528V44.6018M3.65948 44.6018V44.6757M3.65948 44.6018V44.6757M3.65948 44.6757V44.7496M3.65948 44.6757V44.7496M3.65948 44.7496V44.8234M3.65948 44.7496V44.8234M3.65948 44.8234V44.8973M3.65948 44.8234V44.8973M3.65948 44.8973V44.9711M3.65948 44.8973V44.9711M3.65948 44.9711V45.045M3.65948 44.9711V45.045M3.65948 45.045V45.1189M3.65948 45.045V45.1189M3.65948 45.1189V45.1927M3.65948 45.1189V45.1927M3.65948 45.1927V45.2666M3.65948 45.1927V45.2666M3.65948 45.2666V45.3405M3.65948 45.2666V45.3405M3.65948 45.3405V45.4143M3.65948 45.3405V45.4143M3.65948 45.4143V45.4882M3.65948 45.4143V45.4882M3.65948 45.4882V45.562M3.65948 45.4882V45.562M3.65948 45.562V45.6359M3.65948 45.562V45.6359M3.65948 45.6359V45.7098M3.65948 45.6359V45.7098M3.65948 45.7098V45.7836M3.65948 45.7098V45.7836M3.65948 45.7836V45.8575M3.65948 45.7836V45.8575M3.65948 45.8575V45.9314M3.65948 45.8575V45.9314M3.65948 45.9314V46.0052M3.65948 45.9314V46.0052M3.65948 46.0052V46.0791M3.65948 46.0052V46.0791M3.65948 46.0791V46.153M3.65948 46.0791V46.153M3.65948 46.153V46.2268M3.65948 46.153V46.2268M3.65948 46.2268V46.3007M3.65948 46.2268V46.3007M3.65948 46.3007V46.3745M3.65948 46.3007V46.3745M3.65948 46.3745V46.4484M3.65948 46.3745V46.4484M3.65948 46.4484V46.5223M3.65948 46.4484V46.5223M3.65948 46.5223V46.5961M3.65948 46.5223V46.5961M3.65948 46.5961V46.67M3.65948 46.5961V46.67M3.65948 46.67V46.7439M3.65948 46.67V46.7439M3.65948 46.7439V46.8177M3.65948 46.7439V46.8177M3.65948 46.8177V46.8916M3.65948 46.8177V46.8916M3.65948 46.8916V46.9655M3.65948 46.8916V46.9655M3.65948 46.9655V48.251V46.9655Z" fill="#101221" stroke="#EEF7FC" stroke-width="0.4"/>
<path d="M55.974 49.9712L55.774 49.9686V50.1632C55.3362 50.1632 54.9095 50.16 54.4902 50.1569C53.5716 50.1501 52.6891 50.1436 51.8054 50.1711L51.8053 50.1712C49.434 50.2432 47.5832 52.0609 47.5063 54.4143C47.4527 56.1059 47.4554 57.8033 47.5063 59.4983C47.5781 61.8601 49.4082 63.6725 51.7826 63.7625L51.7827 63.7625C52.2103 63.7789 52.639 63.772 53.074 63.7651C53.1318 63.7642 53.1898 63.7632 53.2478 63.7624C53.7401 63.755 54.2396 63.7515 54.7388 63.787M55.974 49.9712L54.7246 63.9865M55.974 49.9712C56.1162 44.6792 51.5346 38.1788 43.8764 38.3836L43.8763 38.3836C40.6424 38.471 37.6448 39.9281 35.5272 42.0785C33.4102 44.2282 32.159 47.0856 32.4479 49.9804L32.4659 50.1605H32.647C33.0263 50.1605 33.4066 50.1596 33.7877 50.1587C34.5516 50.1569 35.3184 50.1551 36.086 50.1605M55.974 49.9712L36.086 50.1605M54.7388 63.787L54.7246 63.9865M54.7388 63.787C54.7388 63.787 54.7387 63.787 54.7386 63.787L54.7246 63.9865M54.7388 63.787C57.261 63.9639 59.6443 61.9425 59.5463 58.9582M54.7246 63.9865C57.3629 64.1717 59.8482 62.0568 59.7462 58.9515M59.5463 58.9582L59.7462 58.9515M59.5463 58.9582C59.4848 57.1094 59.4971 55.2538 59.5094 53.4028C59.5165 52.344 59.5235 51.2866 59.5167 50.2329M59.5463 58.9582C59.5463 58.9582 59.5463 58.9581 59.5463 58.9581L59.7462 58.9515M59.7462 58.9515L59.5167 50.2329M59.5167 50.2329C59.5113 49.4308 59.4924 48.6319 59.3611 47.8603L59.3611 47.8603C57.8189 38.7816 49.3563 33.7419 41.573 35.0982C35.0852 36.2304 29.6189 41.6371 29.0054 48.1755L59.5167 50.2329ZM36.086 50.1605C37.5526 50.1736 38.7319 50.6358 39.5517 51.4442C40.3715 52.2525 40.8512 53.4259 40.8825 54.8978C40.904 55.907 40.8983 56.9166 40.8927 57.9286C40.8906 58.3022 40.8885 58.6761 40.8878 59.0505L41.0878 59.0508L36.086 50.1605ZM50.9417 59.1825C50.9462 59.5048 51.0428 59.7903 51.2418 59.999C51.4415 60.2086 51.7236 60.3189 52.0558 60.3297L52.0565 60.3297C52.9997 60.3566 53.9425 60.3566 54.8822 60.3351C55.2349 60.3276 55.5387 60.226 55.7552 60.009C55.9721 59.7917 56.0742 59.486 56.0787 59.1258L56.0787 59.1255C56.0841 58.6465 56.0823 58.1673 56.0805 57.6896C56.0796 57.4514 56.0787 57.2135 56.0787 56.9762C56.0787 56.7378 56.079 56.4994 56.0793 56.261C56.0799 55.7838 56.0805 55.3065 56.0787 54.8283L56.0787 54.8274C56.0757 54.4671 55.9772 54.1601 55.7631 53.9409C55.5489 53.7215 55.2465 53.6182 54.8934 53.6093L54.8929 53.6093C53.9505 53.5877 53.0077 53.5877 52.0672 53.6147C51.7383 53.6238 51.4541 53.7287 51.2508 53.9342C51.0473 54.1398 50.9463 54.4243 50.9417 54.751C50.9202 56.2291 50.9202 57.7071 50.9417 59.1825ZM50.9417 59.1825L51.1416 59.1797M50.9417 59.1825C50.9417 59.1825 50.9417 59.1826 50.9417 59.1826L51.1416 59.1797M51.1416 59.1797C51.1497 59.7486 51.4798 60.111 52.0622 60.1298C53.0016 60.1566 53.9409 60.1566 54.8776 60.1351L51.1416 59.1797ZM36.2018 53.6066L36.2019 53.6066C36.5625 53.614 36.863 53.7197 37.0699 53.9459C37.275 54.17 37.3588 54.4804 37.3559 54.8361M36.2018 53.6066L37.3559 56.9735C37.3559 56.7353 37.3553 56.4977 37.3547 56.2604C37.3535 55.7851 37.3523 55.311 37.3559 54.8361M36.2018 53.6066C35.2633 53.5877 34.3229 53.5823 33.3814 53.612C33.0536 53.6212 32.7741 53.7238 32.5774 53.9333C32.3815 54.1417 32.2928 54.4291 32.2913 54.7584L32.2913 54.7586M36.2018 53.6066L32.2913 54.7586M37.3559 54.8361L37.1559 54.8344L37.3559 54.836C37.3559 54.836 37.3559 54.836 37.3559 54.8361ZM32.2913 54.7586C32.2859 56.2297 32.2859 57.7035 32.2913 59.1747M32.2913 54.7586L32.2913 59.1747M32.2913 59.1747C32.2914 59.4995 32.375 59.7878 32.5668 59.9986C32.7605 60.2116 33.0392 60.3178 33.3712 60.327L32.2913 59.1747ZM36.1904 60.3324C36.1904 60.3324 36.1904 60.3324 36.1903 60.3324L36.187 60.1324L36.1904 60.3324ZM36.1904 60.3324C36.5483 60.3265 36.8508 60.2251 37.0612 60.0029C37.2707 59.7817 37.3588 59.4725 37.3559 59.1137L36.1904 60.3324ZM28.8063 48.1569L29.0054 48.1756L28.8063 48.1569ZM37.3547 57.6893C37.3553 57.452 37.3559 57.2144 37.3559 56.9762L37.3559 59.1136C37.3523 58.6387 37.3535 58.1646 37.3547 57.6893Z" fill="#101221" stroke="#EEF7FC" stroke-width="0.4"/>
<path d="M23.7355 17.8279L23.7357 17.8279C23.9864 17.8703 24.242 17.8665 24.5169 17.8625C24.6004 17.8612 24.6857 17.86 24.7732 17.86H24.7902H24.8072H24.8242H24.8413H24.8583H24.8753H24.8923H24.9093H24.9263H24.9434H24.9604H24.9774H24.9944H25.0114H25.0284H25.0454H25.0625H25.0795H25.0965H25.1135H25.1305H25.1475H25.1646H25.1816H25.1986H25.2156H25.2326H25.2496H25.2666H25.2837H25.3007H25.3177H25.3347H25.3517H25.3687H25.3858H25.4028H25.4198H25.4368H25.4538H25.4708H25.4878H25.5049H25.5219H25.5389H25.5559H25.5729H25.5899H25.607H25.624H25.641H25.658H25.675H25.692H25.709H25.7261H25.7431H25.7601H25.7771H25.7941H25.8111H25.8282H25.8452H25.8622H25.8792H25.8962H25.9132H25.9302H25.9473H25.9643H25.9813H25.9983H26.0153H26.0323H26.0494H26.0664H26.0834H26.1004H26.1174H26.1344H26.1514H26.1685H26.1855H26.2025H26.2195H26.2365H26.2535H26.2706H26.2876H26.3046H26.3216H26.3386H26.3556H26.3726H26.3897H26.4067H26.4237H26.4407H26.4577H26.4747H26.4918H26.5088H26.5258H26.5428H26.5598H26.5768H26.5939H26.6109H26.6279H26.6449H26.6619H26.6789H26.6959H26.713H26.73H26.747H26.764H26.781H26.798H26.8151H26.8321H26.8491H26.8661H26.8831H26.9001H26.9171H26.9342H26.9512H26.9682H26.9852H27.0022H27.0192H27.0363H27.0533H27.0703H27.0873H27.1043H27.1213H27.1383H27.1554H27.1724H27.1894H27.2064H27.2234H27.2404H27.2575H27.2745H27.2915H27.3085H27.3255H27.3425H27.3595H27.3766H27.3936H27.4106H27.4276H27.4446H27.4616H27.4787H27.4957H27.5127H27.5297H27.5467H27.5637H27.5807H27.5978H27.6148H27.6318H27.6488H27.6658H27.6828H27.6999H27.7169H27.7339H27.7509H27.7679H27.7849H27.8019H27.819H27.836H27.853H27.87H27.887H27.904H27.9211H27.9381H27.9551H27.9721H27.9891H28.0061H28.0231H28.0402H28.0572H28.0742H28.0912H28.1082H28.1252H28.1423H28.1593H28.1763H28.1933H28.2103H28.2273H28.2443H28.2614H28.2784H28.2954H28.3124H28.3294H28.3464H28.3635H28.3805H28.3975H28.4145H28.4315H28.4485H28.4655H28.4826H28.4996H28.5166H28.5336H28.5506H28.5676H28.5847H28.6017H28.6187H28.6357H28.6527H28.6697H28.6867H28.7038H28.7208H28.7378H28.7548H28.7718H28.7888H28.8059H28.8229H28.8399H28.8569H28.8739H28.8909H28.9079H28.925H28.942H28.959H28.976H28.993H29.01H29.0271H29.0441H29.0611H29.0781H29.0951H29.1121H29.1291H29.1462H29.1632H29.1802H29.1972H29.2142H29.2312H29.2483H29.2653H29.2823H29.2993H29.3163H29.3333H29.3503H29.3674H29.3844H29.4014H29.4184H29.4354H29.4524H29.4695H29.4865H29.5035H29.5205H29.5375H29.5545H29.5716H29.5886H29.6056H29.6226H29.6396H29.6566H29.6736H29.6907H29.7077H29.7247H29.7417H29.7587H29.7757H29.7928H29.8098H29.8268H29.8438H29.8608H29.8778H29.8948H29.9119H29.9289H29.9459H29.9629H29.9799H29.9969H30.014H30.031H30.048H30.065H30.082H30.099H30.116H30.1331H30.1501H30.1671H30.1841H30.2011H30.2181H30.2352H30.2522H30.2692H30.2862H30.3032H30.3202H30.3372H30.3543H30.3713H30.3883H30.4053H30.4223H30.4393H30.4564H30.4734H30.4904H30.5074H30.5244H30.5414H30.5584H30.5755H30.5925H30.6095H30.6265H30.6435H30.6605H30.6776H30.6946H30.7116H30.7286H30.7456H30.7626H30.7796H30.7967H30.8137H30.8307H30.8477H30.8647H30.8817H30.8988H30.9158H30.9328H30.9498H30.9668H30.9838H31.0008H31.0179H31.0349H31.0519H31.0689H31.0859H31.1029H31.12H31.137H31.154H31.171H31.188H31.205H31.222H31.2391H31.2561H31.2731H31.2901H31.3071H31.3241H31.3412H31.3582H31.3752H31.3922H31.4092H31.4262H31.4432H31.4603H31.4773H31.4943H31.5113H31.5283H31.5453H31.5624H31.5794H31.5964H31.6134H31.6304H31.6474H31.6644H31.6815H31.6985H31.7155H31.7325H31.7495H31.7665H31.7836H31.8006H31.8176H31.8346H31.8516H31.8686H31.8856H31.9027H31.9197H31.9367H31.9537H31.9707H31.9877H32.0048H32.0218H32.0388H32.0558H32.0728H32.0898H32.1068H32.1239H32.1409H32.1579H32.1749H32.1919H32.2089H32.226H32.243H32.26H32.277H32.294H32.311H32.3281H32.3451H32.3621H32.3791H32.3961H32.4131H32.4301H32.4472H32.4642H32.4812H32.4982H32.5152H32.5322H32.5493H32.5663H32.5833H32.6003H32.6173H32.6343H32.6513H32.6684H32.6854H32.7024H32.7194H32.7364H32.7534H32.7705H32.7875H32.8045H32.8215H32.8385H32.8555H32.8725H32.8896H32.9066H32.9236H32.9406H32.9576H32.9746H32.9917H33.0087H33.0257H33.0427H33.0597H33.0767H33.0937H33.1108H33.1278H33.1448H33.1618H33.1788H33.1958H33.2129H33.2299H33.2469H33.2639H33.2809H33.2979H33.3149H33.332H33.349H33.366H33.383H33.4H33.417H33.4341H33.4511H33.4681H33.4851H33.5024H33.5196H33.5369H33.5542H33.5714H33.5887H33.606H33.6232H33.6405H33.6578H33.675H33.6923H33.7096H33.7268H33.7441H33.7614H33.7786H33.7959H33.8132H33.8305H33.8477H33.865H33.8823H33.8995H33.9168H33.9341H33.9513H33.9686H33.9859H34.0031H34.0204H34.0377H34.0549H34.0722H34.0895H34.1068H34.124H34.1413H34.1586H34.1758H34.1931H34.2104H34.2276H34.2449H34.2622H34.2794H34.2967H34.314H34.3313H34.3485H34.3658H34.3831H34.4003H34.4176H34.4349H34.4521H34.4694H34.4867H34.504H34.5212H34.5385H34.5558H34.573H34.5903H34.6076H34.6249H34.6421H34.6594H34.6767H34.6939H34.7112H34.7285H34.7457H34.763H34.7803H34.7976H34.8148H34.8321H34.8494H34.8666H34.8839H34.9012H34.9185H34.9357H34.953H34.9703H34.9876H35.0048H35.0221H35.0394H35.0566H35.0739H35.0912H35.1085H35.1257H35.143H35.1603H35.1775H35.1948H35.2121H35.2294H35.2466H35.2639H35.2812H35.2985H35.3157H35.333H35.3503H35.3675H35.3848H35.4021H35.4194H35.4366H35.4539H35.4712H35.4885H35.5057H35.523H35.5403H35.5576H35.5748H35.5921H35.6094H35.6266H35.6439H35.6612H35.6785H35.6957H35.713H35.7303H35.7476H35.7648H35.7821H35.7994H35.8167H35.8339H35.8512H35.8685H35.8858H35.903H35.9203H35.9376H35.9549H35.9721H35.9894H36.0067H36.024H36.0412H36.0585H36.0758H36.0931H36.1103H36.1276H36.1449H36.1622H36.1794H36.1967H36.214H36.2313H36.2485H36.2658H36.2831H36.3004H36.3176H36.3349H36.3522H36.3695H36.3867H36.404H36.4213H36.4386H36.4558H36.4731H36.4904H36.5077H36.5249H36.5422H36.5595H36.5768H36.594H36.6113H36.6286H36.6459H36.6632H36.6804H36.6977H36.715H36.7323H36.7495H36.7668H36.7841H36.8014H36.8186H36.8359H36.8532H36.8705H36.8877H36.905H36.9223H36.9396H36.9569H36.9741H36.9914H37.0087H37.026H37.0432H37.0605H37.0778H37.0951H37.1123H37.1296H37.1469H37.1642H37.1815H37.1987H37.216H37.2333H37.2506H37.2678H37.2851H37.3024H37.3197H37.337H37.3542H37.3715H37.3888H37.4061H37.4233H37.4406H37.4579H37.4752H37.4925H37.5097H37.527H37.5443H37.5616H37.5788H37.5961H37.6134H37.6307H37.648H37.6652H37.6825H37.6998H37.7171H37.7344H37.7516H37.7689H37.7862H37.8035H37.8207H37.838H37.8553H37.8726H37.8899H37.9071H37.9244H37.9417H37.959H37.9763H37.9935H38.0108H38.0281H38.0454H38.0627H38.0799H38.0972H38.1145H38.1318H38.149H38.1663H38.1836H38.2009H38.2182H38.2354H38.2527H38.27H38.2873H38.3046H38.3218H38.3391H38.3564H38.3737H38.391H38.4082H38.4255H38.4428H38.4601H38.4774H38.4946H38.5119H38.5292H38.5465H38.5638H38.581H38.5983H38.6156H38.6329H38.6502H38.6674H38.6847H38.702H38.7193H38.7366H38.7538H38.7711H38.7884H38.8057H38.823H38.8402H38.8575H38.8748H38.8921H38.9094H38.9266H38.9439H38.9612H38.9785H38.9958H39.013H39.0303H39.0476H39.0649H39.0822H39.0994H39.1167H39.134H39.1513H39.1686H39.1859H39.2031H39.2204H39.2377H39.255H39.2723H39.2895H39.3068H39.3241H39.3414H39.3587H39.3759H39.3932H39.4105H39.4278H39.4451H39.4623H39.4796H39.4969H39.5142H39.5315H39.5488H39.566H39.5833H39.6006H39.6179H39.6352H39.6524H39.6697H39.687H39.7043H39.7216H39.7388H39.7561H39.7734H39.7907H39.808H39.8253H39.8425H39.8598H39.8771H39.8944H39.9117H39.9289H39.9462H39.9635H39.9808H39.9981H40.0154H40.0326H40.0499H40.0672H40.0845H40.1018H40.119H40.1363H40.1536H40.1709H40.1882H40.2055H40.2227H40.24H40.2573H40.2746H40.2919H40.3091H40.3264H40.3437H40.361H40.3783H40.3956H40.4128H40.4301H40.4474H40.4647H40.482H40.4992H40.5165H40.5338H40.5511H40.5684H40.5857H40.6029H40.6202H40.6375H40.6548H40.6721H40.6893H40.7066H40.7239H40.7412H40.7585H40.7758H40.793H40.8103H40.8276H40.8449H40.8622H40.8795H40.8967H40.914H40.9313H40.9486H40.9659H40.9831H41.0004H41.0177H41.035H41.0523H41.0696H41.0868H41.1041H41.1214H41.1387H41.156H41.1733H41.1905H41.2078H41.2251H41.2424H41.2597H41.2769H41.2942H41.3115H41.3288H41.3461H41.3634H41.3806H41.3979H41.4152H41.4325H41.4498H41.4671H41.4843H41.5016H41.5189H41.5362H41.5535H41.5708H41.588H41.6053H41.6226H41.6399H41.6572H41.6744H41.6917H41.709H41.7263H41.7436H41.7609H41.7781H41.7954H41.8127H41.83H41.8473H41.8646H41.8818H41.8991H41.9164H41.9337H41.951H41.9683H41.9855H42.0028H42.0201H42.0374H42.0547H42.072H42.0892H42.1065H42.1238H42.1411H42.1584H42.1756H42.1929H42.2102H42.2275H42.2448H42.2621H42.2793H42.2966H42.3139H42.3312C42.4218 17.86 42.5102 17.8612 42.597 17.8624C42.8676 17.8662 43.122 17.8697 43.3745 17.835C44.271 17.7085 44.9314 16.9416 44.9171 16.1095L44.9171 16.1095C44.9028 15.267 44.2398 14.5471 43.3258 14.4422C43.0889 14.4154 42.8485 14.417 42.5962 14.4186C42.5354 14.4189 42.474 14.4193 42.4117 14.4193H42.3771H42.3426H42.308H42.2734H42.2389H42.2043H42.1698H42.1352H42.1006H42.0661H42.0315H41.9969H41.9624H41.9278H41.8932H41.8587H41.8241H41.7895H41.755H41.7204H41.6858H41.6513H41.6167H41.5822H41.5476H41.513H41.4785H41.4439H41.4093H41.3748H41.3402H41.3056H41.2711H41.2365H41.202H41.1674H41.1328H41.0983H41.0637H41.0291H40.9946H40.96H40.9254H40.8909H40.8563H40.8218H40.7872H40.7526H40.7181H40.6835H40.6489H40.6144H40.5798H40.5453H40.5107H40.4761H40.4416H40.407H40.3724H40.3379H40.3033H40.2688H40.2342H40.1996H40.1651H40.1305H40.0959H40.0614H40.0268H39.9923H39.9577H39.9231H39.8886H39.854H39.8195H39.7849H39.7503H39.7158H39.6812H39.6466H39.6121H39.5775H39.543H39.5084H39.4738H39.4393H39.4047H39.3702H39.3356H39.301H39.2665H39.2319H39.1973H39.1628H39.1282H39.0937H39.0591H39.0245H38.99H38.9554H38.9209H38.8863H38.8517H38.8172H38.7826H38.7481H38.7135H38.6789H38.6444H38.6098H38.5753H38.5407H38.5061H38.4716H38.437H38.4025H38.3679H38.3333H38.2988H38.2642H38.2297H38.1951H38.1605H38.126H38.0914H38.0569H38.0223H37.9877H37.9532H37.9186H37.8841H37.8495H37.8149H37.7804H37.7458H37.7113H37.6767H37.6421H37.6076H37.573H37.5385H37.5039H37.4693H37.4348H37.4002H37.3657H37.3311H37.2966H37.262H37.2274H37.1929H37.1583H37.1238H37.0892H37.0546H37.0201H36.9855H36.951H36.9164H36.8818H36.8473H36.8127H36.7782H36.7436H36.7091H36.6745H36.6399H36.6054H36.5708H36.5363H36.5017H36.4671H36.4326H36.398H36.3635H36.3289H36.2943H36.2598H36.2252H36.1907H36.1561H36.1216H36.087H36.0524H36.0179H35.9833H35.9488H35.9142H35.8797H35.8451H35.8105H35.776H35.7414H35.7069H35.6723H35.6377H35.6032H35.5686H35.5341H35.4995H35.465H35.4304H35.3958H35.3613H35.3267H35.2922H35.2576H35.223H35.1885H35.1539H35.1194H35.0848H35.0503H35.0157H34.9811H34.9466H34.912H34.8775H34.8429H34.8084H34.7738H34.7392H34.7047H34.6701H34.6356H34.601H34.5664H34.5319H34.4973H34.4628H34.4282H34.3937H34.3591H34.3245H34.29H34.2554H34.2209H34.1863H34.1518H34.1172H34.0826H34.0481H34.0135H33.979H33.9444H33.9099H33.8753H33.8407H33.8062H33.7716H33.7371H33.7025H33.6679H33.6334H33.5988H33.5643H33.5297H33.4952H33.4606H33.426H33.3915H33.3569H33.3224H33.2878H33.2533H33.2187H33.1841H33.1496H33.115H33.0805H33.0459H33.0114H32.9768H32.9422H32.9077H32.8731H32.8386H32.804H32.7694H32.7349H32.7003H32.6658H32.6312H32.5967H32.5621H32.5275H32.493H32.4584H32.4239H32.3893H32.3548H32.3202H32.2856H32.2511H32.2165H32.182H32.1474H32.1128H32.0783H32.0437H32.0092H31.9746H31.9401H31.9055H31.8709H31.8364H31.8018H31.7673H31.7327H31.6982H31.6636H31.629H31.5945H31.5599H31.5254H31.4908H31.4562H31.4217H31.3871H31.3526H31.318H31.2835H31.2489H31.2143H31.1798H31.1452H31.1107H31.0761H31.0415H31.007H30.9724H30.9379H30.9033H30.8688H30.8342H30.7996H30.7651H30.7305H30.696H30.6614H30.6268H30.5923H30.5577H30.5232H30.4886H30.4541H30.4195H30.3849H30.3504H30.3158H30.2813H30.2467H30.2121H30.1776H30.143H30.1085H30.0739H30.0393H30.0048H29.9702H29.9357H29.9011H29.8666H29.832H29.7974H29.7629H29.7283H29.6938H29.6592H29.6246H29.5901H29.5555H29.521H29.4864H29.4518H29.4173H29.3827H29.3482H29.3136H29.279H29.2445H29.2099H29.1754H29.1408H29.1062H29.0717H29.0371H29.0026H28.968H28.9334H28.8989H28.8643H28.8298H28.7952H28.7606H28.7261H28.6915H28.657H28.6224H28.5878H28.5533H28.5187H28.4842H28.4496H28.415H28.3805H28.3459H28.3114H28.2768H28.2422H28.2077H28.1731H28.1386H28.104H28.0694H28.0349H28.0003H27.9658H27.9312H27.8966H27.8621H27.8275H27.793H27.7584H27.7238H27.6893H27.6547H27.6201H27.5856H27.551H27.5165H27.4819H27.4473H27.4128H27.3782H27.3437H27.3091H27.2745H27.24H27.2054H27.1708H27.1363H27.1017H27.0672H27.0326H26.998H26.9635H26.9289H26.8944H26.8598H26.8252H26.7907H26.7561H26.7215H26.687H26.6524H26.6179H26.5833H26.5487H26.5142H26.4796H26.445H26.4105H26.3759H26.3414H26.3068H26.2722H26.2377H26.2031H26.1685H26.134H26.0994H26.0648H26.0303H25.9957H25.9612H25.9266H25.892H25.8575H25.8229H25.7883H25.7538H25.7192H25.6846H25.6501H25.6155H25.581H25.5464H25.5118H25.4773H25.4427H25.4081H25.3736H25.339H25.3044H25.2699H25.2353H25.2007H25.1662H25.1316H25.0971H25.0625H25.0279H24.9934H24.9588H24.9242H24.8897H24.8551H24.8205H24.786H24.7514H24.7168C24.671 14.4193 24.6256 14.4192 24.5806 14.419C24.3119 14.4181 24.0564 14.4172 23.8061 14.4498L23.7355 17.8279ZM23.7355 17.8279C22.8615 17.681 22.2408 16.8902 22.2863 16.0364M23.7355 17.8279L22.2863 16.0364M22.2863 16.0364C22.3319 15.2084 22.9336 14.5641 23.806 14.4499L22.2863 16.0364Z" fill="#101221" stroke="#EEF7FC" stroke-width="0.4"/>
<path d="M33.4856 22.4708V22.4655C33.0989 22.4657 32.7118 22.4663 32.3244 22.4669L33.4856 22.4708ZM33.4856 22.4708H33.6856M33.4856 22.4708H33.6856M33.6856 22.4708C34.1441 22.4708 34.601 22.4672 35.057 22.4636C36.1162 22.4551 37.1699 22.4467 38.2249 22.4841L33.6856 22.4708ZM39.3886 25.461C39.087 25.7216 38.6543 25.883 38.0952 25.8981L38.225 22.4841C38.8135 22.5054 39.2573 22.715 39.542 23.0368C39.8268 23.3586 39.9705 23.8131 39.9197 24.359C39.8756 24.8296 39.6886 25.2016 39.3886 25.461ZM27.3784 23.4854C27.5489 23.1063 27.7857 22.8543 28.0732 22.695C28.3635 22.5342 28.7195 22.4603 29.1378 22.4628L27.3784 23.4854Z" fill="#101221" stroke="#EEF7FC" stroke-width="0.4"/>
</svg>
