<svg width="65" height="64" viewBox="0 0 65 64" fill="none" xmlns="http://www.w3.org/2000/svg">
<path d="M48.7976 54.9875L48.7975 54.9876C48.278 55.5981 48.288 56.5432 48.7824 57.1468C49.325 57.8086 50.1181 57.9823 50.8859 57.5828L48.7976 54.9875ZM48.7976 54.9875C48.9817 54.7707 49.209 54.5931 49.4532 54.4021C49.505 54.3616 49.5575 54.3206 49.6106 54.2784L49.6109 54.2782M48.7976 54.9875L49.6109 54.2782M49.6109 54.2782C54.9811 49.993 58.4511 44.4976 59.8233 37.7621M49.6109 54.2782L59.8233 37.7621M15.0465 54.6829L15.0463 54.6828C14.8665 54.5223 14.6749 54.3736 14.4768 54.2205L14.4594 54.2071C14.2685 54.0597 14.0718 53.9077 13.8847 53.7431C13.8847 53.7431 13.8846 53.743 13.8846 53.743L14.0167 53.5928C5.72451 46.3138 2.40315 37.1657 4.54419 26.3931L4.34803 26.3541C7.48211 10.5907 22.9019 0.804964 38.5042 4.43351L15.0465 54.6829ZM15.0465 54.6829C15.8204 55.3718 15.9368 56.3784 15.3946 57.0927L15.3944 57.0928M15.0465 54.6829L15.3944 57.0928M15.3944 57.0928C15.0834 57.5034 14.6891 57.7345 14.2688 57.7872C13.8478 57.8399 13.3778 57.7164 12.9124 57.3744C10.9084 55.9005 9.13348 54.1755 7.54823 52.2528C3.81322 47.7167 1.50239 42.5348 0.604505 36.736C0.441395 35.6774 0.373194 34.6108 0.304313 33.5336C0.272769 33.0403 0.241081 32.5447 0.200072 32.0467M15.3944 57.0928L0.200072 32.0467M0.200072 32.0467C0.169043 17.5212 10.2117 4.50869 24.6108 1.09733C42.8889 -3.23288 59.7797 8.63865 63.1069 25.3491C65.6497 38.1126 61.6392 48.6904 51.666 57.0378C51.4151 57.2468 51.1587 57.4405 50.886 57.5827L0.200072 32.0467ZM59.8233 37.7621C62.9193 22.5764 53.425 7.89921 38.5043 4.43352L59.8233 37.7621Z" fill="#101221" stroke="#EEF7FC" stroke-width="0.4"/>
<path d="M38.6363 42.0525L38.5298 41.9085C45.058 37.0769 45.1836 29.1452 40.8893 24.2697C36.4986 19.2851 28.915 18.8941 24.1075 23.3877C21.6868 25.6511 20.372 28.4602 20.318 31.7491L38.6363 42.0525ZM38.6363 42.0525L38.505 42.2084L38.5075 42.2109L38.6294 42.3325L38.6514 42.3162C40.8352 43.8885 42.4191 45.8208 43.1633 48.3247L38.6363 42.0525ZM44.0438 61.5283C44.0461 60.8116 44.0505 60.0948 44.0549 59.3781C44.0701 56.9334 44.0852 54.4894 44.0138 52.0484L43.8139 52.0543C43.8139 52.0542 43.8139 52.0542 43.8139 52.0542C43.7772 50.8089 43.5219 49.5341 43.1634 48.3248L43.3286 63.2926C42.9873 63.6285 42.4304 63.795 41.5406 63.7963M44.0438 61.5283L43.8438 61.5275C43.8438 61.5276 43.8438 61.5276 43.8438 61.5277L44.0438 61.5283ZM44.0438 61.5283C44.0363 63.325 43.3526 63.9938 41.5409 63.9963M41.5409 63.9963L41.5408 63.7963C41.5407 63.7963 41.5407 63.7963 41.5406 63.7963M41.5409 63.9963C35.2201 64.0013 28.8993 64.0013 22.581 63.9963M41.5409 63.9963L41.5406 63.7963M41.5406 63.7963L22.581 63.9963M20.2906 61.5151C20.2806 58.5212 20.2831 55.5297 20.2906 52.5355L20.2906 52.5353C20.2979 48.4192 21.8512 45.0711 25.1568 42.5734C25.2394 42.5114 25.3227 42.4416 25.4199 42.3602C25.4794 42.3104 25.5441 42.2563 25.6169 42.1969L25.8182 42.0329L25.6082 41.8801C22.1407 39.3583 20.2493 36.0157 20.318 31.7492L20.2906 61.5151ZM20.2906 61.5151C20.2906 61.5151 20.2906 61.5152 20.2906 61.5152L20.0906 61.5159C20.0981 63.3225 20.7768 63.9963 22.581 63.9963M20.2906 61.5151C20.2906 61.5151 20.2906 61.5151 20.2906 61.515L22.581 63.9963M23.8158 59.4621C23.8158 59.5785 23.832 59.6908 23.8513 59.7997C23.8591 59.8435 23.867 59.885 23.875 59.9266C23.8879 59.9943 23.9008 60.0621 23.9131 60.1397L23.9398 60.3085H24.1106H40.0287H40.5113L40.2262 60.0232C40.2262 59.5108 40.2263 59.0014 40.2264 58.4943C40.2267 55.8376 40.227 53.2467 40.2187 50.6559M23.8158 59.4621H24.0158L23.8158 59.4623C23.8158 59.4623 23.8158 59.4622 23.8158 59.4621ZM23.8158 59.4621C23.8144 57.9906 23.8162 56.5177 23.8181 55.0451C23.8194 53.9409 23.8208 52.8369 23.8208 51.7339V51.7338C23.8234 48.2038 26.5413 44.466 30.8804 43.86C35.1105 43.2696 38.9268 45.8252 40.0566 49.8756M40.0566 49.8756C40.0566 49.8758 40.0566 49.8759 40.0567 49.876L39.864 49.9298L40.0564 49.8751C40.0564 49.8753 40.0565 49.8755 40.0566 49.8756ZM40.0566 49.8756C40.0663 49.9099 40.077 49.9459 40.0881 49.9833C40.1475 50.1827 40.2187 50.4219 40.2187 50.6559M40.2187 50.6559C40.2187 50.6559 40.2187 50.6559 40.2187 50.6559H40.0187L40.2187 50.6553C40.2187 50.6555 40.2187 50.6557 40.2187 50.6559ZM23.8158 31.8443L23.8158 31.8443C23.7264 36.486 27.2649 40.1734 31.8998 40.2655C36.5367 40.3575 40.2264 36.8163 40.321 32.1817L40.321 32.1816C40.413 27.5398 36.8744 23.8523 32.2395 23.7628L32.2395 23.7628H32.2356H32.235C27.5944 23.6743 23.9053 27.2124 23.8158 31.8443Z" fill="#101221" stroke="#EEF7FC" stroke-width="0.4"/>
<path d="M28.5559 10.5081L28.5559 10.5081C40.4217 8.64592 51.516 16.5443 53.5387 28.3859C54.5401 34.2537 53.2559 39.666 49.8582 44.5732L49.8581 44.5733C49.4248 45.2002 48.9627 45.6205 48.2123 45.6249C46.9198 45.6316 46.1034 44.3851 46.6503 43.2199C46.7736 42.9574 46.9388 42.719 47.1141 42.4661C47.1751 42.3781 47.2373 42.2884 47.2994 42.1953L47.2995 42.1952C54.6583 31.1456 48.186 16.0985 35.0853 13.9461C24.9815 12.2861 15.6565 19.0534 13.9916 29.0855L13.9916 29.0856C13.1969 33.8867 14.2377 38.3524 16.9725 42.3956C17.0162 42.4606 17.0597 42.5235 17.1024 42.5853C17.2486 42.797 17.385 42.9943 17.4865 43.2101L17.4867 43.2106C17.8754 44.0305 17.6347 44.8668 16.8879 45.364C16.2357 45.798 15.3067 45.7154 14.7383 45.1407C14.5045 44.9024 14.3098 44.6171 14.1073 44.3204L14.0797 44.28C11.5472 40.5616 10.321 36.4448 10.2865 33.0615L10.286 33.0153L10.2841 33.0116C10.3324 21.332 18.1884 12.1341 28.5559 10.5081Z" fill="#101221" stroke="#EEF7FC" stroke-width="0.4"/>
</svg>
