<svg width="72" height="64" viewBox="0 0 72 64" fill="none" xmlns="http://www.w3.org/2000/svg">
<path d="M57.3332 61.9695C56.0178 64.0083 55.2386 64.3099 53.0351 63.7429C51.8649 63.4413 50.6947 63.1509 49.5301 62.8241C47.5668 62.2739 46.7764 60.9976 47.2903 59.0259C48.4493 54.577 49.667 50.142 50.8623 45.7042C50.9237 45.4808 50.9907 45.2573 51.0885 45.0479C51.3538 44.4614 51.823 44.1905 52.4458 44.3664C53.0072 44.5228 53.2725 44.9613 53.2222 45.5394C53.1915 45.9053 53.0993 46.2683 53.0044 46.6258C51.9347 50.667 50.8567 54.7054 49.7926 58.7466C49.6642 59.2298 49.6027 59.7297 49.477 60.3832C51.2477 60.858 52.9234 61.3048 54.546 61.7405C55.3671 60.3469 60.9639 39.0852 60.841 37.8508C59.2463 37.4235 57.6013 36.985 55.7972 36.5019C55.4928 37.5241 55.2079 38.4401 54.9454 39.3617C54.7164 40.1661 54.5404 40.9844 54.2918 41.7831C54.0936 42.4226 53.6663 42.8276 52.9373 42.7047C52.2894 42.593 51.8733 41.9507 52.0604 41.2022C52.4849 39.4902 52.9122 37.7726 53.4568 36.0969C53.9232 34.6614 55.2973 33.9912 56.8249 34.3514C58.0901 34.6503 59.3357 35.0273 60.5924 35.3624C62.8211 35.9545 63.4215 36.703 63.469 39.0545C65.167 39.87 66.9098 40.7079 68.8591 41.6462C70.1857 33.1366 68.6972 25.4284 64.3236 18.142C63.955 18.3179 63.6757 18.4492 63.3992 18.5832C61.1119 19.7059 58.7017 19.3931 56.7774 17.7119C56.3222 17.3153 55.9033 16.874 55.476 16.4467C50.9824 11.9363 45.5531 9.21895 39.2637 8.47327C32.8403 7.71362 26.7659 8.97039 21.2306 12.4502C20.9932 12.5982 20.767 12.763 20.5212 12.8943C19.6945 13.3411 19.0326 13.2657 18.6612 12.696C18.2786 12.1095 18.4378 11.4616 19.2784 10.9672C20.8815 10.0289 22.479 9.05138 24.177 8.31966C35.3482 3.51045 48.4828 6.10496 57.04 14.7431C57.498 15.2067 57.942 15.6899 58.4503 16.092C59.8523 17.2036 61.313 17.1952 62.7596 16.12C50.9014 -1.37138 22.694 -3.03311 8.90312 16.0278C10.2129 17.2064 11.8384 17.2427 13.2795 16.0641C13.8883 15.5642 14.4133 14.9638 14.9831 14.4136C15.2512 14.1566 15.5137 13.8885 15.8125 13.6679C16.3432 13.2741 16.8738 13.3523 17.3123 13.8187C17.7144 14.246 17.7619 14.799 17.3737 15.2151C16.1114 16.5696 14.9607 18.0638 13.1677 18.8039C11.196 19.6166 9.34439 19.2731 7.59888 18.1922C3.63868 22.2977 0.896142 36.2282 3.05219 41.5457C4.80049 40.7051 6.54041 39.87 7.96753 39.183C8.35573 38.0882 8.45907 37.1387 8.97294 36.5326C9.46448 35.9545 10.3498 35.6529 11.1178 35.382C12.1651 35.0133 13.2627 34.7787 14.3435 34.505C16.6699 33.9102 17.8876 34.5916 18.5048 36.8901C20.1218 42.9002 21.7165 48.9131 23.3224 54.926C23.6827 56.2722 24.0681 57.6099 24.4032 58.9645C24.9115 61.0283 24.1686 62.2683 22.1103 62.8409C21.0379 63.1397 19.9571 63.4218 18.879 63.7011C16.4716 64.3211 15.8153 64.0837 14.3379 62.0002C12.5031 62.1287 10.6095 62.2572 8.71321 62.394C8.48141 62.4108 8.25519 62.4722 8.02339 62.4946C6.11311 62.6901 5.82824 62.4806 5.32833 60.5675C3.81463 54.7724 2.10263 49.0193 0.812358 43.1739C-2.51667 28.062 4.60499 12.3441 18.1613 4.67505C23.4062 1.70908 29.0504 0.0613267 35.0522 -0.000115133C45.6286 -0.103449 54.6968 3.63891 61.9972 11.3527C67.3399 16.9969 70.4063 23.7499 71.409 31.4665C72.1183 36.9208 71.3671 42.2048 69.8897 47.4469C68.6692 51.7813 67.5465 56.1465 66.3903 60.5005C65.8541 62.5197 65.572 62.6929 63.4718 62.4778C61.4414 62.2711 59.4027 62.1371 57.336 61.9667L57.3332 61.9695ZM10.6794 37.9011C10.7911 38.549 10.8441 39.0936 10.981 39.6131C12.3467 44.7742 13.7263 49.9325 15.1032 55.0908C15.6059 56.976 16.1253 58.8555 16.6141 60.7407C16.7565 61.2881 16.9408 61.7712 17.6167 61.6037C19.1304 61.2294 20.6357 60.8049 22.317 60.3553C20.2391 52.298 18.1138 44.4474 15.9494 36.4907C14.095 36.9878 12.45 37.4263 10.6794 37.9011ZM3.34543 44.0006C4.77535 49.413 6.18013 54.725 7.60726 60.1151C9.74934 59.9559 11.7658 59.8079 13.9106 59.6487C12.2545 53.4682 10.6403 47.4385 8.99249 41.2804C7.07942 42.202 5.33671 43.0427 3.34823 44.0006H3.34543ZM63.955 60.1123C64.8235 58.1126 68.1805 44.9082 68.0744 43.8665C66.3652 43.0427 64.6224 42.202 62.7261 41.286C61.0728 47.4329 59.3999 53.4347 57.8443 59.6459C60.0367 59.8135 62.0112 59.9615 63.955 60.1095V60.1123Z" fill="#101221"/>
<path d="M28.7594 23.1048C28.8962 22.6887 29.0163 22.3508 29.1169 22.0073C30.1307 18.533 31.918 15.5419 34.655 13.1513C35.7107 12.2297 35.9956 12.2269 37.0345 13.1317C39.7714 15.5224 41.5756 18.5023 42.5838 21.9793C42.662 22.2447 42.7318 22.5128 42.824 22.7725C42.8519 22.8535 42.9385 22.9149 43.0446 23.0406C43.3909 22.8535 43.7512 22.6636 44.1115 22.4681C47.2897 20.7421 50.6718 19.9183 54.294 20.2478C55.5033 20.3567 55.6765 20.5857 55.7686 21.8118C56.4976 31.5447 49.253 39.9315 40.3216 41.0905C35.6967 41.6882 31.0662 41.7413 26.648 39.7249C19.6995 36.555 15.3539 29.3049 15.9488 21.7196C16.0326 20.636 16.2783 20.3539 17.3871 20.2506C21.0121 19.9099 24.3914 20.731 27.5724 22.4541C27.9355 22.6496 28.2958 22.8507 28.7594 23.1048ZM35.8671 15.338C29.1448 21.108 29.1979 32.7819 35.8392 38.3927C42.285 33.0836 42.7737 21.4068 35.8671 15.338ZM18.4539 22.591C17.0268 29.8607 25.6063 39.4651 32.781 38.8284C29.4045 33.8963 29.0526 32.8629 28.4913 26.4506C28.4633 26.1267 28.2818 25.7077 28.0333 25.529C25.1958 23.4847 22.0539 22.4066 18.4539 22.591ZM53.2579 22.6049C49.9596 22.3899 47.0746 23.373 44.346 25.0179C43.497 25.529 43.1396 26.1211 43.1675 27.1377C43.2596 30.3801 42.3352 33.3796 40.6986 36.1584C40.1485 37.0968 39.5033 37.9793 38.8777 38.9233C47.0746 38.4932 54.6375 29.9696 53.2579 22.6021V22.6049Z" fill="#101221"/>
<path d="M24.1739 44.5229C25.0285 44.4978 25.8468 45.0843 26.5897 45.8244C28.5559 47.7794 28.5838 47.7821 30.5192 45.8411C32.3708 43.9839 34.5492 44.0063 36.3953 45.9026C38.1715 47.7263 38.4843 47.7849 40.1237 45.9445C41.8301 44.0314 44.5782 44.0174 46.1924 46.0031C46.7315 46.6678 47.3319 47.1789 48.2144 47.3856C48.9657 47.5615 49.2226 48.0921 49.0662 48.7317C48.921 49.321 48.3513 49.7622 47.6754 49.5807C46.9353 49.3824 46.2092 49.0333 45.5557 48.6284C45.0949 48.3435 44.7709 47.8436 44.3715 47.4554C43.5449 46.6594 42.7629 46.6511 41.939 47.4302C41.6346 47.7179 41.3721 48.0475 41.0732 48.3407C39.283 50.089 37.2136 50.0695 35.4178 48.2848C35.1218 47.9888 34.862 47.6565 34.5548 47.3744C33.7868 46.6706 32.988 46.6846 32.2172 47.4163C31.8458 47.7682 31.533 48.1815 31.156 48.525C29.5669 49.9773 27.6119 50.0136 26.006 48.5753C25.1514 47.8101 24.4812 46.8493 23.2244 46.6036C22.6658 46.4947 22.5094 45.911 22.6379 45.3496C22.7915 44.6793 23.2998 44.5118 24.1712 44.5229H24.1739Z" fill="#101221"/>
</svg>
