<svg width="65" height="64" viewBox="0 0 65 64" fill="none" xmlns="http://www.w3.org/2000/svg">
<mask id="path-1-inside-1_2275_120" fill="white">
<path d="M19.8122 33.4857C19.4316 33.2253 19.001 33.0175 18.6781 32.6996C12.8673 26.9489 7.07161 21.1857 1.27088 15.4225C1.0055 15.1572 0.725102 14.9043 0.479754 14.6214C-0.158651 13.8829 -0.168666 13.3696 0.502286 12.6461C1.15321 11.9426 1.85921 11.2892 2.54018 10.6157C5.74222 7.44623 8.94426 4.27924 12.1463 1.10974C13.6334 -0.36235 13.9414 -0.367357 15.3884 1.0797C21.1991 6.89044 27.0124 12.6987 32.8131 18.5169C33.1336 18.8399 33.3589 19.2555 33.6919 19.7136C34.2401 19.2054 34.5756 18.915 34.8861 18.6021C39.2247 14.2684 43.5534 9.92725 47.897 5.59861C50.1026 3.40049 52.7339 2.68948 55.7006 3.63332C60.7427 5.23559 62.5178 11.487 59.1305 15.5502C58.81 15.9333 58.452 16.2863 58.099 16.6393C53.9131 20.8302 49.7246 25.0162 45.5387 29.2071C45.2182 29.5276 44.9153 29.863 44.4096 30.3963C44.8352 30.7117 45.2433 30.9446 45.5637 31.2625C51.3519 37.0357 57.1301 42.8189 62.9108 48.5996C63.1462 48.8349 63.394 49.0628 63.6143 49.3131C64.2702 50.0617 64.2803 50.5499 63.6569 51.2934C63.5242 51.4537 63.369 51.5939 63.2213 51.7416C59.4659 55.5345 55.7081 59.3298 51.9528 63.1227C51.7775 63.3005 51.6073 63.4882 51.4145 63.646C50.8212 64.1241 50.0801 64.1216 49.4918 63.6159C49.1438 63.318 48.8358 62.975 48.5129 62.6495C42.7497 56.8513 36.9865 51.0531 31.2209 45.2574C30.9605 44.9945 30.6851 44.7466 30.3596 44.4387C30.0041 44.7767 29.6687 45.0796 29.3507 45.4001C26.2814 48.4669 23.2295 51.5488 20.1351 54.5881C19.6494 55.0663 19.0211 55.4694 18.3827 55.7147C14.1817 57.3195 9.9607 58.8692 5.74472 60.4364C5.47184 60.5365 5.19895 60.6567 4.91605 60.7043C3.95468 60.862 3.28874 60.1886 3.44646 59.2247C3.48652 58.9818 3.58416 58.7465 3.67178 58.5112C5.25903 54.2151 6.83126 49.914 8.45357 45.6304C8.68139 45.0321 9.07945 44.4512 9.5326 43.9931C12.5469 40.9312 15.5937 37.9019 18.6355 34.8701C18.9585 34.5472 19.3265 34.2668 19.672 33.9689C19.7221 33.8086 19.7696 33.6509 19.8197 33.4907L19.8122 33.4857ZM42.632 14.7992C32.3875 25.0437 22.1355 35.2932 11.9936 45.4351C14.2092 47.6533 16.52 49.9641 18.6831 52.1271C28.875 41.9377 39.1546 31.6581 49.324 21.4887C47.1234 19.288 44.8302 16.9948 42.632 14.7992ZM58.4545 47.8611C56.9424 49.3807 55.4477 50.8879 53.9506 52.3925C53.6852 52.6579 53.4324 52.9408 53.137 53.1686C52.5561 53.6167 51.8952 53.5917 51.4345 53.1411C50.9739 52.6904 50.9363 52.022 51.3719 51.4436C51.5472 51.2133 51.7675 51.0155 51.9728 50.8077C53.3297 49.4508 54.6892 48.0989 56.0411 46.737C56.2639 46.5117 56.4567 46.2563 56.6119 46.0735C55.3526 44.7992 54.1559 43.5925 52.9216 42.3457C52.7164 42.531 52.466 42.7413 52.2357 42.9691C51.4345 43.7603 50.6459 44.5639 49.8448 45.355C48.8984 46.2888 48.2125 46.414 47.6091 45.7756C47.0608 45.1948 47.2035 44.4637 48.0397 43.615C48.6256 43.0217 49.2189 42.4359 49.8072 41.845C50.2629 41.3869 50.7185 40.9237 51.0565 40.5807C49.7572 39.2288 48.583 38.0046 47.3512 36.7228C45.8166 38.2624 44.2894 39.7971 42.7597 41.3293C42.4944 41.5947 42.2415 41.8801 41.9411 42.0979C41.3352 42.536 40.7093 42.4659 40.2537 41.9577C39.8456 41.502 39.8131 40.8987 40.2211 40.3554C40.4439 40.0575 40.7319 39.8071 40.9947 39.5418C42.5219 38.0121 44.0491 36.4849 45.5211 35.0153C44.4947 34.039 43.5458 33.1377 42.6746 32.3065C39.2823 35.6888 35.8049 39.1562 32.3199 42.6336C38.4111 48.6272 44.5498 54.6657 50.5733 60.5916C53.9105 57.3145 57.4481 53.8396 61.0332 50.3196C60.2095 49.5334 59.4058 48.7648 58.4545 47.8586V47.8611ZM29.168 18.4919C27.5732 20.0892 26.0435 21.6238 24.5088 23.1535C24.2435 23.4189 23.9831 23.6918 23.6852 23.9171C23.192 24.2926 22.6687 24.2551 22.1855 23.8871C21.7274 23.5366 21.5922 22.8281 21.9077 22.3023C22.0754 22.0219 22.3282 21.7866 22.5636 21.5512C23.8579 20.2494 25.1598 18.9551 26.4541 17.6532C26.767 17.3403 27.0575 17.0048 27.3479 16.6943C26.1387 15.5027 25.0121 14.3936 23.8504 13.2495C23.6201 13.4673 23.3422 13.7151 23.0793 13.978C22.3383 14.7115 21.6047 15.4526 20.8662 16.1886C19.8297 17.2201 19.1688 17.3628 18.5379 16.7044C17.9646 16.106 18.1273 15.3925 19.0536 14.4537C19.6119 13.8904 20.1752 13.3321 20.7335 12.7713C21.1916 12.3131 21.6448 11.8525 21.9752 11.517C20.6759 10.1701 19.4992 8.94836 18.2399 7.639C16.6903 9.20623 15.1406 10.776 13.5833 12.3407C13.3205 12.606 13.0576 12.8864 12.7472 13.0892C12.2339 13.4272 11.7107 13.3596 11.2525 12.9565C10.7919 12.551 10.7068 11.9126 11.0723 11.3718C11.2801 11.0639 11.563 10.806 11.8284 10.5406C13.3881 8.9784 14.9503 7.42119 16.3823 5.99166C15.4159 5.0278 14.5172 4.13403 13.671 3.29033C10.2686 6.74523 6.79872 10.2702 3.51656 13.605C9.44247 19.636 15.456 25.7547 21.3744 31.7782C24.9069 28.2457 28.4044 24.7483 31.9244 21.2283C31.0982 20.4071 30.1894 19.5008 29.1705 18.4869L29.168 18.4919ZM49.0512 8.05459C51.422 10.423 53.7328 12.7337 56.0586 15.0595C59.2732 12.6586 58.7224 9.07103 56.9273 7.26097C54.6391 4.95019 51.4696 5.3107 49.0512 8.0571V8.05459ZM53.9181 17.2126C51.5372 14.8267 49.2489 12.5334 46.9857 10.2627C46.1896 11.0163 45.3284 11.8325 44.6149 12.5084C46.9882 14.8818 49.2965 17.1926 51.5522 19.4483C52.2958 18.7473 53.137 17.9486 53.9181 17.2126ZM10.2436 47.9887C9.72537 49.3707 9.14204 50.8753 8.60879 52.395C8.53118 52.6128 8.60879 52.9984 8.76651 53.1686C9.58016 54.0423 10.4389 54.871 11.2651 55.6972C13 55.0488 14.6148 54.4454 16.1645 53.8646C14.1792 51.8968 12.2464 49.9766 10.2436 47.9887Z"/>
</mask>
<path d="M19.8122 33.4857C19.4316 33.2253 19.001 33.0175 18.6781 32.6996C12.8673 26.9489 7.07161 21.1857 1.27088 15.4225C1.0055 15.1572 0.725102 14.9043 0.479754 14.6214C-0.158651 13.8829 -0.168666 13.3696 0.502286 12.6461C1.15321 11.9426 1.85921 11.2892 2.54018 10.6157C5.74222 7.44623 8.94426 4.27924 12.1463 1.10974C13.6334 -0.36235 13.9414 -0.367357 15.3884 1.0797C21.1991 6.89044 27.0124 12.6987 32.8131 18.5169C33.1336 18.8399 33.3589 19.2555 33.6919 19.7136C34.2401 19.2054 34.5756 18.915 34.8861 18.6021C39.2247 14.2684 43.5534 9.92725 47.897 5.59861C50.1026 3.40049 52.7339 2.68948 55.7006 3.63332C60.7427 5.23559 62.5178 11.487 59.1305 15.5502C58.81 15.9333 58.452 16.2863 58.099 16.6393C53.9131 20.8302 49.7246 25.0162 45.5387 29.2071C45.2182 29.5276 44.9153 29.863 44.4096 30.3963C44.8352 30.7117 45.2433 30.9446 45.5637 31.2625C51.3519 37.0357 57.1301 42.8189 62.9108 48.5996C63.1462 48.8349 63.394 49.0628 63.6143 49.3131C64.2702 50.0617 64.2803 50.5499 63.6569 51.2934C63.5242 51.4537 63.369 51.5939 63.2213 51.7416C59.4659 55.5345 55.7081 59.3298 51.9528 63.1227C51.7775 63.3005 51.6073 63.4882 51.4145 63.646C50.8212 64.1241 50.0801 64.1216 49.4918 63.6159C49.1438 63.318 48.8358 62.975 48.5129 62.6495C42.7497 56.8513 36.9865 51.0531 31.2209 45.2574C30.9605 44.9945 30.6851 44.7466 30.3596 44.4387C30.0041 44.7767 29.6687 45.0796 29.3507 45.4001C26.2814 48.4669 23.2295 51.5488 20.1351 54.5881C19.6494 55.0663 19.0211 55.4694 18.3827 55.7147C14.1817 57.3195 9.9607 58.8692 5.74472 60.4364C5.47184 60.5365 5.19895 60.6567 4.91605 60.7043C3.95468 60.862 3.28874 60.1886 3.44646 59.2247C3.48652 58.9818 3.58416 58.7465 3.67178 58.5112C5.25903 54.2151 6.83126 49.914 8.45357 45.6304C8.68139 45.0321 9.07945 44.4512 9.5326 43.9931C12.5469 40.9312 15.5937 37.9019 18.6355 34.8701C18.9585 34.5472 19.3265 34.2668 19.672 33.9689C19.7221 33.8086 19.7696 33.6509 19.8197 33.4907L19.8122 33.4857ZM42.632 14.7992C32.3875 25.0437 22.1355 35.2932 11.9936 45.4351C14.2092 47.6533 16.52 49.9641 18.6831 52.1271C28.875 41.9377 39.1546 31.6581 49.324 21.4887C47.1234 19.288 44.8302 16.9948 42.632 14.7992ZM58.4545 47.8611C56.9424 49.3807 55.4477 50.8879 53.9506 52.3925C53.6852 52.6579 53.4324 52.9408 53.137 53.1686C52.5561 53.6167 51.8952 53.5917 51.4345 53.1411C50.9739 52.6904 50.9363 52.022 51.3719 51.4436C51.5472 51.2133 51.7675 51.0155 51.9728 50.8077C53.3297 49.4508 54.6892 48.0989 56.0411 46.737C56.2639 46.5117 56.4567 46.2563 56.6119 46.0735C55.3526 44.7992 54.1559 43.5925 52.9216 42.3457C52.7164 42.531 52.466 42.7413 52.2357 42.9691C51.4345 43.7603 50.6459 44.5639 49.8448 45.355C48.8984 46.2888 48.2125 46.414 47.6091 45.7756C47.0608 45.1948 47.2035 44.4637 48.0397 43.615C48.6256 43.0217 49.2189 42.4359 49.8072 41.845C50.2629 41.3869 50.7185 40.9237 51.0565 40.5807C49.7572 39.2288 48.583 38.0046 47.3512 36.7228C45.8166 38.2624 44.2894 39.7971 42.7597 41.3293C42.4944 41.5947 42.2415 41.8801 41.9411 42.0979C41.3352 42.536 40.7093 42.4659 40.2537 41.9577C39.8456 41.502 39.8131 40.8987 40.2211 40.3554C40.4439 40.0575 40.7319 39.8071 40.9947 39.5418C42.5219 38.0121 44.0491 36.4849 45.5211 35.0153C44.4947 34.039 43.5458 33.1377 42.6746 32.3065C39.2823 35.6888 35.8049 39.1562 32.3199 42.6336C38.4111 48.6272 44.5498 54.6657 50.5733 60.5916C53.9105 57.3145 57.4481 53.8396 61.0332 50.3196C60.2095 49.5334 59.4058 48.7648 58.4545 47.8586V47.8611ZM29.168 18.4919C27.5732 20.0892 26.0435 21.6238 24.5088 23.1535C24.2435 23.4189 23.9831 23.6918 23.6852 23.9171C23.192 24.2926 22.6687 24.2551 22.1855 23.8871C21.7274 23.5366 21.5922 22.8281 21.9077 22.3023C22.0754 22.0219 22.3282 21.7866 22.5636 21.5512C23.8579 20.2494 25.1598 18.9551 26.4541 17.6532C26.767 17.3403 27.0575 17.0048 27.3479 16.6943C26.1387 15.5027 25.0121 14.3936 23.8504 13.2495C23.6201 13.4673 23.3422 13.7151 23.0793 13.978C22.3383 14.7115 21.6047 15.4526 20.8662 16.1886C19.8297 17.2201 19.1688 17.3628 18.5379 16.7044C17.9646 16.106 18.1273 15.3925 19.0536 14.4537C19.6119 13.8904 20.1752 13.3321 20.7335 12.7713C21.1916 12.3131 21.6448 11.8525 21.9752 11.517C20.6759 10.1701 19.4992 8.94836 18.2399 7.639C16.6903 9.20623 15.1406 10.776 13.5833 12.3407C13.3205 12.606 13.0576 12.8864 12.7472 13.0892C12.2339 13.4272 11.7107 13.3596 11.2525 12.9565C10.7919 12.551 10.7068 11.9126 11.0723 11.3718C11.2801 11.0639 11.563 10.806 11.8284 10.5406C13.3881 8.9784 14.9503 7.42119 16.3823 5.99166C15.4159 5.0278 14.5172 4.13403 13.671 3.29033C10.2686 6.74523 6.79872 10.2702 3.51656 13.605C9.44247 19.636 15.456 25.7547 21.3744 31.7782C24.9069 28.2457 28.4044 24.7483 31.9244 21.2283C31.0982 20.4071 30.1894 19.5008 29.1705 18.4869L29.168 18.4919ZM49.0512 8.05459C51.422 10.423 53.7328 12.7337 56.0586 15.0595C59.2732 12.6586 58.7224 9.07103 56.9273 7.26097C54.6391 4.95019 51.4696 5.3107 49.0512 8.0571V8.05459ZM53.9181 17.2126C51.5372 14.8267 49.2489 12.5334 46.9857 10.2627C46.1896 11.0163 45.3284 11.8325 44.6149 12.5084C46.9882 14.8818 49.2965 17.1926 51.5522 19.4483C52.2958 18.7473 53.137 17.9486 53.9181 17.2126ZM10.2436 47.9887C9.72537 49.3707 9.14204 50.8753 8.60879 52.395C8.53118 52.6128 8.60879 52.9984 8.76651 53.1686C9.58016 54.0423 10.4389 54.871 11.2651 55.6972C13 55.0488 14.6148 54.4454 16.1645 53.8646C14.1792 51.8968 12.2464 49.9766 10.2436 47.9887Z" fill="#101221" stroke="#EEF7FC" stroke-width="0.2" mask="url(#path-1-inside-1_2275_120)"/>
<path d="M25.9378 36.4755L25.9379 36.4754C29.6481 32.7552 33.3659 29.0374 37.0812 25.3221C37.1186 25.2847 37.1553 25.2471 37.1917 25.2097C37.3309 25.0669 37.4659 24.9284 37.6246 24.82C38.139 24.4747 38.7609 24.5337 39.1687 24.9343C39.5864 25.3472 39.6477 25.9386 39.2853 26.4652L39.2853 26.4653C39.1487 26.6649 38.9725 26.8393 38.7944 27.0156C38.7647 27.045 38.735 27.0744 38.7053 27.1041L38.7053 27.1041C38.0146 27.7953 37.3239 28.4867 36.6332 29.1781C33.639 32.1755 30.6444 35.1733 27.6398 38.1596C27.3782 38.4194 27.0683 38.6256 26.8312 38.7835C26.7487 38.8384 26.675 38.8874 26.6153 38.9308C26.0166 38.9134 25.587 38.6802 25.3586 38.3601C25.1286 38.0377 25.0977 37.6209 25.3105 37.2276C25.4594 36.9539 25.6941 36.7192 25.9273 36.4861L25.9378 36.4755Z" fill="#101221" stroke="#EEF7FC" stroke-width="0.1"/>
<path d="M22.8623 42.5163C23.569 42.4845 24.0879 41.9069 24.0379 41.2121L22.8623 42.5163ZM22.8623 42.5163L22.8613 42.4665H22.8588V42.4665" fill="#101221" stroke="#EEF7FC" stroke-width="0.1"/>
</svg>
