<svg width="11" height="10" viewBox="0 0 11 10" fill="none" xmlns="http://www.w3.org/2000/svg">
<path id="Vector" fill-rule="evenodd" clip-rule="evenodd" d="M0.000301361 5C0.000301361 5.18941 0.0712061 5.37106 0.197418 5.50499C0.32363 5.63892 0.494812 5.71416 0.673303 5.71416L8.4707 5.71416L5.58083 8.77932C5.51826 8.84572 5.46862 8.92455 5.43476 9.0113C5.40089 9.09805 5.38346 9.19104 5.38346 9.28494C5.38346 9.37884 5.40089 9.47183 5.43476 9.55858C5.46862 9.64534 5.51826 9.72417 5.58083 9.79056C5.6434 9.85696 5.71769 9.90964 5.79944 9.94557C5.8812 9.98151 5.96882 10 6.05732 10C6.14581 10 6.23343 9.98151 6.31519 9.94557C6.39694 9.90964 6.47123 9.85696 6.5338 9.79056L10.5718 5.50562C10.6345 5.43928 10.6842 5.36048 10.7181 5.27371C10.7521 5.18695 10.7695 5.09394 10.7695 5C10.7695 4.90606 10.7521 4.81305 10.7181 4.72629C10.6842 4.63952 10.6345 4.56072 10.5718 4.49438L6.5338 0.209436C6.40743 0.0753365 6.23603 0 6.05732 0C5.8786 0 5.7072 0.0753365 5.58083 0.209436C5.45446 0.343536 5.38346 0.525414 5.38346 0.715059C5.38346 0.904705 5.45446 1.08658 5.58083 1.22068L8.4707 4.28584L0.673303 4.28584C0.494812 4.28584 0.32363 4.36108 0.197418 4.49502C0.0712061 4.62895 0.000301361 4.81059 0.000301361 5Z" fill="white"/>
</svg>
