<svg width="41" height="30" viewBox="0 0 41 30" fill="none" xmlns="http://www.w3.org/2000/svg">
<path d="M17.1806 29.9984H0C0 29.7266 0 29.4737 0 29.2223C0 23.6719 0.00314202 18.1215 0 12.5696C0 10.9373 0.13982 9.32389 0.673963 7.77331C1.73125 4.70513 3.9668 2.81677 6.9093 1.67308C10.133 0.420983 13.506 0.102068 16.9292 0.113065C17.0015 0.113065 17.0737 0.157053 17.19 0.193187V3.68397C16.2882 3.77823 15.4242 3.81279 14.5821 3.96832C10.0089 4.80881 8.37348 7.85186 8.562 11.9538C8.57457 12.213 8.62484 12.4706 8.67197 12.8351H17.1806V29.9984Z" fill="#101221" fill-opacity="0.14"/>
<path d="M40.1768 29.9984H23.0292C23.0151 29.7031 22.9899 29.4282 22.9899 29.1532C22.9884 23.7882 22.9617 18.4232 23.0056 13.0582C23.0166 11.6537 23.1345 10.2304 23.4 8.85264C23.9231 6.13793 25.4894 4.10505 27.8475 2.68014C29.9212 1.42805 32.2086 0.783934 34.5824 0.479158C36.4158 0.243506 38.268 0.157101 40.1736 0V3.65417C39.1682 3.78928 38.1549 3.86311 37.1683 4.06891C33.6241 4.80415 31.6698 7.17637 31.5676 10.8054C31.5488 11.4511 31.5645 12.0983 31.5645 12.8367H40.1752V30L40.1768 29.9984Z" fill="#101221" fill-opacity="0.14"/>
</svg>
