<svg width="35" height="34" viewBox="0 0 35 34" fill="none" xmlns="http://www.w3.org/2000/svg">
<path d="M12.7848 25.3251C12.6911 25.1361 12.6041 25.0301 12.5851 24.9133C12.3146 23.2919 11.9449 21.6895 11.4543 20.1239C10.9501 18.5174 10.2366 17.0143 8.93594 15.8632C8.16398 15.1795 7.2765 14.6889 6.33058 14.3124C4.88452 13.7362 3.37323 13.3801 1.85106 13.0648C1.28161 12.9466 0.709438 12.8406 0 12.7019C0.252788 12.6041 0.381901 12.5307 0.521886 12.5035C2.22209 12.1733 3.92366 11.8444 5.56542 11.2749C6.5059 10.9501 7.4192 10.5587 8.23873 9.9865C9.15882 9.34366 9.90632 8.54044 10.4459 7.54696C11.2165 6.12808 11.6908 4.60591 12.0306 3.03618C12.2303 2.11337 12.407 1.18512 12.6027 0.262302C12.619 0.184835 12.6965 0.120958 12.7808 0C12.9996 1.04785 13.1831 2.03318 13.4141 3.009C13.7403 4.38982 14.1317 5.7489 14.7419 7.04138C15.6525 8.97127 17.1638 10.2121 19.1032 10.9841C20.7395 11.6364 22.4574 12.0034 24.1766 12.3581C24.4851 12.422 24.7991 12.4614 25.1062 12.5266C25.1823 12.5429 25.2462 12.619 25.3672 12.7047C24.3193 12.9248 23.334 13.1137 22.3582 13.3393C20.908 13.6737 19.4837 14.0923 18.145 14.7623C16.4068 15.6321 15.2353 17.0102 14.5 18.7879C13.7729 20.5452 13.3597 22.3867 13.0009 24.2446C12.9371 24.5735 12.8705 24.901 12.7862 25.3237L12.7848 25.3251Z" fill="black"/>
<path d="M18.5234 25.9678C19.2234 25.8115 19.8159 25.7028 20.3962 25.5424C21.1764 25.3277 21.9619 25.1184 22.7162 24.8289C24.1813 24.2662 25.0878 23.1572 25.6192 21.7044C25.9916 20.6851 26.2022 19.6264 26.4305 18.5704C26.4727 18.3787 26.5366 18.1925 26.6127 17.9261C26.8954 19.08 27.1196 20.1496 27.4308 21.1934C27.6089 21.7914 27.9024 22.3608 28.1933 22.918C28.688 23.8667 29.5265 24.4402 30.486 24.8398C31.4442 25.2393 32.4445 25.5071 33.4679 25.6865C33.8348 25.7504 34.195 25.8482 34.547 26.0534C33.8362 26.207 33.1199 26.3416 32.4159 26.5223C31.8288 26.6732 31.2458 26.8526 30.6763 27.0605C29.0794 27.6449 28.0873 28.8069 27.5396 30.3916C27.1549 31.502 26.9443 32.6531 26.7146 33.8002C26.7064 33.8423 26.6806 33.8817 26.629 34C26.5515 33.8165 26.4713 33.6928 26.4455 33.5569C26.2226 32.4071 25.9739 31.2696 25.577 30.1606C24.9818 28.4984 23.8279 27.4424 22.1753 26.9341C21.0173 26.578 19.8309 26.3103 18.5234 25.9678Z" fill="black"/>
</svg>
