<svg width="16" height="16" viewBox="0 0 16 16" fill="none" xmlns="http://www.w3.org/2000/svg">
<g id="icon">
<path id="Vector" d="M12.5287 11.381L12.8017 13.5929C12.8717 14.1739 12.2487 14.5799 11.7517 14.2789L8.81867 12.5359C8.49667 12.5359 8.18168 12.515 7.87368 12.473C8.39168 11.864 8.69967 11.0939 8.69967 10.2609C8.69967 8.27295 6.97768 6.66299 4.84969 6.66299C4.03769 6.66299 3.2887 6.89397 2.6657 7.29997C2.6447 7.12497 2.6377 6.94997 2.6377 6.76797C2.6377 3.58298 5.40268 1 8.81867 1C12.2347 1 14.9996 3.58298 14.9996 6.76797C14.9996 8.65796 14.0266 10.331 12.5287 11.381Z" stroke="white" stroke-width="1.5" stroke-linecap="round" stroke-linejoin="round"/>
<path id="Vector_2" d="M8.69997 10.261C8.69997 11.094 8.39197 11.8641 7.87397 12.4731C7.18098 13.313 6.08198 13.852 4.84998 13.852L3.02299 14.937C2.71499 15.126 2.32299 14.867 2.36499 14.51L2.53999 13.131C1.602 12.4801 1 11.437 1 10.261C1 9.02904 1.658 7.94406 2.666 7.30006C3.28899 6.89407 4.03799 6.66309 4.84998 6.66309C6.97797 6.66309 8.69997 8.27305 8.69997 10.261Z" stroke="white" stroke-width="1.5" stroke-linecap="round" stroke-linejoin="round"/>
</g>
</svg>
