<svg width="22" height="22" viewBox="0 0 22 22" fill="none" xmlns="http://www.w3.org/2000/svg">
<path d="M16 1H6C3.23858 1 1 3.23858 1 6V16C1 18.7614 3.23858 21 6 21H16C18.7614 21 21 18.7614 21 16V6C21 3.23858 18.7614 1 16 1Z" stroke="white" stroke-width="1.5" stroke-linecap="round" stroke-linejoin="round"/>
<path d="M14.9987 10.3703C15.1221 11.2025 14.98 12.0525 14.5925 12.7993C14.205 13.5461 13.5919 14.1517 12.8404 14.53C12.0888 14.9082 11.2372 15.0399 10.4065 14.9062C9.57586 14.7726 8.80849 14.3804 8.21357 13.7855C7.61865 13.1905 7.22646 12.4232 7.0928 11.5925C6.95913 10.7619 7.0908 9.9102 7.46906 9.15868C7.84732 8.40716 8.45292 7.79404 9.19972 7.40654C9.94651 7.01904 10.7965 6.87689 11.6287 7.0003C12.4777 7.12619 13.2636 7.52176 13.8704 8.12861C14.4773 8.73545 14.8728 9.52138 14.9987 10.3703Z" stroke="white" stroke-width="1.5" stroke-linecap="round" stroke-linejoin="round"/>
<path d="M16.499 5.5H16.509" stroke="white" stroke-width="1.5" stroke-linecap="round" stroke-linejoin="round"/>
</svg>
