<svg width="181" height="40" viewBox="0 0 181 40" fill="none" xmlns="http://www.w3.org/2000/svg">
<path d="M55.8906 32L62.1466 8.2H69.9666L76.2226 32H71.5986L70.3066 26.764H61.8066L60.5146 32H55.8906ZM62.8606 22.616H69.2526L66.3626 11.022H65.7506L62.8606 22.616ZM79.2074 32V15.136H83.4914V32H79.2074ZM81.3494 13.164C80.5787 13.164 79.9214 12.9147 79.3774 12.416C78.8561 11.9173 78.5954 11.26 78.5954 10.444C78.5954 9.628 78.8561 8.97067 79.3774 8.472C79.9214 7.97333 80.5787 7.724 81.3494 7.724C82.1427 7.724 82.8001 7.97333 83.3214 8.472C83.8427 8.97067 84.1034 9.628 84.1034 10.444C84.1034 11.26 83.8427 11.9173 83.3214 12.416C82.8001 12.9147 82.1427 13.164 81.3494 13.164ZM88.1706 25.268V21.392H98.2346V25.268H88.1706ZM102.914 38.8V15.136H107.13V17.176H107.742C108.128 16.5187 108.728 15.9407 109.544 15.442C110.36 14.9207 111.528 14.66 113.046 14.66C114.406 14.66 115.664 15 116.82 15.68C117.976 16.3373 118.906 17.312 119.608 18.604C120.311 19.896 120.662 21.46 120.662 23.296V23.84C120.662 25.676 120.311 27.24 119.608 28.532C118.906 29.824 117.976 30.81 116.82 31.49C115.664 32.1473 114.406 32.476 113.046 32.476C112.026 32.476 111.165 32.3513 110.462 32.102C109.782 31.8753 109.227 31.5807 108.796 31.218C108.388 30.8327 108.06 30.4473 107.81 30.062H107.198V38.8H102.914ZM111.754 28.736C113.092 28.736 114.191 28.3167 115.052 27.478C115.936 26.6167 116.378 25.37 116.378 23.738V23.398C116.378 21.766 115.936 20.5307 115.052 19.692C114.168 18.8307 113.069 18.4 111.754 18.4C110.44 18.4 109.34 18.8307 108.456 19.692C107.572 20.5307 107.13 21.766 107.13 23.398V23.738C107.13 25.37 107.572 26.6167 108.456 27.478C109.34 28.3167 110.44 28.736 111.754 28.736ZM129.832 32.476C128.631 32.476 127.554 32.272 126.602 31.864C125.65 31.4333 124.891 30.8213 124.324 30.028C123.78 29.212 123.508 28.226 123.508 27.07C123.508 25.914 123.78 24.9507 124.324 24.18C124.891 23.3867 125.661 22.7973 126.636 22.412C127.633 22.004 128.767 21.8 130.036 21.8H134.66V20.848C134.66 20.0547 134.411 19.4087 133.912 18.91C133.413 18.3887 132.62 18.128 131.532 18.128C130.467 18.128 129.673 18.3773 129.152 18.876C128.631 19.352 128.291 19.9753 128.132 20.746L124.188 19.42C124.46 18.5587 124.891 17.7767 125.48 17.074C126.092 16.3487 126.897 15.7707 127.894 15.34C128.914 14.8867 130.149 14.66 131.6 14.66C133.821 14.66 135.578 15.2153 136.87 16.326C138.162 17.4367 138.808 19.046 138.808 21.154V27.444C138.808 28.124 139.125 28.464 139.76 28.464H141.12V32H138.264C137.425 32 136.734 31.796 136.19 31.388C135.646 30.98 135.374 30.436 135.374 29.756V29.722H134.728C134.637 29.994 134.433 30.3567 134.116 30.81C133.799 31.2407 133.3 31.626 132.62 31.966C131.94 32.306 131.011 32.476 129.832 32.476ZM130.58 29.008C131.781 29.008 132.756 28.6793 133.504 28.022C134.275 27.342 134.66 26.4467 134.66 25.336V24.996H130.342C129.549 24.996 128.925 25.166 128.472 25.506C128.019 25.846 127.792 26.322 127.792 26.934C127.792 27.546 128.03 28.0447 128.506 28.43C128.982 28.8153 129.673 29.008 130.58 29.008ZM151.842 32.476C150.21 32.476 148.726 32.136 147.388 31.456C146.074 30.776 145.031 29.79 144.26 28.498C143.49 27.206 143.104 25.642 143.104 23.806V23.33C143.104 21.494 143.49 19.93 144.26 18.638C145.031 17.346 146.074 16.36 147.388 15.68C148.726 15 150.21 14.66 151.842 14.66C153.452 14.66 154.834 14.9433 155.99 15.51C157.146 16.0767 158.076 16.8587 158.778 17.856C159.504 18.8307 159.98 19.9413 160.206 21.188L156.058 22.072C155.968 21.392 155.764 20.78 155.446 20.236C155.129 19.692 154.676 19.2613 154.086 18.944C153.52 18.6267 152.806 18.468 151.944 18.468C151.083 18.468 150.301 18.6607 149.598 19.046C148.918 19.4087 148.374 19.964 147.966 20.712C147.581 21.4373 147.388 22.3327 147.388 23.398V23.738C147.388 24.8033 147.581 25.71 147.966 26.458C148.374 27.1833 148.918 27.7387 149.598 28.124C150.301 28.4867 151.083 28.668 151.944 28.668C153.236 28.668 154.211 28.3393 154.868 27.682C155.548 27.002 155.979 26.118 156.16 25.03L160.308 26.016C160.014 27.2173 159.504 28.3167 158.778 29.314C158.076 30.2887 157.146 31.0593 155.99 31.626C154.834 32.1927 153.452 32.476 151.842 32.476ZM163.842 32V8.2H168.126V21.358H168.738L174.314 15.136H179.89L172.104 23.296L180.162 32H174.654L168.738 25.302H168.126V32H163.842Z" fill="white"/>
<path fill-rule="evenodd" clip-rule="evenodd" d="M44.2053 0.0033741H33.9154H32.6366C29.2022 2.84968 27.0142 7.14476 27.0142 11.9551C27.0142 12.2357 27.0223 12.5136 27.0357 12.7888C27.0223 13.0775 27.0142 13.3662 27.0142 13.6575C27.0142 14.0703 27.0303 14.4777 27.0573 14.8824C27.0897 15.3356 27.141 15.7808 27.2084 16.2205C27.2678 16.6225 27.3433 17.0191 27.4323 17.4103C28.1149 20.4293 29.6015 23.1434 31.6573 25.3152C31.6923 25.3368 31.7274 25.3557 31.7625 25.3746C32.0862 25.5526 32.2184 25.5068 32.1969 25.1264C32.1888 24.9942 32.1969 24.8593 32.1969 24.7271C32.1969 19.3501 32.1942 13.9705 32.1969 8.59354C32.1969 7.38757 32.0593 7.51707 33.2517 7.51437C36.9317 7.51168 40.6117 7.51437 44.2916 7.51168C44.9391 7.51168 44.9634 7.49009 44.9634 6.8372C44.9634 4.80567 44.9634 2.77413 44.9634 0.742603C44.9634 0.00607201 44.9607 0.0033741 44.2053 0.0033741ZM30.1788 3.79125C30.1761 3.79395 30.1734 3.79664 30.1734 3.79934C30.1761 3.79664 30.1761 3.79395 30.1788 3.79125ZM27.0492 12.5541C27.0492 12.573 27.0465 12.5919 27.0465 12.6107C27.0492 12.5919 27.0492 12.573 27.0492 12.5541ZM29.9387 4.13388C29.9981 4.05025 30.0547 3.96392 30.1141 3.88028C30.0547 3.96392 29.9954 4.05025 29.9387 4.13388ZM31.5548 2.11045C31.7139 1.94048 31.8758 1.77321 32.0404 1.60863C31.8731 1.77321 31.7112 1.94048 31.5548 2.11045ZM32.8552 0.85052C32.8444 0.858614 32.8336 0.869405 32.8228 0.877499C32.6825 0.998905 32.5449 1.12301 32.41 1.24981C32.5449 1.12301 32.6825 0.998905 32.8228 0.874801C32.8336 0.869405 32.8444 0.861311 32.8552 0.85052C33.1411 0.602312 33.4352 0.364895 33.7374 0.135572C33.4379 0.364895 33.1411 0.602312 32.8552 0.85052Z" fill="#A4E445"/>
<path d="M18.1489 39.9892C14.6497 39.9919 11.1478 39.9919 7.64858 39.9919H0.666373C0.0242689 39.9919 0.00268555 39.9703 0.00268555 39.3093V13.528C0.00268555 12.8509 0.0404563 12.8104 0.69605 12.8104H2.79773C4.62152 12.8104 6.44261 12.8077 8.26371 12.8077C8.11262 13.0019 7.96424 13.1989 7.81855 13.3985C7.79427 13.4309 7.77269 13.4633 7.7511 13.4957C7.68096 13.5928 7.61351 13.6899 7.54606 13.787C7.07392 14.4804 6.65305 15.2088 6.28613 15.9696C6.17282 16.2098 6.06221 16.4526 5.95969 16.6981C5.89224 16.8546 5.82749 17.0137 5.76544 17.1729C5.69799 17.3483 5.63054 17.529 5.56849 17.7071C5.24744 18.6244 5.00192 19.5768 4.84275 20.5588C4.79149 20.8852 4.74562 21.209 4.71325 21.5408C4.6512 22.1236 4.62152 22.7144 4.62152 23.3134C4.62152 23.5211 4.62422 23.7262 4.63231 23.9285C4.63771 24.0661 4.6431 24.201 4.6512 24.3359C4.65389 24.4033 4.65659 24.4708 4.66199 24.5382C4.66738 24.5895 4.67008 24.6407 4.67548 24.692C4.6512 24.9375 4.63231 25.1857 4.62152 25.4339C5.01811 32.9584 10.7782 39.0611 18.1489 39.9892Z" fill="#E6E62E"/>
<path d="M44.9634 13.493C44.9661 20.0003 44.9661 26.5131 44.9634 33.0205C42.1468 35.1276 38.6557 36.3794 34.8705 36.3929H34.7518C34.0315 36.3902 33.3273 36.3443 32.6339 36.2526C32.5422 36.2418 32.4478 36.2283 32.3561 36.2148C32.1645 36.1878 31.9756 36.1582 31.7895 36.1231C31.6627 36.1015 31.5359 36.0772 31.4091 36.0502C31.2796 36.0233 31.1501 35.9963 31.0233 35.9666C30.9019 35.9396 30.7805 35.9099 30.6591 35.8803C30.2867 35.7858 29.9198 35.6806 29.5583 35.5619C29.4126 35.516 29.2696 35.4675 29.1293 35.4162C28.2363 35.1006 27.3784 34.7094 26.5636 34.2534C22.4196 31.944 19.344 27.943 18.2702 23.1866C18.1812 22.7927 18.1057 22.3961 18.0463 21.9941C17.9789 21.5543 17.9303 21.1092 17.8952 20.6559C17.8682 20.2512 17.8521 19.8439 17.8521 19.4311C17.8521 18.8321 17.8844 18.2413 17.9465 17.6585C17.9789 17.3294 18.022 17.0029 18.076 16.6792C18.2352 15.6972 18.4807 14.7448 18.8017 13.8275C18.8638 13.6467 18.9312 13.4687 18.9987 13.2933C19.0607 13.1341 19.1255 12.975 19.1929 12.8185C19.5625 12.8455 19.6003 12.975 19.576 13.5253C19.4465 16.431 19.9807 19.1964 21.3405 21.7783C23.5096 25.8845 26.766 28.8495 30.9639 30.7974C32.8363 31.6661 34.795 32.2246 36.8589 32.4027C37.4767 32.4539 37.4794 32.4674 37.4794 31.801V13.7654C37.4794 12.8104 37.4794 12.8077 38.4372 12.8077C40.3851 12.8077 42.3329 12.8077 44.2835 12.8104C44.9202 12.8104 44.9634 12.8535 44.9634 13.493Z" fill="#E6E62E"/>
<path fill-rule="evenodd" clip-rule="evenodd" d="M27.4324 17.4103C28.115 20.4293 29.6015 23.1434 31.6573 25.3152C30.2382 24.5166 29.0296 23.4618 27.9963 22.2153C25.7975 19.5579 24.748 16.4876 24.7723 13.0397C24.7858 11.4749 24.775 9.91012 24.775 8.34533C24.775 7.51437 24.775 7.51437 23.9656 7.51437H1.01172C0.852542 7.51437 0.687969 7.50628 0.528792 7.51437H0.46674C0.461344 7.51437 0.458646 7.51707 0.45325 7.51707C0.415479 7.51707 0.377708 7.51437 0.345333 7.50897C0.213135 7.49279 0.121406 7.43883 0.0674479 7.3417C0.0512604 7.31742 0.0404687 7.29044 0.0296771 7.26077C0.032375 7.25807 0.032375 7.25807 0.0296771 7.25807C0.00809375 7.19871 0 7.13126 0 7.05033V7.04763C0.00539583 4.84883 0.00539583 2.65272 0.00269792 0.453922C0.00269792 0.410755 0.00539583 0.370287 0.0107917 0.332516C0.0134896 0.305537 0.0188854 0.281255 0.0269792 0.259672C0.0350729 0.232693 0.0431667 0.205714 0.0539583 0.184131L0.0566562 0.181433C0.102521 0.0843076 0.188854 0.0249534 0.32375 0.00876594C0.348031 0.00337011 0.37501 0.000672196 0.404687 0.00337011H0.485625C0.644802 0.0114639 0.809375 0.00337011 0.968552 0.00337011H32.6367C29.2022 2.84967 27.0142 7.14745 27.0142 11.9551C27.0142 12.2357 27.0223 12.5136 27.0358 12.7888C27.0223 13.0775 27.0142 13.3661 27.0142 13.6575C27.0142 14.0703 27.0304 14.4777 27.0574 14.8824C27.0898 15.3356 27.141 15.7808 27.2085 16.2205C27.2678 16.6225 27.3434 17.0191 27.4324 17.4103Z" fill="#FF2F60"/>
<path fill-rule="evenodd" clip-rule="evenodd" d="M33.9154 0.0033741C33.8561 0.0465408 33.7967 0.0897074 33.7374 0.135572C33.4379 0.362197 33.1411 0.602312 32.8552 0.85052C32.8444 0.858614 32.8336 0.869405 32.8228 0.877499C32.3156 1.31996 31.8353 1.79479 31.3848 2.29391C30.9666 2.75525 30.5754 3.24087 30.2112 3.74538C30.1869 3.77776 30.1653 3.81013 30.1411 3.84251C30.0709 3.93963 30.0035 4.03676 29.936 4.13388C29.4639 4.82725 29.043 5.55569 28.6761 6.3165C28.5601 6.55661 28.4522 6.79943 28.3496 7.04494C28.2822 7.20142 28.2174 7.36059 28.1554 7.51977C28.0879 7.69513 28.0205 7.8732 27.9584 8.05396C27.6374 8.97125 27.3919 9.92361 27.2327 10.9057C27.1787 11.2294 27.1356 11.5559 27.1032 11.885C27.0708 12.1845 27.0465 12.4866 27.0331 12.7888C27.0196 12.5136 27.0115 12.2357 27.0115 11.9551C27.0115 7.14746 29.1995 2.84968 32.6339 0.0033741H33.9154Z" fill="#64D445"/>
<path fill-rule="evenodd" clip-rule="evenodd" d="M34.8706 36.3929H34.7519C34.0316 36.3902 33.3274 36.3443 32.6341 36.2526C32.6098 36.2499 32.5828 36.2472 32.5585 36.2445C32.4911 36.2364 32.4236 36.2256 32.3562 36.2148C32.1646 36.1878 31.9758 36.1582 31.7896 36.1231C31.6628 36.1015 31.536 36.0772 31.4092 36.0502C31.2797 36.0233 31.1502 35.9963 31.0234 35.9666C30.902 35.9396 30.7806 35.9099 30.6592 35.8803C30.2869 35.7858 29.9199 35.6806 29.5584 35.5619C29.4127 35.516 29.2697 35.4675 29.1295 35.4162C28.2364 35.1006 27.3785 34.7094 26.5637 34.2534C22.4197 31.944 19.3441 27.943 18.2703 23.1866C18.1813 22.7927 18.1058 22.3961 18.0464 21.9941C17.979 21.5543 17.9304 21.1092 17.8953 20.6559C17.8684 20.2512 17.8522 19.8439 17.8522 19.4311C17.8522 18.8321 17.8845 18.2413 17.9466 17.6585C17.979 17.3294 18.0221 17.0029 18.0761 16.6792C18.2353 15.6972 18.4808 14.7448 18.8018 13.8275C18.8639 13.6467 18.9313 13.4687 18.9988 13.2933C19.0608 13.1341 19.1256 12.975 19.193 12.8185C19.1067 12.8104 19.0042 12.8104 18.8828 12.8104C15.3431 12.8077 11.8034 12.8077 8.26377 12.8077C8.11269 13.0019 7.9643 13.1989 7.81861 13.3985C7.79433 13.4309 7.77275 13.4633 7.75117 13.4957C7.68102 13.5928 7.61357 13.6899 7.54612 13.787C7.07399 14.4804 6.65311 15.2088 6.2862 15.9696C6.17288 16.2098 6.06227 16.4526 5.95975 16.6981C5.8923 16.8546 5.82755 17.0137 5.7655 17.1729C5.69805 17.3483 5.6306 17.529 5.56855 17.7071C5.2475 18.6244 5.00199 19.5768 4.84281 20.5588C4.79155 20.8852 4.74569 21.209 4.71331 21.5408C4.65126 22.1236 4.62158 22.7144 4.62158 23.3134C4.62158 23.5211 4.62428 23.7262 4.63237 23.9285C4.63777 24.0661 4.64317 24.201 4.65126 24.3359C4.65666 24.4033 4.65935 24.4708 4.66475 24.5382C4.67015 24.6165 4.67554 24.6947 4.68363 24.7676C4.68094 24.7406 4.67824 24.7163 4.67554 24.692C4.65126 24.9375 4.63237 25.1857 4.62158 25.4339C5.01818 32.9584 10.7782 39.0611 18.1489 39.9892H18.4754H20.6526C20.8253 39.9892 21.0168 40.0459 21.23 39.8597C21.0249 39.7032 20.8576 39.571 20.6823 39.4496C18.0383 37.6609 15.791 35.4513 13.8458 32.9287C13.5922 32.605 13.3251 32.4701 12.9204 32.4755C11.307 32.4917 9.69097 32.4728 8.07492 32.489C7.65404 32.4917 7.47868 32.3676 7.48137 31.9224C7.49217 28.2398 7.49217 24.5598 7.48137 20.8799C7.47868 20.4374 7.63785 20.3025 8.06682 20.3079C9.51291 20.3295 10.9644 20.3349 12.4132 20.3052C12.888 20.2971 13.0634 20.4806 13.201 20.9203C14.9114 26.3917 17.9304 30.9916 22.4872 34.5124C24.6536 36.1851 26.9549 37.4693 29.3858 38.3758C32.2887 39.455 35.3751 39.9919 38.6396 39.9919H44.2864C44.9419 39.9919 44.9635 39.973 44.9635 39.3228V33.0205C42.1469 35.1276 38.6558 36.3794 34.8706 36.3929ZM18.2299 39.9406C18.1489 39.9244 18.0653 39.911 17.9844 39.8921C17.9115 39.8786 17.836 39.857 17.7631 39.8408C17.836 39.857 17.9088 39.8786 17.9844 39.8921C18.0653 39.9083 18.1489 39.9244 18.2299 39.9406ZM16.8539 39.6088C16.8539 39.6088 16.8539 39.6088 16.8512 39.6088C16.8512 39.6088 16.8512 39.6088 16.8539 39.6088Z" fill="#E6E62E"/>
<path opacity="0.16" fill-rule="evenodd" clip-rule="evenodd" d="M18.853 0.0033741C16.406 1.05286 14.1776 2.46387 12.2458 4.16086C12.0516 4.33083 11.8627 4.5035 11.6739 4.67886C11.4877 4.85693 11.3043 5.03499 11.1235 5.21575C10.3978 5.93879 9.72599 6.705 9.10817 7.51168V7.51437H1.01172C0.852542 7.51437 0.687969 7.50628 0.528792 7.51437C0.501813 7.51707 0.477531 7.51707 0.45325 7.51707C0.299469 7.51437 0.188854 7.4793 0.113312 7.40376C0.0755417 7.36599 0.0485625 7.31743 0.0269792 7.26077C0.0296771 7.25807 0.0296771 7.25807 0.0269792 7.25807C0.0107917 7.19872 0 7.13127 0 7.05033V7.04763C0.00539583 4.84883 0.00539583 2.65273 0.00269792 0.453926C0.00269792 0.410759 0.00539583 0.370291 0.0107917 0.33252C0.0134896 0.305541 0.0188854 0.281259 0.0269792 0.259676C0.0350729 0.232697 0.0458646 0.205718 0.0566562 0.184134V0.181437C0.0701458 0.159853 0.0836354 0.13827 0.102521 0.119385C0.172667 0.0438428 0.283281 0.0033741 0.43976 0.0033741H0.485625C0.644802 0.0114678 0.809375 0.0033741 0.968552 0.0033741H18.853Z" fill="white"/>
<path fill-rule="evenodd" clip-rule="evenodd" d="M18.853 0.000674479C18.8503 0.000674479 18.8503 0.0033724 18.8476 0.0033724C16.4033 1.05286 14.1749 2.46117 12.2458 4.16086C12.0516 4.33083 11.8627 4.5035 11.6739 4.67886C11.4877 4.85423 11.3016 5.03499 11.1235 5.21575C10.3978 5.93879 9.72599 6.705 9.10817 7.51167H1.01172C0.852542 7.51167 0.687969 7.50358 0.528792 7.51167C0.515302 7.51167 0.501812 7.51167 0.488323 7.51437H0.46674C0.307563 7.51437 0.191552 7.4793 0.113312 7.40376C0.0755417 7.36599 0.0485625 7.31742 0.0269792 7.26077C0.0296771 7.25807 0.0296771 7.25807 0.0269792 7.25807C0.0107917 7.19872 0 7.13127 0 7.05033V7.04763C0.00539583 4.84883 0.00539583 2.65273 0.00269792 0.453924C0.00269792 0.410758 0.00539583 0.370289 0.0107917 0.332518C0.0134896 0.305539 0.0188854 0.281258 0.0269792 0.259674C0.0350729 0.232695 0.0431667 0.205716 0.0539583 0.184133H0.0566562V0.181435C0.0701458 0.159852 0.0836354 0.138268 0.102521 0.119383C0.124104 0.0977995 0.148385 0.0789141 0.178062 0.0627266C0.191552 0.0546328 0.20774 0.0465391 0.226625 0.0411432C0.240115 0.0357474 0.253604 0.0303516 0.269792 0.0276536C0.288677 0.0222578 0.302167 0.0141641 0.32375 0.0114661C0.348031 0.0033724 0.37501 0.000674479 0.404687 0.0033724C0.428969 -0.00202344 0.455948 0.000674479 0.485625 0.000674479C0.644802 0.00876823 0.809375 0.000674479 0.968552 0.000674479H18.853Z" fill="#FFFFB2"/>
<path d="M13.8322 0.0033741L13.735 0.00876993C13.7323 0.0114678 13.7323 0.0114678 13.7296 0.0114678C10.7323 1.90271 8.15575 4.47382 6.17278 7.51707H5.54956V7.51437C7.67822 4.374 10.4652 1.79209 13.6865 0.00607202C13.6892 0.00607202 13.6892 0.00607202 13.6919 0.0033741H13.8322Z" fill="#FFFF60"/>
<path opacity="0.39" d="M27.0143 11.9578C27.0143 12.2384 27.0224 12.5163 27.0358 12.7915C27.0224 13.0802 27.0143 13.3689 27.0143 13.6602C27.0143 14.073 27.0304 14.4804 27.0574 14.8851C27.0898 15.3383 27.1411 15.7835 27.2085 16.2232C27.2679 16.6252 27.3434 17.0218 27.4324 17.413C27.6537 18.3843 27.9558 19.3232 28.3335 20.2243C29.1294 22.1209 30.2625 23.8449 31.6574 25.3179C30.2383 24.5193 29.0296 23.4645 27.9963 22.218C25.7975 19.5606 24.748 16.4903 24.7723 13.0424C24.7858 11.4776 24.775 9.91282 24.775 8.34803C24.775 7.51707 24.775 7.51707 23.9656 7.51707H6.17285C8.15582 4.47382 10.7323 1.90271 13.7297 0.0114678C13.7324 0.0114678 13.7324 0.0114678 13.7351 0.00876993L13.8322 0.0033741H18.8531C18.8504 0.0033741 18.8504 0.00607202 18.8477 0.00607202H32.6367C32.4748 0.140968 32.3157 0.278562 32.1592 0.421551C28.9999 3.25976 27.0143 7.37678 27.0143 11.9578Z" fill="white"/>
<path d="M8.60644 39.9946H7.64868C3.56673 35.4648 1.04688 29.2569 1.04688 22.415C1.04688 22.2423 1.04957 22.0696 1.05227 21.897C1.06576 22.4581 1.09544 23.0247 1.144 23.5967C1.69168 30.1094 4.48132 35.856 8.60644 39.9946Z" fill="#E6E62E"/>
<path opacity="0.71" d="M44.9662 20.5939C44.9662 24.7379 44.9662 28.8819 44.9635 33.0232V33.5385C43.8763 35.9315 42.4464 38.1087 40.7467 39.9946H38.6396C35.3751 39.9946 32.2887 39.4577 29.3858 38.3785C26.9549 37.472 24.6536 36.1878 22.4872 34.5151C18.3648 31.3289 15.4996 27.2604 13.7244 22.4608C13.7217 22.4527 13.719 22.4473 13.7163 22.4392C13.5328 21.9401 13.3601 21.4356 13.201 20.923C13.0634 20.4833 12.888 20.2998 12.4132 20.3079C10.9644 20.3376 9.51291 20.3322 8.06683 20.3106C7.63786 20.3052 7.47868 20.4401 7.48138 20.8826V21.1281C7.48408 21.4815 7.48408 21.8349 7.48408 22.1883C7.49217 25.4339 7.49217 28.6768 7.48138 31.9251C7.47868 32.3703 7.65405 32.4944 8.07492 32.4917C8.16665 32.4917 8.25568 32.489 8.34741 32.4917C9.87174 32.4782 11.3988 32.4944 12.9204 32.4782C13.1794 32.4755 13.3844 32.5295 13.5625 32.6536C13.6623 32.7237 13.754 32.8154 13.8458 32.9314C15.791 35.454 18.0383 37.6636 20.6823 39.4523C20.7416 39.4928 20.7983 39.5359 20.8577 39.5791C20.9737 39.6654 21.0951 39.7599 21.23 39.8624C21.0168 40.0485 20.8253 39.9919 20.6526 39.9919H15.969C13.5139 39.9946 11.0588 39.9946 8.60641 39.9946C4.4813 35.856 1.69165 30.1094 1.14398 23.5967C1.09541 23.0247 1.06574 22.4581 1.05225 21.897C1.10351 19.0776 1.58643 16.3689 2.42818 13.8518C2.54419 13.501 2.6683 13.1557 2.7978 12.8131C4.62159 12.8131 6.44268 12.8104 8.26378 12.8104C10.4464 12.8104 12.6317 12.8104 14.8143 12.8131C16.1525 12.8104 17.4934 12.8131 18.8315 12.8131H18.8828C19.0042 12.8131 19.1067 12.8131 19.193 12.8212C19.5627 12.8482 19.6004 12.9777 19.5761 13.528C19.4817 15.6594 19.7434 17.7179 20.4287 19.6793C20.6742 20.3915 20.9791 21.093 21.3406 21.781C23.5097 25.8872 26.7661 28.8522 30.964 30.8001C32.8364 31.6688 34.7951 32.2273 36.859 32.4054C37.4768 32.4566 37.4795 32.4701 37.4795 31.8037V13.7681C37.4795 12.8131 37.4795 12.8104 38.4373 12.8104C40.3852 12.8104 42.3331 12.8104 44.2837 12.8131H44.3106C44.9204 12.8158 44.9635 12.8643 44.9635 13.4957C44.9662 15.8617 44.9662 18.2278 44.9662 20.5939Z" fill="white"/>
</svg>
