<svg width="17" height="20" viewBox="0 0 17 20" fill="none" xmlns="http://www.w3.org/2000/svg">
<path fill-rule="evenodd" clip-rule="evenodd" d="M15.7203 17.16C16.3195 16.26 16.543 15.8 17 14.79C13.6282 13.53 13.09 8.79999 16.4211 6.98999C15.4055 5.72999 13.9735 5 12.6228 5C11.6478 5 10.9775 5.25001 10.3783 5.48001C9.87053 5.67001 9.41351 5.84 8.84478 5.84C8.23542 5.84 7.69716 5.65001 7.12843 5.45001C6.50891 5.23001 5.85893 5 5.04645 5C3.53322 5 1.91843 5.91 0.892679 7.47C-0.549464 9.67 -0.295563 13.79 2.03015 17.31C2.86293 18.57 3.98009 19.98 5.43238 20C6.04174 20.01 6.43782 19.83 6.87453 19.64C7.37217 19.42 7.91043 19.18 8.85493 19.18C9.79943 19.17 10.3275 19.42 10.8252 19.64C11.2517 19.83 11.6377 20.01 12.2369 20C13.7095 19.98 14.8876 18.42 15.7203 17.16Z" fill="white"/>
<path fill-rule="evenodd" clip-rule="evenodd" d="M12.4095 0C12.572 1.1 12.115 2.19001 11.5158 2.95001C10.876 3.77001 9.75884 4.41 8.68231 4.37C8.48935 3.31 8.98699 2.21999 9.59635 1.48999C10.2768 0.68999 11.4244 0.07 12.4095 0Z" fill="white"/>
</svg>
