<svg width="27" height="24" viewBox="0 0 27 24" fill="none" xmlns="http://www.w3.org/2000/svg">
<path d="M13.0271 23.9999L17.8244 9.2356H8.22974L13.0271 23.9999Z" fill="#E24329"/>
<path d="M13.0271 23.9999L8.22972 9.2356H1.50659L13.0271 23.9999Z" fill="#FC6D26"/>
<path d="M1.50641 9.2356L0.0486201 13.7224C-0.016198 13.9219 -0.0162069 14.1368 0.0485945 14.3362C0.113396 14.5357 0.239681 14.7095 0.409351 14.8328L13.0269 24L1.50631 9.2357L1.50641 9.2356Z" fill="#FCA326"/>
<path d="M1.50659 9.23566H8.22972L5.34051 0.343151C5.19182 -0.114434 4.5445 -0.114333 4.39591 0.343151L1.50659 9.23566Z" fill="#E24329"/>
<path d="M13.027 23.9999L17.8242 9.2356H24.5474L13.027 23.9999Z" fill="#FC6D26"/>
<path d="M24.5473 9.2356L26.0051 13.7224C26.0699 13.9219 26.0699 14.1368 26.0051 14.3363C25.9403 14.5357 25.814 14.7096 25.6443 14.8328L13.0269 24L24.5473 9.2357V9.2356Z" fill="#FCA326"/>
<path d="M24.5474 9.23566H17.8242L20.7135 0.343151C20.8622 -0.114434 21.5095 -0.114333 21.6581 0.343151L24.5474 9.23566Z" fill="#E24329"/>
</svg>
