<svg width="14" height="12" viewBox="0 0 14 12" fill="none" xmlns="http://www.w3.org/2000/svg">
<path d="M5.74878 6.38277C5.74878 6.38277 4.01792 5.19279 1.9624 4.76003L5.96521 9.30371L13.1053 -3.8147e-06C13.1053 -3.8147e-06 8.12894 2.70451 5.74878 6.38277Z" fill="#E1DE7B"/>
<path d="M10.085 6.25711C9.82712 6.25711 9.61806 6.46617 9.61806 6.72406C9.61806 7.88424 9.16634 8.97444 8.34583 9.79428C7.52632 10.6145 6.43621 11.0662 5.27594 11.0662C2.88165 11.0662 0.933817 9.11835 0.933817 6.72406C0.933817 5.56379 1.38564 4.4736 2.20614 3.65384C3.02548 2.83366 4.11576 2.38193 5.27594 2.38193C5.51669 2.38193 5.75803 2.40175 5.99318 2.4408C6.24739 2.48312 6.48806 2.3111 6.53029 2.05664C6.57252 1.80226 6.40051 1.56184 6.14621 1.51961C5.86047 1.47212 5.5677 1.44812 5.27594 1.44812C3.86606 1.44812 2.54122 1.9971 1.54585 2.99355C0.549067 3.98934 0 5.31426 0 6.72406C0 9.63322 2.36678 12 5.27594 12C6.68582 12 8.01058 11.451 9.00603 10.4545C10.003 9.45861 10.5519 8.13394 10.5519 6.72406C10.5519 6.46617 10.3429 6.25711 10.085 6.25711Z" fill="#E1DE7B"/>
</svg>
