<svg width="16" height="24" viewBox="0 0 16 24" fill="none" xmlns="http://www.w3.org/2000/svg">
<path d="M4.00006 24.0001C6.21404 24.0001 8.00011 22.214 8.00011 20.0001V16H4.00006C1.78607 16 0 17.7861 0 20.0001C0 22.214 1.78607 24.0001 4.00006 24.0001Z" fill="#0ACF83"/>
<path d="M0 12.0001C0 9.78607 1.78607 8 4.00006 8H8.00011V16.0001H4.00006C1.78607 16.0001 0 14.214 0 12.0001Z" fill="#A259FF"/>
<path d="M0 4.00006C0 1.78607 1.78607 0 4.00006 0H8.00011V8.00011H4.00006C1.78607 8.00011 0 6.21404 0 4.00006Z" fill="#F24E1E"/>
<path d="M8.00024 0H12.0003C14.2143 0 16.0004 1.78607 16.0004 4.00006C16.0004 6.21404 14.2143 8.00011 12.0003 8.00011H8.00024V0Z" fill="#FF7262"/>
<path d="M16.0004 12.0001C16.0004 14.214 14.2143 16.0001 12.0003 16.0001C9.78632 16.0001 8.00024 14.214 8.00024 12.0001C8.00024 9.78607 9.78632 8 12.0003 8C14.2143 8 16.0004 9.78607 16.0004 12.0001Z" fill="#1ABCFE"/>
</svg>
