<svg width="26" height="19" viewBox="0 0 26 19" fill="none" xmlns="http://www.w3.org/2000/svg">
<path d="M5.75604 19V9.21469L2.72131 6.43837L0 4.89771V17.2732C0 18.2286 0.77414 19 1.72685 19H5.75604Z" fill="#4285F4"/>
<path d="M19.5706 18.9999H23.5997C24.5553 18.9999 25.3266 18.2257 25.3266 17.2731V4.89771L22.2443 6.66235L19.5706 9.21459V18.9999Z" fill="#34A853"/>
<path d="M5.7562 9.21473L5.34326 5.39132L5.7562 1.73193L12.6634 6.91239L19.5706 1.73193L20.0325 5.19375L19.5706 9.21473L12.6634 14.3952L5.7562 9.21473Z" fill="#EA4335"/>
<path d="M19.7544 1.73167V9.21446L25.5104 4.89748V2.59505C25.5104 0.459606 23.0728 -0.757748 21.3662 0.522922L19.7544 1.73167Z" fill="#FBBC04"/>
<path d="M0 4.89753L2.64731 6.88309L5.75604 9.21451V1.73171L4.14425 0.522968C2.43471 -0.757802 0 0.459651 0 2.59499V4.89743V4.89753Z" fill="#C5221F"/>
</svg>
