<svg width="16" height="16" viewBox="0 0 16 16" fill="none" xmlns="http://www.w3.org/2000/svg">
<path d="M1.1405 10.8705C1.25621 10.7443 1.33429 10.6656 1.40539 10.5806C1.81389 10.09 2.21889 9.59591 2.62809 9.10602C3.56079 7.98964 4.99331 7.98476 5.93159 9.09417C6.13305 9.3325 6.33102 9.57431 6.59104 9.8879C6.66284 9.77989 6.71024 9.6879 6.77646 9.61194C7.35504 8.94574 7.96151 8.30184 8.51361 7.61403C9.44004 6.46002 11.0433 6.49905 11.9482 7.60288C12.7944 8.63494 13.6986 9.61961 14.5783 10.6245C14.6536 10.7109 14.733 10.7938 14.8599 10.9332C14.8718 10.7806 14.885 10.6886 14.885 10.5959C14.8864 9.31856 14.8857 8.04121 14.8864 6.76386C14.8864 6.65933 14.8822 6.5541 14.8948 6.45096C14.9282 6.1764 15.1373 5.97988 15.4015 5.96525C15.672 5.94992 15.8972 6.11229 15.9641 6.38407C15.9885 6.48372 15.9941 6.59103 15.9941 6.69417C15.9955 8.5987 16.0066 10.5025 15.992 12.4071C15.9787 14.1485 14.8704 15.5346 13.2127 15.9039C12.9318 15.9666 12.6376 15.9931 12.349 15.9938C9.44492 16.0001 6.54154 16.0029 3.63747 15.9959C1.87802 15.9917 0.475475 14.8907 0.0976529 13.2231C0.0363091 12.9534 0.00703136 12.6712 0.00633428 12.3952C6.04762e-05 9.46908 -0.00342497 6.54295 0.0049401 3.61682C0.00912263 1.8649 1.12307 0.462112 2.79539 0.0920775C3.07631 0.0300566 3.37049 0.0063632 3.65908 0.00496947C5.52937 -0.00269604 7.39966 9.14163e-05 9.26925 0.00287887C9.40658 0.00287887 9.55087 0.0112412 9.68053 0.0516594C9.92939 0.129011 10.0604 0.357583 10.0374 0.622391C10.0151 0.876747 9.8318 1.07396 9.57179 1.10811C9.45747 1.12344 9.33966 1.11856 9.22394 1.11856C7.3655 1.11926 5.50706 1.11577 3.64862 1.12065C2.53886 1.12344 1.6438 1.71368 1.29037 2.69347C1.19348 2.96177 1.13004 3.25793 1.12865 3.54156C1.1161 5.92204 1.12098 8.30253 1.12168 10.6823C1.12168 10.7248 1.13004 10.7659 1.1405 10.8705ZM7.96291 14.8795C9.4261 14.8795 10.8893 14.8858 12.3525 14.8774C13.5821 14.8705 14.5351 14.0935 14.7867 12.9402C14.8383 12.7039 14.7783 12.5513 14.6278 12.3813C13.4274 11.0252 12.2347 9.66212 11.0392 8.30184C10.5017 7.68999 9.89802 7.69766 9.35708 8.31786C8.5868 9.20149 7.81582 10.0858 7.04205 10.9666C6.66562 11.3952 6.34915 11.3862 5.97969 10.9443C5.68203 10.5882 5.38995 10.2273 5.0902 9.87187C4.5632 9.24609 3.93722 9.24609 3.42346 9.87048C2.75914 10.6768 2.11712 11.5025 1.42352 12.283C1.14398 12.5973 1.12725 12.8851 1.2597 13.2322C1.30501 13.3513 1.35172 13.4712 1.41445 13.582C1.90311 14.4482 2.65527 14.8733 3.64235 14.8774C5.08254 14.8837 6.52272 14.8795 7.96291 14.8795Z" fill="white"/>
<path d="M13.7741 3.34854C13.7741 3.84192 13.7748 4.28234 13.7741 4.72276C13.7741 4.83914 13.781 4.95621 13.765 5.0705C13.719 5.39942 13.4799 5.59523 13.1655 5.57363C12.8706 5.55342 12.6678 5.34297 12.6601 5.01614C12.649 4.57502 12.6566 4.13391 12.6559 3.6921C12.6559 3.60011 12.6559 3.50813 12.6559 3.37921C12.5402 3.36806 12.4419 3.35133 12.3436 3.35063C11.9135 3.34715 11.4841 3.35412 11.054 3.34715C10.6595 3.34157 10.4308 3.136 10.4287 2.80011C10.4266 2.46353 10.6532 2.24401 11.0415 2.23356C11.436 2.22241 11.8313 2.23077 12.2265 2.23008C12.3527 2.23008 12.4796 2.23008 12.6559 2.23008C12.6559 1.95203 12.6559 1.70046 12.6559 1.44959C12.6559 1.18269 12.6657 0.915092 12.6538 0.648193C12.6357 0.232862 12.9006 0.0251966 13.1941 0.00707811C13.5224 -0.013131 13.7643 0.255859 13.772 0.652375C13.7803 1.08164 13.7734 1.51161 13.7748 1.94157C13.7748 2.02102 13.7831 2.10046 13.7901 2.23008C13.9469 2.23008 14.0926 2.23008 14.239 2.23008C14.6224 2.23008 15.0058 2.22102 15.3892 2.23356C15.7594 2.24541 16.011 2.49558 15.9999 2.81265C15.9887 3.12415 15.751 3.34018 15.3885 3.34576C14.8678 3.35412 14.3471 3.34854 13.7741 3.34854Z" fill="white"/>
<path d="M4.2891 6.32688C3.16609 6.32827 2.24802 5.42026 2.23547 4.29552C2.22293 3.17566 3.17863 2.21956 4.29886 2.2328C5.42396 2.24604 6.33226 3.16451 6.33017 4.28716C6.32808 5.40981 5.41211 6.32549 4.2891 6.32688ZM5.21274 4.26416C5.20298 3.75684 4.75963 3.33385 4.25912 3.35475C3.75722 3.37566 3.35639 3.7889 3.35709 4.28367C3.35779 4.79169 3.7865 5.21399 4.29607 5.20841C4.80634 5.20353 5.2225 4.77427 5.21274 4.26416Z" fill="white"/>
</svg>
