<svg width="18" height="20" viewBox="0 0 18 20" fill="none" xmlns="http://www.w3.org/2000/svg">
<path d="M17.4669 11.2822L14.9639 12.8548C14.7929 12.9679 14.5858 12.9227 14.4417 12.753L12.7581 10.6374C12.578 10.4111 12.578 10.0604 12.7581 9.83413L14.4687 7.68457C14.6038 7.51487 14.8199 7.46963 14.9909 7.58276L17.4669 9.144C18.1781 9.57391 18.1781 10.841 17.4669 11.2822Z" fill="#151827"/>
<path d="M12.8751 6.23521C13.1542 6.40491 13.2082 6.86878 12.9921 7.1403L11.4886 9.0296L10.8493 9.83287C10.6693 10.0591 10.3902 10.0591 10.2101 9.83287L3.78169 1.75514C3.42155 1.30261 3.84471 0.567255 4.30388 0.850088L12.8751 6.23521Z" fill="#151827"/>
<path d="M0 19.4278V0.568544C0 0.0707571 0.477178 -0.189467 0.765286 0.161246L8.66124 9.7889C8.85031 10.0152 8.84131 10.3885 8.65224 10.6147L0.756283 19.8464C0.468175 20.1858 0 19.9256 0 19.4278Z" fill="#151827"/>
<path d="M12.8481 14.1885L4.39397 19.5057C3.9348 19.7886 3.51164 19.0532 3.87177 18.6007L10.2191 10.6248C10.3992 10.3985 10.6783 10.3985 10.8584 10.6248L12.9742 13.2834C13.1813 13.5549 13.1182 14.0188 12.8481 14.1885Z" fill="#151827"/>
</svg>
