<svg width="48" height="36" viewBox="0 0 48 36" fill="none" xmlns="http://www.w3.org/2000/svg">
<g id="Icon">
<path id="Vector 1" d="M28.6966 18.7847L46.3329 34.5144C46.9774 35.0893 47.9985 34.6318 47.9985 33.7682V1C47.9985 0.447715 47.5508 0 46.9985 0H29.3623C28.81 0 28.3623 0.447714 28.3623 0.999998V18.0384C28.3623 18.3235 28.4839 18.595 28.6966 18.7847Z" fill="#2D3247"/>
<path id="Vector 2" d="M0.334332 18.7847L17.9706 34.5144C18.6151 35.0893 19.6362 34.6318 19.6362 33.7682V1C19.6362 0.447715 19.1885 0 18.6362 0H0.999949C0.447662 0 -5.14984e-05 0.447714 -5.14984e-05 0.999998V18.0384C-5.14984e-05 18.3235 0.121597 18.595 0.334332 18.7847Z" fill="#2D3247"/>
</g>
</svg>
