<svg width="14" height="13" viewBox="0 0 14 13" fill="none" xmlns="http://www.w3.org/2000/svg">
<path d="M10.4722 7.7758C10.3019 7.94092 10.2236 8.17972 10.2624 8.41391L10.8472 11.6505C10.8966 11.9249 10.7808 12.2025 10.5512 12.361C10.3262 12.5255 10.0269 12.5452 9.7815 12.4136L6.86788 10.894C6.76657 10.8401 6.65408 10.8111 6.53895 10.8078H6.36068C6.29884 10.817 6.23832 10.8368 6.18306 10.867L3.26878 12.3939C3.12471 12.4663 2.96156 12.4919 2.8017 12.4663C2.41226 12.3926 2.15241 12.0216 2.21622 11.6301L2.8017 8.39352C2.84052 8.15735 2.76223 7.91723 2.59185 7.74948L0.216351 5.447C0.0176803 5.25425 -0.0513941 4.9648 0.0393893 4.70363C0.127541 4.44312 0.352526 4.25301 0.624219 4.21025L3.89374 3.73593C4.1424 3.71028 4.36081 3.55897 4.47265 3.3353L5.91334 0.381553C5.94755 0.315768 5.99162 0.255246 6.04491 0.203934L6.10412 0.157884C6.13503 0.123676 6.17056 0.0953884 6.21003 0.0723636L6.28173 0.0460496L6.39357 0H6.67052C6.91788 0.0256562 7.13562 0.173673 7.24943 0.394711L8.7092 3.3353C8.81446 3.55042 9.01905 3.69975 9.25522 3.73593L12.5247 4.21025C12.801 4.24972 13.0319 4.44049 13.1234 4.70363C13.2096 4.96743 13.1352 5.25689 12.9326 5.447L10.4722 7.7758Z" fill="#F59E0B"/>
</svg>
