<svg width="15" height="14" viewBox="0 0 15 14" fill="none" xmlns="http://www.w3.org/2000/svg">
<path d="M11.2003 8.7758C11.0299 8.94092 10.9516 9.17972 10.9904 9.41391L11.5752 12.6505C11.6246 12.9249 11.5088 13.2025 11.2792 13.361C11.0542 13.5255 10.7549 13.5452 10.5095 13.4136L7.59591 11.894C7.4946 11.8401 7.38211 11.8111 7.26698 11.8078H7.0887C7.02687 11.817 6.96634 11.8368 6.91109 11.867L3.99681 13.3939C3.85274 13.4663 3.68959 13.4919 3.52973 13.4663C3.14028 13.3926 2.88043 13.0216 2.94424 12.6301L3.52973 9.39352C3.56855 9.15735 3.49026 8.91723 3.31988 8.74948L0.944379 6.447C0.745708 6.25425 0.676633 5.9648 0.767417 5.70363C0.855569 5.44312 1.08055 5.25301 1.35225 5.21025L4.62176 4.73593C4.87043 4.71028 5.08884 4.55897 5.20067 4.3353L6.64137 1.38155C6.67557 1.31577 6.71965 1.25525 6.77294 1.20393L6.83214 1.15788C6.86306 1.12368 6.89859 1.09539 6.93806 1.07236L7.00976 1.04605L7.1216 1H7.39855C7.6459 1.02566 7.86365 1.17367 7.97746 1.39471L9.43723 4.3353C9.54249 4.55042 9.74708 4.69975 9.98325 4.73593L13.2528 5.21025C13.5291 5.24972 13.76 5.44049 13.8514 5.70363C13.9376 5.96743 13.8633 6.25689 13.6606 6.447L11.2003 8.7758Z" stroke="#F59E0B"/>
</svg>
