<svg width="16" height="16" viewBox="0 0 16 16" fill="none" xmlns="http://www.w3.org/2000/svg">
<g id="Icon">
<path id="Vector" d="M11.4742 8.19483C10.9705 8.86758 10.4833 9.51919 9.99605 10.1701C9.93655 10.2494 9.87838 10.3294 9.81359 10.4047C9.67146 10.5706 9.48967 10.6281 9.27879 10.5733C9.07914 10.5211 8.95222 10.3869 8.92049 10.1847C8.87289 9.88068 8.83785 9.57536 8.80017 9.27005C8.72481 8.66139 8.65209 8.05208 8.57607 7.42492C8.15695 7.37073 7.75568 7.31654 7.35441 7.26896C6.90687 7.21543 6.458 7.16983 6.01045 7.11762C5.92319 7.10771 5.83461 7.09251 5.75198 7.06409C5.39301 6.94117 5.28262 6.51359 5.54242 6.23537C5.63166 6.14021 5.74404 6.06553 5.84981 5.98623C6.49171 5.50446 7.13494 5.02401 7.79931 4.52771C7.66115 4.1986 7.52827 3.87676 7.39143 3.55624C7.18385 3.07117 6.97562 2.5861 6.76407 2.10301C6.65896 1.86245 6.63517 1.6338 6.83878 1.43356C7.04305 1.23199 7.27442 1.26636 7.51175 1.36813C8.1986 1.66353 8.88545 1.95828 9.57296 2.25236C9.6827 2.29928 9.79376 2.34224 9.92796 2.39643C10.0317 2.25897 10.1302 2.12944 10.2281 1.99859C10.6637 1.41703 11.0981 0.834815 11.5344 0.254579C11.6765 0.0649116 11.8543 -0.0454523 12.1029 0.0179904C12.3488 0.0801114 12.4585 0.258544 12.5035 0.490506C12.5075 0.512315 12.5108 0.534123 12.5134 0.555931C12.6053 1.34236 12.7045 2.12746 12.7838 2.91454C12.8043 3.11941 12.8717 3.19409 13.0806 3.21524C13.8686 3.29322 14.654 3.39103 15.44 3.48553C15.6958 3.51593 15.9073 3.61506 15.9807 3.89262C16.0508 4.15762 15.9199 4.3354 15.7222 4.48343C15.1055 4.94537 14.4887 5.40665 13.8719 5.86859C13.7853 5.93336 13.7014 6.00143 13.6015 6.07941C13.7562 6.44486 13.9043 6.79776 14.055 7.15C14.2362 7.57428 14.416 7.99987 14.6031 8.42216C14.7154 8.67593 14.7928 8.92574 14.568 9.15572C14.3439 9.3857 14.0993 9.32027 13.8395 9.2066C13.0641 8.86692 12.2834 8.53979 11.4749 8.19483H11.4742Z" fill="#101221"/>
<path id="Vector_2" d="M7.84567 9.33835C7.9131 9.49695 7.80733 9.62384 7.67313 9.75733C5.68463 11.7399 3.69943 13.7271 1.71226 15.7117C1.32355 16.0996 1.10605 16.0956 0.710073 15.7024C0.530262 15.524 0.345823 15.3502 0.174606 15.1632C-0.0587518 14.9081 -0.0561076 14.6556 0.169979 14.3979C0.220881 14.3397 0.277733 14.2875 0.332602 14.2333C2.28739 12.2792 4.24482 10.327 6.19365 8.36688C6.36487 8.19439 6.52419 8.10914 6.76945 8.15937C7.00545 8.20761 7.24938 8.22149 7.49067 8.23999C7.66454 8.25321 7.7432 8.33714 7.75643 8.50963C7.77692 8.77265 7.81196 9.03435 7.84501 9.33835H7.84567Z" fill="#101221"/>
</g>
</svg>
