<svg width="11" height="11" viewBox="0 0 11 11" fill="none" xmlns="http://www.w3.org/2000/svg">
<path fill-rule="evenodd" clip-rule="evenodd" d="M0.648661 10.3806C0.487945 10.2199 0.393974 10.0056 0.387425 9.78483C0.380877 9.56409 0.462285 9.355 0.61374 9.20354L7.23005 2.58723L2.17704 2.43849C2.0676 2.43524 1.9586 2.41047 1.85625 2.36559C1.7539 2.32071 1.66021 2.2566 1.58053 2.17692C1.50086 2.09725 1.43674 2.00356 1.39187 1.90121C1.34699 1.79886 1.32222 1.68986 1.31897 1.58042C1.31572 1.47098 1.33406 1.36326 1.37294 1.26339C1.41182 1.16353 1.47048 1.07348 1.54557 0.998395C1.62066 0.923308 1.7107 0.864649 1.81057 0.825769C1.91043 0.786889 2.01815 0.768549 2.12759 0.771796L9.18985 0.981324C9.29932 0.984433 9.40839 1.00911 9.5108 1.05394C9.61321 1.09878 9.70695 1.16288 9.78666 1.24259C9.86636 1.3223 9.93047 1.41604 9.9753 1.51845C10.0201 1.62086 10.0448 1.72992 10.0479 1.83939L10.2574 8.90165C10.264 9.12267 10.1825 9.33203 10.0308 9.48368C9.8792 9.63532 9.66984 9.71683 9.44883 9.71028C9.22781 9.70372 9.01324 9.60963 8.85232 9.44871C8.6914 9.28779 8.59731 9.07322 8.59076 8.8522L8.44202 3.79919L1.8257 10.4155C1.67425 10.567 1.46515 10.6484 1.24441 10.6418C1.02368 10.6353 0.809378 10.5413 0.648661 10.3806Z" fill="white"/>
</svg>
