<svg width="16" height="15" viewBox="0 0 16 15" fill="none" xmlns="http://www.w3.org/2000/svg">
<path d="M11.0474 4.73633C12.3037 4.73633 13.5085 5.23539 14.3968 6.12372C15.2852 7.01204 15.7842 8.21688 15.7842 9.47316V14.9995H12.6263V9.47316C12.6263 9.0544 12.46 8.65279 12.1639 8.35668C11.8678 8.06057 11.4661 7.89422 11.0474 7.89422C10.6286 7.89422 10.227 8.06057 9.9309 8.35668C9.63479 8.65279 9.46844 9.0544 9.46844 9.47316V14.9995H6.31055V9.47316C6.31055 8.21688 6.80961 7.01204 7.69793 6.12372C8.58626 5.23539 9.7911 4.73633 11.0474 4.73633Z" fill="white"/>
<path d="M3.15789 5.52539H0V14.9991H3.15789V5.52539Z" fill="white"/>
<path d="M1.57895 3.15789C2.45097 3.15789 3.15789 2.45097 3.15789 1.57895C3.15789 0.706918 2.45097 0 1.57895 0C0.706918 0 0 0.706918 0 1.57895C0 2.45097 0.706918 3.15789 1.57895 3.15789Z" fill="white"/>
</svg>
