<svg width="14" height="14" viewBox="0 0 14 14" fill="none" xmlns="http://www.w3.org/2000/svg">
<path d="M5.92547 8.56247C5.55609 8.98742 5.19502 9.40292 4.83396 9.81865C3.64932 11.1821 2.46422 12.5452 1.2816 13.9102C1.22424 13.9766 1.1653 14.0009 1.07936 13.9998C0.764417 13.9953 0.449472 13.9982 0.134527 13.9977C0.098083 13.9977 0.0618643 13.9944 0 13.9912C0.123054 13.8488 0.23171 13.7226 0.340816 13.5971C1.88922 11.815 3.43763 10.0326 4.98604 8.25045C5.10167 8.11749 5.21437 7.98207 5.33405 7.85294C5.38264 7.80075 5.37972 7.7652 5.34057 7.70919C4.71541 6.81137 4.09249 5.91198 3.46867 5.01303C2.74452 3.96944 2.0197 2.92607 1.29533 1.8827C0.878923 1.28228 0.46252 0.681858 0.045892 0.0814371C0.0335192 0.0634402 0.0224961 0.0443185 0.000449922 0.00899965C0.0524159 0.00630012 0.0913342 0.00247578 0.130027 0.00247578C1.4159 0.00202586 2.70201 0.00292571 3.98788 1.21355e-06C4.07449 -0.000223747 4.12309 0.0308209 4.1701 0.098984C5.08097 1.41433 5.99409 2.72833 6.9063 4.04278C7.13284 4.36897 7.35847 4.69584 7.58479 5.02226C7.61223 5.06207 7.6408 5.10099 7.67702 5.15206C7.79602 5.01641 7.90918 4.88863 8.02121 4.75973C9.373 3.2039 10.7248 1.64807 12.075 0.0908855C12.1283 0.0292461 12.1816 -0.00112359 12.266 0.000226175C12.5845 0.00495036 12.9033 0.00202586 13.2221 0.00225082C13.2583 0.00225082 13.2945 0.0058502 13.3557 0.00922461C13.2122 0.175696 13.0846 0.32507 12.9557 0.473319C11.4021 2.26086 9.84902 4.04885 8.29296 5.83414C8.22795 5.9086 8.23065 5.95764 8.28396 6.03413C9.59121 7.9139 10.896 9.79503 12.2017 11.6759C12.7103 12.4086 13.2196 13.1406 13.7282 13.8733C13.7514 13.9069 13.773 13.9415 13.8061 13.9921C13.7525 13.9946 13.7134 13.9977 13.6745 13.9977C12.3922 13.998 11.1101 13.9971 9.82787 14C9.73406 14.0002 9.6812 13.9685 9.62833 13.892C8.69024 12.5362 7.74878 11.1826 6.80844 9.82832C6.53062 9.42834 6.25392 9.02746 5.97631 8.62703C5.96349 8.60903 5.94887 8.59239 5.92547 8.56247ZM12.1459 13.131C12.1182 13.0867 12.1007 13.0549 12.08 13.0255C11.8725 12.7314 11.6645 12.4381 11.457 12.1443C9.91201 9.95565 8.36697 7.767 6.82194 5.57858C5.74573 4.05425 4.66884 2.53059 3.5942 1.0049C3.54629 0.936739 3.49814 0.906144 3.41176 0.906594C2.8606 0.910643 2.30967 0.908394 1.75852 0.908619C1.72635 0.908619 1.69441 0.912218 1.64694 0.915142C1.67933 0.963734 1.70295 1.00063 1.72815 1.0364C3.05565 2.9155 4.38337 4.79415 5.71064 6.67324C7.21292 8.80025 8.71499 10.9275 10.2148 13.0565C10.2607 13.1215 10.3093 13.1384 10.3822 13.1379C10.9295 13.1357 11.4768 13.1368 12.0244 13.1364C12.0595 13.1368 12.0953 13.1334 12.1459 13.131Z" fill="white"/>
</svg>
