<svg width="192" height="40" viewBox="0 0 192 40" fill="none" xmlns="http://www.w3.org/2000/svg">
<path d="M63.1856 32V12.28H56.2496V8.2H74.6096V12.28H67.6736V32H63.1856ZM82.2984 32.476C80.621 32.476 79.1364 32.1247 77.8444 31.422C76.575 30.6967 75.5777 29.688 74.8524 28.396C74.1497 27.0813 73.7984 25.54 73.7984 23.772V23.364C73.7984 21.596 74.1497 20.066 74.8524 18.774C75.555 17.4593 76.541 16.4507 77.8104 15.748C79.0797 15.0227 80.553 14.66 82.2304 14.66C83.885 14.66 85.3244 15.034 86.5484 15.782C87.7724 16.5073 88.7244 17.5273 89.4044 18.842C90.0844 20.134 90.4244 21.6413 90.4244 23.364V24.826H78.1504C78.1957 25.982 78.6264 26.9227 79.4424 27.648C80.2584 28.3733 81.2557 28.736 82.4344 28.736C83.6357 28.736 84.5197 28.4753 85.0864 27.954C85.653 27.4327 86.0837 26.8547 86.3784 26.22L89.8804 28.056C89.563 28.6453 89.0984 29.2913 88.4864 29.994C87.897 30.674 87.1037 31.2633 86.1064 31.762C85.109 32.238 83.8397 32.476 82.2984 32.476ZM78.1844 21.63H86.0724C85.9817 20.6553 85.585 19.8733 84.8824 19.284C84.2024 18.6947 83.307 18.4 82.1964 18.4C81.0404 18.4 80.1224 18.6947 79.4424 19.284C78.7624 19.8733 78.343 20.6553 78.1844 21.63ZM102.159 32.476C100.527 32.476 99.0428 32.136 97.7054 31.456C96.3908 30.776 95.3481 29.79 94.5774 28.498C93.8068 27.206 93.4214 25.642 93.4214 23.806V23.33C93.4214 21.494 93.8068 19.93 94.5774 18.638C95.3481 17.346 96.3908 16.36 97.7054 15.68C99.0428 15 100.527 14.66 102.159 14.66C103.769 14.66 105.151 14.9433 106.307 15.51C107.463 16.0767 108.393 16.8587 109.095 17.856C109.821 18.8307 110.297 19.9413 110.523 21.188L106.375 22.072C106.285 21.392 106.081 20.78 105.763 20.236C105.446 19.692 104.993 19.2613 104.403 18.944C103.837 18.6267 103.123 18.468 102.261 18.468C101.4 18.468 100.618 18.6607 99.9154 19.046C99.2354 19.4087 98.6914 19.964 98.2834 20.712C97.8981 21.4373 97.7054 22.3327 97.7054 23.398V23.738C97.7054 24.8033 97.8981 25.71 98.2834 26.458C98.6914 27.1833 99.2354 27.7387 99.9154 28.124C100.618 28.4867 101.4 28.668 102.261 28.668C103.553 28.668 104.528 28.3393 105.185 27.682C105.865 27.002 106.296 26.118 106.477 25.03L110.625 26.016C110.331 27.2173 109.821 28.3167 109.095 29.314C108.393 30.2887 107.463 31.0593 106.307 31.626C105.151 32.1927 103.769 32.476 102.159 32.476ZM114.159 32V8.2H118.443V17.21H119.055C119.237 16.8473 119.52 16.4847 119.905 16.122C120.291 15.7593 120.801 15.4647 121.435 15.238C122.093 14.9887 122.92 14.864 123.917 14.864C125.232 14.864 126.377 15.17 127.351 15.782C128.349 16.3713 129.119 17.1987 129.663 18.264C130.207 19.3067 130.479 20.5307 130.479 21.936V32H126.195V22.276C126.195 21.0067 125.878 20.0547 125.243 19.42C124.631 18.7853 123.747 18.468 122.591 18.468C121.277 18.468 120.257 18.91 119.531 19.794C118.806 20.6553 118.443 21.868 118.443 23.432V32H114.159ZM142.779 25.268V21.392H152.843V25.268H142.779ZM170.495 32.476C169.294 32.476 168.217 32.272 167.265 31.864C166.313 31.4333 165.554 30.8213 164.987 30.028C164.443 29.212 164.171 28.226 164.171 27.07C164.171 25.914 164.443 24.9507 164.987 24.18C165.554 23.3867 166.324 22.7973 167.299 22.412C168.296 22.004 169.43 21.8 170.699 21.8H175.323V20.848C175.323 20.0547 175.074 19.4087 174.575 18.91C174.076 18.3887 173.283 18.128 172.195 18.128C171.13 18.128 170.336 18.3773 169.815 18.876C169.294 19.352 168.954 19.9753 168.795 20.746L164.851 19.42C165.123 18.5587 165.554 17.7767 166.143 17.074C166.755 16.3487 167.56 15.7707 168.557 15.34C169.577 14.8867 170.812 14.66 172.263 14.66C174.484 14.66 176.241 15.2153 177.533 16.326C178.825 17.4367 179.471 19.046 179.471 21.154V27.444C179.471 28.124 179.788 28.464 180.423 28.464H181.783V32H178.927C178.088 32 177.397 31.796 176.853 31.388C176.309 30.98 176.037 30.436 176.037 29.756V29.722H175.391C175.3 29.994 175.096 30.3567 174.779 30.81C174.462 31.2407 173.963 31.626 173.283 31.966C172.603 32.306 171.674 32.476 170.495 32.476ZM171.243 29.008C172.444 29.008 173.419 28.6793 174.167 28.022C174.938 27.342 175.323 26.4467 175.323 25.336V24.996H171.005C170.212 24.996 169.588 25.166 169.135 25.506C168.682 25.846 168.455 26.322 168.455 26.934C168.455 27.546 168.693 28.0447 169.169 28.43C169.645 28.8153 170.336 29.008 171.243 29.008ZM184.915 32V15.136H189.199V32H184.915ZM187.057 13.164C186.286 13.164 185.629 12.9147 185.085 12.416C184.564 11.9173 184.303 11.26 184.303 10.444C184.303 9.628 184.564 8.97067 185.085 8.472C185.629 7.97333 186.286 7.724 187.057 7.724C187.85 7.724 188.508 7.97333 189.029 8.472C189.55 8.97067 189.811 9.628 189.811 10.444C189.811 11.26 189.55 11.9173 189.029 12.416C188.508 12.9147 187.85 13.164 187.057 13.164Z" fill="#101221"/>
<path fill-rule="evenodd" clip-rule="evenodd" d="M44.2058 0.00337219H33.9159H32.6371C29.2027 2.84967 27.0146 7.14476 27.0146 11.9551C27.0146 12.2357 27.0227 12.5136 27.0362 12.7888C27.0227 13.0775 27.0146 13.3662 27.0146 13.6575C27.0146 14.0703 27.0308 14.4777 27.0578 14.8824C27.0902 15.3356 27.1415 15.7808 27.2089 16.2205C27.2683 16.6225 27.3438 17.0191 27.4328 17.4103C28.1154 20.4293 29.602 23.1434 31.6578 25.3152C31.6928 25.3368 31.7279 25.3557 31.763 25.3746C32.0867 25.5526 32.2189 25.5068 32.1973 25.1264C32.1893 24.9942 32.1973 24.8593 32.1973 24.7271C32.1973 19.3501 32.1946 13.9705 32.1973 8.59354C32.1973 7.38757 32.0598 7.51707 33.2522 7.51437C36.9322 7.51167 40.6121 7.51437 44.2921 7.51167C44.9396 7.51167 44.9639 7.49009 44.9639 6.83719C44.9639 4.80566 44.9639 2.77413 44.9639 0.742601C44.9639 0.00607011 44.9612 0.00337219 44.2058 0.00337219ZM30.1793 3.79125C30.1766 3.79394 30.1739 3.79664 30.1739 3.79934C30.1766 3.79664 30.1766 3.79394 30.1793 3.79125ZM27.0497 12.5541C27.0497 12.573 27.047 12.5919 27.047 12.6107C27.0497 12.5919 27.0497 12.573 27.0497 12.5541ZM29.9392 4.13388C29.9985 4.05025 30.0552 3.96391 30.1146 3.88028C30.0552 3.96391 29.9958 4.05025 29.9392 4.13388ZM31.5552 2.11044C31.7144 1.94048 31.8763 1.77321 32.0409 1.60863C31.8736 1.77321 31.7117 1.94048 31.5552 2.11044ZM32.8556 0.850518C32.8448 0.858612 32.8341 0.869403 32.8233 0.877497C32.683 0.998903 32.5454 1.12301 32.4105 1.24981C32.5454 1.12301 32.683 0.998903 32.8233 0.874799C32.8341 0.869403 32.8448 0.86131 32.8556 0.850518C33.1416 0.60231 33.4357 0.364893 33.7379 0.13557C33.4384 0.364893 33.1416 0.60231 32.8556 0.850518Z" fill="#A7A726"/>
<path d="M18.1491 39.9892C14.6499 39.9919 11.148 39.9919 7.64883 39.9919H0.666617C0.024513 39.9919 0.00292969 39.9703 0.00292969 39.3093V13.528C0.00292969 12.8509 0.0407005 12.8104 0.696294 12.8104H2.79797C4.62176 12.8104 6.44286 12.8077 8.26395 12.8077C8.11287 13.0019 7.96448 13.1989 7.81879 13.3985C7.79451 13.4309 7.77293 13.4633 7.75135 13.4957C7.6812 13.5928 7.61375 13.6899 7.5463 13.787C7.07417 14.4804 6.65329 15.2088 6.28638 15.9697C6.17306 16.2098 6.06245 16.4526 5.95993 16.6981C5.89248 16.8546 5.82773 17.0137 5.76568 17.1729C5.69823 17.3483 5.63078 17.529 5.56873 17.7071C5.24768 18.6244 5.00217 19.5768 4.84299 20.5588C4.79173 20.8853 4.74587 21.209 4.71349 21.5408C4.65144 22.1236 4.62176 22.7144 4.62176 23.3134C4.62176 23.5211 4.62446 23.7262 4.63255 23.9285C4.63795 24.0661 4.64335 24.201 4.65144 24.3359C4.65414 24.4033 4.65684 24.4708 4.66223 24.5382C4.66763 24.5895 4.67033 24.6408 4.67572 24.692C4.65144 24.9375 4.63255 25.1857 4.62176 25.4339C5.01836 32.9584 10.7784 39.0611 18.1491 39.9892Z" fill="#A7A726"/>
<path d="M44.9639 13.493C44.9666 20.0003 44.9666 26.5131 44.9639 33.0205C42.1473 35.1276 38.6562 36.3794 34.871 36.3929H34.7523C34.0319 36.3902 33.3278 36.3443 32.6344 36.2526C32.5427 36.2418 32.4483 36.2283 32.3565 36.2148C32.165 36.1878 31.9761 36.1582 31.79 36.1231C31.6632 36.1015 31.5364 36.0772 31.4096 36.0502C31.2801 36.0233 31.1506 35.9963 31.0238 35.9666C30.9024 35.9396 30.781 35.91 30.6595 35.8803C30.2872 35.7859 29.9203 35.6806 29.5588 35.5619C29.4131 35.5161 29.2701 35.4675 29.1298 35.4162C28.2368 35.1006 27.3789 34.7094 26.5641 34.2534C22.4201 31.944 19.3445 27.943 18.2707 23.1866C18.1817 22.7927 18.1061 22.3961 18.0468 21.9941C17.9793 21.5543 17.9308 21.1092 17.8957 20.6559C17.8687 20.2512 17.8525 19.8439 17.8525 19.4311C17.8525 18.8321 17.8849 18.2413 17.947 17.6585C17.9793 17.3294 18.0225 17.003 18.0765 16.6792C18.2356 15.6972 18.4812 14.7448 18.8022 13.8275C18.8643 13.6467 18.9317 13.4687 18.9992 13.2933C19.0612 13.1341 19.126 12.975 19.1934 12.8185C19.563 12.8455 19.6008 12.975 19.5765 13.5253C19.447 16.431 19.9812 19.1964 21.3409 21.7783C23.5101 25.8845 26.7665 28.8495 30.9644 30.7974C32.8368 31.6661 34.7955 32.2246 36.8594 32.4027C37.4772 32.4539 37.4799 32.4674 37.4799 31.801V13.7655C37.4799 12.8104 37.4799 12.8077 38.4376 12.8077C40.3855 12.8077 42.3334 12.8077 44.284 12.8104C44.9207 12.8104 44.9639 12.8536 44.9639 13.493Z" fill="#A7A726"/>
<path fill-rule="evenodd" clip-rule="evenodd" d="M27.4324 17.4103C28.115 20.4293 29.6015 23.1434 31.6573 25.3152C30.2382 24.5166 29.0296 23.4618 27.9963 22.2153C25.7975 19.5579 24.748 16.4876 24.7723 13.0397C24.7858 11.4749 24.775 9.91013 24.775 8.34534C24.775 7.51438 24.775 7.51438 23.9656 7.51438H1.01172C0.852542 7.51438 0.687969 7.50628 0.528792 7.51438H0.46674C0.461344 7.51438 0.458646 7.51708 0.45325 7.51708C0.415479 7.51708 0.377708 7.51438 0.345333 7.50898C0.213135 7.49279 0.121406 7.43884 0.0674479 7.34171C0.0512604 7.31743 0.0404687 7.29045 0.0296771 7.26077C0.032375 7.25807 0.032375 7.25807 0.0296771 7.25807C0.00809375 7.19872 0 7.13127 0 7.05033V7.04764C0.00539583 4.84884 0.00539583 2.65273 0.00269792 0.45393C0.00269792 0.410763 0.00539583 0.370294 0.0107917 0.332524C0.0134896 0.305544 0.0188854 0.281263 0.0269792 0.25968C0.0350729 0.232701 0.0431667 0.205721 0.0539583 0.184138L0.0566562 0.18144C0.102521 0.0843152 0.188854 0.0249611 0.32375 0.00877357C0.348031 0.00337774 0.37501 0.000679825 0.404687 0.00337774H0.485625C0.644802 0.0114715 0.809375 0.00337774 0.968552 0.00337774H32.6367C29.2022 2.84968 27.0142 7.14746 27.0142 11.9551C27.0142 12.2357 27.0223 12.5136 27.0358 12.7888C27.0223 13.0775 27.0142 13.3662 27.0142 13.6575C27.0142 14.0703 27.0304 14.4777 27.0574 14.8824C27.0898 15.3356 27.141 15.7808 27.2085 16.2206C27.2678 16.6225 27.3434 17.0191 27.4324 17.4103Z" fill="#FF2F60"/>
<path fill-rule="evenodd" clip-rule="evenodd" d="M33.9157 0.00337219C33.8563 0.0465389 33.797 0.0897055 33.7376 0.13557C33.4382 0.362195 33.1414 0.60231 32.8554 0.850518C32.8446 0.858612 32.8338 0.869403 32.823 0.877497C32.3158 1.31996 31.8356 1.79479 31.385 2.2939C30.9669 2.75525 30.5757 3.24087 30.2114 3.74538C30.1872 3.77776 30.1656 3.81013 30.1413 3.84251C30.0712 3.93963 30.0037 4.03676 29.9363 4.13388C29.4641 4.82725 29.0432 5.55568 28.6763 6.3165C28.5603 6.55661 28.4524 6.79942 28.3499 7.04493C28.2824 7.20141 28.2177 7.36059 28.1556 7.51977C28.0882 7.69513 28.0207 7.8732 27.9587 8.05396C27.6376 8.97125 27.3921 9.92361 27.2329 10.9057C27.179 11.2294 27.1358 11.5559 27.1034 11.885C27.0711 12.1845 27.0468 12.4866 27.0333 12.7888C27.0198 12.5136 27.0117 12.2357 27.0117 11.9551C27.0117 7.14746 29.1997 2.84967 32.6342 0.00337219H33.9157Z" fill="#64D445"/>
<path fill-rule="evenodd" clip-rule="evenodd" d="M34.8701 36.3929H34.7514C34.0311 36.3902 33.3269 36.3443 32.6336 36.2526C32.6093 36.2499 32.5823 36.2472 32.558 36.2445C32.4906 36.2364 32.4231 36.2256 32.3557 36.2148C32.1641 36.1878 31.9753 36.1582 31.7891 36.1231C31.6623 36.1015 31.5355 36.0772 31.4087 36.0502C31.2792 36.0233 31.1497 35.9963 31.0229 35.9666C30.9015 35.9396 30.7801 35.91 30.6587 35.8803C30.2864 35.7859 29.9195 35.6806 29.5579 35.5619C29.4123 35.5161 29.2693 35.4675 29.129 35.4162C28.236 35.1006 27.378 34.7094 26.5632 34.2534C22.4193 31.944 19.3436 27.943 18.2699 23.1866C18.1808 22.7927 18.1053 22.3961 18.0459 21.9941C17.9785 21.5543 17.9299 21.1092 17.8948 20.6559C17.8679 20.2512 17.8517 19.8439 17.8517 19.4311C17.8517 18.8321 17.8841 18.2413 17.9461 17.6585C17.9785 17.3294 18.0216 17.003 18.0756 16.6792C18.2348 15.6972 18.4803 14.7448 18.8013 13.8275C18.8634 13.6467 18.9308 13.4687 18.9983 13.2933C19.0603 13.1341 19.1251 12.975 19.1925 12.8185C19.1062 12.8104 19.0037 12.8104 18.8823 12.8104C15.3426 12.8077 11.8029 12.8077 8.26328 12.8077C8.1122 13.0019 7.96381 13.1989 7.81813 13.3985C7.79384 13.4309 7.77226 13.4633 7.75068 13.4957C7.68053 13.5928 7.61308 13.6899 7.54564 13.787C7.0735 14.4804 6.65263 15.2088 6.28571 15.9697C6.1724 16.2098 6.06178 16.4526 5.95926 16.6981C5.89181 16.8546 5.82706 17.0137 5.76501 17.1729C5.69756 17.3483 5.63011 17.529 5.56806 17.7071C5.24701 18.6244 5.0015 19.5768 4.84232 20.5588C4.79106 20.8853 4.7452 21.209 4.71282 21.5408C4.65077 22.1236 4.62109 22.7144 4.62109 23.3134C4.62109 23.5211 4.62379 23.7262 4.63189 23.9285C4.63728 24.0661 4.64268 24.201 4.65077 24.3359C4.65617 24.4033 4.65887 24.4708 4.66426 24.5382C4.66966 24.6165 4.67505 24.6947 4.68315 24.7676C4.68045 24.7406 4.67775 24.7163 4.67505 24.692C4.65077 24.9375 4.63189 25.1857 4.62109 25.4339C5.01769 32.9584 10.7777 39.0611 18.1484 39.9892H18.4749H20.6521C20.8248 39.9892 21.0163 40.0459 21.2295 39.8597C21.0244 39.7032 20.8572 39.571 20.6818 39.4496C18.0378 37.6609 15.7905 35.4513 13.8453 32.9288C13.5917 32.605 13.3246 32.4701 12.9199 32.4755C11.3065 32.4917 9.69048 32.4728 8.07443 32.489C7.65355 32.4917 7.47819 32.3676 7.48089 31.9224C7.49168 28.2398 7.49168 24.5598 7.48089 20.8799C7.47819 20.4374 7.63736 20.3025 8.06633 20.3079C9.51242 20.3295 10.9639 20.3349 12.4127 20.3052C12.8875 20.2971 13.0629 20.4806 13.2005 20.9203C14.9109 26.3917 17.9299 30.9917 22.4867 34.5124C24.6531 36.1851 26.9544 37.4694 29.3853 38.3759C32.2882 39.455 35.3746 39.9919 38.6391 39.9919H44.2859C44.9415 39.9919 44.963 39.973 44.963 39.3228V33.0205C42.1464 35.1276 38.6553 36.3794 34.8701 36.3929ZM18.2294 39.9406C18.1484 39.9245 18.0648 39.911 17.9839 39.8921C17.911 39.8786 17.8355 39.857 17.7626 39.8408C17.8355 39.857 17.9083 39.8786 17.9839 39.8921C18.0648 39.9083 18.1484 39.9245 18.2294 39.9406ZM16.8534 39.6088C16.8534 39.6088 16.8534 39.6088 16.8507 39.6088C16.8507 39.6088 16.8508 39.6088 16.8534 39.6088Z" fill="#A7A726"/>
<path opacity="0.16" fill-rule="evenodd" clip-rule="evenodd" d="M18.853 0.00337219C16.406 1.05286 14.1776 2.46387 12.2458 4.16086C12.0516 4.33083 11.8627 4.5035 11.6739 4.67886C11.4877 4.85692 11.3043 5.03499 11.1235 5.21575C10.3978 5.93879 9.72599 6.705 9.10817 7.51167V7.51437H1.01172C0.852542 7.51437 0.687969 7.50628 0.528792 7.51437C0.501813 7.51707 0.477531 7.51707 0.45325 7.51707C0.299469 7.51437 0.188854 7.4793 0.113312 7.40376C0.0755417 7.36599 0.0485625 7.31742 0.0269792 7.26077C0.0296771 7.25807 0.0296771 7.25807 0.0269792 7.25807C0.0107917 7.19871 0 7.13127 0 7.05033V7.04763C0.00539583 4.84883 0.00539583 2.65273 0.00269792 0.453924C0.00269792 0.410758 0.00539583 0.370289 0.0107917 0.332518C0.0134896 0.305539 0.0188854 0.281258 0.0269792 0.259674C0.0350729 0.232695 0.0458646 0.205716 0.0566562 0.184133V0.181435C0.0701458 0.159851 0.0836354 0.138268 0.102521 0.119383C0.172667 0.0438409 0.283281 0.00337219 0.43976 0.00337219H0.485625C0.644802 0.0114659 0.809375 0.00337219 0.968552 0.00337219H18.853Z" fill="white"/>
<path fill-rule="evenodd" clip-rule="evenodd" d="M18.853 0.000674479C18.8503 0.000674479 18.8503 0.0033724 18.8476 0.0033724C16.4033 1.05286 14.1749 2.46117 12.2458 4.16086C12.0516 4.33083 11.8627 4.5035 11.6739 4.67886C11.4877 4.85423 11.3016 5.03499 11.1235 5.21575C10.3978 5.93879 9.72599 6.705 9.10817 7.51167H1.01172C0.852542 7.51167 0.687969 7.50358 0.528792 7.51167C0.515302 7.51167 0.501812 7.51167 0.488323 7.51437H0.46674C0.307563 7.51437 0.191552 7.4793 0.113312 7.40376C0.0755417 7.36599 0.0485625 7.31742 0.0269792 7.26077C0.0296771 7.25807 0.0296771 7.25807 0.0269792 7.25807C0.0107917 7.19872 0 7.13127 0 7.05033V7.04763C0.00539583 4.84883 0.00539583 2.65273 0.00269792 0.453924C0.00269792 0.410758 0.00539583 0.370289 0.0107917 0.332518C0.0134896 0.305539 0.0188854 0.281258 0.0269792 0.259674C0.0350729 0.232695 0.0431667 0.205716 0.0539583 0.184133H0.0566562V0.181435C0.0701458 0.159852 0.0836354 0.138268 0.102521 0.119383C0.124104 0.0977995 0.148385 0.0789141 0.178062 0.0627266C0.191552 0.0546328 0.20774 0.0465391 0.226625 0.0411432C0.240115 0.0357474 0.253604 0.0303516 0.269792 0.0276536C0.288677 0.0222578 0.302167 0.0141641 0.32375 0.0114661C0.348031 0.0033724 0.37501 0.000674479 0.404687 0.0033724C0.428969 -0.00202344 0.455948 0.000674479 0.485625 0.000674479C0.644802 0.00876823 0.809375 0.000674479 0.968552 0.000674479H18.853Z" fill="#A7A726"/>
<path d="M13.8324 0.00337219L13.7353 0.00876802C13.7326 0.0114659 13.7326 0.0114659 13.7299 0.0114659C10.7325 1.90271 8.15599 4.47382 6.17302 7.51707H5.5498V7.51437C7.67846 4.374 10.4654 1.79209 13.6867 0.00607011C13.6894 0.00607011 13.6894 0.00607011 13.6921 0.00337219H13.8324Z" fill="#FFFF60"/>
<path opacity="0.39" d="M27.0143 11.9578C27.0143 12.2384 27.0224 12.5163 27.0358 12.7915C27.0224 13.0802 27.0143 13.3689 27.0143 13.6602C27.0143 14.073 27.0304 14.4804 27.0574 14.8851C27.0898 15.3383 27.1411 15.7835 27.2085 16.2232C27.2679 16.6252 27.3434 17.0218 27.4324 17.413C27.6537 18.3843 27.9558 19.3232 28.3335 20.2243C29.1294 22.1209 30.2625 23.8449 31.6574 25.3179C30.2383 24.5193 29.0296 23.4645 27.9963 22.218C25.7975 19.5606 24.748 16.4903 24.7723 13.0424C24.7858 11.4776 24.775 9.91282 24.775 8.34803C24.775 7.51707 24.775 7.51707 23.9656 7.51707H6.17285C8.15582 4.47382 10.7323 1.90271 13.7297 0.0114659C13.7324 0.0114659 13.7324 0.0114659 13.7351 0.00876802L13.8322 0.00337219H18.8531C18.8504 0.00337219 18.8504 0.00607011 18.8477 0.00607011H32.6367C32.4748 0.140966 32.3157 0.27856 32.1592 0.421549C28.9999 3.25976 27.0143 7.37678 27.0143 11.9578Z" fill="white"/>
<path d="M8.60644 39.9946H7.64868C3.56673 35.4648 1.04688 29.2569 1.04688 22.415C1.04688 22.2423 1.04957 22.0696 1.05227 21.897C1.06576 22.4581 1.09544 23.0247 1.144 23.5967C1.69168 30.1094 4.48132 35.856 8.60644 39.9946Z" fill="#A7A726"/>
<path opacity="0.71" d="M44.9657 20.5939C44.9657 24.7379 44.9657 28.8819 44.9631 33.0232V33.5385C43.8758 35.9315 42.4459 38.1087 40.7462 39.9946H38.6391C35.3747 39.9946 32.2882 39.4577 29.3853 38.3785C26.9545 37.472 24.6531 36.1878 22.4867 34.5151C18.3643 31.3289 15.4991 27.2604 13.7239 22.4608C13.7212 22.4527 13.7185 22.4473 13.7158 22.4392C13.5323 21.9401 13.3597 21.4356 13.2005 20.923C13.0629 20.4833 12.8875 20.2998 12.4127 20.3079C10.9639 20.3376 9.51242 20.3322 8.06634 20.3106C7.63737 20.3052 7.4782 20.4401 7.48089 20.8825V21.1281C7.48359 21.4815 7.48359 21.8349 7.48359 22.1883C7.49168 25.4339 7.49168 28.6768 7.48089 31.9251C7.4782 32.3703 7.65356 32.4944 8.07443 32.4917C8.16616 32.4917 8.2552 32.489 8.34692 32.4917C9.87125 32.4782 11.3983 32.4944 12.9199 32.4782C13.1789 32.4755 13.3839 32.5295 13.562 32.6536C13.6618 32.7237 13.7535 32.8154 13.8453 32.9314C15.7905 35.454 18.0378 37.6636 20.6818 39.4523C20.7412 39.4928 20.7978 39.5359 20.8572 39.5791C20.9732 39.6654 21.0946 39.7599 21.2295 39.8624C21.0163 40.0485 20.8248 39.9919 20.6521 39.9919H15.9685C13.5134 39.9946 11.0583 39.9946 8.60592 39.9946C4.48081 35.856 1.69116 30.1094 1.14349 23.5966C1.09492 23.0247 1.06525 22.4581 1.05176 21.897C1.10302 19.0776 1.58595 16.3689 2.4277 13.8518C2.54371 13.501 2.66781 13.1557 2.79731 12.8131C4.6211 12.8131 6.44219 12.8104 8.26329 12.8104C10.4459 12.8104 12.6312 12.8104 14.8138 12.8131C16.152 12.8104 17.4929 12.8131 18.831 12.8131H18.8823C19.0037 12.8131 19.1062 12.8131 19.1925 12.8212C19.5622 12.8482 19.5999 12.9776 19.5757 13.528C19.4812 15.6594 19.7429 17.7179 20.4282 19.6793C20.6737 20.3915 20.9786 21.093 21.3401 21.781C23.5092 25.8872 26.7656 28.8522 30.9636 30.8001C32.8359 31.6688 34.7946 32.2273 36.8585 32.4053C37.4763 32.4566 37.479 32.4701 37.479 31.8037V13.7681C37.479 12.8131 37.479 12.8104 38.4368 12.8104C40.3847 12.8104 42.3326 12.8104 44.2832 12.8131H44.3102C44.9199 12.8158 44.9631 12.8643 44.9631 13.4957C44.9657 15.8617 44.9657 18.2278 44.9657 20.5939Z" fill="white" fill-opacity="0.5"/>
</svg>
