<svg xmlns="http://www.w3.org/2000/svg" width="34" height="34" viewBox="0 0 34 34" fill="none">
  <path d="M33.3214 17.4078C33.3214 16.2596 33.2103 15.0745 33.0251 13.9634H16.9883V20.5189H26.1734C25.803 22.6299 24.5808 24.4818 22.766 25.6669L28.2474 29.9261C31.4696 26.9262 33.3214 22.5559 33.3214 17.4078Z" fill="#4280EF"/>
  <path d="M16.9916 33.9999C21.5842 33.9999 25.436 32.4814 28.2508 29.8889L22.7693 25.6667C21.2508 26.7037 19.2879 27.2963 16.9916 27.2963C12.5472 27.2963 8.80655 24.2963 7.4362 20.2964L1.80664 24.6297C4.69549 30.3703 10.5473 33.9999 16.9916 33.9999Z" fill="#34A353"/>
  <path d="M7.43509 20.2594C6.7314 18.1483 6.7314 15.852 7.43509 13.7409L1.80553 9.37061C-0.601844 14.1854 -0.601844 19.852 1.80553 24.6297L7.43509 20.2594Z" fill="#F6B704"/>
  <path d="M16.9916 6.7413C19.399 6.70427 21.7694 7.63018 23.5101 9.29683L28.3619 4.408C25.2878 1.51915 21.2138 -0.0363902 16.9916 0.000646395C10.5473 0.000646395 4.69549 3.63023 1.80664 9.3709L7.4362 13.7412C8.80655 9.70423 12.5472 6.7413 16.9916 6.7413Z" fill="#E54335"/>
</svg>