<svg xmlns="http://www.w3.org/2000/svg" width="39" height="40" viewBox="0 0 39 40" fill="none">
  <path d="M29.3327 13.1638V8.40299C29.9618 8.10914 30.4945 7.64257 30.8688 7.05763C31.243 6.4727 31.4433 5.79347 31.4464 5.09908V4.98796C31.4438 4.01755 31.0571 3.08763 30.3709 2.40145C29.6847 1.71526 28.7548 1.32861 27.7844 1.32601H27.6733C26.7029 1.32861 25.773 1.71526 25.0868 2.40145C24.4006 3.08763 24.014 4.01755 24.0113 4.98796V5.09908C24.0144 5.79347 24.2147 6.4727 24.589 7.05763C24.9632 7.64257 25.4959 8.10914 26.1251 8.40299V13.1638C24.3162 13.4404 22.6125 14.19 21.1865 15.3367L8.11408 5.16575C8.20712 4.83023 8.25692 4.4842 8.26223 4.13606C8.26321 3.319 8.02188 2.52 7.56876 1.8401C7.11564 1.1602 6.47108 0.629933 5.71659 0.316357C4.9621 0.00278022 4.13157 -0.0800224 3.33002 0.0784198C2.52847 0.236862 1.79191 0.629432 1.21347 1.20649C0.635033 1.78354 0.240706 2.51917 0.0803475 3.32034C-0.0800106 4.1215 0.000802637 4.95223 0.312574 5.70747C0.624346 6.4627 1.15307 7.10853 1.83189 7.56327C2.5107 8.01802 3.30912 8.26126 4.12618 8.26224C4.84386 8.25957 5.54817 8.06794 6.16828 7.70665L19.0209 17.7122C17.8633 19.4587 17.2593 21.5138 17.2879 23.6089C17.3166 25.7041 17.9765 27.7419 19.1814 29.4561L15.2701 33.3675C14.9561 33.2675 14.6291 33.2143 14.2996 33.2095C13.6281 33.2095 12.9717 33.4086 12.4133 33.7817C11.855 34.1547 11.4198 34.685 11.1628 35.3054C10.9058 35.9258 10.8386 36.6085 10.9696 37.2671C11.1006 37.9257 11.424 38.5307 11.8988 39.0055C12.3737 39.4804 12.9786 39.8038 13.6373 39.9348C14.2959 40.0658 14.9785 39.9985 15.599 39.7416C16.2194 39.4846 16.7496 39.0494 17.1227 38.491C17.4958 37.9327 17.6949 37.2762 17.6949 36.6047C17.6904 36.2752 17.6371 35.9482 17.5369 35.6343L21.4062 31.7649C22.6693 32.7297 24.1361 33.3931 25.6947 33.7046C27.2533 34.016 28.8624 33.9672 30.3993 33.562C31.9361 33.1567 33.3601 32.4056 34.5624 31.3661C35.7647 30.3266 36.7136 29.0261 37.3367 27.5639C37.9598 26.1017 38.2405 24.5165 38.1575 22.9293C38.0745 21.3421 37.63 19.7948 36.8578 18.4056C36.0856 17.0163 35.0063 15.8219 33.7021 14.9135C32.3979 14.005 30.9034 13.4066 29.3327 13.1638ZM27.7301 28.824C26.6713 28.824 25.6363 28.51 24.7559 27.9218C23.8755 27.3335 23.1894 26.4975 22.7842 25.5192C22.379 24.541 22.273 23.4646 22.4795 22.4262C22.6861 21.3877 23.196 20.4338 23.9447 19.6851C24.6933 18.9365 25.6472 18.4266 26.6857 18.22C27.7242 18.0135 28.8005 18.1195 29.7788 18.5247C30.757 18.9299 31.5931 19.616 32.1813 20.4964C32.7695 21.3767 33.0835 22.4118 33.0835 23.4706C33.0835 24.8904 32.5195 26.2521 31.5155 27.256C30.5116 28.26 29.1499 28.824 27.7301 28.824Z" fill="#FE5C35"/>
</svg>