<svg xmlns="http://www.w3.org/2000/svg" width="34" height="34" viewBox="0 0 34 34" fill="none">
  <path d="M29.7689 0H4.26889C1.88889 0 0 1.88889 0 4.23111V29.7311C0 32.1111 1.88889 34 4.26889 34H29.7689C32.1111 34 34 32.1111 34 29.7689V4.26889C34 1.88889 32.1111 0 29.7689 0ZM21.5333 6.23333C21.5333 5.59111 22.0244 5.1 22.6667 5.1C23.3089 5.1 23.8 5.59111 23.8 6.23333V21.3822C23.8 22.0244 23.3089 22.5156 22.6667 22.5156C22.0244 22.5156 21.5333 22.0244 21.5333 21.3822V6.23333ZM15.8667 5.66667C15.8667 5.02444 16.3578 4.53333 17 4.53333C17.6422 4.53333 18.1333 5.02444 18.1333 5.66667V22.1C18.1333 22.7422 17.6422 23.2333 17 23.2333C16.3578 23.2333 15.8667 22.7422 15.8667 22.1V5.66667ZM10.2 6.23333C10.2 5.59111 10.6911 5.1 11.3333 5.1C11.9756 5.1 12.4667 5.59111 12.4667 6.23333V21.3822C12.4667 22.0244 11.9756 22.5156 11.3333 22.5156C10.6911 22.5156 10.2 22.0244 10.2 21.3822V6.23333ZM4.53333 8.5C4.53333 7.85778 5.02445 7.36667 5.66667 7.36667C6.30889 7.36667 6.8 7.85778 6.8 8.5V18.7C6.8 19.3422 6.30889 19.8333 5.66667 19.8333C5.02445 19.8333 4.53333 19.3422 4.53333 18.7V8.5ZM29.0889 25.8022C28.9 25.9533 24.7067 29.4667 17 29.4667C9.29333 29.4667 5.1 25.9533 4.91111 25.8022C4.42 25.3867 4.38222 24.6689 4.79778 24.2156C5.21333 23.7244 5.93111 23.6867 6.38445 24.1022C6.46 24.1022 10.2 27.2 17 27.2C23.8756 27.2 27.5778 24.1022 27.5778 24.0644C28.0689 23.6489 28.7867 23.7244 29.1644 24.1778C29.6178 24.6689 29.5422 25.3867 29.0889 25.8022ZM29.4667 18.7C29.4667 19.3422 28.9756 19.8333 28.3333 19.8333C27.6911 19.8333 27.2 19.3422 27.2 18.7V8.5C27.2 7.85778 27.6911 7.36667 28.3333 7.36667C28.9756 7.36667 29.4667 7.85778 29.4667 8.5V18.7Z" fill="#1F8DED"/>
</svg>