<svg xmlns="http://www.w3.org/2000/svg" width="48" height="28" viewBox="0 0 48 28" fill="none">
  <path fill-rule="evenodd" clip-rule="evenodd" d="M11.6544 19.9772L4.96735 13.2595C3.83108 12.1179 1.98883 12.1179 0.852199 13.2595C-0.284066 14.4009 -0.284066 16.2516 0.852199 17.3934L9.5968 26.1782C10.7331 27.3196 12.5757 27.3196 13.7119 26.1782L21.9427 17.9094L17.8278 13.7754L11.6544 19.9772Z" fill="#16B8A2"/>
  <path fill-rule="evenodd" clip-rule="evenodd" d="M36.859 7.05951L24.0004 19.9771L11.1402 7.05805C10.0036 5.9162 8.16131 5.9162 7.02505 7.05805C5.88879 8.19953 5.88879 10.0502 7.02505 11.1921L21.9427 26.1782C23.079 27.3197 24.9213 27.3197 26.0579 26.1782L40.9742 11.1935C42.1104 10.0517 42.1104 8.20099 40.9742 7.05951C39.8375 5.91802 37.9952 5.91802 36.859 7.05951Z" fill="#FFB41F"/>
  <path fill-rule="evenodd" clip-rule="evenodd" d="M47.147 17.3947L38.4038 26.1779C37.2676 27.3195 35.4253 27.3195 34.289 26.1779L13.1979 4.99006C12.0616 3.84857 12.0616 1.99787 13.1979 0.856385C14.3345 -0.285462 16.1768 -0.285462 17.313 0.856385L36.3463 19.9769L43.0318 13.2607C44.1684 12.1192 46.0107 12.1192 47.147 13.2607C48.2832 14.4026 48.2832 16.2533 47.147 17.3947Z" fill="#F56358"/>
  <path fill-rule="evenodd" clip-rule="evenodd" d="M34.801 0.857576C33.6646 -0.283906 31.8225 -0.283906 30.6858 0.857576L17.8271 13.7753L21.9423 17.9093L34.801 4.99161C35.9373 3.84976 35.9373 1.99906 34.801 0.857576Z" fill="#16B8A2"/>
</svg>