<svg xmlns="http://www.w3.org/2000/svg" width="33" height="34" viewBox="0 0 33 34" fill="none">
  <path d="M30.8153 21.5408L30.2661 19.9848C30.2661 19.9848 32.5544 16.5065 26.8794 15.3166C26.8794 15.3166 27.2456 11.0146 25.2318 9.00088C29.6254 4.69886 28.6185 -1.79994 18.6415 2.41055C13.5157 -7.38342 -6.25529 15.5912 1.98262 19.2525C1.15883 20.3509 1.15883 25.8428 6.83384 26.392C10.6782 34.6299 20.0145 35.1791 25.4149 32.7078C30.8153 30.2364 33.9274 22.3646 30.8153 21.5408ZM6.74231 25.2021C2.07415 24.7444 1.61649 18.3372 5.64392 17.6965C9.67134 17.0557 10.6782 25.5682 6.74231 25.2021ZM5.36932 16.5065C4.08787 16.5065 2.53182 18.2456 2.53182 18.2456C-3.69238 15.2251 13.7903 -4.82051 17.5431 2.95974C17.5431 2.95974 8.38989 7.35329 5.36932 16.5065ZM23.6758 24.2868C23.6758 23.9207 21.7536 24.836 18.2754 23.6461C18.55 21.7239 22.6689 25.2936 29.5339 20.6255L30.0831 22.5477C32.646 22.09 30.0831 30.7856 21.8451 30.6941C15.1633 30.6025 13.058 23.7376 16.7193 19.9848C17.4516 19.2525 14.0649 17.788 14.7056 14.5844C14.9802 13.2114 16.1701 11.1977 19.1907 11.7468C22.2113 12.296 22.852 9.55007 24.8657 10.5569C26.8794 11.5638 25.6895 15.4081 25.9641 15.9573C26.2387 16.5065 29.1677 16.5981 29.7169 18.1541C30.2661 19.7102 25.9641 23.0969 19.2822 22.1815C17.7262 21.9985 16.8109 24.0122 17.8177 25.2936C19.8314 28.2227 28.0694 26.3005 29.4423 23.463C25.9641 26.1174 18.8246 27.1243 18.2754 24.2868C20.2891 25.2021 23.6758 24.6529 23.6758 24.2868ZM11.6851 9.82467C13.6988 7.35329 16.3532 5.88878 16.3532 5.88878L15.804 7.26176C15.804 7.26176 17.7262 5.79724 19.8314 5.79724L19.0992 6.5295C21.479 6.62104 22.4859 7.53636 22.4859 7.53636C22.4859 7.53636 16.9024 5.88878 11.6851 9.82467ZM24.0419 13.3944C25.2318 13.3029 24.8657 16.0489 24.8657 16.0489H24.1335C24.1335 16.0489 22.852 13.486 24.0419 13.3944ZM18.6415 16.415C17.8177 16.5065 16.9024 16.9642 16.9939 16.5981C17.3601 15.1335 20.7468 15.4997 20.6552 16.7811C20.5637 18.0626 19.8314 16.2319 18.6415 16.415ZM20.5637 17.5134C20.6552 17.6965 19.923 17.5134 19.3738 17.6049C18.8246 17.6965 18.2754 17.9711 18.2754 17.788C18.2754 17.6049 20.3806 16.7811 20.5637 17.5134ZM22.3943 17.788C22.6689 17.2388 23.7673 17.788 23.4927 18.3372C23.2181 18.8864 22.1197 18.3372 22.3943 17.788ZM24.6827 17.9711C24.1335 17.9711 24.1335 16.7811 24.6827 16.7811C25.2318 16.7811 25.2318 18.0626 24.6827 18.0626V17.9711ZM8.20682 22.8223C8.48142 23.0969 7.65763 23.6461 7.0169 23.1884C6.37618 22.7307 7.74916 20.534 6.10158 19.9848C4.454 19.4356 4.91166 21.5408 4.454 21.2662C3.99634 20.9916 5.09472 18.0626 7.0169 19.2525C8.93908 20.4424 6.46771 22.2731 7.5661 22.8223C8.66449 23.3715 8.02376 22.6392 8.20682 22.8223Z" fill="#1E1E1E"/>
</svg>