<svg xmlns="http://www.w3.org/2000/svg" width="30" height="34" viewBox="0 0 30 34" fill="none">
  <path d="M26.1862 6.6199C26.1628 6.44892 26.0131 6.35441 25.8894 6.34403C25.7659 6.33365 23.1526 6.14 23.1526 6.14C23.1526 6.14 21.3376 4.33815 21.1385 4.13877C20.9391 3.93938 20.5499 4.00002 20.3989 4.04454C20.3765 4.05109 20.0023 4.16663 19.3831 4.35809C18.7767 2.6136 17.7069 1.01031 15.8244 1.01031C15.7725 1.01031 15.719 1.0125 15.6655 1.0155C15.1301 0.307547 14.467 0 13.8942 0C9.50936 0 7.41444 5.48148 6.75756 8.26715C5.05376 8.79512 3.84324 9.1704 3.68865 9.21902C2.7376 9.51728 2.70756 9.54732 2.58273 10.4435C2.4885 11.1219 0 30.3668 0 30.3668L19.391 34L29.8978 31.727C29.8978 31.727 26.2095 6.79088 26.1862 6.6199ZM18.3113 4.68967C17.8243 4.84044 17.2707 5.0117 16.6706 5.19743C16.6712 5.08189 16.6717 4.96799 16.6717 4.84372C16.6717 3.75939 16.5212 2.88646 16.2798 2.19434C17.2496 2.31616 17.8956 3.41961 18.3113 4.68967ZM15.0766 2.4093C15.3462 3.08502 15.5215 4.05464 15.5215 5.36322C15.5215 5.43013 15.521 5.49132 15.5204 5.55332C14.4533 5.88381 13.2939 6.2427 12.1317 6.60269C12.7842 4.08441 14.0073 2.86816 15.0766 2.4093ZM13.7738 1.17611C13.963 1.17611 14.1537 1.24029 14.3361 1.36593C12.9309 2.02718 11.4246 3.69274 10.7884 7.01867C9.85869 7.30655 8.94998 7.58788 8.10983 7.84817C8.85493 5.31132 10.6243 1.17611 13.7738 1.17611Z" fill="#95BF46"/>
  <path d="M25.8898 6.34417C25.7664 6.33379 23.1531 6.14014 23.1531 6.14014C23.1531 6.14014 21.3381 4.33829 21.139 4.1389C21.0644 4.06461 20.9639 4.02664 20.8587 4.01025L19.3926 33.9999L29.8983 31.7271C29.8983 31.7271 26.2099 6.79101 26.1867 6.62003C26.1632 6.44905 26.0136 6.35455 25.8898 6.34417Z" fill="#5E8E3E"/>
  <path d="M15.8242 12.1494L14.5288 16.003C14.5288 16.003 13.3936 15.3972 12.0023 15.3972C9.96254 15.3972 9.85984 16.6773 9.85984 16.9999C9.85984 18.76 14.4479 19.4343 14.4479 23.557C14.4479 26.8004 12.3907 28.8891 9.61675 28.8891C6.28809 28.8891 4.58594 26.8174 4.58594 26.8174L5.47717 23.8727C5.47717 23.8727 7.22685 25.3749 8.7034 25.3749C9.6681 25.3749 10.0606 24.6154 10.0606 24.0604C10.0606 21.7644 6.29656 21.662 6.29656 17.8895C6.29656 14.7143 8.57557 11.6416 13.1759 11.6416C14.9486 11.6416 15.8242 12.1494 15.8242 12.1494Z" fill="white"/>
</svg>