<svg xmlns="http://www.w3.org/2000/svg" width="38" height="38" viewBox="0 0 38 38" fill="none">
  <path d="M13.9055 0C11.811 0 10.1133 1.70153 10.1133 3.79986C10.1128 4.29837 10.2105 4.79209 10.4008 5.25284C10.5911 5.71359 10.8703 6.13235 11.2224 6.4852C11.5746 6.83805 11.9928 7.11808 12.4531 7.30931C12.9135 7.50054 13.407 7.59923 13.9055 7.59973H17.6984V3.79986C17.6993 2.79303 17.3001 1.82709 16.5889 1.11449C15.8776 0.401899 14.9124 0.00100985 13.9055 0ZM13.9055 10.133H3.79224C1.69772 10.133 0 11.8345 0 13.9335C0 16.0318 1.69772 17.7333 3.79224 17.7333H13.9062C16.0001 17.7333 17.6984 16.0318 17.6984 13.9335C17.6984 11.8345 16.0001 10.133 13.9055 10.133Z" fill="#36C5F0"/>
  <path d="M37.926 13.9335C37.926 11.8345 36.2276 10.133 34.1331 10.133C32.0385 10.133 30.3408 11.8345 30.3408 13.9335V17.7333H34.1331C35.1399 17.7323 36.1051 17.3314 36.8164 16.6188C37.5277 15.9062 37.9268 14.9403 37.926 13.9335ZM27.8127 13.9335V3.79986C27.8135 2.79303 27.4144 1.82709 26.7031 1.11449C25.9918 0.401899 25.0266 0.00100985 24.0198 0C21.9253 0 20.2275 1.70153 20.2275 3.79986V13.9328C20.2275 16.0324 21.9253 17.734 24.0198 17.734C25.0266 17.733 25.9918 17.3321 26.7031 16.6195C27.4144 15.9069 27.8135 14.9409 27.8127 13.9341" fill="#2EB67D"/>
  <path d="M24.0198 37.9999C25.0266 37.9989 25.9918 37.598 26.7031 36.8854C27.4144 36.1728 27.8135 35.2069 27.8127 34.2001C27.8135 33.1932 27.4144 32.2273 26.7031 31.5147C25.9918 30.8021 25.0266 30.4012 24.0198 30.4002H20.2275V34.2001C20.2275 36.2984 21.9253 37.9999 24.0198 37.9999ZM24.0198 27.867H34.1337C36.2276 27.867 37.926 26.1654 37.926 24.0665C37.9268 23.0596 37.5277 22.0937 36.8164 21.3811C36.1051 20.6685 35.1399 20.2676 34.1331 20.2666H24.0198C21.9253 20.2666 20.2275 21.9681 20.2275 24.0665C20.227 24.565 20.3247 25.0587 20.515 25.5194C20.7053 25.9802 20.9845 26.3989 21.3367 26.7518C21.6888 27.1046 22.107 27.3847 22.5674 27.5759C23.0278 27.7671 23.5213 27.8658 24.0198 27.8663" fill="#ECB22E"/>
  <path d="M1.91347e-06 24.0665C-0.000498593 24.565 0.0971937 25.0587 0.287501 25.5194C0.477808 25.9802 0.757004 26.3989 1.10915 26.7518C1.46129 27.1046 1.87948 27.3847 2.33985 27.5759C2.80022 27.7671 3.29374 27.8658 3.79225 27.8663C4.79908 27.8653 5.76429 27.4644 6.47557 26.7518C7.18686 26.0392 7.58597 25.0733 7.58512 24.0665V20.2666H3.79225C1.69772 20.2666 1.91347e-06 21.9681 1.91347e-06 24.0665ZM10.1133 24.0665V34.1994C10.1133 36.2984 11.811 37.9999 13.9055 37.9999C14.9124 37.9989 15.8776 37.598 16.5889 36.8854C17.3001 36.1728 17.6993 35.2069 17.6984 34.2001V24.0665C17.6989 23.5679 17.6012 23.0741 17.4109 22.6133C17.2205 22.1525 16.9413 21.7338 16.589 21.3809C16.2368 21.0281 15.8186 20.748 15.3581 20.5568C14.8977 20.3656 14.4041 20.267 13.9055 20.2666C11.811 20.2666 10.1133 21.9681 10.1133 24.0665Z" fill="#E01E5A"/>
</svg>