<svg xmlns="http://www.w3.org/2000/svg" width="34" height="34" viewBox="0 0 34 34" fill="none">
  <path d="M33.9842 25.0728C33.9842 27.9041 33.9768 30.7352 33.9935 33.5666C33.9957 33.9207 33.9139 34.0007 33.5595 34.0001C22.5182 33.9893 11.4771 33.9893 0.436059 34.0001C0.0824364 34.0001 -0.000131147 33.9205 0.00199271 33.5666C0.0189836 30.8297 0.0115529 28.0929 0.0115529 25.3557C2.35045 25.1752 4.69254 25.1813 7.03542 25.2443C6.70463 26.7044 6.51427 28.1691 6.9478 29.6446C7.18674 30.4541 7.68187 30.9909 8.53248 31.1804C9.24547 31.3405 9.97273 31.4287 10.7033 31.4435C14.0988 31.5104 17.4914 31.358 20.8856 31.3177C22.3439 31.3004 23.815 31.3639 25.2316 30.9014C26.4358 30.5082 27.0225 29.716 27.0252 28.4945C27.0278 27.2805 26.4411 26.4615 25.2488 26.0723C23.9801 25.6589 22.6646 25.6404 21.3462 25.6645C18.7535 25.7123 16.1608 25.746 13.5676 25.811C12.9262 25.8272 12.935 25.6127 13.2578 25.1933C17.3114 25.1585 21.364 25.2955 25.4201 25.1019C28.2697 24.966 31.1295 25.0738 33.9842 25.0728Z" fill="#BD2234"/>
  <path d="M33.9827 25.0727C31.128 25.0727 28.2682 24.9665 25.4201 25.1019C21.364 25.2954 17.3115 25.1585 13.2578 25.1932C13.6741 24.2295 14.3197 23.4182 14.988 22.6265C17.119 20.0989 19.6095 17.9235 21.9277 15.5793C25.9479 15.7006 29.9635 15.4245 33.9827 15.4466V25.0727Z" fill="#C62233"/>
  <path d="M0.0134432 6.66895C0.0134432 4.64279 0.0304343 2.61663 0.000434806 0.591003C-0.00646773 0.127471 0.0638827 -0.00182562 0.56883 3.27559e-05C6.36351 0.0239262 12.1585 0.0151735 17.9534 0.0151735C23.1122 0.0151735 28.2714 0.0249881 33.431 3.27559e-05C33.9354 -0.00235658 34.0079 0.12534 34.0002 0.590199C33.9686 2.47512 33.9872 4.36005 33.9872 6.24497C31.3839 6.2609 28.7787 6.17117 26.1791 6.38622C26.1393 5.82339 26.1215 5.25817 26.0546 4.69854C25.8881 3.3029 25.2385 2.62779 23.8604 2.43929C23.2787 2.35965 22.687 2.30655 22.1005 2.31106C19.7213 2.33363 17.3423 2.37664 14.9633 2.42655C13.4091 2.4592 11.8529 2.47566 10.3022 2.57389C8.41888 2.69309 7.37765 3.6236 7.30624 5.13765C7.28367 5.61551 7.41508 6.06816 7.53588 6.5224C5.02946 6.65754 2.52198 6.70001 0.0134432 6.66895Z" fill="#D62231"/>
  <path d="M0.0136719 6.66931C2.52221 6.70064 5.02969 6.65817 7.53504 6.52197C7.95981 7.1517 8.53919 7.56664 9.27316 7.76681C10.1262 7.99884 11.0001 7.97548 11.8728 7.95982C14.3948 7.91389 16.9169 7.88177 19.4366 7.81673C19.954 7.80319 20.0889 7.95079 19.9888 8.45866C19.7841 9.49404 19.2327 10.329 18.5425 11.0848C17.0459 12.7234 15.3301 14.1296 13.7107 15.6389C13.3656 15.4531 12.9939 15.4371 12.614 15.4459C10.3871 15.499 8.16132 15.4101 5.931 15.56C3.96643 15.6928 1.98727 15.5866 0.0147348 15.5879L0.0136719 6.66931Z" fill="#CE2232"/>
  <path d="M0.0136719 15.5872C1.9862 15.5872 3.9659 15.6913 5.92994 15.5593C8.15999 15.4093 10.3861 15.4975 12.6129 15.4452C12.992 15.4364 13.3653 15.4534 13.7096 15.6382C12.5896 16.5387 11.7052 17.6614 10.7774 18.7443C9.12158 20.676 7.75593 22.7735 7.03754 25.2441C4.69466 25.1812 2.35257 25.1751 0.0136719 25.3556V15.5872Z" fill="#C62233"/>
  <path d="M26.1776 6.38544C28.7772 6.1704 31.381 6.26014 33.9857 6.24421V15.4461C29.9665 15.4243 25.9509 15.7004 21.9307 15.5788C23.0675 14.1776 24.2765 12.8324 25.0137 11.1453C25.6803 9.62194 25.9774 8.01816 26.1776 6.38544Z" fill="#CF2232"/>
  <path d="M26.1779 6.38535C25.9778 8.01806 25.6807 9.62184 25.0141 11.1462C24.2768 12.8326 23.0678 14.1778 21.931 15.5798C19.6128 17.924 17.1223 20.0994 14.9913 22.627C14.3239 23.4187 13.6774 24.23 13.2612 25.1937C12.9383 25.6132 12.9296 25.8277 13.571 25.8115C16.1631 25.7464 18.7558 25.7127 21.3496 25.6649C22.6675 25.6408 23.9829 25.6594 25.2522 26.0727C26.4455 26.4619 27.0309 27.2809 27.0285 28.495C27.0259 29.7162 26.4392 30.5086 25.2349 30.9018C23.8183 31.3643 22.3473 31.3001 20.889 31.3181C17.4948 31.3585 14.1022 31.5109 10.7067 31.444C9.97609 31.4291 9.24882 31.341 8.53584 31.1809C7.68629 30.9913 7.18905 30.4545 6.95117 29.645C6.51764 28.1695 6.708 26.7054 7.03879 25.2447C7.75719 22.7741 9.12282 20.6765 10.7786 18.7449C11.7065 17.6625 12.5908 16.5398 13.7109 15.6387C15.3303 14.1295 17.0472 12.7232 18.5427 11.0846C19.2329 10.3288 19.7843 9.4952 19.989 8.4585C20.0891 7.95063 19.9542 7.80303 19.4368 7.81657C16.9161 7.88161 14.3942 7.91372 11.873 7.95965C11.0003 7.97532 10.1263 7.99868 9.27335 7.76665C8.54168 7.56789 7.96231 7.15295 7.53523 6.52181C7.41444 6.06757 7.28303 5.61518 7.3056 5.13705C7.37701 3.6238 8.41823 2.6925 10.3016 2.57329C11.8522 2.47507 13.4077 2.4586 14.9626 2.42594C17.3416 2.37603 19.7206 2.33302 22.0999 2.31046C22.6863 2.30488 23.2781 2.35851 23.8597 2.43869C25.2379 2.62824 25.8875 3.3023 26.054 4.69794C26.1203 5.25731 26.1381 5.82253 26.1779 6.38535Z" fill="#FEFCFC"/>
</svg>