<svg width="60" height="40" viewBox="0 0 60 40" fill="none" xmlns="http://www.w3.org/2000/svg">
<path d="M0 0H60V40H0V0Z" fill="white"/>
<path fill-rule="evenodd" clip-rule="evenodd" d="M9.16016 12.1162L14.7071 3.7957L16.1669 4.76886L10.6199 13.0894L9.16016 12.1162ZM11.2403 13.503L16.7873 5.18245L18.247 6.15561L12.7 14.4761L11.2403 13.503ZM13.3204 14.8897L18.8674 6.5692L20.3271 7.54235L14.7801 15.8629L13.3204 14.8897ZM39.6687 32.4552L45.2157 24.1347L46.6754 25.1078L41.1284 33.4283L39.6687 32.4552ZM41.7488 33.8419L47.2958 25.5214L48.7555 26.4946L43.2086 34.8151L41.7488 33.8419ZM50.8357 27.8813L45.2887 36.2018L43.8289 35.2287L49.3759 26.9082L50.8357 27.8813Z" fill="black"/>
<path fill-rule="evenodd" clip-rule="evenodd" d="M48.3136 33.0876L41.3799 28.4651L42.1908 27.2486L49.1246 31.8711L48.3136 33.0876Z" fill="white"/>
<path d="M38.3189 25.5457C41.3824 20.9504 40.1406 14.7417 35.5454 11.6782C30.9501 8.61467 24.7414 9.85642 21.6779 14.4517C18.6143 19.047 19.8561 25.2557 24.4514 28.3192C29.0467 31.3827 35.2554 30.141 38.3189 25.5457Z" fill="#CA163A"/>
<path d="M21.6779 14.4517C20.1469 16.7482 20.7681 19.8545 23.0646 21.3855C25.3611 22.9164 28.4674 22.2952 29.9984 19.9987C31.5293 17.7022 34.6357 17.081 36.9321 18.6119C39.2286 20.1429 39.8498 23.2492 38.3189 25.5457C35.2569 30.1386 29.0443 31.3811 24.4514 28.3192C19.8584 25.2573 18.6159 19.0446 21.6779 14.4517Z" fill="#0E4896"/>
<path fill-rule="evenodd" clip-rule="evenodd" d="M45.2886 3.79565L50.8356 12.1162L49.3759 13.0893L43.8289 4.76881L45.2886 3.79565ZM43.2085 5.18245L48.7556 13.5029L47.2958 14.4761L41.7488 6.15562L43.2085 5.18245ZM41.1284 6.56919L46.6754 14.8897L45.2156 15.8628L39.6686 7.54235L41.1284 6.56919ZM14.78 24.1347L20.327 32.4552L18.8673 33.4283L13.3203 25.1078L14.78 24.1347ZM12.6999 25.5215L18.2469 33.8419L16.7872 34.8151L11.2402 26.4946L12.6999 25.5215ZM10.6199 26.9082L16.1669 35.2287L14.7072 36.2019L9.16016 27.8813L10.6199 26.9082Z" fill="black"/>
<path d="M13.707 30.8598L15.7872 29.4731L13.707 30.8598ZM41.7859 12.1405L44.2155 10.5208L41.7859 12.1405ZM46.2956 9.13405L48.3758 7.74731L46.2956 9.13405Z" fill="black"/>
<path fill-rule="evenodd" clip-rule="evenodd" d="M48.7805 8.35561L46.7003 9.74235L45.8894 8.52589L47.9695 7.13916L48.7805 8.35561ZM44.6202 11.1291L42.1906 12.7488L41.3796 11.5324L43.8092 9.91263L44.6202 11.1291ZM16.1918 30.0814L14.1117 31.4681L13.3008 30.2516L15.3809 28.865L16.1918 30.0814Z" fill="white"/>
</svg>
