<svg width="60" height="40" viewBox="0 0 60 40" fill="none" xmlns="http://www.w3.org/2000/svg">
<path d="M0 0.000244141H59.9988V39.9999H0V0.000244141Z" fill="black"/>
<path d="M0 5.72632H59.9988V11.4529H0V5.72632ZM0 28.6327H59.9988V34.3594H0V28.6327Z" fill="#FFDA44"/>
<path d="M0 0.000244141H59.9988V5.72685H0V0.000244141Z" fill="#057F44"/>
<path d="M0 11.4536H59.9988V17.1802H0V11.4536ZM0 22.9069H59.9988V28.6336H0V22.9069Z" fill="#D80027"/>
<path d="M0 34.3601H59.9988V40H0V34.3601Z" fill="#057F44"/>
<path d="M32.4594 19.9994L12.4602 39.9986H0V0.000244141H12.4602L32.4594 19.9994Z" fill="white"/>
<path d="M29.9995 19.9995L10 39.9991H12.4594L32.459 19.9995L12.4594 0H10L29.9995 19.9995Z" fill="black"/>
<path d="M12.0078 13.7388L13.5616 18.5213H18.5908L14.5224 21.4774L16.0762 26.2602L12.0078 23.3044L7.93913 26.2602L9.49324 21.4774L5.4248 18.5213H10.4538L12.0078 13.7388Z" fill="#D80027"/>
<path d="M16.2821 20.391L12.2323 18.9563C12.2323 18.9563 11.9331 16.1491 11.9149 16.054C11.7775 15.3298 11.1411 14.7825 10.3771 14.7825C9.51274 14.7825 8.81185 15.4832 8.81185 16.3477C8.81185 16.491 8.83271 16.6292 8.86881 16.7611L7.7334 17.9043H9.75238C9.75238 19.9998 8.18866 19.9998 8.18866 22.0867L9.05607 24.1737H14.2734L15.1431 22.0867H15.1427C15.2276 21.8919 15.2821 21.6851 15.3045 21.4737C16.0541 21.1704 16.2821 20.391 16.2821 20.391Z" fill="#FFDA44"/>
</svg>
