<svg width="60" height="40" viewBox="0 0 60 40" fill="none" xmlns="http://www.w3.org/2000/svg">
<path d="M0 0H60V40H0V0Z" fill="white"/>
<path d="M0 0H60V3.07602H0V0ZM0 6.15205H60V9.22807H0V6.15205ZM0 12.3041H60V15.3801H0V12.3041ZM0 18.4561H60V21.5322H0V18.4561ZM0 24.6199H60V27.6959H0V24.6199ZM0 30.7719H60V33.848H0V30.7719ZM0 36.924H60V40H0V36.924Z" fill="#D80027"/>
<path d="M0 0H30V21.5322H0V0Z" fill="#2E52B2"/>
<path d="M5.59077 16.2456L5.12293 14.7486L4.60831 16.2456H3.06445L4.31592 17.1462L3.84808 18.6433L5.12293 17.7193L6.3627 18.6433L5.88317 17.1462L7.15802 16.2456H5.59077ZM12.1756 16.2456L11.696 14.7486L11.2048 16.2456H9.66094L10.9124 17.1462L10.4446 18.6433L11.696 17.7193L12.9592 18.6433L12.4914 17.1462L13.7428 16.2456H12.1756ZM18.7838 16.2456L18.2808 14.7486L17.813 16.2456H16.234L17.5206 17.1462L17.0294 18.6433L18.2808 17.7193L19.5674 18.6433L19.0762 17.1462L20.3276 16.2456H18.7838ZM25.3569 16.2456L24.889 14.7486L24.3978 16.2456H22.8422L24.1054 17.1462L23.6376 18.6433L24.889 17.7193L26.1522 18.6433L25.6493 17.1462L26.9358 16.2456H25.3569ZM11.696 8.80704L11.2048 10.3041H9.66094L10.9124 11.2281L10.4446 12.7018L11.696 11.7895L12.9592 12.7018L12.4914 11.2281L13.7428 10.3041H12.1756L11.696 8.80704ZM5.12293 8.80704L4.60831 10.3041H3.06445L4.31592 11.2281L3.84808 12.7018L5.12293 11.7895L6.3627 12.7018L5.88317 11.2281L7.15802 10.3041H5.59077L5.12293 8.80704ZM18.2808 8.80704L17.813 10.3041H16.234L17.5206 11.2281L17.0294 12.7018L18.2808 11.7895L19.5674 12.7018L19.0762 11.2281L20.3276 10.3041H18.7838L18.2808 8.80704ZM24.889 8.80704L24.3978 10.3041H22.8422L24.1054 11.2281L23.6376 12.7018L24.889 11.7895L26.1522 12.7018L25.6493 11.2281L26.9358 10.3041H25.3569L24.889 8.80704ZM5.12293 2.88892L4.60831 4.3626H3.06445L4.31592 5.28658L3.84808 6.77196L5.12293 5.84798L6.3627 6.77196L5.88317 5.28658L7.15802 4.3626H5.59077L5.12293 2.88892ZM11.696 2.88892L11.2048 4.3626H9.66094L10.9124 5.28658L10.4446 6.77196L11.696 5.84798L12.9592 6.77196L12.4914 5.28658L13.7428 4.3626H12.1756L11.696 2.88892ZM18.2808 2.88892L17.813 4.3626H16.234L17.5206 5.28658L17.0294 6.77196L18.2808 5.84798L19.5674 6.77196L19.0762 5.28658L20.3276 4.3626H18.7838L18.2808 2.88892ZM24.889 2.88892L24.3978 4.3626H22.8422L24.1054 5.28658L23.6376 6.77196L24.889 5.84798L26.1522 6.77196L25.6493 5.28658L26.9358 4.3626H25.3569L24.889 2.88892Z" fill="white"/>
</svg>
