<svg width="60" height="40" viewBox="0 0 60 40" fill="none" xmlns="http://www.w3.org/2000/svg">
<path d="M0 0H60V40H0V0Z" fill="white"/>
<path d="M0 4.44434H60V8.88878H0V4.44434ZM0 13.3332H60V17.7777H0V13.3332ZM0 22.2221H60V26.6666H0V22.2221ZM0 31.111H60V35.5554H0V31.111Z" fill="#0038A8"/>
<path d="M0 0H30V22.2222H0V0Z" fill="white"/>
<path d="M15.006 16.2222L13.2399 18.8655L12.7954 15.7193L10.0586 17.3333L11.0176 14.3041L7.83636 14.5614L10.0118 12.2456L7.05273 11.1111L10.0235 9.9766L7.83636 7.66081L11.006 7.92981L10.0469 4.90057L12.7837 6.51461L13.2399 3.36841L15.006 6.01168L16.772 3.36841L17.2165 6.51461L19.9533 4.90057L18.9943 7.92981L22.1638 7.6725L19.9884 9.98829L22.9592 11.1228L19.9884 12.2573L22.1638 14.5731L18.9943 14.3158L19.9533 17.345L17.2165 15.731L16.7603 18.8772L15.006 16.2222ZM15.006 16.1637C17.8013 16.269 20.1521 14.1052 20.2574 11.3099C20.3627 8.51461 18.1989 6.16373 15.4036 6.05847H15.006C12.2106 6.15203 10.0235 8.49122 10.1171 11.2748C10.1872 13.9415 12.3393 16.0819 15.006 16.1637ZM15.006 14.924C12.8071 14.924 11.0293 13.1462 11.0293 10.9474C11.0293 8.74853 12.8071 6.97075 15.006 6.97075C17.2048 6.97075 18.9826 8.74853 18.9826 10.9474C18.9826 13.1462 17.1931 14.924 15.006 14.924Z" fill="#FED443"/>
</svg>
