<svg width="60" height="40" viewBox="0 0 60 40" fill="none" xmlns="http://www.w3.org/2000/svg">
<path d="M0 0H59.6512V39.7674H0V0Z" fill="#D80027"/>
<path d="M16.0469 0H59.8841V13.2558H16.0469V0Z" fill="white"/>
<path d="M16.0469 26.7441H59.8841V40H16.0469V26.7441Z" fill="#4A7C3A"/>
<path fill-rule="evenodd" clip-rule="evenodd" d="M4.22559 4.44875C4.22553 4.44868 4.2255 4.44863 4.68551 4.09308C5.14551 3.73754 5.14551 3.73753 5.14552 3.73755L5.15729 3.75273C5.16528 3.76303 5.17726 3.77845 5.19302 3.79868C5.22453 3.83914 5.27115 3.89882 5.33115 3.97519C5.45116 4.12794 5.62466 4.34735 5.83792 4.61313C6.26471 5.14504 6.84952 5.86114 7.48295 6.59978C8.1175 7.33974 8.79532 8.09582 9.40893 8.71049C10.0443 9.34699 10.5471 9.76524 10.8417 9.90502C11.6161 10.2725 12.0735 10.4209 12.3192 10.4797C12.4411 10.5088 12.5042 10.5142 12.5231 10.5151C12.5271 10.5153 12.5288 10.5153 12.5284 10.5153C12.5278 10.5153 12.5237 10.5153 12.5163 10.5159C12.5098 10.5164 12.5006 10.5173 12.4891 10.5191C12.4833 10.52 12.477 10.521 12.4701 10.5224C12.4666 10.523 12.463 10.5237 12.4593 10.5245L12.4536 10.5258L12.4507 10.5265L12.4492 10.5268C12.4484 10.527 12.4477 10.5271 12.5809 11.0931C12.714 11.659 12.7133 11.6592 12.7125 11.6594L12.711 11.6597L12.708 11.6604L12.7018 11.6618C12.6977 11.6626 12.6935 11.6635 12.6893 11.6643C12.6808 11.6659 12.672 11.6674 12.663 11.6688C12.6449 11.6715 12.6257 11.6737 12.6052 11.6753C12.5644 11.6784 12.518 11.6791 12.4652 11.6765C12.3603 11.6713 12.225 11.6527 12.0489 11.6106C11.6986 11.5269 11.1619 11.3439 10.3433 10.9556C9.84136 10.7174 9.2075 10.1546 8.586 9.532C7.9427 8.88758 7.24333 8.1066 6.60027 7.35673C5.95609 6.60555 5.36285 5.87907 4.93098 5.34084C4.71492 5.07156 4.53895 4.84902 4.41682 4.69358C4.35575 4.61585 4.30813 4.55488 4.27567 4.51322C4.25944 4.49238 4.247 4.47637 4.23857 4.4655L4.22559 4.44875Z" fill="white"/>
<path fill-rule="evenodd" clip-rule="evenodd" d="M4.02266 11.093L4.07357 11.6722L3.62891 10.6653L6.3349 8.17444H6.01103V7.01165H7.59813L7.63894 6.97409V4.09305H8.80173V5.90376L11.2336 3.66528L12.0775 4.46094L11.6273 4.09305C12.0775 4.46094 12.0775 4.46089 12.0775 4.46094L12.0282 4.52119C11.9961 4.56032 11.9489 4.61771 11.8886 4.69098C11.768 4.83752 11.5945 5.04762 11.3829 5.30222C10.9998 5.76329 10.491 6.37091 9.94415 7.01165H10.418V8.17444H8.93904C8.5961 8.56536 8.25778 8.94408 7.94407 9.28458C7.39115 9.88474 6.87338 10.4125 6.53962 10.6558C5.91955 11.108 5.31513 11.3604 4.86308 11.5002C4.63671 11.5702 4.44706 11.6125 4.31053 11.6376C4.24221 11.6502 4.18698 11.6585 4.14687 11.6638C4.12681 11.6665 4.1105 11.6684 4.09821 11.6697C4.09206 11.6704 4.08691 11.6709 4.0828 11.6713L4.0774 11.6719L4.07529 11.6721L4.07396 11.6722C4.07377 11.6722 4.07357 11.6722 4.02266 11.093Z" fill="white"/>
</svg>
