<svg width="60" height="40" viewBox="0 0 60 40" fill="none" xmlns="http://www.w3.org/2000/svg">
<path d="M46.1132 9.98242L48.1653 12.1943L50.9031 10.9262L49.4335 13.5614L51.4858 15.7734L48.5253 15.19L47.0559 17.8253L46.6958 14.8296L43.7354 14.2462L46.4732 12.9783L46.1132 9.98242Z" fill="white"/>
<path d="M0 0.00146484H59.9992V40.0001H0V0.00146484Z" fill="white"/>
<path d="M15 0H59.9994V39.9999H15V0Z" fill="#01411C"/>
<path d="M42.41 25.0148C38.7729 27.6428 33.6939 26.8248 31.0659 23.1876C28.4378 19.5504 29.2559 14.4714 32.8932 11.8436C34.0272 11.0242 35.3014 10.5399 36.5978 10.3713C34.1037 9.99834 31.4678 10.5604 29.2622 12.1539C24.7857 15.3884 23.7788 21.6394 27.0133 26.116C30.2477 30.5924 36.4988 31.5993 40.9754 28.3647C43.1808 26.7712 44.5421 24.445 44.971 21.9599C44.4039 23.1376 43.5441 24.1953 42.41 25.0148ZM42.2543 10.2606L44.3031 12.4686L47.0361 11.2028L45.5691 13.8333L47.6179 16.0415L44.6625 15.4593L43.1955 18.0901L42.8361 15.0994L39.8807 14.5171L42.6138 13.2513L42.2543 10.2606Z" fill="white"/>
</svg>
