<svg width="60" height="40" viewBox="0 0 60 40" fill="none" xmlns="http://www.w3.org/2000/svg">
<path d="M0 0H60.0013V40H0V0Z" fill="white"/>
<path d="M0 40V0L32.8623 20.479H10.267L31.7803 40H0Z" fill="#0052B4"/>
<path d="M28.6846 19.2837L1.19531 2.15308V38.8047H28.6846L7.1713 19.2837H28.6846Z" fill="#D80027"/>
<path d="M11.4842 28.0198L9.77456 27.2155L10.6851 25.5596L8.82836 25.9147L8.59305 24.0391L7.29986 25.4187L6.00655 24.0391L5.77123 25.9147L3.91459 25.5595L4.82515 27.2155L3.11523 28.0198L4.82515 28.824L3.91459 30.4799L5.77135 30.1249L6.00655 32.0004L7.29986 30.6208L8.59305 32.0004L8.82836 30.1249L10.685 30.48L9.77456 28.8241L11.4842 28.0198ZM10.3434 12.4604L9.09978 11.8755L9.76202 10.671L8.41164 10.9294L8.24042 9.56519L7.29986 10.5684L6.35929 9.56519L6.18819 10.9294L4.83758 10.671L5.49993 11.8755L4.2562 12.4604L7.29986 13.0691L10.3434 12.4604Z" fill="white"/>
<path d="M10.9519 12.4604C10.9519 14.4775 9.31676 16.1127 7.29969 16.1127C5.28261 16.1127 3.64746 14.4775 3.64746 12.4604" fill="white"/>
</svg>
