<svg width="60" height="41" viewBox="0 0 60 41" fill="none" xmlns="http://www.w3.org/2000/svg">
<path d="M0 0.867188H60V40.8672H0V0.867188Z" fill="#009B3A"/>
<path d="M29.9998 3.12451L53.9648 20.8321L29.9998 38.528L5.91797 20.8321L29.9998 3.12451Z" fill="#FEDF00"/>
<path d="M30.0002 30.2706C35.1936 30.2706 39.4037 26.0605 39.4037 20.8671C39.4037 15.6737 35.1936 11.4636 30.0002 11.4636C24.8068 11.4636 20.5967 15.6737 20.5967 20.8671C20.5967 26.0605 24.8068 30.2706 30.0002 30.2706Z" fill="white"/>
<path d="M25.2516 20.2472C23.6258 20.2472 22.0469 20.4928 20.5615 20.9489C20.6317 26.0834 24.8071 30.2238 29.9533 30.2238C33.1346 30.2238 35.9533 28.6331 37.6492 26.2121C34.737 22.5863 30.2574 20.2472 25.2516 20.2472ZM39.1697 22.6214C39.275 22.0366 39.3451 21.4401 39.3451 20.8203C39.3451 15.6273 35.1346 11.4167 29.9416 11.4167C26.0703 11.4167 22.7487 13.7676 21.2984 17.101C22.5732 16.8436 23.8832 16.7033 25.2282 16.7033C30.7019 16.715 35.6375 18.984 39.1697 22.6214Z" fill="#002776"/>
</svg>
