<svg width="60" height="40" viewBox="0 0 60 40" fill="none" xmlns="http://www.w3.org/2000/svg">
<path d="M0 0H60V40H0V0Z" fill="#DB3E00"/>
<path d="M38.7129 0H59.9994V40H38.7129V0Z" fill="#479900"/>
<path d="M0 0H21.2632V40H0V0Z" fill="black"/>
<path d="M29.9412 14.8184C27.6722 14.8184 25.8242 16.6663 25.8242 18.9353V25.1108H34.0581V18.9353C34.0581 16.6546 32.2102 14.8184 29.9412 14.8184Z" fill="white"/>
<path d="M29.9412 9.85938C24.3623 9.85938 19.8359 14.3857 19.8359 19.9646C19.8359 25.5436 24.3623 30.0582 29.9412 30.0582C35.5201 30.0582 40.0465 25.5319 40.0465 19.9529C40.0465 14.374 35.5201 9.85938 29.9412 9.85938ZM29.9412 28.3038C25.333 28.3038 21.5903 24.5611 21.5903 19.9529C21.5903 15.3448 25.333 11.6021 29.9412 11.6021C34.5494 11.6021 38.2921 15.3448 38.2921 19.9529C38.2921 24.5728 34.5494 28.3038 29.9412 28.3038Z" fill="white"/>
</svg>
