<svg width="45" height="40" viewBox="0 0 45 40" fill="none" xmlns="http://www.w3.org/2000/svg">
<path fill-rule="evenodd" clip-rule="evenodd" d="M44.2048 0.00337219H33.9149H32.6361C29.2017 2.84967 27.0137 7.14476 27.0137 11.9551C27.0137 12.2357 27.0218 12.5136 27.0353 12.7888C27.0218 13.0775 27.0137 13.3662 27.0137 13.6575C27.0137 14.0703 27.0299 14.4777 27.0568 14.8824C27.0892 15.3356 27.1405 15.7808 27.2079 16.2205C27.2673 16.6225 27.3428 17.0191 27.4318 17.4103C28.1144 20.4293 29.601 23.1434 31.6568 25.3152C31.6919 25.3368 31.7269 25.3557 31.762 25.3746C32.0858 25.5526 32.218 25.5068 32.1964 25.1264C32.1883 24.9942 32.1964 24.8593 32.1964 24.7271C32.1964 19.3501 32.1937 13.9705 32.1964 8.59354C32.1964 7.38757 32.0588 7.51707 33.2513 7.51437C36.9312 7.51167 40.6112 7.51437 44.2911 7.51167C44.9386 7.51167 44.9629 7.49009 44.9629 6.83719C44.9629 4.80566 44.9629 2.77413 44.9629 0.742601C44.9629 0.00607011 44.9602 0.00337219 44.2048 0.00337219ZM30.1783 3.79125C30.1756 3.79394 30.1729 3.79664 30.1729 3.79934C30.1756 3.79664 30.1756 3.79394 30.1783 3.79125ZM27.0487 12.5541C27.0487 12.573 27.046 12.5919 27.046 12.6107C27.0487 12.5919 27.0487 12.573 27.0487 12.5541ZM29.9382 4.13388C29.9976 4.05025 30.0542 3.96391 30.1136 3.88028C30.0542 3.96391 29.9949 4.05025 29.9382 4.13388ZM31.5543 2.11044C31.7134 1.94048 31.8753 1.77321 32.0399 1.60863C31.8726 1.77321 31.7107 1.94048 31.5543 2.11044ZM32.8547 0.850518C32.8439 0.858612 32.8331 0.869403 32.8223 0.877497C32.682 0.998903 32.5444 1.12301 32.4095 1.24981C32.5444 1.12301 32.682 0.998903 32.8223 0.874799C32.8331 0.869403 32.8439 0.86131 32.8547 0.850518C33.1406 0.60231 33.4347 0.364893 33.7369 0.13557C33.4374 0.364893 33.1406 0.60231 32.8547 0.850518Z" fill="#A7A726"/>
<path d="M18.1481 39.9892C14.6489 39.9919 11.147 39.9919 7.64785 39.9919H0.665641C0.0235364 39.9919 0.00195312 39.9703 0.00195312 39.3093V13.528C0.00195312 12.8509 0.0397239 12.8104 0.695318 12.8104H2.79699C4.62079 12.8104 6.44188 12.8077 8.26297 12.8077C8.11189 13.0019 7.9635 13.1989 7.81782 13.3985C7.79354 13.4309 7.77195 13.4633 7.75037 13.4957C7.68022 13.5928 7.61278 13.6899 7.54533 13.787C7.07319 14.4804 6.65232 15.2088 6.2854 15.9696C6.17209 16.2098 6.06147 16.4526 5.95895 16.6981C5.89151 16.8546 5.82676 17.0137 5.7647 17.1729C5.69726 17.3483 5.62981 17.529 5.56775 17.7071C5.2467 18.6244 5.00119 19.5768 4.84202 20.5588C4.79076 20.8852 4.74489 21.209 4.71252 21.5408C4.65046 22.1236 4.62079 22.7144 4.62079 23.3134C4.62079 23.5211 4.62348 23.7262 4.63158 23.9285C4.63697 24.0661 4.64237 24.201 4.65046 24.3359C4.65316 24.4033 4.65586 24.4708 4.66126 24.5382C4.66665 24.5895 4.66935 24.6407 4.67474 24.692C4.65046 24.9375 4.63158 25.1857 4.62079 25.4339C5.01738 32.9584 10.7774 39.0611 18.1481 39.9892Z" fill="#A7A726"/>
<path d="M44.9629 13.493C44.9656 20.0003 44.9656 26.5131 44.9629 33.0205C42.1463 35.1276 38.6552 36.3794 34.87 36.3929H34.7513C34.031 36.3902 33.3268 36.3443 32.6334 36.2526C32.5417 36.2418 32.4473 36.2283 32.3556 36.2148C32.164 36.1878 31.9752 36.1582 31.789 36.1231C31.6622 36.1015 31.5354 36.0772 31.4086 36.0502C31.2791 36.0233 31.1496 35.9963 31.0228 35.9666C30.9014 35.9396 30.78 35.9099 30.6586 35.8803C30.2863 35.7858 29.9193 35.6806 29.5578 35.5619C29.4121 35.516 29.2691 35.4675 29.1289 35.4162C28.2358 35.1006 27.3779 34.7094 26.5631 34.2534C22.4191 31.944 19.3435 27.943 18.2697 23.1866C18.1807 22.7927 18.1052 22.3961 18.0458 21.9941C17.9784 21.5543 17.9298 21.1092 17.8947 20.6559C17.8678 20.2512 17.8516 19.8439 17.8516 19.4311C17.8516 18.8321 17.8839 18.2413 17.946 17.6585C17.9784 17.3294 18.0215 17.0029 18.0755 16.6792C18.2347 15.6972 18.4802 14.7448 18.8012 13.8275C18.8633 13.6467 18.9307 13.4687 18.9982 13.2933C19.0602 13.1341 19.125 12.975 19.1924 12.8185C19.562 12.8455 19.5998 12.975 19.5755 13.5253C19.446 16.431 19.9802 19.1964 21.34 21.7783C23.5091 25.8845 26.7655 28.8495 30.9634 30.7974C32.8358 31.6661 34.7945 32.2246 36.8584 32.4027C37.4762 32.4539 37.4789 32.4674 37.4789 31.801V13.7654C37.4789 12.8104 37.4789 12.8077 38.4367 12.8077C40.3846 12.8077 42.3325 12.8077 44.2831 12.8104C44.9198 12.8104 44.9629 12.8535 44.9629 13.493Z" fill="#A7A726"/>
<path fill-rule="evenodd" clip-rule="evenodd" d="M27.4324 17.4103C28.115 20.4293 29.6015 23.1434 31.6573 25.3152C30.2382 24.5166 29.0296 23.4618 27.9963 22.2153C25.7975 19.5579 24.748 16.4876 24.7723 13.0397C24.7858 11.4749 24.775 9.91012 24.775 8.34533C24.775 7.51437 24.775 7.51437 23.9656 7.51437H1.01172C0.852542 7.51437 0.687969 7.50628 0.528792 7.51437H0.46674C0.461344 7.51437 0.458646 7.51707 0.45325 7.51707C0.415479 7.51707 0.377708 7.51437 0.345333 7.50897C0.213135 7.49279 0.121406 7.43883 0.0674479 7.3417C0.0512604 7.31742 0.0404687 7.29044 0.0296771 7.26077C0.032375 7.25807 0.032375 7.25807 0.0296771 7.25807C0.00809375 7.19871 0 7.13126 0 7.05033V7.04763C0.00539583 4.84883 0.00539583 2.65272 0.00269792 0.453922C0.00269792 0.410755 0.00539583 0.370287 0.0107917 0.332516C0.0134896 0.305537 0.0188854 0.281255 0.0269792 0.259672C0.0350729 0.232693 0.0431667 0.205714 0.0539583 0.184131L0.0566562 0.181433C0.102521 0.0843076 0.188854 0.0249534 0.32375 0.00876594C0.348031 0.00337011 0.37501 0.000672196 0.404687 0.00337011H0.485625C0.644802 0.0114639 0.809375 0.00337011 0.968552 0.00337011H32.6367C29.2022 2.84967 27.0142 7.14745 27.0142 11.9551C27.0142 12.2357 27.0223 12.5136 27.0358 12.7888C27.0223 13.0775 27.0142 13.3661 27.0142 13.6575C27.0142 14.0703 27.0304 14.4777 27.0574 14.8824C27.0898 15.3356 27.141 15.7808 27.2085 16.2205C27.2678 16.6225 27.3434 17.0191 27.4324 17.4103Z" fill="#FF2F60"/>
<path fill-rule="evenodd" clip-rule="evenodd" d="M33.9157 0.00337219C33.8563 0.0465389 33.797 0.0897055 33.7376 0.13557C33.4382 0.362195 33.1414 0.60231 32.8554 0.850518C32.8446 0.858612 32.8338 0.869403 32.823 0.877497C32.3158 1.31996 31.8356 1.79479 31.385 2.2939C30.9669 2.75525 30.5757 3.24087 30.2114 3.74538C30.1872 3.77776 30.1656 3.81013 30.1413 3.84251C30.0712 3.93963 30.0037 4.03676 29.9363 4.13388C29.4641 4.82725 29.0432 5.55568 28.6763 6.3165C28.5603 6.55661 28.4524 6.79942 28.3499 7.04493C28.2824 7.20141 28.2177 7.36059 28.1556 7.51977C28.0882 7.69513 28.0207 7.8732 27.9587 8.05396C27.6376 8.97125 27.3921 9.92361 27.2329 10.9057C27.179 11.2294 27.1358 11.5559 27.1034 11.885C27.0711 12.1845 27.0468 12.4866 27.0333 12.7888C27.0198 12.5136 27.0117 12.2357 27.0117 11.9551C27.0117 7.14746 29.1997 2.84967 32.6342 0.00337219H33.9157Z" fill="#64D445"/>
<path fill-rule="evenodd" clip-rule="evenodd" d="M34.8701 36.3929H34.7514C34.0311 36.3902 33.3269 36.3443 32.6336 36.2526C32.6093 36.2499 32.5823 36.2472 32.558 36.2445C32.4906 36.2364 32.4231 36.2256 32.3557 36.2148C32.1641 36.1878 31.9753 36.1582 31.7891 36.1231C31.6623 36.1015 31.5355 36.0772 31.4087 36.0502C31.2792 36.0233 31.1497 35.9963 31.0229 35.9666C30.9015 35.9396 30.7801 35.9099 30.6587 35.8803C30.2864 35.7858 29.9195 35.6806 29.5579 35.5619C29.4123 35.516 29.2693 35.4675 29.129 35.4162C28.236 35.1006 27.378 34.7094 26.5632 34.2534C22.4193 31.944 19.3436 27.943 18.2699 23.1866C18.1808 22.7927 18.1053 22.3961 18.0459 21.9941C17.9785 21.5543 17.9299 21.1092 17.8948 20.6559C17.8679 20.2512 17.8517 19.8439 17.8517 19.4311C17.8517 18.8321 17.8841 18.2413 17.9461 17.6585C17.9785 17.3294 18.0216 17.0029 18.0756 16.6792C18.2348 15.6972 18.4803 14.7448 18.8013 13.8275C18.8634 13.6467 18.9308 13.4687 18.9983 13.2933C19.0603 13.1341 19.1251 12.975 19.1925 12.8185C19.1062 12.8104 19.0037 12.8104 18.8823 12.8104C15.3426 12.8077 11.8029 12.8077 8.26328 12.8077C8.1122 13.0019 7.96381 13.1989 7.81813 13.3985C7.79384 13.4309 7.77226 13.4633 7.75068 13.4957C7.68053 13.5928 7.61308 13.6899 7.54564 13.787C7.0735 14.4804 6.65263 15.2088 6.28571 15.9696C6.1724 16.2098 6.06178 16.4526 5.95926 16.6981C5.89181 16.8546 5.82706 17.0137 5.76501 17.1729C5.69756 17.3483 5.63011 17.529 5.56806 17.7071C5.24701 18.6244 5.0015 19.5768 4.84232 20.5588C4.79106 20.8852 4.7452 21.209 4.71282 21.5408C4.65077 22.1236 4.62109 22.7144 4.62109 23.3134C4.62109 23.5211 4.62379 23.7262 4.63189 23.9285C4.63728 24.0661 4.64268 24.201 4.65077 24.3359C4.65617 24.4033 4.65887 24.4708 4.66426 24.5382C4.66966 24.6165 4.67505 24.6947 4.68315 24.7676C4.68045 24.7406 4.67775 24.7163 4.67505 24.692C4.65077 24.9375 4.63189 25.1857 4.62109 25.4339C5.01769 32.9584 10.7777 39.0611 18.1484 39.9892H18.4749H20.6521C20.8248 39.9892 21.0163 40.0459 21.2295 39.8597C21.0244 39.7032 20.8572 39.571 20.6818 39.4496C18.0378 37.6609 15.7905 35.4513 13.8453 32.9287C13.5917 32.605 13.3246 32.4701 12.9199 32.4755C11.3065 32.4917 9.69048 32.4728 8.07443 32.489C7.65355 32.4917 7.47819 32.3676 7.48089 31.9224C7.49168 28.2398 7.49168 24.5598 7.48089 20.8799C7.47819 20.4374 7.63736 20.3025 8.06633 20.3079C9.51242 20.3295 10.9639 20.3349 12.4127 20.3052C12.8875 20.2971 13.0629 20.4806 13.2005 20.9203C14.9109 26.3917 17.9299 30.9916 22.4867 34.5124C24.6531 36.1851 26.9544 37.4693 29.3853 38.3758C32.2882 39.455 35.3746 39.9919 38.6391 39.9919H44.2859C44.9415 39.9919 44.963 39.973 44.963 39.3228V33.0205C42.1464 35.1276 38.6553 36.3794 34.8701 36.3929ZM18.2294 39.9406C18.1484 39.9244 18.0648 39.911 17.9839 39.8921C17.911 39.8786 17.8355 39.857 17.7626 39.8408C17.8355 39.857 17.9083 39.8786 17.9839 39.8921C18.0648 39.9083 18.1484 39.9244 18.2294 39.9406ZM16.8534 39.6088C16.8534 39.6088 16.8534 39.6088 16.8507 39.6088C16.8507 39.6088 16.8508 39.6088 16.8534 39.6088Z" fill="#A7A726"/>
<path opacity="0.16" fill-rule="evenodd" clip-rule="evenodd" d="M18.853 0.00337219C16.406 1.05286 14.1776 2.46387 12.2458 4.16086C12.0516 4.33083 11.8627 4.5035 11.6739 4.67886C11.4877 4.85692 11.3043 5.03499 11.1235 5.21575C10.3978 5.93879 9.72599 6.705 9.10817 7.51167V7.51437H1.01172C0.852542 7.51437 0.687969 7.50628 0.528792 7.51437C0.501813 7.51707 0.477531 7.51707 0.45325 7.51707C0.299469 7.51437 0.188854 7.4793 0.113312 7.40376C0.0755417 7.36599 0.0485625 7.31742 0.0269792 7.26077C0.0296771 7.25807 0.0296771 7.25807 0.0269792 7.25807C0.0107917 7.19871 0 7.13127 0 7.05033V7.04763C0.00539583 4.84883 0.00539583 2.65273 0.00269792 0.453924C0.00269792 0.410758 0.00539583 0.370289 0.0107917 0.332518C0.0134896 0.305539 0.0188854 0.281258 0.0269792 0.259674C0.0350729 0.232695 0.0458646 0.205716 0.0566562 0.184133V0.181435C0.0701458 0.159851 0.0836354 0.138268 0.102521 0.119383C0.172667 0.0438409 0.283281 0.00337219 0.43976 0.00337219H0.485625C0.644802 0.0114659 0.809375 0.00337219 0.968552 0.00337219H18.853Z" fill="white"/>
<path fill-rule="evenodd" clip-rule="evenodd" d="M18.853 0.000674479C18.8503 0.000674479 18.8503 0.0033724 18.8476 0.0033724C16.4033 1.05286 14.1749 2.46117 12.2458 4.16086C12.0516 4.33083 11.8627 4.5035 11.6739 4.67886C11.4877 4.85423 11.3016 5.03499 11.1235 5.21575C10.3978 5.93879 9.72599 6.705 9.10817 7.51167H1.01172C0.852542 7.51167 0.687969 7.50358 0.528792 7.51167C0.515302 7.51167 0.501812 7.51167 0.488323 7.51437H0.46674C0.307563 7.51437 0.191552 7.4793 0.113312 7.40376C0.0755417 7.36599 0.0485625 7.31742 0.0269792 7.26077C0.0296771 7.25807 0.0296771 7.25807 0.0269792 7.25807C0.0107917 7.19872 0 7.13127 0 7.05033V7.04763C0.00539583 4.84883 0.00539583 2.65273 0.00269792 0.453924C0.00269792 0.410758 0.00539583 0.370289 0.0107917 0.332518C0.0134896 0.305539 0.0188854 0.281258 0.0269792 0.259674C0.0350729 0.232695 0.0431667 0.205716 0.0539583 0.184133H0.0566562V0.181435C0.0701458 0.159852 0.0836354 0.138268 0.102521 0.119383C0.124104 0.0977995 0.148385 0.0789141 0.178062 0.0627266C0.191552 0.0546328 0.20774 0.0465391 0.226625 0.0411432C0.240115 0.0357474 0.253604 0.0303516 0.269792 0.0276536C0.288677 0.0222578 0.302167 0.0141641 0.32375 0.0114661C0.348031 0.0033724 0.37501 0.000674479 0.404687 0.0033724C0.428969 -0.00202344 0.455948 0.000674479 0.485625 0.000674479C0.644802 0.00876823 0.809375 0.000674479 0.968552 0.000674479H18.853Z" fill="#A7A726"/>
<path d="M13.8314 0.00337219L13.7343 0.00876802C13.7316 0.0114659 13.7316 0.0114659 13.7289 0.0114659C10.7315 1.90271 8.15502 4.47382 6.17205 7.51707H5.54883V7.51437C7.67748 4.374 10.4644 1.79209 13.6857 0.00607011C13.6884 0.00607011 13.6884 0.00607011 13.6911 0.00337219H13.8314Z" fill="#FFFF60"/>
<path opacity="0.39" d="M27.0133 11.9578C27.0133 12.2384 27.0214 12.5163 27.0349 12.7915C27.0214 13.0802 27.0133 13.3689 27.0133 13.6602C27.0133 14.073 27.0295 14.4804 27.0564 14.8851C27.0888 15.3383 27.1401 15.7835 27.2075 16.2232C27.2669 16.6252 27.3424 17.0218 27.4315 17.413C27.6527 18.3843 27.9549 19.3232 28.3326 20.2243C29.1284 22.1209 30.2616 23.8449 31.6564 25.3179C30.2373 24.5193 29.0286 23.4645 27.9953 22.218C25.7965 19.5606 24.747 16.4903 24.7713 13.0424C24.7848 11.4776 24.774 9.91282 24.774 8.34803C24.774 7.51707 24.774 7.51707 23.9646 7.51707H6.17188C8.15484 4.47382 10.7314 1.90271 13.7287 0.0114659C13.7314 0.0114659 13.7314 0.0114659 13.7341 0.00876802L13.8313 0.00337219H18.8521C18.8494 0.00337219 18.8494 0.00607011 18.8467 0.00607011H32.6357C32.4739 0.140966 32.3147 0.27856 32.1582 0.421549C28.9989 3.25976 27.0133 7.37678 27.0133 11.9578Z" fill="white"/>
<path d="M8.60644 39.9946H7.64868C3.56673 35.4648 1.04688 29.2569 1.04688 22.415C1.04688 22.2423 1.04957 22.0696 1.05227 21.897C1.06576 22.4581 1.09544 23.0247 1.144 23.5967C1.69168 30.1094 4.48132 35.856 8.60644 39.9946Z" fill="#A7A726"/>
<path opacity="0.71" d="M44.9667 20.5939C44.9667 24.7379 44.9667 28.8819 44.964 33.0232V33.5385C43.8768 35.9315 42.4469 38.1087 40.7472 39.9946H38.6401C35.3756 39.9946 32.2892 39.4577 29.3863 38.3785C26.9554 37.472 24.6541 36.1878 22.4877 34.5151C18.3653 31.3289 15.5001 27.2604 13.7248 22.4608C13.7221 22.4527 13.7195 22.4473 13.7168 22.4392C13.5333 21.9401 13.3606 21.4356 13.2015 20.923C13.0639 20.4833 12.8885 20.2998 12.4137 20.3079C10.9649 20.3376 9.5134 20.3322 8.06732 20.3106C7.63835 20.3052 7.47917 20.4401 7.48187 20.8826V21.1281C7.48457 21.4815 7.48457 21.8349 7.48457 22.1883C7.49266 25.4339 7.49266 28.6768 7.48187 31.9251C7.47917 32.3703 7.65454 32.4944 8.07541 32.4917C8.16714 32.4917 8.25617 32.489 8.3479 32.4917C9.87222 32.4782 11.3992 32.4944 12.9209 32.4782C13.1799 32.4755 13.3849 32.5295 13.563 32.6536C13.6628 32.7237 13.7545 32.8154 13.8463 32.9314C15.7915 35.454 18.0388 37.6636 20.6828 39.4523C20.7421 39.4928 20.7988 39.5359 20.8581 39.5791C20.9741 39.6654 21.0956 39.7599 21.2305 39.8624C21.0173 40.0485 20.8258 39.9919 20.6531 39.9919H15.9695C13.5144 39.9946 11.0593 39.9946 8.6069 39.9946C4.48179 35.856 1.69214 30.1094 1.14446 23.5967C1.0959 23.0247 1.06622 22.4581 1.05273 21.897C1.10399 19.0776 1.58692 16.3689 2.42867 13.8518C2.54468 13.501 2.66879 13.1557 2.79829 12.8131C4.62208 12.8131 6.44317 12.8104 8.26427 12.8104C10.4469 12.8104 12.6322 12.8104 14.8148 12.8131C16.153 12.8104 17.4938 12.8131 18.832 12.8131H18.8833C19.0047 12.8131 19.1072 12.8131 19.1935 12.8212C19.5631 12.8482 19.6009 12.9777 19.5766 13.528C19.4822 15.6594 19.7439 17.7179 20.4292 19.6793C20.6747 20.3915 20.9795 21.093 21.3411 21.781C23.5102 25.8872 26.7666 28.8522 30.9645 30.8001C32.8369 31.6688 34.7956 32.2273 36.8595 32.4054C37.4773 32.4566 37.48 32.4701 37.48 31.8037V13.7681C37.48 12.8131 37.48 12.8104 38.4378 12.8104C40.3857 12.8104 42.3336 12.8104 44.2842 12.8131H44.3111C44.9209 12.8158 44.964 12.8643 44.964 13.4957C44.9667 15.8617 44.9667 18.2278 44.9667 20.5939Z" fill="white" fill-opacity="0.5"/>
</svg>
