<svg width="114" height="114" viewBox="0 0 114 114" fill="none" xmlns="http://www.w3.org/2000/svg">
<g opacity="0.92">
<g filter="url(#filter0_d_927_248)">
<circle cx="57" cy="47" r="27" fill="white"/>
</g>
<path d="M47.1069 43.8985C49.0439 42.1787 51.2735 41.3867 53.6669 40.9547C54.7573 40.7585 55.8512 40.676 56.9568 40.7225C57.6071 40.7503 57.6942 40.8386 57.6976 41.4773C57.7011 42.109 57.6976 42.7407 57.6976 43.4247C57.916 43.3469 58.0611 43.3028 58.2005 43.2447C60.7402 42.1682 63.2798 41.0929 65.8172 40.0106C66.0193 39.9247 66.3165 39.8945 66.3293 39.6077C66.3433 39.3185 66.0471 39.2686 65.8544 39.1629C63.4366 37.8298 61.0142 36.5036 58.593 35.1763C58.4757 35.1124 58.3538 35.0567 58.1529 34.9556C58.1459 35.3087 58.1401 35.6071 58.1331 35.9044C58.1285 36.1169 58.1273 36.3306 58.1157 36.5431C58.082 37.1829 57.988 37.2782 57.3446 37.2538C56.3529 37.2155 55.3763 37.3107 54.4136 37.5511C54.3764 37.5604 54.3393 37.5743 54.301 37.5789C53.9619 37.6289 53.7319 37.4976 53.6727 37.2213C53.6216 36.9855 53.7691 36.7544 54.0722 36.6778C54.4635 36.5779 54.8618 36.4897 55.2625 36.4409C55.8745 36.3666 56.4899 36.3294 57.1774 36.269C57.1774 35.995 57.1728 35.7105 57.1786 35.4248C57.1832 35.1937 57.1751 34.9568 57.2192 34.7315C57.3272 34.1857 57.8916 33.8722 58.4188 34.0499C58.564 34.0986 58.701 34.1753 58.8368 34.2496C61.3777 35.6396 63.9174 37.032 66.4582 38.4232C66.8252 38.6241 67.1318 38.8668 67.2281 39.3069C67.3675 39.9398 67.112 40.4507 66.4501 40.7434C65.1263 41.3275 63.7954 41.8942 62.4658 42.4655C61.1547 43.0287 59.8413 43.5896 58.5303 44.1517C58.4234 44.197 58.3178 44.2434 58.2121 44.2899C57.3806 44.6592 56.7419 44.0112 56.7675 43.3458C56.7803 42.9974 56.7698 42.649 56.7686 42.3006C56.7686 42.1102 56.7686 41.9197 56.7686 41.6701C56.2368 41.6701 55.7398 41.6364 55.2474 41.677C53.8179 41.7955 52.4267 42.0974 51.075 42.5886C50.7637 42.7013 50.5524 42.8824 50.4014 43.1739C49.8545 44.2295 49.5247 45.3536 49.3273 46.5207C49.1496 47.5716 49.0648 48.6307 49.0938 49.6967C49.0962 49.7745 49.1194 49.8651 49.0869 49.9266C49.0044 50.0857 48.9266 50.3064 48.7896 50.3633C48.6502 50.4202 48.4052 50.361 48.2728 50.2623C48.0429 50.0927 47.8478 49.8663 47.6667 49.641C45.7599 47.2685 45.5648 44.6917 46.8758 42.001C47.9407 39.8167 49.7581 38.4127 51.9355 37.4326C52.0051 37.4013 52.0783 37.3722 52.1526 37.3595C52.3884 37.32 52.5846 37.3908 52.6705 37.6242C52.7507 37.8425 52.7077 38.0539 52.4905 38.1793C52.2734 38.3036 52.0435 38.4069 51.8182 38.5161C50.2133 39.2976 48.9452 40.4612 47.9651 41.943C47.5923 42.5062 47.2974 43.1089 47.1081 43.8985H47.1069ZM49.1287 43.7162C49.0927 43.6837 49.0567 43.6512 49.0207 43.6187C48.7164 43.8474 48.3948 44.0553 48.1114 44.3073C46.7969 45.4686 46.7237 45.2572 47.3485 47.1965C47.511 47.7005 47.7398 48.1836 48.1567 48.6214C48.245 46.8981 48.5399 45.2781 49.1287 43.7162Z" fill="#6C49B2"/>
<path d="M55.5937 50.5873C55.394 50.6535 55.2465 50.6906 55.1095 50.7487C52.5512 51.831 49.9953 52.9168 47.4381 54.0014C47.3847 54.0235 47.3267 54.0432 47.2825 54.0792C47.1687 54.1733 46.9609 54.2952 46.976 54.3695C47.0038 54.51 47.1374 54.6668 47.2698 54.7411C48.2615 55.3008 49.2637 55.842 50.2623 56.3901C50.397 56.4644 50.5422 56.5306 50.6548 56.6328C50.829 56.7896 50.8906 56.9882 50.7396 57.2018C50.6049 57.3934 50.4203 57.5177 50.1962 57.3946C48.942 56.7118 47.6634 56.065 46.458 55.3043C45.7717 54.8712 45.8913 53.8353 46.5858 53.3882C46.746 53.2849 46.9295 53.2141 47.106 53.1386C49.6747 52.0319 52.2446 50.9275 54.8145 49.8232C54.8853 49.793 54.9608 49.7709 55.0282 49.7361C55.8747 49.3029 56.5738 49.9869 56.5308 50.7104C56.4995 51.2283 56.525 51.7497 56.525 52.328C57.0546 52.328 57.5528 52.3617 58.044 52.321C59.4735 52.2026 60.8658 51.9042 62.2164 51.4106C62.5264 51.2968 62.739 51.118 62.8899 50.8265C63.438 49.7709 63.7678 48.6468 63.9653 47.4809C64.1429 46.43 64.2289 45.372 64.1998 44.306C64.1975 44.2096 64.1905 44.1109 64.2056 44.0157C64.2718 43.6058 64.6527 43.4374 64.9802 43.6975C65.2043 43.8763 65.3924 44.1051 65.5759 44.3292C67.7068 46.9223 67.8311 50.1518 65.9022 52.897C64.3345 55.1301 62.1548 56.4737 59.5699 57.2193C58.469 57.5363 57.3391 57.6617 56.1174 57.7C56.1174 57.8998 56.1174 58.0856 56.1174 58.2714C56.1174 58.5036 56.1256 58.7359 56.1139 58.9681C56.0687 59.8553 55.4149 60.2432 54.6299 59.8414C54.1491 59.5952 53.6799 59.3246 53.2061 59.0657C52.8334 58.8613 52.456 58.6662 52.0913 58.4502C51.7766 58.2644 51.693 58.024 51.83 57.7836C51.9659 57.5456 52.2133 57.4805 52.5384 57.6501C53.2061 57.9973 53.8623 58.3677 54.5242 58.7266C54.7088 58.8264 54.8969 58.9182 55.178 59.061C55.178 58.485 55.1652 57.9857 55.1815 57.4863C55.2035 56.8175 55.2999 56.7373 55.9816 56.7385C58.6072 56.7466 61.0296 56.0998 63.1245 54.4601C64.4901 53.3906 65.5457 52.0795 66.1043 50.4108C66.1229 50.3573 66.1345 50.3004 66.1449 50.2447C66.1473 50.2296 66.1287 50.211 66.1078 50.1715C64.136 51.9401 61.7368 52.7275 59.1901 53.1142C58.2216 53.2617 57.2264 53.2454 56.2429 53.264C55.7203 53.2744 55.6053 53.1246 55.5995 52.5986C55.5925 51.9436 55.5983 51.2875 55.5983 50.5861L55.5937 50.5873ZM65.1811 45.3697C65.0568 46.2894 64.9848 47.1174 64.8257 47.9268C64.6655 48.7362 64.417 49.5282 64.1847 50.4131C64.9651 49.9323 65.5864 49.4179 66.1206 48.8071C66.232 48.6793 66.3052 48.4622 66.2936 48.2926C66.2169 47.2347 65.8233 46.2918 65.1823 45.3686L65.1811 45.3697Z" fill="#6C49B2"/>
</g>
<defs>
<filter id="filter0_d_927_248" x="0" y="0" width="114" height="114" filterUnits="userSpaceOnUse" color-interpolation-filters="sRGB">
<feFlood flood-opacity="0" result="BackgroundImageFix"/>
<feColorMatrix in="SourceAlpha" type="matrix" values="0 0 0 0 0 0 0 0 0 0 0 0 0 0 0 0 0 0 127 0" result="hardAlpha"/>
<feOffset dy="10"/>
<feGaussianBlur stdDeviation="15"/>
<feComposite in2="hardAlpha" operator="out"/>
<feColorMatrix type="matrix" values="0 0 0 0 0.0627451 0 0 0 0 0.0705882 0 0 0 0 0.129412 0 0 0 0.12 0"/>
<feBlend mode="normal" in2="BackgroundImageFix" result="effect1_dropShadow_927_248"/>
<feBlend mode="normal" in="SourceGraphic" in2="effect1_dropShadow_927_248" result="shape"/>
</filter>
</defs>
</svg>
