<svg width="114" height="114" viewBox="0 0 114 114" fill="none" xmlns="http://www.w3.org/2000/svg">
<g filter="url(#filter0_d_927_232)">
<circle cx="57" cy="47" r="27" fill="white"/>
</g>
<path d="M53.1361 46.4673C51.366 45.001 50.4622 43.1362 50.6422 40.8393C50.7782 39.1011 51.547 37.6442 52.8848 36.5107C55.4124 34.3685 59.1532 34.5044 61.5448 36.9195C63.9402 39.3383 64.2027 43.7381 60.867 46.471C61.3029 46.6539 61.7248 46.8245 62.1401 47.0073C62.4767 47.1554 62.6961 47.4001 62.7336 47.7836C62.8011 48.4774 62.2011 48.9668 61.5129 48.768C61.3348 48.7164 61.1679 48.6255 60.9954 48.5524C55.8999 46.382 49.8735 48.7352 47.615 53.796C47.3187 54.4597 47.1124 55.1685 46.9137 55.8707C46.7262 56.5317 47.1678 57.0867 47.8559 57.1233C47.9965 57.1308 48.1372 57.1251 48.2778 57.1251C51.8554 57.1251 55.434 57.1251 59.0116 57.1251C59.1522 57.1251 59.2938 57.1167 59.4335 57.1289C59.9444 57.1711 60.2998 57.5536 60.3035 58.0552C60.3073 58.5568 59.9538 58.9458 59.4475 58.9946C59.3547 59.004 59.26 58.9983 59.1663 58.9983C55.4162 58.9983 51.666 59.0002 47.9168 58.9983C46.4534 58.9974 45.3415 58.1049 45.0546 56.6714C44.9889 56.3442 44.9768 55.9776 45.0499 55.6542C46.0437 51.2834 48.62 48.2599 52.8004 46.6164C52.8726 46.5882 52.9458 46.5601 53.018 46.5301C53.0451 46.5189 53.0714 46.502 53.137 46.4673H53.1361ZM61.4904 41.384C61.4932 38.9136 59.4672 36.8782 56.9996 36.8735C54.5302 36.8698 52.4939 38.8967 52.4892 41.3634C52.4845 43.8328 54.5124 45.8692 56.98 45.872C59.4522 45.8748 61.4867 43.8497 61.4904 41.3831V41.384Z" fill="#F8A85E"/>
<path d="M65.4798 55.4866C65.4798 55.8317 65.4817 56.1092 65.4798 56.3867C65.476 56.9642 65.4929 57.5426 65.4573 58.1183C65.4245 58.6499 65.0354 58.9949 64.5441 58.9968C64.0529 58.9996 63.6535 58.6555 63.6235 58.1277C63.586 57.4742 63.6038 56.817 63.5991 56.1617C63.5972 55.962 63.5991 55.7613 63.5991 55.5138C63.3929 55.5035 63.2278 55.4885 63.0619 55.4866C62.4066 55.4829 61.7503 55.4885 61.095 55.4801C60.6525 55.4745 60.3112 55.2982 60.1481 54.8566C59.9596 54.3466 60.2531 53.7691 60.7846 53.6556C61.0106 53.6069 61.2497 53.6088 61.4831 53.6069C62.1656 53.6013 62.8491 53.605 63.5607 53.605C63.5757 53.4203 63.5963 53.2853 63.5972 53.1503C63.601 52.5569 63.5954 51.9634 63.601 51.3709C63.6029 51.1843 63.6085 50.994 63.645 50.8121C63.7313 50.3818 64.1194 50.0865 64.5582 50.0949C64.9792 50.1033 65.3485 50.3921 65.4329 50.8027C65.4704 50.9846 65.476 51.1749 65.4779 51.3615C65.4835 51.939 65.4779 52.5165 65.4817 53.0941C65.4817 53.2459 65.4985 53.3969 65.5117 53.606C65.7376 53.606 65.9364 53.6041 66.1351 53.606C66.8214 53.6144 67.5096 53.5985 68.1939 53.6425C68.6496 53.6716 68.9599 54.0447 68.9908 54.4825C69.0199 54.8951 68.7537 55.3151 68.3636 55.421C68.1714 55.4735 67.9624 55.481 67.7608 55.4829C67.1833 55.4904 66.6058 55.4857 66.0283 55.4857C65.8745 55.4857 65.7198 55.4857 65.4817 55.4857L65.4798 55.4866Z" fill="#F8A85E"/>
<defs>
<filter id="filter0_d_927_232" x="0" y="0" width="114" height="114" filterUnits="userSpaceOnUse" color-interpolation-filters="sRGB">
<feFlood flood-opacity="0" result="BackgroundImageFix"/>
<feColorMatrix in="SourceAlpha" type="matrix" values="0 0 0 0 0 0 0 0 0 0 0 0 0 0 0 0 0 0 127 0" result="hardAlpha"/>
<feOffset dy="10"/>
<feGaussianBlur stdDeviation="15"/>
<feComposite in2="hardAlpha" operator="out"/>
<feColorMatrix type="matrix" values="0 0 0 0 0.0627451 0 0 0 0 0.0705882 0 0 0 0 0.129412 0 0 0 0.12 0"/>
<feBlend mode="normal" in2="BackgroundImageFix" result="effect1_dropShadow_927_232"/>
<feBlend mode="normal" in="SourceGraphic" in2="effect1_dropShadow_927_232" result="shape"/>
</filter>
</defs>
</svg>
