<svg width="27" height="30" viewBox="0 0 27 30" fill="none" xmlns="http://www.w3.org/2000/svg">
<path d="M20.5431 19.7544C20.0369 19.4611 19.6163 19.2173 19.1542 18.9495C17.8524 20.7268 16.118 21.7058 13.9656 21.963V23.5675C15.9479 24.3376 16.8948 25.7211 16.572 27.3364C16.2505 28.949 14.9045 30.0378 13.2812 29.999C11.7638 29.9628 10.4418 28.7762 10.2048 27.2386C9.95432 25.6127 10.9253 24.2385 12.8634 23.5742V21.9737C10.711 21.7031 8.95785 20.7562 7.65333 18.9535C7.19126 19.2146 6.75196 19.4611 6.26712 19.7356C6.56043 20.85 6.49346 21.9081 5.7662 22.8442C5.28404 23.4657 4.65723 23.8595 3.88711 24.0389C2.49554 24.3644 0.960657 23.617 0.321793 22.2884C-0.343859 20.9022 0.0499072 19.2856 1.28612 18.332C2.57992 17.3355 4.10141 17.4815 5.71531 18.7968C6.14925 18.5543 6.60731 18.2972 7.1042 18.0213C6.22292 16.0203 6.19613 14.0327 7.10822 11.9943C6.64481 11.7237 6.19211 11.4585 5.70995 11.1773C4.9559 11.9434 4.08132 12.3854 3.01118 12.313C2.27857 12.2635 1.62765 11.9916 1.07986 11.492C-0.0773301 10.4393 -0.333144 8.80397 0.451709 7.47132C1.22183 6.16145 2.83841 5.56678 4.27954 6.06502C5.89478 6.62218 6.55106 7.96554 6.29658 10.2612C6.71044 10.5063 7.14438 10.7634 7.63726 11.0567C8.26675 10.2036 9.00205 9.5031 9.89405 8.9821C10.7927 8.45708 11.7731 8.18117 12.8272 8.04054V6.40253C11.8401 6.14672 11.0405 5.62438 10.5543 4.69889C10.2115 4.0453 10.0869 3.35018 10.2369 2.6256C10.5651 1.0358 11.891 -0.0262915 13.4888 0.00049527C14.9916 0.027282 16.2706 1.13358 16.5733 2.66712C16.8907 4.27834 15.9586 5.63777 13.963 6.43468V8.02179C16.0831 8.29502 17.8578 9.24461 19.1542 11.0581C19.6391 10.7795 20.0757 10.5277 20.5512 10.2545C20.2136 9.16291 20.3221 8.14903 20.9717 7.2356C21.4244 6.59808 22.0378 6.17618 22.8053 5.9726C24.2397 5.59223 25.788 6.27396 26.4831 7.61062C27.1635 8.91781 26.83 10.6335 25.7116 11.571C24.383 12.6854 22.8013 12.5729 21.0655 11.2054C20.6288 11.4545 20.1708 11.7157 19.6886 11.9903C20.5833 13.9993 20.5873 15.9882 19.6886 18.0052C20.1628 18.2811 20.6181 18.5463 21.0548 18.8008C22.8334 17.4414 24.3375 17.3289 25.6313 18.4298C26.826 19.4463 27.1354 21.0629 26.3974 22.4237C25.6782 23.7496 24.1513 24.3912 22.6928 23.9746C21.7847 23.7148 21.1284 23.1443 20.6985 22.3112C20.2793 21.4982 20.282 20.6437 20.5404 19.7544H20.5431ZM13.3991 20.8942C16.6229 20.8995 19.2868 18.2517 19.2922 15.0346C19.2975 11.7666 16.6537 9.10666 13.3991 9.10666C10.1699 9.10666 7.51404 11.7478 7.50467 14.9676C7.49529 18.2329 10.1365 20.8888 13.3991 20.8955V20.8942ZM15.542 3.27116C15.5715 2.11397 14.642 1.11884 13.4888 1.07197C12.3049 1.02375 11.2843 1.97602 11.2548 3.15598C11.2253 4.33995 12.191 5.34445 13.3736 5.35785C14.5295 5.37124 15.5112 4.42567 15.5407 3.27116H15.542ZM3.21744 11.2496C4.40142 11.2496 5.37914 10.2571 5.36172 9.07317C5.34565 7.91866 4.37597 6.96371 3.21878 6.96371C2.03481 6.96371 1.05843 7.95483 1.07584 9.1388C1.09325 10.2947 2.06293 11.2509 3.21878 11.2496H3.21744ZM23.5901 11.2496C24.7741 11.2429 25.7451 10.2451 25.721 9.05978C25.6982 7.90527 24.7219 6.95568 23.5647 6.96238C22.3794 6.96907 21.4097 7.96554 21.4338 9.15219C21.4566 10.3067 22.4329 11.2563 23.5901 11.2496ZM5.36306 20.8915C5.36306 19.7356 4.40811 18.766 3.25093 18.7499C2.06561 18.7325 1.0745 19.7102 1.07584 20.8942C1.07584 22.0514 2.03213 23.021 3.18664 23.0371C4.37061 23.0532 5.36306 22.0755 5.36306 20.8915ZM23.5674 18.7499C22.4088 18.7552 21.4458 19.7115 21.4338 20.8687C21.4217 22.0527 22.4035 23.0425 23.5861 23.0358C24.7701 23.0291 25.7424 22.0339 25.721 20.8486C25.6996 19.6941 24.7245 18.7445 23.5674 18.7486V18.7499ZM15.542 26.8181C15.5581 25.6341 14.5817 24.643 13.3978 24.6416C12.2419 24.6416 11.2722 25.5966 11.2562 26.7524C11.2387 27.9378 12.2151 28.9289 13.4004 28.9289C14.5576 28.9289 15.5273 27.9739 15.5434 26.8181H15.542Z" fill="#DE5EF8"/>
</svg>
