<svg width="114" height="114" viewBox="0 0 114 114" fill="none" xmlns="http://www.w3.org/2000/svg">
<g id="Group 154">
<g id="icon_bg" filter="url(#filter0_d_927_242)">
<circle cx="57" cy="47" r="27" fill="white"/>
</g>
<g id="Icon">
<path id="Vector" d="M64.5431 51.7544C64.0369 51.4611 63.6163 51.2173 63.1542 50.9495C61.8524 52.7268 60.118 53.7058 57.9656 53.963V55.5675C59.9479 56.3376 60.8948 57.7211 60.572 59.3364C60.2505 60.949 58.9045 62.0378 57.2812 61.999C55.7638 61.9628 54.4418 60.7762 54.2048 59.2386C53.9543 57.6127 54.9253 56.2385 56.8634 55.5742V53.9737C54.711 53.7031 52.9578 52.7562 51.6533 50.9535C51.1913 51.2146 50.752 51.4611 50.2671 51.7356C50.5604 52.85 50.4935 53.9081 49.7662 54.8442C49.284 55.4657 48.6572 55.8595 47.8871 56.0389C46.4955 56.3644 44.9607 55.617 44.3218 54.2884C43.6561 52.9022 44.0499 51.2856 45.2861 50.332C46.5799 49.3355 48.1014 49.4815 49.7153 50.7968C50.1493 50.5543 50.6073 50.2972 51.1042 50.0213C50.2229 48.0203 50.1961 46.0327 51.1082 43.9943C50.6448 43.7237 50.1921 43.4585 49.71 43.1773C48.9559 43.9434 48.0813 44.3854 47.0112 44.313C46.2786 44.2635 45.6276 43.9916 45.0799 43.492C43.9227 42.4393 43.6669 40.804 44.4517 39.4713C45.2218 38.1615 46.8384 37.5668 48.2795 38.065C49.8948 38.6222 50.5511 39.9655 50.2966 42.2612C50.7104 42.5063 51.1444 42.7634 51.6373 43.0567C52.2667 42.2036 53.002 41.5031 53.894 40.9821C54.7927 40.4571 55.7731 40.1812 56.8272 40.0405V38.4025C55.8401 38.1467 55.0405 37.6244 54.5543 36.6989C54.2115 36.0453 54.0869 35.3502 54.2369 34.6256C54.5651 33.0358 55.891 31.9737 57.4888 32.0005C58.9916 32.0273 60.2706 33.1336 60.5733 34.6671C60.8907 36.2783 59.9586 37.6378 57.963 38.4347V40.0218C60.0831 40.295 61.8578 41.2446 63.1542 43.0581C63.6391 42.7795 64.0757 42.5277 64.5512 42.2545C64.2136 41.1629 64.3221 40.149 64.9717 39.2356C65.4244 38.5981 66.0378 38.1762 66.8053 37.9726C68.2397 37.5922 69.788 38.274 70.4831 39.6106C71.1635 40.9178 70.83 42.6335 69.7116 43.571C68.383 44.6854 66.8013 44.5729 65.0655 43.2054C64.6288 43.4545 64.1708 43.7157 63.6886 43.9903C64.5833 45.9993 64.5873 47.9882 63.6886 50.0052C64.1628 50.2811 64.6181 50.5463 65.0548 50.8008C66.8334 49.4414 68.3375 49.3289 69.6313 50.4298C70.826 51.4463 71.1354 53.0629 70.3974 54.4237C69.6782 55.7496 68.1513 56.3912 66.6928 55.9746C65.7847 55.7148 65.1284 55.1443 64.6985 54.3112C64.2793 53.4982 64.282 52.6437 64.5404 51.7544H64.5431ZM57.3991 52.8942C60.6229 52.8995 63.2868 50.2517 63.2922 47.0346C63.2975 43.7666 60.6537 41.1067 57.3991 41.1067C54.1699 41.1067 51.514 43.7478 51.5047 46.9676C51.4953 50.2329 54.1365 52.8888 57.3991 52.8955V52.8942ZM59.542 35.2712C59.5715 34.114 58.642 33.1188 57.4888 33.072C56.3049 33.0237 55.2843 33.976 55.2548 35.156C55.2253 36.34 56.191 37.3445 57.3736 37.3578C58.5295 37.3712 59.5112 36.4257 59.5407 35.2712H59.542ZM47.2174 43.2496C48.4014 43.2496 49.3791 42.2571 49.3617 41.0732C49.3457 39.9187 48.376 38.9637 47.2188 38.9637C46.0348 38.9637 45.0584 39.9548 45.0758 41.1388C45.0933 42.2947 46.0629 43.2509 47.2188 43.2496H47.2174ZM67.5901 43.2496C68.7741 43.2429 69.7451 42.2451 69.721 41.0598C69.6982 39.9053 68.7219 38.9557 67.5647 38.9624C66.3794 38.9691 65.4097 39.9655 65.4338 41.1522C65.4566 42.3067 66.4329 43.2563 67.5901 43.2496ZM49.3631 52.8915C49.3631 51.7356 48.4081 50.766 47.2509 50.7499C46.0656 50.7325 45.0745 51.7102 45.0758 52.8942C45.0758 54.0514 46.0321 55.021 47.1866 55.0371C48.3706 55.0532 49.3631 54.0755 49.3631 52.8915ZM67.5674 50.7499C66.4088 50.7552 65.4458 51.7115 65.4338 52.8687C65.4217 54.0527 66.4035 55.0425 67.5861 55.0358C68.7701 55.0291 69.7424 54.0339 69.721 52.8486C69.6996 51.6941 68.7245 50.7445 67.5674 50.7486V50.7499ZM59.542 58.8181C59.5581 57.6341 58.5817 56.643 57.3978 56.6416C56.2419 56.6416 55.2722 57.5966 55.2562 58.7524C55.2387 59.9378 56.2151 60.9289 57.4004 60.9289C58.5576 60.9289 59.5273 59.9739 59.5434 58.8181H59.542Z" fill="#DE5EF8"/>
<path id="Vector_2" d="M56.8047 48.0388C57.7007 47.1428 58.5016 46.3419 59.3039 45.541C59.4458 45.399 59.5865 45.2557 59.7392 45.1258C59.9615 44.9369 60.1985 44.957 60.4048 45.1445C60.6325 45.3535 60.6673 45.6039 60.4704 45.8597C60.4021 45.9481 60.3231 46.0272 60.2441 46.1048C59.3132 47.037 58.3851 47.9705 57.4502 48.8974C56.9359 49.4063 56.7953 49.4076 56.293 48.9148C55.7037 48.3362 55.1238 47.7482 54.5412 47.1643C54.4622 47.0852 54.3831 47.0062 54.3162 46.9178C54.1407 46.6875 54.1635 46.4531 54.3577 46.2522C54.5733 46.0285 54.8332 45.991 55.0702 46.2106C55.4305 46.5441 55.7801 46.8897 56.1189 47.2433C56.3479 47.4817 56.5529 47.7442 56.806 48.0402L56.8047 48.0388Z" fill="#DE5EF8"/>
</g>
</g>
<defs>
<filter id="filter0_d_927_242" x="0" y="0" width="114" height="114" filterUnits="userSpaceOnUse" color-interpolation-filters="sRGB">
<feFlood flood-opacity="0" result="BackgroundImageFix"/>
<feColorMatrix in="SourceAlpha" type="matrix" values="0 0 0 0 0 0 0 0 0 0 0 0 0 0 0 0 0 0 127 0" result="hardAlpha"/>
<feOffset dy="10"/>
<feGaussianBlur stdDeviation="15"/>
<feComposite in2="hardAlpha" operator="out"/>
<feColorMatrix type="matrix" values="0 0 0 0 0.0627451 0 0 0 0 0.0705882 0 0 0 0 0.129412 0 0 0 0.12 0"/>
<feBlend mode="normal" in2="BackgroundImageFix" result="effect1_dropShadow_927_242"/>
<feBlend mode="normal" in="SourceGraphic" in2="effect1_dropShadow_927_242" result="shape"/>
</filter>
</defs>
</svg>
