<svg width="38" height="44" viewBox="0 0 38 44" fill="none" xmlns="http://www.w3.org/2000/svg">
<path d="M26.462 9.31351C26.1622 9.67664 25.8536 10.0345 25.5627 10.4047C25.0802 11.0194 24.4487 11.2053 23.686 11.1752C22.6305 11.1363 21.5716 11.1646 20.4629 11.1646V17.5487C21.4438 17.5487 22.4336 17.5646 23.4234 17.5345C23.5955 17.5292 23.7818 17.3485 23.9254 17.2121C24.3742 16.7852 24.823 16.3548 25.2416 15.8977C25.6496 15.4514 26.1179 15.2671 26.7299 15.2778C28.47 15.3061 30.2119 15.2884 31.9148 15.2884C33.1068 13.4727 34.3662 12.8864 35.9077 13.3912C37.2043 13.8164 38.0327 15.0298 37.999 16.4522C37.9671 17.7754 37.034 18.9605 35.7516 19.3094C34.2598 19.7151 32.9578 19.0774 31.9627 17.3804C31.56 17.3804 31.0935 17.3804 30.627 17.3804C29.5041 17.3804 28.3813 17.3928 27.2585 17.3733C26.8771 17.368 26.5649 17.4495 26.3237 17.7577C26.2509 17.8498 26.1587 17.926 26.0735 18.0092C24.1223 19.894 25.0234 19.5308 22.2385 19.5734C21.6798 19.5822 21.1228 19.5734 20.5818 19.5734C20.376 20.2341 20.3334 23.4864 20.5161 24.62C21.3747 24.62 22.258 24.6679 23.1308 24.6076C24.0869 24.5403 24.8833 24.7476 25.4527 25.5642C26.1995 26.6359 27.2194 26.9653 28.5055 26.8378C29.5591 26.7333 30.6305 26.813 31.6948 26.8077C31.7516 26.8077 31.8083 26.7847 31.9165 26.7599C32.3334 25.899 32.878 25.0593 33.8961 24.8113C34.5063 24.6643 35.1999 24.6183 35.8066 24.7511C37.0979 25.0345 37.983 26.2887 37.999 27.6278C38.015 29.0131 37.2114 30.1716 35.9289 30.6091C34.4442 31.1175 33.1848 30.5843 32.0017 28.9103C30.3272 28.9103 28.6154 28.8784 26.9037 28.9245C26.1551 28.9458 25.6035 28.7048 25.1104 28.1646C24.6332 27.6438 24.1755 26.9813 23.5671 26.7386C22.9268 26.4835 22.1161 26.65 21.3782 26.6359C21.0909 26.6306 20.8017 26.6359 20.4629 26.6359V32.7773C20.6705 32.8003 20.894 32.8428 21.1175 32.8446C22.0328 32.8534 22.9498 32.8676 23.8651 32.841C24.4984 32.8215 25.0199 32.9951 25.4385 33.484C25.7826 33.8861 26.1516 34.2652 26.4336 34.5699C27.058 34.4902 27.5228 34.3804 27.9857 34.3804C29.6531 34.3804 31.0279 35.7744 31.0314 37.4271C31.0367 39.1064 29.6106 40.5129 27.9095 40.5093C26.2048 40.504 24.8656 39.1879 24.8514 37.4962C24.8496 37.2606 24.8531 37.0215 24.8939 36.7912C24.9525 36.46 25.215 36.1269 24.839 35.8187C24.4008 35.4609 24.1383 34.8817 23.4039 34.9259C22.439 34.9844 21.4687 34.9401 20.4079 34.9401C20.4079 36.1659 20.4221 37.3067 20.4026 38.4492C20.3902 39.1844 20.3991 39.9301 20.2749 40.6493C19.945 42.5677 18.4141 43.8661 16.4683 43.9866C14.1499 44.1283 12.4239 43.1434 11.1751 41.2427C10.9818 40.9487 10.8151 40.6369 10.6412 40.3411C5.66385 39.8858 3.05455 36.5379 3.89889 31.6684C3.52284 31.4186 3.12727 31.1671 2.7459 30.8978C0.301562 29.1778 -0.512626 26.9388 0.310431 23.9327C0.533934 23.1179 0.906438 22.3332 1.28781 21.5733C1.50599 21.1375 1.52018 20.7708 1.36586 20.3262C0.817747 18.7355 0.441695 17.1076 0.3193 15.4195C0.0674165 11.9104 1.22573 9.04603 4.14191 6.99122C4.88514 6.46689 5.68869 6.01165 6.5082 5.61663C7.06163 5.35092 7.47671 5.03207 7.79777 4.49357C8.67404 3.02864 9.82348 1.81524 11.3348 0.975604C13.0377 0.0314564 14.8789 -0.15631 16.7521 0.111169C18.9286 0.422932 20.3547 2.11638 20.4026 4.34301C20.4345 5.87702 20.4097 7.41104 20.4097 9.085C21.2824 9.085 22.1321 9.01946 22.9676 9.10448C23.7445 9.18243 24.243 8.85649 24.7254 8.32862C24.9968 8.03103 25.05 7.79189 24.9525 7.38979C24.4806 5.43595 25.6851 3.73365 27.6469 3.51045C29.3321 3.31914 30.8735 4.6406 31.0243 6.40844C31.1627 8.01154 29.8021 9.56682 28.1649 9.62527C27.6434 9.64476 27.1183 9.54202 26.5951 9.49596C26.5507 9.43573 26.5064 9.37374 26.462 9.31351ZM12.6119 39.4873C13.2381 40.9345 14.2102 41.7316 15.5671 41.9548C16.7556 42.1514 17.9636 41.4783 18.2368 40.4208C18.3308 40.0576 18.3095 39.6609 18.3095 39.2782C18.313 27.7997 18.313 16.3229 18.3113 4.84431C18.3113 4.5786 18.3237 4.31112 18.3006 4.04718C18.2261 3.13138 17.5574 2.34843 16.674 2.18369C15.647 1.99061 14.6217 2.00478 13.6035 2.28111C11.5086 2.84973 10.2102 4.32352 9.22393 6.13919C9.13169 6.30924 9.14943 6.59443 9.22038 6.79106C9.57515 7.77772 10.3042 8.28079 11.3437 8.3853C12.1649 8.46856 12.5374 8.87952 12.4683 9.55619C12.4044 10.1833 11.8563 10.5552 11.0918 10.4543C9.56983 10.2506 8.37249 9.53139 7.58668 8.18691C7.46961 7.98674 7.35431 7.78303 7.23901 7.58641C4.01951 8.89015 2.27229 11.4817 2.35034 14.8721C2.38936 16.5337 2.83637 18.1191 3.30466 19.7062C3.54767 20.5264 4.09401 20.8948 5.00221 20.9533C5.72771 20.9993 6.3042 20.6929 6.85409 20.2536C7.34012 19.8639 7.93081 19.9099 8.29267 20.2961C8.68114 20.7106 8.63857 21.3217 8.17382 21.7911C7.62216 22.3509 6.94101 22.6804 6.18891 22.8929C5.12283 23.1958 4.10288 22.9904 3.12195 22.5971C1.16719 26.0354 1.95832 28.4551 5.16008 29.9165C5.41906 29.8066 5.68691 29.6862 5.96008 29.5817C7.60797 28.9564 9.64965 29.3904 10.6944 30.5843C11.0989 31.0448 11.1308 31.516 10.7867 31.9394C10.4426 32.3628 9.85541 32.4354 9.35874 32.1059C9.18668 31.9925 9.03945 31.842 8.86562 31.7321C8.10464 31.2574 7.29932 31.222 6.50465 31.6011C6.2705 31.7127 6.02039 31.9801 5.95299 32.2246C5.07849 35.3989 7.58314 37.9851 9.93701 38.1818C10.9428 38.2668 11.4625 38.04 11.906 36.8373C12.1312 36.2244 11.9858 35.6327 11.7747 35.0305C11.5299 34.3308 11.7924 33.7869 12.3867 33.5832C12.9011 33.4079 13.4315 33.6807 13.6869 34.3414C13.8643 34.8019 13.9902 35.2962 14.0399 35.7851C14.1871 37.2287 13.6372 38.4333 12.6084 39.4837L12.6119 39.4873ZM28.9454 6.58912C28.9507 6.0453 28.4948 5.56526 27.9538 5.54577C27.4234 5.52629 26.9197 5.98862 26.8877 6.52535C26.8558 7.07448 27.388 7.63246 27.9361 7.62361C28.4718 7.61475 28.9383 7.13648 28.9436 6.59089L28.9454 6.58912ZM28.9454 37.4626C28.9596 36.917 28.5161 36.4281 27.9751 36.3927C27.4323 36.3572 26.8789 36.8957 26.8895 37.4502C26.9002 37.9869 27.3862 38.4687 27.9183 38.4723C28.4558 38.4758 28.933 38.0082 28.9471 37.4626H28.9454ZM35.9414 16.353C35.9591 15.8039 35.5192 15.322 34.9746 15.2902C34.4389 15.26 33.9458 15.7029 33.9103 16.2485C33.8713 16.8419 34.3343 17.3591 34.9108 17.3662C35.434 17.3733 35.9236 16.8915 35.9414 16.353ZM35.9449 27.6916C35.9449 27.1584 35.4695 26.6624 34.9445 26.65C34.407 26.6376 33.9316 27.0947 33.9103 27.6456C33.8873 28.2337 34.3715 28.742 34.9427 28.7296C35.4766 28.7172 35.9431 28.2354 35.9449 27.6916Z" fill="#FF922E"/>
</svg>
