<svg width="49" height="44" viewBox="0 0 49 44" fill="none" xmlns="http://www.w3.org/2000/svg">
<path d="M30.8256 34.9363C26.607 36.8198 22.4133 36.8351 18.189 34.9306C17.9956 35.2349 17.8195 35.4914 17.6645 35.7594C16.7534 37.3289 15.7868 38.8698 14.9657 40.4852C14.4967 41.4078 13.8689 41.6681 12.9061 41.6394C11.1222 41.5858 9.33447 41.6413 7.54864 41.6145C6.92657 41.605 6.52844 41.7294 6.19922 42.3591C5.4891 43.7143 3.99039 44.2713 2.52804 43.8751C0.983384 43.4597 0.0129505 42.2328 0.00529419 40.6843C-0.00236209 39.1339 0.958501 37.8859 2.48784 37.4629C3.95402 37.0571 5.46231 37.5988 6.17817 38.9348C6.52461 39.5818 6.92848 39.7387 7.60224 39.7196C9.19666 39.6737 10.7911 39.689 12.3855 39.7139C12.9138 39.7215 13.2698 39.5933 13.5454 39.0956C14.4852 37.3978 15.471 35.7249 16.4931 33.9487C12.7549 31.2652 10.5958 27.6323 10.1556 23.0002H6.58204C6.18582 23.94 5.61352 24.8569 4.50527 25.1057C3.81429 25.2607 3.03335 25.3143 2.35194 25.1554C0.86854 24.809 -0.0578701 23.3945 0.00720826 21.8441C0.0684585 20.3894 1.08292 19.128 2.46487 18.7835C4.22582 18.3471 5.54844 19.0515 6.63946 21.0498H10.1422C10.5997 16.4273 12.709 12.7638 16.5007 10.0668C15.4537 8.25421 14.4508 6.4837 13.4019 4.74189C13.2698 4.52369 12.9061 4.32845 12.6439 4.32463C10.7949 4.28826 8.944 4.3208 7.09501 4.29592C6.59735 4.29017 6.47485 4.60408 6.27961 4.94478C5.19051 6.84928 2.7137 7.28186 1.12311 5.831C0.0914273 4.88545 -0.237793 3.71212 0.169904 2.35505C0.594828 0.938636 1.61885 0.192149 3.02187 0.0275391C4.36554 -0.129415 5.51973 0.383556 6.16094 1.59133C6.53419 2.2938 6.99165 2.4029 7.67306 2.39142C9.52205 2.36079 11.373 2.4029 13.2219 2.37036C13.9761 2.35696 14.4527 2.6211 14.8259 3.3006C15.8519 5.17065 16.9467 7.00241 18.0167 8.84757C18.0473 8.89925 18.1047 8.93562 18.2196 9.04472C20.1758 8.19105 22.2487 7.65128 24.4403 7.65128C26.6377 7.65128 28.7297 8.12023 30.7797 9.06578C30.9347 8.84757 31.0936 8.65999 31.2142 8.45136C32.1578 6.82823 33.1551 5.22998 34.0126 3.56091C34.4968 2.61728 35.1342 2.32442 36.1429 2.36079C37.9268 2.42587 39.7146 2.36079 41.5004 2.38759C42.0899 2.39524 42.4632 2.28423 42.7752 1.68321C43.4987 0.287853 45.0185 -0.28254 46.5191 0.136641C48.0484 0.563479 49.0093 1.81337 48.9978 3.36185C48.9883 4.87396 48.0465 6.09705 46.5631 6.52389C45.0529 6.95839 43.5255 6.41288 42.802 5.029C42.4708 4.39545 42.0689 4.27869 41.4506 4.28826C39.8237 4.31506 38.1967 4.30357 36.5698 4.294C36.1353 4.29209 35.7869 4.33611 35.5362 4.78592C34.5581 6.53538 33.5417 8.26187 32.5062 10.0554C36.2482 12.7408 38.392 16.3526 38.8418 20.9847H42.3828C43.5044 19.0113 44.8653 18.305 46.611 18.8007C48.0676 19.2142 49.0418 20.5655 48.9978 22.1082C48.9538 23.5993 47.9183 24.9449 46.4904 25.2186C45.0089 25.5038 43.3839 25.255 42.3962 22.9543H38.8552C38.3977 27.5825 36.298 31.2192 32.5024 33.9353C33.5494 35.7498 34.5638 37.5414 35.6242 39.3062C35.7525 39.5186 36.1372 39.6794 36.4052 39.6832C38.191 39.7158 39.9787 39.6756 41.7626 39.7158C42.3254 39.7273 42.5149 39.4344 42.7465 39.0191C43.4757 37.7118 44.9266 37.0744 46.3124 37.3959C47.8704 37.7577 48.9117 38.954 48.9921 40.4738C49.0744 42.0184 48.1422 43.3659 46.6741 43.8253C45.1295 44.3095 43.558 43.7736 42.8077 42.3744C42.4804 41.7638 42.1053 41.6011 41.4679 41.6126C39.5538 41.6452 37.6397 41.6107 35.7257 41.6298C35.0155 41.6375 34.5523 41.4021 34.1944 40.7417C33.2852 39.0631 32.3014 37.4246 31.3424 35.7709C31.1874 35.5029 31.0132 35.2445 30.818 34.9325L30.8256 34.9363ZM24.4728 34.4463C31.2582 34.4559 37.0043 28.8783 36.9258 22.1791C36.8397 14.6836 31.5817 9.67445 24.5341 9.65914C17.5497 9.64383 12.2017 14.5515 12.0812 22.1159C11.974 28.819 17.7047 34.4368 24.4728 34.4444V34.4463ZM3.30706 1.91481C2.54718 1.9397 1.91936 2.58474 1.91745 3.33888C1.91745 4.12365 2.61609 4.80123 3.39703 4.77443C4.14351 4.74764 4.78473 4.0892 4.78664 3.34271C4.78855 2.55028 4.1014 1.8861 3.30706 1.9129V1.91481ZM45.6635 4.76869C46.4215 4.76295 47.0646 4.13322 47.0857 3.37716C47.1067 2.59622 46.4234 1.8995 45.6405 1.90716C44.8558 1.9129 44.1859 2.61728 44.2203 3.40013C44.2528 4.16002 44.9017 4.77443 45.6635 4.76869ZM4.78473 40.6269C4.76367 39.8689 4.12054 39.243 3.36066 39.2373C2.56441 39.2315 1.89448 39.9129 1.91936 40.7034C1.94233 41.4518 2.59886 42.095 3.34343 42.0988C4.12629 42.1045 4.80769 41.4078 4.78473 40.625V40.6269ZM47.0876 40.6862C47.0991 39.9416 46.4693 39.2717 45.7209 39.2353C44.94 39.1952 44.2318 39.8612 44.2203 40.6479C44.2088 41.404 44.8232 42.0548 45.585 42.0931C46.3775 42.1333 47.0742 41.4806 47.0876 40.6862ZM3.30706 20.6114C2.51273 20.6325 1.92128 21.2239 1.92128 22.0011C1.92128 22.7897 2.59886 23.4366 3.39894 23.4117C4.16074 23.3888 4.78473 22.7533 4.78664 22.003C4.78664 21.1914 4.14734 20.5885 3.30898 20.6114H3.30706ZM47.0857 21.9685C47.0646 21.178 46.3736 20.554 45.5697 20.598C44.8079 20.6402 44.1992 21.289 44.2203 22.0393C44.2414 22.8528 44.8902 23.4309 45.7343 23.3907C46.5268 23.3543 47.1048 22.7437 47.0857 21.9666V21.9685Z" fill="#DE5EF8"/>
<path d="M31.1164 29.016C30.5268 28.7767 30.0866 28.6025 29.6502 28.4226C28.8559 28.0972 27.671 28.7499 27.5122 29.6017C27.2659 30.9147 26.4626 31.5713 25.1024 31.5713C24.3693 31.5713 23.6362 31.5789 22.9012 31.5694C21.9958 31.556 21.7279 31.309 21.6207 30.4075C21.5307 29.6591 21.5231 28.9433 20.6196 28.549C20.0645 28.3078 19.6492 28.2255 19.1343 28.5107C18.8587 28.6638 18.5601 28.7978 18.2557 28.8724C17.7179 29.0045 17.3427 28.7538 17.0767 28.2867C16.5101 27.2914 15.9187 26.3076 15.3617 25.3065C14.9712 24.6041 15.0573 24.2748 15.7024 23.7542C15.8765 23.6145 16.0565 23.4843 16.2364 23.3503C17.1379 22.6823 17.1398 21.3272 16.2383 20.6611C16.0584 20.529 15.8785 20.3988 15.7043 20.2572C15.0573 19.7366 14.9693 19.4074 15.3597 18.7049C15.9167 17.7038 16.5063 16.72 17.0748 15.7247C17.4135 15.1313 17.8882 14.9514 18.5218 15.227C18.7266 15.3151 18.9314 15.4031 19.1343 15.4912C20.2425 15.9697 21.3412 15.3668 21.5384 14.1705C21.5843 13.8872 21.592 13.5982 21.6417 13.3168C21.7374 12.7808 22.059 12.4516 22.6102 12.444C23.8544 12.4267 25.0966 12.4306 26.3408 12.4401C26.9399 12.444 27.2787 12.7732 27.3686 13.3589C27.4031 13.579 27.405 13.8049 27.4375 14.025C27.6462 15.4031 28.7199 15.9946 29.9985 15.4395C31.2848 14.8806 31.4705 14.9418 32.1863 16.1783C32.6495 16.9765 33.1204 17.7708 33.5721 18.5747C34.0525 19.4284 33.9664 19.7021 33.195 20.3453C32.7395 20.7242 32.0849 20.8946 32.1213 21.7636C32.1538 22.5617 32.2993 23.1092 33.0228 23.5685C34.0736 24.2385 34.087 24.5313 33.4802 25.5936C32.9749 26.4779 32.4888 27.3756 31.9413 28.2331C31.7404 28.547 31.3901 28.7652 31.1164 29.016ZM23.3854 29.5864H25.5273C25.7366 28.4188 26.3376 27.553 27.3303 26.989C27.3858 26.9584 27.4547 26.9392 27.4949 26.8952C28.3869 25.9152 29.3726 26.0281 30.4062 26.6311C30.4503 26.6579 30.523 26.6349 30.6589 26.6349C30.969 26.1009 31.2963 25.5362 31.7155 24.8127C30.1249 24.3533 30.234 23.2164 30.1727 21.9263C30.1115 20.6343 30.3756 19.7844 31.482 19.1834C31.5279 19.1585 31.5413 19.0762 31.593 18.9748C31.2733 18.4293 30.9403 17.8627 30.6072 17.2923C30.255 17.4301 29.9718 17.5009 29.7287 17.6407C29.0932 18.0063 28.5266 17.9737 27.9926 17.4493C27.8586 17.3172 27.694 17.1928 27.5198 17.1277C26.2623 16.6664 25.311 15.9869 25.6211 14.4155H23.3567C23.6477 15.9333 22.8476 16.6607 21.59 17.055C21.5613 17.0645 21.5307 17.0837 21.5097 17.1066C20.6196 18.0886 19.6319 17.9622 18.5984 17.3708C18.5543 17.3459 18.4816 17.367 18.3438 17.367C18.0356 17.901 17.7083 18.4656 17.3236 19.1298C18.7534 19.7021 18.8051 20.7568 18.8376 22.0775C18.8701 23.3637 18.6251 24.2174 17.5207 24.8203C17.4748 24.8452 17.4614 24.9275 17.4097 25.029C17.7332 25.5726 18.0682 26.1391 18.405 26.7095C18.7515 26.5736 19.0328 26.5009 19.2759 26.3593C19.9114 25.9898 20.478 26.0339 21.012 26.5487C21.1479 26.6789 21.3106 26.8052 21.4848 26.8684C22.7423 27.3316 23.6859 28.0188 23.3816 29.5826L23.3854 29.5864Z" fill="#DE5EF8"/>
<path d="M24.5219 25.3009C22.5945 25.3086 21.2049 23.9477 21.1742 22.0202C21.1455 20.1751 22.6213 18.6802 24.4837 18.6706C26.348 18.6591 27.8371 20.1349 27.8295 21.9839C27.8218 23.9094 26.4398 25.2933 24.52 25.3009H24.5219ZM25.9096 21.98C25.8982 21.1474 25.2857 20.5808 24.4339 20.6134C23.6357 20.644 23.0864 21.224 23.0979 22.026C23.1094 22.8088 23.6989 23.4003 24.4798 23.4117C25.301 23.4251 25.9211 22.8031 25.9096 21.98Z" fill="#DE5EF8"/>
</svg>
