<svg width="44" height="44" viewBox="0 0 44 44" fill="none" xmlns="http://www.w3.org/2000/svg">
<path d="M14.7181 36.1873C14.3126 36.1873 13.9999 36.1873 13.6872 36.1873C10.6529 36.1873 7.61851 36.1942 4.58416 36.1805C4.01544 36.177 3.42953 36.1581 2.88142 36.0275C1.3213 35.653 0.17182 34.2612 0.0240548 32.6461C-0.0017182 32.3626 0.0017182 32.074 0.0017182 31.7887C0 22.6582 -0.0017182 13.526 0.0034364 4.39372C0.0034364 3.99338 0 3.58616 0.0738827 3.19613C0.407214 1.3903 1.88315 0.117113 3.72506 0.0123023C3.83846 0.00542952 3.95358 0.00371132 4.0687 0.00371132C8.36249 0.00371132 12.6563 -0.0065979 16.9501 0.00714772C19.1751 0.0157387 20.6768 1.35078 20.9878 3.53977C21.048 3.96417 21.0961 4.39028 21.1528 4.8164C21.2782 5.77515 21.4071 6.73563 21.5497 7.81122C21.9122 7.81122 22.2456 7.81122 22.5789 7.81122C28.1321 7.81122 33.6854 7.8095 39.2386 7.81466C39.6664 7.81466 40.0977 7.83184 40.5238 7.87823C42.4619 8.08613 43.8691 9.57582 43.9825 11.526C43.9963 11.7545 43.9928 11.983 43.9928 12.2133C43.9928 21.3455 43.9946 30.476 43.9911 39.6083C43.9911 40.0086 43.9946 40.4158 43.9207 40.8059C43.5822 42.6117 42.1063 43.8832 40.2643 43.9862C40.0925 43.9966 39.9207 43.9948 39.7489 43.9948C32.9929 43.9948 26.2369 43.9897 19.4827 44C18.4123 44.0017 17.4398 43.7646 16.6185 43.0584C15.8504 42.3969 15.4071 41.5533 15.28 40.543C15.1013 39.1289 14.9157 37.7148 14.7181 36.1873ZM19.7215 41.3711C20.0033 41.39 20.1648 41.4107 20.3246 41.4107C26.8229 41.4124 33.3194 41.4141 39.8176 41.4089C40.9637 41.4072 41.407 40.9502 41.407 39.7749C41.4104 30.5293 41.4104 21.2836 41.407 12.038C41.407 10.8662 40.9774 10.4195 39.809 10.4177C34.0273 10.4091 28.2455 10.4126 22.4621 10.4177C22.2748 10.4177 22.0875 10.4796 21.8796 10.5174C22.1184 12.4727 22.3487 14.373 22.5858 16.2716C22.9569 19.251 23.3366 22.2304 23.7095 25.2097C24.084 28.2183 24.4328 31.2286 24.8418 34.2337C24.9397 34.9502 24.8091 35.5104 24.3297 36.043C23.4294 37.043 22.5617 38.0705 21.682 39.0877C21.048 39.8179 20.4226 40.5533 19.7215 41.3711ZM22.1287 33.5396C21.9569 32.141 21.8023 30.8643 21.6442 29.5877C21.2782 26.6376 20.9122 23.6857 20.5445 20.7355C20.17 17.7287 19.792 14.7218 19.4157 11.715C19.0961 9.16173 18.7903 6.60676 18.4483 4.05695C18.2954 2.91091 17.8951 2.58961 16.7508 2.58789C14.5188 2.58273 12.2869 2.58617 10.0549 2.58617C8.19411 2.58617 6.33329 2.63084 4.47592 2.57071C3.15462 2.52775 2.5584 3.01572 2.56356 4.52086C2.59964 13.5638 2.58074 22.6049 2.58074 31.6478C2.58074 31.8764 2.56871 32.1066 2.58761 32.3351C2.65119 33.0499 3.07043 33.4812 3.78348 33.5654C4.01028 33.5911 4.24052 33.586 4.46904 33.586C10.0498 33.5877 15.6288 33.5877 21.2095 33.5843C21.4896 33.5825 21.7679 33.5568 22.1287 33.5396ZM17.3676 36.2389C17.4793 37.3609 17.5617 38.4244 17.8212 39.598C18.8229 38.4365 19.725 37.3918 20.7198 36.2389C19.5119 36.2389 18.4758 36.2389 17.3676 36.2389Z" fill="#24B55E"/>
<path d="M27.4848 22.053C27.2202 22.0135 27.0174 22.0084 26.8284 21.9534C26.1944 21.7644 25.8353 21.2283 25.8903 20.5891C25.9453 19.962 26.4006 19.4672 27.0673 19.4379C28.0105 19.395 28.9573 19.4225 29.9006 19.419C30.2373 19.4173 30.5741 19.419 31.0157 19.419C31.0157 18.9414 30.9882 18.5462 31.0208 18.1562C31.0913 17.3383 31.6136 16.8331 32.3301 16.8486C33.0105 16.8641 33.5105 17.3538 33.581 18.1252C33.617 18.5187 33.5878 18.919 33.5878 19.419C34.4607 19.419 35.2545 19.419 36.05 19.419C36.4796 19.419 36.9091 19.407 37.3387 19.4225C38.1359 19.4517 38.6411 19.8761 38.7167 20.5582C38.7974 21.297 38.3747 21.8245 37.5603 21.9929C37.4503 22.0152 37.3352 22.017 37.1565 22.0341C36.4985 24.0427 35.5225 25.9035 34.0895 27.6475C34.6514 28.1183 35.1858 28.5736 35.7287 29.0221C36.1703 29.3863 36.6445 29.7145 37.0569 30.108C37.5448 30.5736 37.5844 31.2282 37.2253 31.7489C36.8644 32.2712 36.2115 32.4516 35.6325 32.1698C35.4297 32.0702 35.2425 31.931 35.0655 31.7884C34.3078 31.1767 33.5569 30.5581 32.8026 29.943C32.6497 29.8176 32.4951 29.6956 32.3095 29.5461C31.4538 30.2454 30.6188 30.9344 29.7751 31.6131C29.5312 31.809 29.282 32.01 29.0071 32.1561C28.4573 32.4482 27.8473 32.309 27.4573 31.8416C27.069 31.3777 27.038 30.7386 27.4178 30.2575C27.593 30.0375 27.8319 29.8657 28.0518 29.6836C28.8439 29.0307 29.6411 28.3812 30.5088 27.6716C29.1824 25.9568 28.1085 24.1493 27.4848 22.053ZM30.227 22.0221C30.7287 23.4001 31.3834 24.5771 32.3146 25.7248C33.2115 24.553 33.9194 23.3984 34.3696 22.0221C32.959 22.0221 31.6514 22.0221 30.227 22.0221Z" fill="#24B55E"/>
<path d="M13.4222 19.4577C12.2503 19.4577 11.1129 19.4577 9.91702 19.4577C9.7074 20.4783 9.4995 21.4817 9.29331 22.4835C9.23661 22.7635 9.15929 23.0402 9.12665 23.3237C9.01497 24.2755 8.19195 24.681 7.57339 24.5539C6.78989 24.3941 6.41704 23.6999 6.60605 22.7498C6.86721 21.4336 7.1301 20.1175 7.3947 18.8013C7.94624 16.0574 8.49091 13.3134 9.0562 10.5712C9.30191 9.37357 9.64555 9.11756 10.8758 9.1124C11.4771 9.10897 12.0768 9.10381 12.6782 9.11412C13.6799 9.12959 14.0768 9.43543 14.2813 10.4148C14.7417 12.6227 15.1833 14.8357 15.6266 17.0488C16.0029 18.9251 16.3723 20.8013 16.7452 22.6793C16.7555 22.736 16.7795 22.7893 16.7898 22.8443C16.9479 23.7223 16.5441 24.4096 15.7847 24.5573C15.0699 24.6965 14.4445 24.2377 14.2624 23.3975C14.0201 22.2807 13.807 21.1587 13.5785 20.0402C13.539 19.846 13.4771 19.6604 13.4222 19.4577ZM12.929 16.8048C12.6009 15.1399 12.3002 13.5746 11.9754 12.0162C11.9497 11.8959 11.7607 11.81 11.6473 11.7086C11.5613 11.8083 11.4239 11.8959 11.3981 12.0093C11.2675 12.5626 11.1627 13.1227 11.0545 13.6828C10.8569 14.7052 10.661 15.7292 10.4548 16.8048C11.3053 16.8048 12.0631 16.8048 12.929 16.8048Z" fill="#24B55E"/>
</svg>
