<svg width="53" height="40" viewBox="0 0 53 40" fill="none" xmlns="http://www.w3.org/2000/svg">
<path d="M31.2487 20.8392L51.339 38.5368C51.9849 39.1058 53 38.6472 53 37.7864V1C53 0.447715 52.5523 0 52 0H31.9097C31.3574 0 30.9097 0.447716 30.9097 1V20.0888C30.9097 20.376 31.0331 20.6493 31.2487 20.8392Z" fill="#5ACF5A"/>
<path d="M0.338501 20.8392L20.4288 38.5368C21.0747 39.1058 22.0898 38.6472 22.0898 37.7864V1C22.0898 0.447715 21.6421 0 21.0898 0H0.999512C0.447227 0 -0.000488281 0.447716 -0.000488281 1V20.0888C-0.000488281 20.376 0.122993 20.6493 0.338501 20.8392Z" fill="#5ACF5A"/>
</svg>
