<svg xmlns="http://www.w3.org/2000/svg" width="66" height="50" viewBox="0 0 66 50" fill="none">
  <path d="M20.5902 34.8214C18.6953 34.4361 16.968 34.1212 15.2613 33.7203C14.7096 33.5902 14.2894 33.6214 13.8227 33.9442C10.43 36.2791 6.63768 37.5416 2.60816 38.1846C1.66975 38.3355 0.883439 38.1611 0.339467 37.3568C-0.214817 36.5342 -0.0395085 35.7403 0.499307 34.9489C1.91466 32.8665 2.91495 30.5784 3.71673 28.1888C3.95134 27.4886 3.8611 27.0148 3.37901 26.437C1.34233 23.9823 0.107441 21.158 0.0172089 17.9224C-0.119429 13.1145 1.96365 9.31665 5.45435 6.22682C8.75685 3.30358 12.6523 1.58296 16.9242 0.700527C23.3667 -0.629635 29.6418 -0.10642 35.6641 2.62158C39.7555 4.47496 43.1508 7.17954 45.2494 11.2976C45.5355 11.8598 45.9274 11.9483 46.4739 12.016C51.8673 12.7006 56.7991 14.5202 60.875 18.2712C64.162 21.2959 66.1008 24.9975 65.9899 29.5919C65.9126 32.778 64.7679 35.5971 62.7544 38.0206C62.1331 38.7676 62.0764 39.3872 62.3832 40.2462C63.185 42.4926 64.1105 44.674 65.4614 46.6445C65.995 47.4228 66.2297 48.2011 65.7063 49.0523C65.1546 49.9504 64.2935 50.1039 63.3396 49.9452C59.3668 49.284 55.6029 48.0423 52.2514 45.7256C51.7332 45.3664 51.3052 45.3586 50.7123 45.5148C45.2004 46.9595 39.6885 46.9777 34.2049 45.3534C28.2934 43.6067 23.4673 40.4232 20.5927 34.8162L20.5902 34.8214ZM60.0268 45.1399C59.3488 43.1252 58.7249 41.3004 58.1216 39.4653C57.7684 38.3876 57.9206 37.4219 58.8229 36.6409C59.1142 36.3884 59.3514 36.0735 59.6014 35.7767C62.9555 31.7914 62.9632 26.6088 59.635 22.6105C57.9463 20.5827 55.8736 19.0677 53.494 17.9952C47.7604 15.4078 41.8386 15.0251 35.7853 16.6026C32.1502 17.5501 28.9044 19.2291 26.2928 22.0222C22.2968 26.2938 22.3123 32.0908 26.3186 36.3676C27.5381 37.6691 28.9147 38.765 30.477 39.6084C36.8552 43.0471 43.5375 43.5156 50.4055 41.5087C51.8028 41.1 52.8237 41.2145 53.9478 42.1282C55.6931 43.5468 57.7169 44.4683 60.0268 45.1425V45.1399ZM40.9749 11.7557C40.8099 11.4928 40.7274 11.3418 40.6269 11.2065C38.9563 8.97044 36.7521 7.41641 34.2668 6.27107C28.8529 3.77474 23.2146 3.33222 17.432 4.57908C13.8124 5.36 10.5099 6.84895 7.74883 9.39734C5.37701 11.5865 3.83275 14.2208 3.87657 17.5683C3.91267 20.3979 5.10115 22.7692 7.06564 24.7189C8.01952 25.6638 8.27475 26.6504 7.83648 27.8816C7.28735 29.4253 6.74854 30.9715 6.20972 32.5177C6.12465 32.765 6.07308 33.0227 5.97254 33.3975C8.44748 32.6374 10.6027 31.6066 12.495 30.0734C13.3123 29.4096 14.1476 29.2196 15.1195 29.6283C15.434 29.7585 15.7692 29.8548 16.1018 29.9277C17.1665 30.1593 18.2364 30.3754 19.345 30.6044C19.3862 30.2843 19.4197 30.1619 19.4146 30.0396C19.2547 25.9268 20.6495 22.4022 23.4106 19.4191C27.1952 15.3271 31.9955 13.216 37.3605 12.2607C38.5283 12.0525 39.7117 11.9301 40.9698 11.7583L40.9749 11.7557Z" fill="white"/>
  <path d="M44.6089 29.4791C44.6012 30.5125 43.7711 31.3221 42.7141 31.3299C41.67 31.3377 40.747 30.4084 40.7599 29.3542C40.7702 28.4092 41.7241 27.4852 42.7012 27.4747C43.7582 27.4617 44.6193 28.3676 44.6115 29.4791H44.6089Z" fill="white"/>
  <path d="M52.364 29.507C52.3433 30.5586 51.5287 31.3343 50.451 31.3291C49.4069 31.3239 48.4943 30.3738 48.5201 29.3247C48.5458 28.385 49.5178 27.474 50.4923 27.4766C51.557 27.4792 52.3846 28.3798 52.364 29.5096V29.507Z" fill="white"/>
  <path d="M34.9072 27.4791C35.9436 27.453 36.8563 28.3719 36.8614 29.4548C36.8666 30.4517 36.0029 31.3108 34.9743 31.3316C33.9173 31.3524 33.0149 30.457 33.0098 29.3819C33.0046 28.4109 33.907 27.5051 34.9072 27.4791Z" fill="white"/>
</svg>