<svg width="16" height="16" viewBox="0 0 16 16" fill="none" xmlns="http://www.w3.org/2000/svg">
<g opacity="0.6">
<path d="M12.5283 11.2488L12.8013 13.4607C12.8713 14.0416 12.2483 14.4476 11.7513 14.1466L8.81845 12.4037C8.49646 12.4037 8.18148 12.3827 7.87349 12.3407C8.39147 11.7317 8.69946 10.9617 8.69946 10.1288C8.69946 8.14086 6.97752 6.53096 4.84961 6.53096C4.03764 6.53096 3.28868 6.76193 2.6657 7.16791C2.6447 6.99292 2.6377 6.81792 2.6377 6.63593C2.6377 3.45105 5.40259 0.868164 8.81845 0.868164C12.2343 0.868164 14.9992 3.45105 14.9992 6.63593C14.9992 8.52585 14.0262 10.1988 12.5283 11.2488Z" stroke="white" stroke-width="1.5" stroke-linecap="round" stroke-linejoin="round"/>
<path d="M8.69969 10.1291C8.69969 10.962 8.39171 11.732 7.87373 12.341C7.18076 13.181 6.0818 13.7199 4.84985 13.7199L3.02292 14.8049C2.71493 14.9939 2.32295 14.7349 2.36494 14.3779L2.53994 12.999C1.60197 12.348 1 11.305 1 10.1291C1 8.89712 1.65798 7.81218 2.66594 7.16821C3.28891 6.76222 4.03788 6.53125 4.84985 6.53125C6.97776 6.53125 8.69969 8.14115 8.69969 10.1291Z" stroke="white" stroke-width="1.5" stroke-linecap="round" stroke-linejoin="round"/>
</g>
</svg>
