<svg width="15" height="18" viewBox="0 0 15 18" fill="none" xmlns="http://www.w3.org/2000/svg">
<path d="M7.37202 1.77148C4.73981 1.77148 2.60064 3.91065 2.60064 6.54286V8.84107C2.60064 9.32616 2.39388 10.0657 2.14736 10.4792L1.23285 11.9981C0.668239 12.9365 1.0579 13.9782 2.0917 14.3281C5.51913 15.4733 9.21695 15.4733 12.6444 14.3281C13.6066 14.0101 14.0281 12.8729 13.5032 11.9981L12.5887 10.4792C12.3501 10.0657 12.1434 9.32616 12.1434 8.84107V6.54286C12.1434 3.9186 9.99627 1.77148 7.37202 1.77148Z" stroke="white" stroke-miterlimit="10" stroke-linecap="round"/>
<path d="M8.84274 2.00199C8.59622 1.93042 8.34174 1.87475 8.07932 1.84294C7.3159 1.74751 6.58429 1.80318 5.90039 2.00199C6.13101 1.41352 6.70357 1 7.37156 1C8.03956 1 8.61212 1.41352 8.84274 2.00199Z" stroke="white" stroke-miterlimit="10" stroke-linecap="round" stroke-linejoin="round"/>
<path d="M9.7577 14.6143C9.7577 15.9264 8.68414 16.9999 7.37201 16.9999C6.71993 16.9999 6.11555 16.7296 5.68613 16.3001C5.25671 15.8707 4.98633 15.2663 4.98633 14.6143" stroke="white" stroke-miterlimit="10"/>
</svg>
