<svg width="20" height="19" viewBox="0 0 20 19" fill="none" xmlns="http://www.w3.org/2000/svg">
<path d="M13.9943 5.99902C15.5856 5.99902 17.1118 6.63118 18.237 7.75643C19.3623 8.88168 19.9945 10.4078 19.9945 11.9992V18.9994H15.9943V11.9992C15.9943 11.4687 15.7836 10.96 15.4085 10.5849C15.0335 10.2098 14.5247 9.99913 13.9943 9.99913C13.4638 9.99913 12.9551 10.2098 12.58 10.5849C12.205 10.96 11.9942 11.4687 11.9942 11.9992V18.9994H7.99414V11.9992C7.99414 10.4078 8.6263 8.88168 9.75155 7.75643C10.8768 6.63118 12.403 5.99902 13.9943 5.99902Z" fill="white"/>
<path d="M4.0001 6.99805H0V18.9984H4.0001V6.99805Z" fill="white"/>
<path d="M2.00005 4.0001C3.10465 4.0001 4.0001 3.10465 4.0001 2.00005C4.0001 0.895454 3.10465 0 2.00005 0C0.895454 0 0 0.895454 0 2.00005C0 3.10465 0.895454 4.0001 2.00005 4.0001Z" fill="white"/>
</svg>
