<svg width="20" height="20" viewBox="0 0 20 20" fill="none" xmlns="http://www.w3.org/2000/svg">
<path d="M10.0084 0C4.48088 0 0 4.47344 0 9.9918C0 14.227 2.63602 17.8453 6.359 19.3008C6.26783 18.5117 6.19466 17.2941 6.39147 16.4309C6.57263 15.6492 7.56099 11.4633 7.56099 11.4633C7.56099 11.4633 7.2648 10.8633 7.2648 9.9832C7.2648 8.59336 8.072 7.55742 9.07679 7.55742C9.93329 7.55742 10.3457 8.19922 10.3457 8.96406C10.3457 9.81914 9.80221 11.1023 9.51345 12.2949C9.27478 13.2898 10.0159 14.1039 10.996 14.1039C12.7755 14.1039 14.143 12.2289 14.143 9.53125C14.143 7.13789 12.4218 5.46875 9.95872 5.46875C7.10907 5.46875 5.43637 7.59883 5.43637 9.80273C5.43637 10.6578 5.76622 11.5793 6.17745 12.0813C6.26079 12.1789 6.26939 12.2695 6.24435 12.368C6.17001 12.6805 5.99746 13.3629 5.96381 13.5031C5.92273 13.684 5.81512 13.7246 5.62575 13.6348C4.37367 13.0508 3.59073 11.2332 3.59073 9.76133C3.59073 6.61133 5.88047 3.71719 10.2052 3.71719C13.6735 3.71719 16.3745 6.18477 16.3745 9.49063C16.3745 12.7965 14.2001 15.7082 11.185 15.7082C10.1716 15.7082 9.21569 15.1816 8.89524 14.5566C8.89524 14.5566 8.39284 16.4641 8.2692 16.9332C8.04735 17.8047 7.43696 18.8906 7.02534 19.5566C7.96518 19.8434 8.95432 20 9.99198 20C15.5195 20 20.0004 15.5266 20.0004 10.0082C20.0164 4.47344 15.536 0 10.0084 0Z" fill="white"/>
</svg>
