<svg width="66" height="56" viewBox="0 0 66 56" fill="none" xmlns="http://www.w3.org/2000/svg">
<path d="M1 16.8818H31.1765" stroke="white" stroke-width="1.5" stroke-miterlimit="10" stroke-linecap="round" stroke-linejoin="round"/>
<path d="M13.707 42.2949H20.06" stroke="white" stroke-width="1.5" stroke-miterlimit="10" stroke-linecap="round" stroke-linejoin="round"/>
<path d="M28 42.2949H40.7059" stroke="white" stroke-width="1.5" stroke-miterlimit="10" stroke-linecap="round" stroke-linejoin="round"/>
<path d="M64.5294 28.0953V41.0553C64.5294 52.2047 61.7023 55 50.4259 55H15.1035C3.82706 55 1 52.2047 1 41.0553V14.9447C1 3.79529 3.82706 1 15.1035 1H40.7059" stroke="white" stroke-width="1.5" stroke-linecap="round" stroke-linejoin="round"/>
<path d="M55.2546 3.001L43.4699 14.7857C43.0252 15.2304 42.5805 16.1198 42.4852 16.7551L41.8499 21.2657C41.6276 22.8857 42.7711 24.0292 44.3911 23.8069L48.9017 23.1716C49.537 23.0763 50.4264 22.6316 50.8711 22.1869L62.6558 10.4022C64.6887 8.36923 65.6417 6.01865 62.6558 3.03276C59.6381 0.0151146 57.2876 0.968057 55.2546 3.001Z" stroke="white" stroke-width="1.5" stroke-miterlimit="10" stroke-linecap="round" stroke-linejoin="round"/>
<path d="M53.5703 4.68481C54.5868 8.27423 57.3821 11.0695 60.9397 12.0542" stroke="white" stroke-width="1.5" stroke-miterlimit="10" stroke-linecap="round" stroke-linejoin="round"/>
</svg>
