<svg width="60" height="60" viewBox="0 0 60 60" fill="none" xmlns="http://www.w3.org/2000/svg">
<path d="M44.5 59.0002H15.5C3.9 59.0002 1 56.1002 1 44.5002V38.7002C1 27.1002 3.9 24.2002 15.5 24.2002H44.5C56.1 24.2002 59 27.1002 59 38.7002V44.5002C59 56.1002 56.1 59.0002 44.5 59.0002Z" stroke="white" stroke-width="1.5" stroke-linecap="round" stroke-linejoin="round"/>
<path d="M12.5996 24.2V18.4C12.5996 8.801 15.4996 1 29.9996 1C43.0496 1 47.3996 6.8 47.3996 15.5" stroke="white" stroke-width="1.5" stroke-linecap="round" stroke-linejoin="round"/>
<path d="M30 48.8496C34.0041 48.8496 37.25 45.6037 37.25 41.5996C37.25 37.5955 34.0041 34.3496 30 34.3496C25.9959 34.3496 22.75 37.5955 22.75 41.5996C22.75 45.6037 25.9959 48.8496 30 48.8496Z" stroke="white" stroke-width="1.5" stroke-linecap="round" stroke-linejoin="round"/>
</svg>
