<svg width="18" height="18" viewBox="0 0 18 18" fill="none" xmlns="http://www.w3.org/2000/svg">
<path d="M7.61846 11.0089C7.14354 11.5553 6.67932 12.0895 6.21509 12.624C4.69198 14.377 3.16829 16.1295 1.64778 17.8846C1.57402 17.9699 1.49824 18.0012 1.38775 17.9997C0.982822 17.9939 0.577893 17.9977 0.172963 17.9971C0.126107 17.9971 0.0795398 17.9928 0 17.9887C0.158212 17.8056 0.297913 17.6434 0.438192 17.482C2.429 15.1907 4.41981 12.899 6.41062 10.6077C6.55928 10.4368 6.70419 10.2627 6.85806 10.0966C6.92054 10.0295 6.91678 9.98383 6.86645 9.91181C6.06267 8.75748 5.26177 7.60111 4.45972 6.44533C3.52867 5.10356 2.59676 3.76209 1.66542 2.42061C1.13004 1.64864 0.594668 0.876674 0.0590041 0.104705C0.0430961 0.081566 0.0289236 0.056981 0.000578471 0.011571C0.0673919 0.00810016 0.11743 0.00318315 0.167178 0.00318315C1.82045 0.00260468 3.47401 0.00376162 5.12728 1.56027e-06C5.23864 -0.000287675 5.30111 0.0396268 5.36156 0.127265C6.53267 1.81843 7.70668 3.50785 8.87953 5.19785C9.17079 5.61725 9.4609 6.0375 9.75187 6.45719C9.78715 6.50838 9.82389 6.55842 9.87045 6.62407C10.0235 6.44967 10.1689 6.28538 10.313 6.11965C12.051 4.11929 13.789 2.11894 15.525 0.116853C15.5936 0.0376022 15.6621 -0.00144462 15.7706 0.000290796C16.1801 0.00636474 16.59 0.00260468 16.9998 0.00289392C17.0464 0.00289392 17.093 0.00752168 17.1716 0.0118602C16.9871 0.225895 16.8231 0.417947 16.6574 0.608553C14.6599 2.90682 12.663 5.20566 10.6624 7.50104C10.5788 7.59677 10.5823 7.65983 10.6508 7.75817C12.3316 10.175 14.0091 12.5936 15.6878 15.0119C16.3418 15.9539 16.9966 16.8951 17.6506 17.8372C17.6804 17.8803 17.7082 17.9248 17.7507 17.9899C17.6818 17.9931 17.6315 17.9971 17.5815 17.9971C15.9328 17.9974 14.2845 17.9962 12.6358 18C12.5152 18.0003 12.4473 17.9595 12.3793 17.8612C11.1732 16.1179 9.96272 14.3776 8.75371 12.6364C8.39651 12.1222 8.04075 11.6067 7.68383 11.0919C7.66735 11.0688 7.64855 11.0474 7.61846 11.0089ZM15.6161 16.8827C15.5805 16.8257 15.558 16.7849 15.5314 16.747C15.2647 16.369 14.9972 15.9918 14.7305 15.6141C12.744 12.8001 10.7575 9.98615 8.77107 7.17246C7.38737 5.2126 6.0028 3.25361 4.62112 1.29202C4.55951 1.20438 4.49761 1.16504 4.38655 1.16562C3.67792 1.17083 2.96958 1.16793 2.26095 1.16822C2.21959 1.16822 2.17852 1.17285 2.11749 1.17661C2.15914 1.23909 2.18951 1.28652 2.22191 1.33251C3.92869 3.74849 5.63576 6.1639 7.34225 8.57989C9.27376 11.3146 11.205 14.0496 13.1333 16.7869C13.1923 16.8705 13.2548 16.8922 13.3485 16.8916C14.0522 16.8888 14.7559 16.8902 15.4599 16.8896C15.5051 16.8902 15.551 16.8859 15.6161 16.8827Z" fill="white"/>
</svg>
