<svg width="29" height="26" viewBox="0 0 29 26" fill="none" xmlns="http://www.w3.org/2000/svg">
<path d="M15.1941 6.67253V8.91677C15.3348 8.93146 15.489 8.9596 15.6432 8.96082C17.2744 8.9645 18.9056 8.96694 20.5367 8.95838C20.7313 8.95838 20.9589 8.94002 21.1155 8.8409C21.8718 8.36489 22.6097 7.85828 23.3072 7.39206C23.2729 6.89769 23.1738 6.45227 23.2252 6.02398C23.3647 4.86148 24.4868 4.03794 25.5783 4.24107C26.7788 4.46378 27.5876 5.56754 27.3612 6.67376C27.1092 7.90234 26.0103 8.65857 24.8294 8.35265C24.4281 8.24864 24.1503 8.3086 23.8297 8.5411C23.2203 8.98407 22.5705 9.36954 21.9587 9.80884C21.561 10.094 21.151 10.2188 20.6554 10.2114C19.0451 10.1857 17.4347 10.2004 15.8231 10.2029C15.6249 10.2029 15.4254 10.22 15.1978 10.2298V12.3468H24.0047C24.7279 11.1304 25.5942 10.6764 26.6234 10.9726C27.5766 11.2479 28.1689 12.0665 28.1468 13.0785C28.126 14.0012 27.4934 14.7941 26.5866 15.0352C25.5575 15.3081 24.6777 14.837 24.0157 13.6414H15.2027V15.8061C15.4156 15.8061 15.631 15.8061 15.8463 15.8061C17.5179 15.8061 19.1907 15.8122 20.8622 15.8012C21.2036 15.7988 21.4912 15.882 21.7714 16.0778C22.4053 16.5208 23.0612 16.9331 23.6963 17.3749C24.072 17.6368 24.406 17.775 24.9163 17.6539C26.0482 17.3847 27.0835 18.103 27.3612 19.23C27.6207 20.2848 26.9807 21.3751 25.9002 21.7165C24.4452 22.1766 22.9817 20.937 23.2068 19.4307C23.2423 19.1921 23.3108 18.9583 23.3769 18.6671C22.6133 18.158 21.8412 17.6355 21.0568 17.1302C20.9479 17.0604 20.7876 17.0457 20.6505 17.0457C18.8566 17.0408 17.0627 17.042 15.2174 17.042V19.2765C15.3471 19.2912 15.5 19.3218 15.6542 19.323C16.4288 19.3279 17.2034 19.3352 17.978 19.323C18.3598 19.3157 18.6425 19.4368 18.8444 19.7745C18.9998 20.0364 19.1919 20.2762 19.3742 20.5222C19.7193 20.9897 20.0265 21.4375 20.6469 21.67C21.4839 21.9833 21.9109 22.9928 21.7506 23.847C21.5854 24.728 20.8708 25.4341 19.9922 25.5834C19.1295 25.7302 18.2117 25.2603 17.8006 24.4625C17.3906 23.6683 17.5387 22.6735 18.1677 22.0322C18.2949 21.9025 18.4357 21.7851 18.5642 21.6688C18.5617 21.6162 18.5739 21.5685 18.5556 21.5403C18.133 20.8999 17.5371 20.5797 16.7678 20.5797H15.1672C15.1672 21.0778 15.1476 21.5403 15.1709 22.0004C15.248 23.5349 14.4881 24.6081 13.2583 25.3766C11.6063 26.4094 9.52479 26.134 8.1665 24.7354C7.9499 24.5126 7.748 24.3988 7.43351 24.3976C4.0855 24.3891 1.42521 20.8734 2.81287 17.3663C2.84958 17.2733 2.88262 17.1803 2.93279 17.0469C1.12296 16.0484 0.035104 14.5629 0.000840782 12.4581C-0.0334224 10.3497 0.981013 8.8201 2.77127 7.77997C2.8092 7.14487 2.77616 6.50489 2.89731 5.89671C3.33906 3.67817 4.95922 2.12531 7.17042 1.76555C7.45921 1.71905 7.64276 1.60402 7.83121 1.40334C9.03409 0.127034 10.5123 -0.29269 12.1741 0.201679C13.8175 0.691154 14.783 1.86712 15.1256 3.54479C15.1697 3.76138 15.1599 3.99021 15.1635 4.21415C15.1684 4.59594 15.1648 4.97895 15.1648 5.41825C16.0336 5.41825 16.8437 5.42804 17.6525 5.40724C17.7847 5.40357 17.945 5.28977 18.038 5.17963C18.2472 4.93367 18.421 4.65957 18.618 4.38546C18.4455 4.22394 18.2913 4.09178 18.1518 3.94616C17.3258 3.08101 17.4114 1.65419 18.3317 0.900404C19.2898 0.116021 20.6983 0.310587 21.3958 1.3238C22.0969 2.34191 21.802 3.7883 20.6824 4.30959C20.0668 4.59594 19.6961 5.03034 19.3253 5.5394C18.3635 6.85608 18.8138 6.65295 17.1655 6.67008C16.5182 6.67743 15.8708 6.67008 15.1953 6.67008L15.1941 6.67253ZM13.908 8.30738C13.908 6.74351 13.9863 5.31669 13.8836 3.90455C13.7979 2.72003 13.0869 1.87813 11.9428 1.46697C10.8207 1.06438 9.8197 1.32013 8.93252 2.07881C8.65108 2.31988 8.46997 2.61356 8.39165 3.00392C8.27418 3.58639 8.38187 4.13583 8.48343 4.6975C8.55441 5.08786 8.37697 5.36196 8.03923 5.44273C7.7174 5.51982 7.469 5.38644 7.31971 5.03769C7.26464 4.9092 7.22426 4.76725 7.2059 4.62898C7.1435 4.12726 7.09455 3.62433 7.03826 3.11038C6.98442 3.11038 6.92078 3.09692 6.86694 3.11283C4.9531 3.64268 3.73186 5.61404 4.1112 7.55726C4.28007 8.42118 4.2507 8.47624 3.44674 8.8617C1.7348 9.68157 0.847631 11.5844 1.37015 13.4101C1.72012 14.6351 2.5094 15.4892 3.67312 15.9677C4.05981 15.6813 4.38286 15.3937 4.74997 15.1833C5.11707 14.974 5.51722 14.8039 5.92226 14.6865C6.30894 14.5739 6.71888 14.5139 7.12147 14.4956C7.49592 14.4796 7.77002 14.7525 7.80184 15.0707C7.83365 15.3876 7.60605 15.6519 7.21936 15.7315C7.06029 15.7645 6.89631 15.7768 6.73478 15.7951C5.03876 15.9885 3.72329 17.4238 3.66823 19.1419C3.59725 21.4069 5.41565 23.218 7.73209 23.1458C8.24604 23.1299 8.58377 23.2437 8.92274 23.6732C9.67285 24.6203 10.6934 24.9287 11.8743 24.6179C12.9523 24.334 13.8872 23.311 13.9105 22.3504C13.935 21.3115 13.946 20.2701 13.9117 19.2312C13.8505 17.3651 12.5877 16.0105 10.7485 15.7816C10.5661 15.7596 10.3801 15.7462 10.2064 15.6911C9.8662 15.5822 9.6961 15.2224 9.83316 14.9116C9.98612 14.5629 10.281 14.4576 10.6371 14.4894C11.676 14.5837 12.6232 14.9079 13.4308 15.5908C13.563 15.7021 13.7037 15.8025 13.9019 15.9542C13.9019 14.3401 13.957 12.8142 13.8848 11.2944C13.826 10.0842 13.2044 9.13704 12.141 8.51418C11.6197 8.20948 11.0483 8.10057 10.4499 8.05407C10.0081 8.01981 9.7732 7.74326 9.79033 7.39695C9.80868 7.03107 10.1219 6.7692 10.5698 6.79735C10.9124 6.81937 11.2563 6.88301 11.5928 6.95887C12.4494 7.15099 13.1604 7.61355 13.908 8.30738ZM19.6594 1.65787C19.2066 1.66276 18.8224 2.0678 18.8321 2.53158C18.8432 3.01738 19.209 3.35634 19.701 3.33921C20.1378 3.3233 20.5123 2.94518 20.5159 2.51689C20.5196 2.06535 20.1097 1.65419 19.6594 1.65909V1.65787ZM19.6716 24.3401C20.1244 24.3315 20.5282 23.9155 20.5172 23.4676C20.5061 23.0198 20.0889 22.6416 19.6251 22.66C19.165 22.6783 18.837 23.0185 18.8321 23.4823C18.8285 23.9485 19.2188 24.3475 19.6716 24.3389V24.3401ZM26.9097 13.0051C26.9134 12.5609 26.4936 12.1449 26.0482 12.1534C25.6273 12.1608 25.2296 12.5474 25.21 12.9696C25.1892 13.4126 25.5955 13.8458 26.0384 13.8507C26.4875 13.8556 26.906 13.4505 26.9097 13.0051ZM26.1021 6.31032C26.091 5.82819 25.7105 5.48188 25.221 5.50758C24.756 5.53206 24.4391 5.87714 24.4476 6.35193C24.4562 6.84018 24.8258 7.17914 25.3226 7.15466C25.7827 7.13141 26.1131 6.77287 26.1021 6.31154V6.31032ZM26.1021 19.6546C26.0923 19.1749 25.7129 18.8237 25.2247 18.8445C24.7597 18.8641 24.4391 19.2104 24.4464 19.684C24.4538 20.1722 24.8221 20.5161 25.3165 20.4928C25.7741 20.472 26.1118 20.1123 26.1021 19.6546Z" fill="#0DC167"/>
</svg>
