<svg width="26" height="26" viewBox="0 0 26 26" fill="none" xmlns="http://www.w3.org/2000/svg">
<path d="M1.85331 17.6645C2.04135 17.4596 2.16822 17.3316 2.28376 17.1934C2.94756 16.3962 3.6057 15.5934 4.27064 14.7973C5.78628 12.9832 8.11413 12.9752 9.63883 14.778C9.9662 15.1653 10.2879 15.5583 10.7104 16.0678C10.8271 15.8923 10.9041 15.7428 11.0117 15.6194C11.9519 14.5368 12.9375 13.4905 13.8346 12.3728C15.3401 10.4975 17.9454 10.561 19.4158 12.3547C20.7909 14.0318 22.2601 15.6319 23.6897 17.2648C23.812 17.4052 23.9412 17.54 24.1473 17.7664C24.1666 17.5184 24.1881 17.369 24.1881 17.2184C24.1904 15.1427 24.1893 13.067 24.1904 10.9913C24.1904 10.8214 24.1836 10.6504 24.204 10.4828C24.2584 10.0367 24.5982 9.71731 25.0275 9.69353C25.467 9.66862 25.8329 9.93247 25.9416 10.3741C25.9813 10.536 25.9904 10.7104 25.9904 10.878C25.9926 13.9729 26.0107 17.0666 25.987 20.1615C25.9654 22.9914 24.1643 25.2437 21.4706 25.8439C21.0141 25.9458 20.5361 25.9888 20.0671 25.99C15.348 26.0002 10.63 26.0047 5.91089 25.9934C3.05178 25.9866 0.772647 24.1974 0.158686 21.4875C0.0590023 21.0493 0.011426 20.5907 0.0102932 20.1422C9.82738e-05 15.3873 -0.00556557 10.6323 0.00802766 5.87733C0.0148243 3.03046 1.82499 0.750933 4.5425 0.149626C4.99901 0.0488419 5.47704 0.0103402 5.946 0.00807538C8.98522 -0.00438107 12.0244 0.000148552 15.0625 0.00467817C15.2857 0.00467817 15.5202 0.018267 15.7309 0.0839465C16.1353 0.209643 16.3482 0.581072 16.3108 1.01139C16.2746 1.42471 15.9767 1.74518 15.5542 1.80067C15.3684 1.82558 15.1769 1.81766 14.9889 1.81766C11.9689 1.81879 8.94898 1.81313 5.92901 1.82106C4.12564 1.82558 2.67117 2.78473 2.09685 4.37689C1.9394 4.81287 1.83632 5.29414 1.83405 5.75503C1.81366 9.62332 1.82159 13.4916 1.82272 17.3588C1.82272 17.4279 1.83632 17.4947 1.85331 17.6645ZM12.9397 24.1793C15.3174 24.1793 17.6951 24.1894 20.0728 24.1759C22.071 24.1645 23.6195 22.9019 24.0284 21.0278C24.1122 20.6439 24.0148 20.3959 23.7701 20.1196C21.8195 17.9159 19.8813 15.7009 17.9386 13.4905C17.0653 12.4962 16.0843 12.5087 15.2053 13.5165C13.9536 14.9524 12.7007 16.3894 11.4433 17.8208C10.8316 18.5172 10.3174 18.5025 9.71699 17.7846C9.2333 17.2059 8.75867 16.6193 8.27158 16.0418C7.41521 15.0249 6.39798 15.0249 5.56313 16.0395C4.4836 17.3497 3.44032 18.6916 2.31321 19.9599C1.85897 20.4706 1.83179 20.9383 2.04701 21.5022C2.12064 21.6959 2.19654 21.8907 2.29849 22.0707C3.09256 23.4783 4.31482 24.1691 5.91882 24.1759C8.25912 24.186 10.5994 24.1793 12.9397 24.1793Z" fill="#2490E9"/>
<path d="M22.3844 5.44101C22.3844 6.24275 22.3856 6.95843 22.3844 7.67411C22.3844 7.86322 22.3958 8.05347 22.3697 8.23918C22.2949 8.77368 21.9064 9.09188 21.3955 9.05678C20.9164 9.02394 20.5867 8.68195 20.5743 8.15086C20.5561 7.43404 20.5686 6.71723 20.5675 5.99929C20.5675 5.84981 20.5675 5.70033 20.5675 5.49084C20.3794 5.47272 20.2197 5.44554 20.06 5.44441C19.3611 5.43875 18.6633 5.45007 17.9644 5.43875C17.3232 5.42969 16.9517 5.09563 16.9483 4.54981C16.9449 4.00286 17.313 3.64615 17.944 3.62916C18.5851 3.61105 19.2274 3.62463 19.8697 3.6235C20.0747 3.6235 20.2809 3.6235 20.5675 3.6235C20.5675 3.17167 20.5675 2.76287 20.5675 2.35521C20.5675 1.9215 20.5833 1.48665 20.5641 1.05294C20.5346 0.378031 20.9651 0.0405744 21.442 0.0111319C21.9755 -0.0217078 22.3686 0.4154 22.381 1.05974C22.3946 1.7573 22.3833 2.45599 22.3856 3.15469C22.3856 3.28378 22.3992 3.41287 22.4105 3.6235C22.6654 3.6235 22.9021 3.6235 23.14 3.6235C23.763 3.6235 24.386 3.60878 25.0091 3.62916C25.6106 3.64842 26.0195 4.05495 26.0014 4.57019C25.9832 5.07638 25.597 5.42742 25.0079 5.43648C24.1617 5.45007 23.3156 5.44101 22.3844 5.44101Z" fill="#2490E9"/>
<path d="M6.97015 10.2807C5.14526 10.2829 3.6534 8.8074 3.63301 6.9797C3.61262 5.15993 5.16565 3.60627 6.98601 3.62778C8.8143 3.6493 10.2903 5.14181 10.2869 6.96611C10.2835 8.79042 8.79504 10.2784 6.97015 10.2807ZM8.47107 6.92874C8.45521 6.10435 7.73477 5.41698 6.92144 5.45096C6.10585 5.48493 5.4545 6.15644 5.45564 6.96045C5.45677 7.78597 6.15342 8.47221 6.98148 8.46315C7.81066 8.45522 8.48693 7.75766 8.47107 6.92874Z" fill="#2490E9"/>
</svg>
