<svg width="36" height="30" viewBox="0 0 36 30" fill="none" xmlns="http://www.w3.org/2000/svg">
<path d="M4.5756 25.4889C4.5756 23.7595 4.5756 22.0618 4.5756 20.3641C4.5756 20.181 4.57147 19.9965 4.5756 19.8134C4.5935 19.0946 4.75872 18.9129 5.47333 18.9046C6.68913 18.8922 7.90493 18.9005 9.12211 18.9005C9.37133 18.9005 9.61917 18.9005 9.96477 18.9005C9.52692 17.7136 9.12073 16.6135 8.6994 15.472H4.47646C4.18731 16.1426 3.77011 16.7952 2.97014 16.9715C2.51851 17.0706 2.0008 17.0871 1.55744 16.9701C0.570207 16.7085 -0.0480195 15.7446 0.00292568 14.7202C0.0483632 13.7853 0.778118 12.8876 1.66759 12.6687C2.85861 12.3754 3.7412 12.8545 4.49574 14.2218H8.41301C8.24227 13.0748 8.07567 11.9637 7.89667 10.7658C7.21511 10.7658 6.55557 10.7658 5.89742 10.7658C5.69088 10.7658 5.48435 10.774 5.27781 10.7603C4.78351 10.73 4.62104 10.584 4.58386 10.098C4.5577 9.75514 4.57422 9.40954 4.57422 9.06531C4.57422 7.5521 4.57422 6.0389 4.57422 4.48713C3.87063 4.19248 3.3061 3.7505 3.04724 3.0111C2.87513 2.51817 2.87926 2.02249 3.04724 1.52681C3.35842 0.622187 4.33602 -0.0469842 5.28195 0.00258404C6.31186 0.056283 7.23714 0.839737 7.41063 1.84212C7.59651 2.91197 7.0664 3.96529 5.82857 4.46235V9.5486H7.7755C7.72456 8.84639 7.69564 8.16758 7.62404 7.49428C7.48773 6.21652 7.63368 6.03339 8.87702 6.20412C12.0521 6.63922 14.6944 5.63822 16.8685 3.3154C17.4496 2.69442 17.6217 2.73022 18.2785 3.29612C19.0564 3.96804 19.8426 4.64961 20.7087 5.19624C22.4023 6.26746 24.2804 6.57451 26.2521 6.21927C27.6372 5.96867 27.7777 6.3845 27.5945 7.46261C27.4816 8.13178 27.4927 8.82298 27.4445 9.54723H29.5608V4.46235C28.9122 4.18835 28.305 3.75738 28.1081 3.00284C27.998 2.58013 27.9704 2.0872 28.0737 1.66725C28.3257 0.635956 29.3047 -0.0442304 30.318 0.00258404C31.3273 0.0493985 32.1672 0.752992 32.4275 1.7719C32.7028 2.85138 32.1824 3.75876 30.822 4.51743C30.822 5.86816 30.822 7.2423 30.822 8.61782C30.822 9.0543 30.8303 9.4894 30.8206 9.92587C30.8055 10.6171 30.6623 10.7589 29.9559 10.7658C29.0885 10.774 28.2224 10.7672 27.3316 10.7672C27.1484 11.9361 26.9763 13.0363 26.7946 14.197H30.7697C31.0671 13.5609 31.4705 12.9165 32.2347 12.7347C32.7056 12.6232 33.2508 12.6108 33.7162 12.7306C34.6511 12.9702 35.279 13.956 35.2446 14.9378C35.2115 15.9071 34.4804 16.8145 33.5524 17.0403C32.3861 17.3239 31.4829 16.82 30.7449 15.4569H26.5233C26.1061 16.5694 25.6834 17.6929 25.2304 18.9019C25.4934 18.9019 25.7151 18.9019 25.9368 18.9019C27.2448 18.9019 28.5529 18.8964 29.8609 18.9046C30.6609 18.9087 30.8192 19.0726 30.822 19.8836C30.8261 21.7424 30.822 23.5998 30.822 25.4972C31.5091 25.829 32.119 26.2421 32.3641 27.0297C32.5128 27.5102 32.5169 27.9715 32.3572 28.4451C32.0405 29.3855 31.1208 30.0382 30.1542 29.9983C29.1257 29.9556 28.2458 29.2134 28.0021 28.1821C27.7556 27.1412 28.2981 26.2118 29.5842 25.4999V20.1755C29.4286 20.1521 29.2785 20.1122 29.127 20.1108C27.7501 20.1053 26.3732 20.119 24.9963 20.0998C24.6356 20.0942 24.4098 20.2058 24.2005 20.5046C22.7107 22.6291 20.7128 24.1134 18.3432 25.1309C17.8737 25.332 17.4523 25.3691 16.9622 25.164C14.5402 24.1478 12.4776 22.6856 10.9782 20.4963C10.8322 20.2843 10.7069 20.0998 10.3957 20.1039C8.92797 20.1232 7.45882 20.119 5.99105 20.1273C5.95112 20.1273 5.91119 20.1617 5.82995 20.1989V25.5123C7.14075 26.1884 7.66948 27.1109 7.40099 28.2413C7.16416 29.2396 6.22374 29.9914 5.20209 29.9996C4.17767 30.0079 3.26617 29.2837 3.00594 28.2551C2.71541 27.104 3.19182 26.2448 4.57697 25.4903L4.5756 25.4889ZM17.6052 4.35495C15.1942 6.90359 12.2284 7.77654 8.82745 7.45021C8.91557 8.35484 9.00232 9.17271 9.07529 9.99334C9.2419 11.888 9.54482 13.7605 10.0598 15.5932C11.1448 19.4471 13.3836 22.3221 17.137 23.9124C17.4812 24.0583 17.7635 24.0556 18.1064 23.9069C21.5252 22.4185 23.753 19.8657 24.9192 16.3477C25.7605 13.8087 26.0717 11.1761 26.2961 8.5297C26.3264 8.17722 26.3003 7.8206 26.3003 7.45985C22.8883 7.90459 20.1001 6.64198 17.6052 4.35633V4.35495ZM2.26241 13.7853C1.69926 13.7853 1.22974 14.2659 1.22836 14.8469C1.22836 15.4362 1.68136 15.8975 2.26379 15.8975C2.83658 15.8975 3.30885 15.4197 3.30748 14.8455C3.30472 14.2755 2.82419 13.7881 2.26379 13.7867L2.26241 13.7853ZM32.9823 15.8975C33.5634 15.9002 34.0205 15.439 34.0191 14.8497C34.0191 14.2686 33.5524 13.7867 32.9878 13.7867C32.4275 13.7867 31.9442 14.2741 31.9414 14.8441C31.9387 15.4197 32.4082 15.8961 32.9823 15.8988V15.8975ZM6.21273 2.28548C6.21961 1.69754 5.7735 1.23491 5.19382 1.22802C4.61966 1.22251 4.1405 1.6824 4.13086 2.25243C4.12122 2.82247 4.58524 3.29612 5.16216 3.30438C5.75147 3.31264 6.20584 2.87204 6.21273 2.28548ZM5.18281 26.6951C4.60589 26.6951 4.13086 27.1619 4.13086 27.7278C4.13086 28.295 4.60589 28.7673 5.17868 28.7701C5.75835 28.7728 6.2141 28.3143 6.21548 27.7305C6.21686 27.1412 5.77212 26.6951 5.18143 26.6951H5.18281ZM30.2244 28.7701C30.8027 28.7783 31.2667 28.324 31.2722 27.7415C31.2791 27.1495 30.8399 26.7006 30.2506 26.6951C29.6695 26.6896 29.1959 27.1453 29.1904 27.7167C29.1849 28.2868 29.6516 28.7618 30.2244 28.7715V28.7701ZM30.2712 3.303C30.8578 3.29061 31.2901 2.83211 31.275 2.23866C31.2598 1.65624 30.7903 1.21012 30.2093 1.22802C29.6379 1.24592 29.1752 1.73334 29.1917 2.29925C29.2083 2.8679 29.6888 3.3154 30.2712 3.303Z" fill="#DC30B7"/>
<path d="M18.2118 15.6386C18.2118 16.3009 18.2118 16.9411 18.2118 17.5814C18.2118 17.7645 18.2118 17.9476 18.2008 18.1307C18.1774 18.4901 17.9529 18.6856 17.6211 18.6829C17.292 18.6801 17.0607 18.4819 17.0511 18.1211C17.0359 17.5249 17.0332 16.9301 17.0277 16.3339C17.0249 16.1067 17.0277 15.8795 17.0277 15.684C15.5076 14.7821 14.9899 13.8252 15.3423 12.6328C15.6425 11.618 16.6284 10.8841 17.6555 10.9131C18.735 10.9433 19.6809 11.7213 19.926 12.7815C20.1945 13.9422 19.619 14.9281 18.2118 15.6399V15.6386ZM17.6142 12.1192C17.0001 12.1165 16.4907 12.6232 16.4714 13.2538C16.4521 13.9202 16.9561 14.4489 17.6101 14.4489C18.2448 14.4489 18.7295 13.9698 18.7446 13.3268C18.7612 12.6535 18.2627 12.122 17.6128 12.1192H17.6142Z" fill="#DC30B7"/>
</svg>
