<svg width="16" height="16" viewBox="0 0 16 16" fill="none" xmlns="http://www.w3.org/2000/svg">
<path d="M14.979 12.4271C14.979 12.6791 14.923 12.9381 14.804 13.1901C14.685 13.4421 14.531 13.6801 14.328 13.9041C13.985 14.2821 13.607 14.5551 13.18 14.7301C12.76 14.9051 12.305 14.9961 11.815 14.9961C11.101 14.9961 10.338 14.8281 9.533 14.4851C8.728 14.1421 7.923 13.6801 7.125 13.0991C6.32 12.5111 5.557 11.8601 4.829 11.1391C4.108 10.4111 3.457 9.64809 2.876 8.85009C2.302 8.05209 1.84 7.25409 1.504 6.46309C1.168 5.66509 1 4.90209 1 4.17409C1 3.69809 1.084 3.24309 1.252 2.82309C1.42 2.39609 1.686 2.00409 2.057 1.65409C2.505 1.21309 2.995 0.996094 3.513 0.996094C3.709 0.996094 3.905 1.03809 4.08 1.12209C4.262 1.20609 4.423 1.33209 4.549 1.51409L6.173 3.80309C6.299 3.97809 6.39 4.13909 6.453 4.29309C6.516 4.44009 6.551 4.58709 6.551 4.72009C6.551 4.88809 6.502 5.05609 6.404 5.21709C6.313 5.37809 6.18 5.54609 6.012 5.71409L5.48 6.26709C5.403 6.34409 5.368 6.43509 5.368 6.54709C5.368 6.60309 5.375 6.65209 5.389 6.70809C5.41 6.76409 5.431 6.80609 5.445 6.84809C5.571 7.07909 5.788 7.38009 6.096 7.74409C6.411 8.10809 6.747 8.47909 7.111 8.85009C7.489 9.22109 7.853 9.56409 8.224 9.87909C8.588 10.1871 8.889 10.3971 9.127 10.5231C9.162 10.5371 9.204 10.5581 9.253 10.5791C9.309 10.6001 9.365 10.6071 9.428 10.6071C9.547 10.6071 9.638 10.5651 9.715 10.4881L10.247 9.96309C10.422 9.78809 10.59 9.65509 10.751 9.57109C10.912 9.47309 11.073 9.42409 11.248 9.42409C11.381 9.42409 11.521 9.45209 11.675 9.51509C11.829 9.57809 11.99 9.66909 12.165 9.78809L14.482 11.4331C14.664 11.5591 14.79 11.7061 14.867 11.8811C14.937 12.0561 14.979 12.2311 14.979 12.4271Z" stroke="white" stroke-miterlimit="10"/>
<path d="M12.5496 5.89629C12.5496 5.47629 12.2206 4.83229 11.7306 4.30729C11.2826 3.82429 10.6876 3.44629 10.0996 3.44629" stroke="white" stroke-linecap="round" stroke-linejoin="round"/>
<path d="M14.9996 5.89609C14.9996 3.18709 12.8086 0.996094 10.0996 0.996094" stroke="white" stroke-linecap="round" stroke-linejoin="round"/>
</svg>
