<svg width="113" height="100" viewBox="0 0 113 100" fill="none" xmlns="http://www.w3.org/2000/svg">
<g id="icon">
<path id="Vector" fill-rule="evenodd" clip-rule="evenodd" d="M110.516 0.00927734H84.7912H81.5942C73.0081 7.12499 67.5381 17.8626 67.5381 29.8885C67.5381 30.59 67.5583 31.2847 67.592 31.9727C67.5583 32.6944 67.5381 33.416 67.5381 34.1445C67.5381 35.1764 67.5786 36.1949 67.646 37.2066C67.7269 38.3397 67.8551 39.4526 68.0237 40.552C68.1721 41.557 68.3609 42.5484 68.5835 43.5264C70.2899 51.0738 74.0063 57.859 79.1458 63.2886C79.2335 63.3425 79.3212 63.3897 79.4089 63.4369C80.2182 63.8821 80.5487 63.7674 80.4948 62.8164C80.4745 62.4859 80.4948 62.1487 80.4948 61.8182C80.4948 48.3759 80.488 34.9269 80.4948 21.4846C80.4948 18.4697 80.1508 18.7934 83.132 18.7867C92.3318 18.7799 101.532 18.7867 110.731 18.7799C112.35 18.7799 112.411 18.726 112.411 17.0937C112.411 12.0149 112.411 6.93614 112.411 1.85734C112.411 0.0160221 112.404 0.00927734 110.516 0.00927734ZM75.4497 9.47891C75.4429 9.48566 75.4362 9.4924 75.4362 9.49915C75.4429 9.4924 75.4429 9.48566 75.4497 9.47891ZM67.6258 31.3859C67.6258 31.4331 67.619 31.4803 67.619 31.5275C67.6258 31.4803 67.6258 31.4331 67.6258 31.3859ZM74.8494 10.3355C74.9978 10.1264 75.1394 9.91058 75.2878 9.70149C75.1394 9.91058 74.991 10.1264 74.8494 10.3355ZM78.8895 5.27693C79.2874 4.85201 79.6921 4.43384 80.1036 4.02241C79.6854 4.43384 79.2807 4.85201 78.8895 5.27693ZM82.1405 2.12713C82.1135 2.14736 82.0865 2.17434 82.0595 2.19458C81.7088 2.49809 81.3648 2.80835 81.0276 3.12535C81.3648 2.80835 81.7088 2.49809 82.0595 2.18783C82.0865 2.17434 82.1135 2.15411 82.1405 2.12713C82.8554 1.50661 83.5906 0.913074 84.346 0.33977C83.5973 0.913074 82.8554 1.50661 82.1405 2.12713Z" fill="#A4E445"/>
<path id="Vector_2" d="M45.374 99.9733C36.6261 99.98 27.8714 99.98 19.1234 99.98H1.668C0.062747 99.98 0.00878906 99.9261 0.00878906 98.2736V33.8207C0.00878906 32.1278 0.103216 32.0266 1.74219 32.0266H6.99635C11.5558 32.0266 16.1085 32.0199 20.6612 32.0199C20.2835 32.5055 19.9126 32.9979 19.5483 33.497C19.4876 33.5779 19.4337 33.6589 19.3797 33.7398C19.2044 33.9826 19.0357 34.2254 18.8671 34.4682C17.6868 36.2016 16.6346 38.0227 15.7173 39.9247C15.434 40.525 15.1575 41.1321 14.9012 41.7458C14.7326 42.137 14.5707 42.535 14.4156 42.9329C14.247 43.3713 14.0783 43.8232 13.9232 44.2684C13.1206 46.5616 12.5068 48.9425 12.1089 51.3976C11.9807 52.2137 11.8661 53.0231 11.7851 53.8527C11.63 55.3095 11.5558 56.7866 11.5558 58.284C11.5558 58.8033 11.5626 59.3159 11.5828 59.8218C11.5963 60.1658 11.6098 60.503 11.63 60.8402C11.6367 61.0089 11.6435 61.1775 11.657 61.3461C11.6705 61.4742 11.6772 61.6024 11.6907 61.7305C11.63 62.3443 11.5828 62.9648 11.5558 63.5853C12.5473 82.3965 26.9473 97.6531 45.374 99.9733Z" fill="#E6E62E"/>
<path id="Vector_3" d="M112.408 33.7331C112.415 50.0014 112.415 66.2832 112.408 82.5516C105.366 87.8192 96.6387 90.9488 87.1758 90.9825H86.879C85.0782 90.9758 83.3178 90.8611 81.5844 90.6318C81.3551 90.6048 81.119 90.5711 80.8897 90.5374C80.4108 90.4699 79.9387 90.3957 79.4733 90.3081C79.1563 90.2541 78.8393 90.1934 78.5223 90.1259C78.1985 90.0585 77.8748 89.9911 77.5578 89.9169C77.2543 89.8494 76.9507 89.7752 76.6472 89.701C75.7165 89.465 74.7992 89.2019 73.8954 88.9052C73.5312 88.7905 73.1737 88.6691 72.823 88.5409C70.5904 87.7518 68.4456 86.7738 66.4087 85.6339C56.0488 79.8604 48.3597 69.858 45.6753 57.967C45.4527 56.9822 45.2639 55.9908 45.1155 54.9858C44.9469 53.8864 44.8255 52.7735 44.7378 51.6404C44.6704 50.6287 44.6299 49.6102 44.6299 48.5783C44.6299 47.0809 44.7108 45.6038 44.8659 44.147C44.9469 43.3241 45.0548 42.508 45.1897 41.6986C45.5876 39.2435 46.2014 36.8626 47.004 34.5694C47.1592 34.1175 47.3278 33.6724 47.4964 33.234C47.6515 32.836 47.8134 32.4381 47.982 32.0469C48.9061 32.1143 49.0005 32.4381 48.9398 33.814C48.616 41.0781 49.9515 47.9915 53.3509 54.4462C58.7736 64.7117 66.9145 72.1242 77.4094 76.9939C82.0902 79.1657 86.9869 80.5619 92.1467 81.007C93.6912 81.1352 93.698 81.1689 93.698 79.503V34.4143C93.698 32.0266 93.698 32.0199 96.0924 32.0199C100.962 32.0199 105.832 32.0199 110.708 32.0266C112.3 32.0266 112.408 32.1346 112.408 33.7331Z" fill="#E6E62E"/>
<path id="Vector_4" fill-rule="evenodd" clip-rule="evenodd" d="M68.5807 43.5252C70.2871 51.0725 74.0034 57.8578 79.1429 63.2873C75.5952 61.2909 72.5736 58.6537 69.9903 55.5376C64.4933 48.894 61.8696 41.2185 61.9303 32.5987C61.9641 28.6867 61.9371 24.7748 61.9371 20.8628C61.9371 18.7854 61.9371 18.7854 59.9137 18.7854H2.52928C2.13134 18.7854 1.71991 18.7652 1.32197 18.7854H1.16684C1.15335 18.7854 1.14661 18.7922 1.13312 18.7922C1.03869 18.7922 0.944266 18.7854 0.863329 18.7719C0.532836 18.7315 0.303514 18.5966 0.168619 18.3537C0.12815 18.293 0.101171 18.2256 0.0741923 18.1514C0.0809371 18.1447 0.0809371 18.1447 0.0741923 18.1447C0.0202343 17.9963 0 17.8277 0 17.6253V17.6186C0.0134895 12.1216 0.0134895 6.63137 0.00674475 1.13439C0.00674475 1.02647 0.0134895 0.925304 0.026979 0.830877C0.0337238 0.76343 0.0472133 0.702727 0.0674475 0.648769C0.0876818 0.581321 0.107916 0.513874 0.134895 0.459916L0.14164 0.453171C0.256301 0.21036 0.472133 0.0619751 0.809371 0.0215066C0.870073 0.00801709 0.937521 0.00127234 1.01171 0.00801709H1.21406C1.612 0.0282514 2.02343 0.00801709 2.42137 0.00801709H81.5913C73.0052 7.12373 67.5352 17.8681 67.5352 29.8873C67.5352 30.5887 67.5555 31.2834 67.5892 31.9714C67.5555 32.6931 67.5352 33.4148 67.5352 34.1432C67.5352 35.1752 67.5757 36.1936 67.6431 37.2053C67.7241 38.3385 67.8522 39.4513 68.0208 40.5507C68.1692 41.5557 68.3581 42.5472 68.5807 43.5252Z" fill="#FF2F60"/>
<path id="Vector_5" fill-rule="evenodd" clip-rule="evenodd" d="M84.7891 0.00927734C84.6407 0.117193 84.4924 0.225109 84.344 0.33977C83.5953 0.90633 82.8534 1.50661 82.1384 2.12713C82.1115 2.14736 82.0845 2.17434 82.0575 2.19458C80.7895 3.30072 79.5889 4.48779 78.4625 5.73557C77.4171 6.88893 76.4391 8.10298 75.5286 9.36425C75.4679 9.44519 75.4139 9.52612 75.3532 9.60706C75.1778 9.84987 75.0092 10.0927 74.8406 10.3355C73.6603 12.0689 72.6081 13.89 71.6908 15.792C71.4008 16.3923 71.131 16.9993 70.8747 17.6131C70.7061 18.0043 70.5442 18.4022 70.3891 18.8002C70.2205 19.2386 70.0518 19.6837 69.8967 20.1356C69.0941 22.4288 68.4803 24.8097 68.0824 27.2648C67.9475 28.0742 67.8396 28.8903 67.7586 29.7132C67.6777 30.4618 67.617 31.2173 67.5833 31.9727C67.5495 31.2847 67.5293 30.59 67.5293 29.8885C67.5293 17.8694 72.9993 7.12499 81.5854 0.00927734H84.7891Z" fill="#64D445"/>
<path id="Vector_6" fill-rule="evenodd" clip-rule="evenodd" d="M87.1749 90.9825H86.8782C85.0773 90.9758 83.3169 90.8611 81.5835 90.6318C81.5228 90.6251 81.4554 90.6183 81.3947 90.6116C81.2261 90.5913 81.0574 90.5644 80.8888 90.5374C80.4099 90.4699 79.9378 90.3957 79.4724 90.3081C79.1554 90.2541 78.8384 90.1934 78.5214 90.1259C78.1977 90.0585 77.8739 89.9911 77.5569 89.9169C77.2534 89.8494 76.9499 89.7752 76.6464 89.701C75.7156 89.465 74.7983 89.2019 73.8945 88.9052C73.5303 88.7905 73.1728 88.6691 72.8221 88.5409C70.5896 87.7518 68.4447 86.7738 66.4078 85.6339C56.0479 79.8604 48.3589 69.858 45.6745 57.967C45.4519 56.9822 45.263 55.9908 45.1146 54.9858C44.946 53.8864 44.8246 52.7735 44.7369 51.6404C44.6695 50.6287 44.629 49.6102 44.629 48.5783C44.629 47.0809 44.7099 45.6038 44.8651 44.147C44.946 43.3241 45.0539 42.508 45.1888 41.6986C45.5868 39.2435 46.2005 36.8626 47.0032 34.5694C47.1583 34.1175 47.3269 33.6724 47.4955 33.234C47.6507 32.836 47.8125 32.4381 47.9812 32.0469C47.7653 32.0266 47.509 32.0266 47.2055 32.0266C38.3564 32.0199 29.5073 32.0199 20.6582 32.0199C20.2804 32.5055 19.9095 32.9979 19.5453 33.497C19.4846 33.5779 19.4306 33.6589 19.3767 33.7398C19.2013 33.9826 19.0327 34.2254 18.864 34.4682C17.6837 36.2016 16.6315 38.0227 15.7142 39.9247C15.431 40.525 15.1544 41.1321 14.8981 41.7458C14.7295 42.137 14.5676 42.535 14.4125 42.9329C14.2439 43.3713 14.0753 43.8232 13.9201 44.2684C13.1175 46.5616 12.5037 48.9425 12.1058 51.3976C11.9777 52.2137 11.863 53.0231 11.7821 53.8527C11.6269 55.3095 11.5527 56.7866 11.5527 58.284C11.5527 58.8033 11.5595 59.3159 11.5797 59.8218C11.5932 60.1658 11.6067 60.503 11.6269 60.8402C11.6404 61.0088 11.6472 61.1775 11.6607 61.3461C11.6741 61.5417 11.6876 61.7373 11.7079 61.9194C11.7011 61.8519 11.6944 61.7912 11.6876 61.7305C11.6269 62.3443 11.5797 62.9648 11.5527 63.5853C12.5442 82.3965 26.9443 97.6531 45.3709 99.9733H46.1871H51.6301C52.0617 99.9733 52.5406 100.115 53.0734 99.6496C52.5608 99.2584 52.1427 98.9279 51.7043 98.6243C45.0944 94.1526 39.476 88.6286 34.6131 82.3223C33.979 81.5129 33.3113 81.1757 32.2996 81.1892C28.2662 81.2296 24.2261 81.1824 20.186 81.2229C19.1338 81.2296 18.6954 80.9194 18.7022 79.8065C18.7292 70.5999 18.7292 61.4 18.7022 52.2002C18.6954 51.0941 19.0934 50.7568 20.1658 50.7703C23.781 50.8243 27.4097 50.8378 31.0316 50.7636C32.2187 50.7433 32.6571 51.202 33.0011 52.3014C37.2772 65.9797 44.8246 77.4795 56.2165 86.2814C61.6325 90.4632 67.3858 93.6737 73.4628 95.9399C80.7202 98.6378 88.4362 99.98 96.5974 99.98H110.714C112.353 99.98 112.407 99.9328 112.407 98.3073V82.5516C105.366 87.8192 96.6378 90.9488 87.1749 90.9825ZM45.5733 99.8519C45.3709 99.8114 45.1619 99.7777 44.9595 99.7305C44.7774 99.6968 44.5885 99.6428 44.4064 99.6023C44.5885 99.6428 44.7707 99.6968 44.9595 99.7305C45.1619 99.771 45.3709 99.8114 45.5733 99.8519ZM42.1335 99.0223C42.1335 99.0223 42.1335 99.0223 42.1267 99.0223C42.1267 99.0223 42.1267 99.0223 42.1335 99.0223Z" fill="#E6E62E"/>
<path id="Vector_7" opacity="0.16" fill-rule="evenodd" clip-rule="evenodd" d="M47.1323 0.00927734C41.0149 2.63299 35.4437 6.16049 30.6144 10.4029C30.1288 10.8279 29.6567 11.2595 29.1846 11.6979C28.7192 12.1431 28.2605 12.5882 27.8086 13.0401C25.9943 14.8477 24.3148 16.7632 22.7703 18.7799V18.7867H2.52928C2.13134 18.7867 1.71991 18.7664 1.32197 18.7867C1.25452 18.7934 1.19382 18.7934 1.13312 18.7934C0.748668 18.7867 0.472133 18.699 0.28328 18.5101C0.188853 18.4157 0.121406 18.2943 0.0674475 18.1527C0.0741923 18.1459 0.0741923 18.1459 0.0674475 18.1459C0.026979 17.9975 0 17.8289 0 17.6266V17.6198C0.0134895 12.1229 0.0134895 6.63263 0.00674475 1.13565C0.00674475 1.02774 0.0134895 0.926564 0.026979 0.832137C0.0337238 0.76469 0.0472133 0.703987 0.0674475 0.650029C0.0876818 0.582581 0.114661 0.515134 0.14164 0.461176V0.454431C0.175364 0.400473 0.209087 0.346515 0.256301 0.299302C0.431664 0.110449 0.708199 0.00927734 1.09939 0.00927734H1.21406C1.612 0.0295116 2.02343 0.00927734 2.42137 0.00927734H47.1323Z" fill="white"/>
<path id="Vector_8" fill-rule="evenodd" clip-rule="evenodd" d="M47.1323 0.00168619C47.1256 0.00168619 47.1256 0.00843094 47.1189 0.00843094C41.0081 2.63214 35.4369 6.1529 30.6144 10.4021C30.1288 10.827 29.6567 11.2587 29.1846 11.6971C28.7192 12.1355 28.2538 12.5874 27.8086 13.0393C25.9943 14.8469 24.3148 16.7624 22.7703 18.7791H2.52928C2.13134 18.7791 1.71991 18.7588 1.32197 18.7791C1.28825 18.7791 1.25452 18.7791 1.2208 18.7858H1.16684C0.768902 18.7858 0.478878 18.6981 0.28328 18.5093C0.188853 18.4149 0.121406 18.2935 0.0674475 18.1518C0.0741923 18.1451 0.0741923 18.1451 0.0674475 18.1451C0.026979 17.9967 0 17.8281 0 17.6257V17.619C0.0134895 12.122 0.0134895 6.63178 0.00674475 1.1348C0.00674475 1.02689 0.0134895 0.925718 0.026979 0.831291C0.0337238 0.763843 0.0472133 0.703141 0.0674475 0.649183C0.0876818 0.581735 0.107916 0.514288 0.134895 0.460329H0.14164V0.453585C0.175364 0.399627 0.209087 0.345669 0.256301 0.298455C0.310259 0.244497 0.370962 0.197284 0.445154 0.156816C0.478878 0.136581 0.519346 0.116347 0.566559 0.102858C0.600283 0.089368 0.634007 0.0758785 0.674475 0.0691337C0.721689 0.0556442 0.755413 0.03541 0.809371 0.0286652C0.870073 0.00843094 0.937521 0.00168619 1.01171 0.00843094C1.07242 -0.00505857 1.13986 0.00168619 1.21406 0.00168619C1.612 0.0219205 2.02343 0.00168619 2.42137 0.00168619H47.1323Z" fill="#FFFFB2"/>
<path id="Vector_9" d="M34.5824 0.00927734L34.3396 0.0227669C34.3328 0.0295116 34.3328 0.0295116 34.3261 0.0295116C26.8327 4.75758 20.3914 11.1853 15.434 18.7934H13.876V18.7867C19.1976 10.9358 26.1649 4.48105 34.2182 0.0160221C34.2249 0.0160221 34.2249 0.0160221 34.2316 0.00927734H34.5824Z" fill="#FFFF60"/>
<path id="Vector_10" opacity="0.39" d="M67.5339 29.8953C67.5339 30.5967 67.5541 31.2914 67.5878 31.9794C67.5541 32.7011 67.5339 33.4228 67.5339 34.1512C67.5339 35.1832 67.5744 36.2016 67.6418 37.2133C67.7227 38.3465 67.8509 39.4593 68.0195 40.5587C68.1679 41.5637 68.3567 42.5552 68.5793 43.5332C69.1324 45.9613 69.8878 48.3085 70.8321 50.5612C72.8218 55.3028 75.6546 59.6127 79.1416 63.2953C75.5939 61.2989 72.5722 58.6617 69.989 55.5456C64.492 48.902 61.8683 41.2265 61.929 32.6067C61.9627 28.6947 61.9357 24.7828 61.9357 20.8708C61.9357 18.7934 61.9357 18.7934 59.9123 18.7934H15.4307C20.3881 11.1853 26.8293 4.75758 34.3227 0.0295116C34.3295 0.0295116 34.3295 0.0295116 34.3362 0.0227669L34.579 0.00927734H47.131C47.1243 0.00927734 47.1243 0.0160221 47.1175 0.0160221H81.59C81.1853 0.35326 80.7873 0.697242 80.3961 1.05471C72.498 8.1502 67.5339 18.4427 67.5339 29.8953Z" fill="white"/>
<path id="Vector_11" d="M21.516 99.9855H19.1216C8.91679 88.6611 2.61719 73.1414 2.61719 56.0367C2.61719 55.605 2.62393 55.1734 2.63068 54.7417C2.6644 56.1446 2.73859 57.561 2.86 58.9909C4.22918 75.2727 11.2033 89.6391 21.516 99.9855Z" fill="#E6E62E"/>
<path id="Vector_12" opacity="0.71" d="M112.412 51.485C112.412 61.8449 112.412 72.2049 112.406 82.5581V83.8463C109.687 89.8289 106.113 95.2719 101.864 99.9865H96.5959C88.4347 99.9865 80.7187 98.6443 73.4613 95.9464C67.3843 93.6802 61.631 90.4697 56.215 86.2879C45.909 78.3224 38.7461 68.1513 34.308 56.1524C34.3013 56.1321 34.2946 56.1186 34.2878 56.0984C33.8292 54.8506 33.3975 53.5893 32.9996 52.3078C32.6556 51.2084 32.2172 50.7498 31.0301 50.77C27.4082 50.8442 23.7795 50.8307 20.1643 50.7768C19.0919 50.7633 18.6939 51.1005 18.7007 52.2067V52.8204C18.7074 53.704 18.7074 54.5876 18.7074 55.4711C18.7277 63.5851 18.7277 71.6923 18.7007 79.813C18.6939 80.9258 19.1323 81.2361 20.1845 81.2293C20.4138 81.2293 20.6364 81.2226 20.8657 81.2293C24.6765 81.1956 28.4941 81.2361 32.2981 81.1956C32.9456 81.1889 33.4582 81.3238 33.9034 81.634C34.1529 81.8094 34.3822 82.0387 34.6116 82.3287C39.4745 88.6351 45.0929 94.159 51.7028 98.6308C51.8512 98.732 51.9928 98.8399 52.1412 98.9478C52.4312 99.1636 52.7347 99.3997 53.072 99.656C52.5391 100.121 52.0602 99.9798 51.6286 99.9798H39.9197C33.7819 99.9865 27.6442 99.9865 21.5132 99.9865C11.2005 89.6401 4.22644 75.2737 2.85725 58.9919C2.73585 57.562 2.66165 56.1456 2.62793 54.7427C2.75608 47.6944 3.96339 40.9227 6.06775 34.6298C6.35778 33.753 6.66804 32.8897 6.99179 32.0331C11.5512 32.0331 16.1039 32.0264 20.6567 32.0264C26.1132 32.0264 31.5764 32.0264 37.0329 32.0331C40.3783 32.0264 43.7305 32.0331 47.0759 32.0331H47.204C47.5075 32.0331 47.7638 32.0331 47.9797 32.0533C48.9037 32.1208 48.9981 32.4445 48.9374 33.8205C48.7013 39.1488 49.3556 44.2951 51.0688 49.1985C51.6825 50.9791 52.4447 52.7328 53.3485 54.4527C58.7713 64.7182 66.9122 72.1307 77.407 77.0004C82.0879 79.1722 86.9846 80.5684 92.1443 81.0135C93.6889 81.1417 93.6956 81.1754 93.6956 79.5094V34.4208C93.6956 32.0331 93.6956 32.0264 96.09 32.0264C100.96 32.0264 105.829 32.0264 110.706 32.0331H110.773C112.298 32.0399 112.406 32.1613 112.406 33.7395C112.412 39.6547 112.412 45.5698 112.412 51.485Z" fill="white"/>
</g>
</svg>
