<svg width="27" height="30" viewBox="0 0 27 30" fill="none" xmlns="http://www.w3.org/2000/svg">
<g id="icon">
<path id="Vector" d="M0.0077085 14.9303C0.0077085 12.3572 0.0357834 9.78413 0.000689763 7.21247C-0.0456339 3.94174 2.24528 0.882977 5.67744 0.171277C6.19964 0.0631887 6.74429 0.0154613 7.27912 0.0140576C11.4188 2.01048e-05 15.5584 -0.00699863 19.6981 0.00984633C23.1274 0.0238838 25.8788 2.12108 26.7322 5.3497C26.8572 5.81995 26.9414 6.31407 26.9484 6.79696C26.9751 8.59797 26.9653 10.399 26.9596 12.2C26.9568 12.9173 26.5877 13.3735 25.9883 13.4409C25.3102 13.5167 24.7642 13.0591 24.7249 12.3418C24.6968 11.828 24.7179 11.3128 24.7179 10.799C24.7179 9.62972 24.6786 8.459 24.7263 7.29108C24.8203 5.01561 23.1218 2.29936 19.8118 2.26567C15.6019 2.22215 11.3921 2.23198 7.18226 2.26426C4.67938 2.28392 2.81801 3.86454 2.32389 6.29161C2.26353 6.5864 2.2537 6.89522 2.2537 7.19703C2.24949 12.3895 2.27757 17.5819 2.23826 22.7744C2.22142 25.0387 3.9003 27.6735 7.15839 27.7352C9.12224 27.7731 11.0875 27.7423 13.0527 27.7437C13.2633 27.7437 13.4753 27.7352 13.6844 27.7549C14.2122 27.8054 14.5828 28.1606 14.6741 28.6856C14.7597 29.1741 14.4902 29.6822 14.0017 29.8647C13.7672 29.9518 13.5019 29.9855 13.2507 29.9869C11.2152 29.9967 9.18119 30.0107 7.14576 29.9869C3.47356 29.9461 0.525691 27.3324 0.0385909 23.7023C-0.00492522 23.3794 0.0077085 23.0481 0.0077085 22.7211C0.004901 20.1255 0.0077085 17.5286 0.0077085 14.9331V14.9303Z" fill="#E97349"/>
<path id="Vector_2" d="M26.315 25.6831C26.2589 27.7607 24.7695 29.4396 22.7369 29.7554C20.8755 30.0446 18.7306 28.9525 18.1284 26.7472C17.237 23.4891 16.3639 20.2268 15.502 16.9602C15.3055 16.2163 15.3714 15.4779 15.7799 14.7943C16.1379 14.1935 16.4692 13.5744 16.8383 12.9806C17.6273 11.7173 19.0507 11.3298 20.3716 12.0261C21.0313 12.3742 21.6714 12.7616 22.313 13.1435C22.9938 13.5491 23.3728 14.1738 23.5721 14.9248C24.1828 17.2213 24.799 19.5165 25.411 21.8116C25.6511 22.7114 25.8981 23.6112 26.1199 24.5152C26.214 24.897 26.2519 25.2929 26.315 25.6817V25.6831ZM24.0227 25.5035C24.0073 25.4262 23.9764 25.196 23.9174 24.9728C23.5805 23.6898 23.2366 22.4096 22.8955 21.128C22.4168 19.3284 21.9325 17.5316 21.4651 15.7292C21.3598 15.3221 21.1759 15.0231 20.7759 14.835C20.3351 14.6272 19.9294 14.3451 19.4984 14.1135C19.0352 13.865 18.9229 13.8959 18.6534 14.3352C18.4091 14.7325 18.2042 15.155 17.9431 15.5397C17.668 15.9425 17.6553 16.3272 17.7845 16.7932C18.3909 18.9915 18.9594 21.1996 19.549 23.4034C19.8073 24.3692 20.0487 25.342 20.3618 26.2924C20.665 27.2146 21.5311 27.6863 22.4547 27.5192C23.3981 27.348 24.0213 26.611 24.0241 25.5063L24.0227 25.5035Z" fill="#E97349"/>
<path id="Vector_3" d="M13.4828 10.1042C11.5891 10.1042 9.69685 10.107 7.80319 10.1042C6.89216 10.1028 6.38681 9.71817 6.36295 9.02893C6.34049 8.33267 6.9076 7.8596 7.8074 7.8582C11.5933 7.85259 15.3792 7.85399 19.1665 7.86101C19.4178 7.86101 19.6831 7.89891 19.9189 7.98454C20.3653 8.14737 20.6517 8.65553 20.5983 9.10332C20.538 9.6185 20.1632 10.0158 19.6508 10.0817C19.4431 10.1084 19.2311 10.1028 19.0205 10.1028C17.1746 10.1028 15.3273 10.1028 13.4813 10.1028L13.4828 10.1042Z" fill="#E97349"/>
<path id="Vector_4" d="M10.1169 19.8714C10.9339 19.8714 11.7523 19.863 12.5693 19.8742C13.3582 19.8841 13.8453 20.294 13.8691 20.9453C13.893 21.5966 13.3568 22.1034 12.5679 22.1146C11.2834 22.1329 9.99902 22.1216 8.71459 22.1202C8.29487 22.1202 7.86953 22.1511 7.45402 22.1034C6.58791 22.0037 6.13029 21.2022 6.49807 20.4736C6.70864 20.0581 7.06098 19.8714 7.52421 19.8742C8.38892 19.8771 9.25222 19.8742 10.1169 19.8742V19.8714Z" fill="#E97349"/>
<path id="Vector_5" d="M10.1672 13.866C10.9617 13.866 11.7549 13.8604 12.5494 13.8674C13.3327 13.8744 13.8815 14.3517 13.8689 15.0031C13.8577 15.6347 13.3285 16.1022 12.5873 16.105C10.9295 16.112 9.27164 16.1134 7.61381 16.105C6.88807 16.1008 6.35184 15.5982 6.36448 14.9694C6.37711 14.3349 6.90211 13.8744 7.6461 13.8674C8.48694 13.859 9.32779 13.866 10.1672 13.866Z" fill="#E97349"/>
</g>
</svg>
