<svg width="40" height="30" viewBox="0 0 40 30" fill="none" xmlns="http://www.w3.org/2000/svg">
<g id="icon" opacity="0.94">
<path id="Vector" d="M29.7614 4.98619C30.6128 4.12721 31.3955 3.3323 32.1828 2.5435C32.7748 1.94999 33.3561 1.34275 33.9725 0.775179C34.8726 -0.0548169 36.2778 -0.230276 37.3855 0.306781C38.4688 0.833157 39.1447 2.00187 39.0531 3.23771C38.9936 4.05855 38.6168 4.72529 38.0339 5.30354C35.8338 7.48838 33.6673 9.70832 31.4413 11.8657C30.863 12.4272 30.6387 12.9871 30.6525 13.7851C30.6982 16.6061 30.6738 19.4272 30.6692 22.2483C30.6662 24.1432 29.5234 25.4065 27.6437 25.6018C27.3416 25.6339 27.035 25.6339 26.7298 25.6339C22.7141 25.6354 18.6984 25.6446 14.6827 25.6232C14.1365 25.6201 13.8038 25.7864 13.5079 26.2487C12.893 27.21 12.1759 28.1071 11.5656 29.0713C10.7738 30.3255 8.8849 30.298 8.11135 29.0576C7.4797 28.0461 6.74735 27.1001 6.08366 26.1084C5.84565 25.7529 5.57101 25.614 5.14076 25.6217C4.35501 25.6385 3.56163 25.643 2.78198 25.5561C1.17692 25.3806 0.0143121 24.0715 0.00973492 22.4512C-0.00247091 17.3431 -0.00399664 12.2334 0.00973492 7.12526C0.0143121 5.42407 1.31118 4.10127 3.01847 3.99447C3.32209 3.97463 3.62876 3.97768 3.93238 3.97768C11.4802 3.97768 19.0295 3.98074 26.5772 3.97311C27.7368 3.97311 28.8811 3.967 29.7584 4.98619H29.7614ZM28.9864 5.7811C28.5134 5.20437 27.9733 5.07011 27.3645 5.07011C19.356 5.07316 11.3474 5.08689 3.33887 5.0579C1.94131 5.05332 1.05944 6.18999 1.06554 7.37243C1.093 12.3295 1.08843 17.2881 1.06706 22.2452C1.06249 23.3117 1.81925 24.5598 3.29463 24.5186C4.0819 24.4957 4.87071 24.5262 5.65951 24.5109C6.10807 24.5033 6.41169 24.6681 6.66801 25.051C7.41562 26.1694 8.19527 27.2679 8.97492 28.3649C9.53333 29.1507 10.1635 29.1446 10.728 28.3481C11.4466 27.332 12.182 26.3266 12.8518 25.2784C13.2241 24.694 13.6696 24.4957 14.3562 24.5003C18.6526 24.5292 22.9491 24.5201 27.2455 24.5109C28.7758 24.5079 29.5936 23.6809 29.5982 22.1537C29.6043 19.5599 29.6012 16.9677 29.5982 14.374C29.5982 14.2153 29.5738 14.0582 29.5524 13.7805C28.3089 15.0255 27.1219 16.1377 26.0249 17.3324C25.0393 18.4065 23.8996 19.1861 22.5371 19.6942C21.4935 20.0833 20.4881 20.5761 19.4567 20.9987C18.7319 21.2947 18.0744 21.0475 17.9294 20.3884C17.8653 20.097 17.9523 19.7354 18.0713 19.4455C18.5336 18.3211 19.0722 17.2256 19.5162 16.0935C19.9419 15.0057 20.5399 14.0612 21.4264 13.2984C21.6842 13.0756 21.9039 12.8101 22.2625 12.4409H21.2326C16.6814 12.4409 12.1316 12.4409 7.5804 12.4409C7.35154 12.4409 7.12268 12.4409 6.89382 12.4317C6.59783 12.4195 6.4239 12.2715 6.39949 11.9649C6.3766 11.6628 6.52917 11.466 6.80228 11.4004C7.02046 11.3485 7.25542 11.3622 7.48428 11.3622C10.8149 11.3607 14.1456 11.3622 17.4763 11.3622C19.2553 11.3622 21.0358 11.3622 22.8148 11.3622C23.1215 11.3622 23.3946 11.3515 23.6463 11.0983C25.4024 9.33146 27.1738 7.58145 28.9864 5.77957V5.7811ZM33.237 3.26212C29.3739 7.11 25.4772 10.993 21.6079 14.847C22.4685 15.6907 23.3671 16.5726 24.1803 17.3705C28.0221 13.5287 31.9112 9.63966 35.7743 5.77499C34.9398 4.94805 34.0426 4.06007 33.237 3.26212ZM36.7981 4.9511C37.4908 4.40641 38.1301 3.75645 37.9516 2.70675C37.8188 1.921 37.3458 1.34733 36.5586 1.15203C35.4433 0.874352 34.656 1.41293 34.0747 2.24293C34.981 3.14464 35.875 4.03414 36.7981 4.9511ZM20.7871 15.9196C20.5201 16.5482 20.2287 17.2332 20.0334 17.6909C20.5262 18.2234 20.897 18.6262 21.3074 19.0702C21.8734 18.8093 22.5356 18.5057 23.1047 18.2448C22.325 17.4621 21.5606 16.6962 20.7871 15.9196ZM20.1921 19.563C19.8991 19.3021 19.7191 19.1404 19.4597 18.9085C19.359 19.3418 19.0569 19.6057 19.1286 20.0421C19.4704 19.888 19.7649 19.7552 20.1921 19.563Z" fill="#C3E949"/>
<path id="Vector_2" d="M11.5795 18.2127C10.159 18.2127 8.73859 18.2142 7.31814 18.2096C7.11827 18.2096 6.87415 18.2386 6.7292 18.1394C6.57205 18.0311 6.44695 17.7977 6.41643 17.6008C6.37676 17.346 6.56443 17.1843 6.82685 17.1508C6.95196 17.1355 7.08012 17.1355 7.20676 17.1355C10.0736 17.1355 12.9404 17.1355 15.8073 17.1355C15.9339 17.1355 16.0621 17.1355 16.1872 17.1462C16.4862 17.1736 16.6403 17.3445 16.6495 17.6451C16.6586 17.9457 16.4954 18.1257 16.2208 18.1867C16.0499 18.2249 15.8683 18.2111 15.6913 18.2111C14.3212 18.2127 12.9511 18.2111 11.581 18.2111L11.5795 18.2127Z" fill="#C3E949"/>
</g>
</svg>
