<svg width="29" height="30" viewBox="0 0 29 30" fill="none" xmlns="http://www.w3.org/2000/svg">
<g id="icon">
<path id="Vector" d="M16.5857 17.8228C16.2025 18.0666 15.8955 18.2611 15.5205 18.499C15.4795 18.8728 15.4162 19.3321 15.3787 19.795C15.3248 20.4723 15.2814 20.525 14.6217 20.5543C14.5068 20.559 14.392 20.5684 14.2326 20.5778C14.2326 20.8039 14.2244 21.0102 14.235 21.2152C14.2432 21.3898 14.2889 21.5644 14.2889 21.7379C14.2901 22.5933 13.9209 23.0023 13.0725 23.0667C12.762 23.0902 12.4456 23.0948 12.1374 23.0573C11.4707 22.9753 11.2152 22.6519 11.2867 21.9816C11.364 21.2656 11.4707 20.552 11.5632 19.8372C11.623 19.3767 11.6804 18.9161 11.7437 18.4158C11.541 18.4017 11.3711 18.3888 11.2023 18.3783C10.075 18.3021 9.3192 17.5404 9.30162 16.4073C9.28053 15.0808 9.28756 13.7531 9.29928 12.4266C9.30865 11.3696 10.0657 10.5177 11.1027 10.4978C12.5651 10.4685 14.0287 10.4779 15.4923 10.4861C15.9048 10.4884 16.2435 10.6794 16.4825 11.0567C16.6642 10.9677 16.82 10.8962 16.9712 10.8153C18.4137 10.0455 19.855 9.27088 21.2999 8.50569C21.5635 8.36624 21.7663 8.21039 21.8987 7.91509C22.0956 7.47683 22.5666 7.29285 23.0283 7.39011C23.4689 7.48269 23.8064 7.86704 23.8134 8.35687C23.8298 9.41033 23.824 10.465 23.8193 11.5184C23.8193 11.761 23.8451 11.9567 24.0748 12.1196C25.6368 13.2223 25.6227 15.6772 24.0209 16.7764C23.9576 16.8197 23.9037 16.876 23.8205 16.9475C23.8205 17.6154 23.8205 18.2974 23.8205 18.9794C23.8205 19.4868 23.831 19.9942 23.8123 20.5016C23.7947 20.9821 23.5017 21.3324 23.0728 21.4379C22.5959 21.5551 22.1143 21.4086 21.9245 20.9668C21.7663 20.5965 21.4839 20.4465 21.1792 20.2836C19.6359 19.4563 18.0914 18.6314 16.5821 17.824L16.5857 17.8228ZM21.71 19.6063V9.25214C21.5893 9.29901 21.5143 9.31776 21.4487 9.35291C19.9371 10.1603 18.4301 10.9759 16.9114 11.7715C16.6431 11.9122 16.5704 12.0926 16.5728 12.375C16.5833 13.7215 16.5903 15.069 16.5692 16.4155C16.5634 16.7834 16.7017 16.9686 17.0169 17.1338C18.416 17.8627 19.8023 18.6161 21.1932 19.3591C21.3432 19.4388 21.5003 19.5067 21.7088 19.6063H21.71ZM15.7162 11.3497C15.5111 11.3274 15.34 11.2934 15.1689 11.2923C13.9221 11.2876 12.6741 11.2806 11.4273 11.2923C10.5074 11.3016 10.1219 11.7012 10.1184 12.627C10.1137 13.8152 10.1137 15.0046 10.1184 16.1928C10.1219 17.149 10.5168 17.5556 11.4554 17.5603C12.6835 17.5662 13.9104 17.565 15.1385 17.5603C15.7279 17.558 15.7572 17.5275 15.7583 16.924C15.7619 15.2483 15.7607 13.5726 15.7583 11.8969C15.7583 11.7258 15.7337 11.5548 15.7173 11.3485L15.7162 11.3497ZM22.8502 20.6633C22.89 20.634 22.9299 20.6047 22.9697 20.5754C22.9814 20.443 23.0025 20.3094 23.0025 20.177C23.0049 16.3581 23.0037 12.5391 23.0025 8.71896C23.0025 8.60295 23.0072 8.48225 22.9803 8.37093C22.965 8.30999 22.8818 8.21742 22.8397 8.22211C22.7588 8.23265 22.6322 8.29124 22.6194 8.34983C22.5783 8.53733 22.569 8.73419 22.569 8.92754C22.5666 12.5907 22.5666 16.2538 22.569 19.9169C22.569 20.0915 22.5572 20.2743 22.6029 20.4383C22.6287 20.5297 22.7647 20.5895 22.8502 20.6633ZM12.0824 22.2582C12.4023 22.2582 12.6495 22.2734 12.8956 22.2546C13.3526 22.2218 13.519 22.0332 13.4604 21.5656C13.3292 20.511 13.2108 19.461 13.6116 18.4181H12.5698C12.4081 19.6942 12.2499 20.9363 12.0824 22.257V22.2582ZM23.8486 15.7393C24.6208 15.0444 24.6173 13.7824 23.8486 13.1098V15.7393ZM14.2104 19.7247C14.3475 19.7048 14.4693 19.7153 14.4858 19.679C14.658 19.2923 14.685 18.8845 14.6522 18.3595C14.3322 18.8095 14.1658 19.1927 14.2104 19.7235V19.7247Z" fill="#E949DE"/>
<path id="Vector_2" d="M22.4166 26.1604C21.3877 25.0695 20.3847 24.0043 19.3804 22.9403C18.7383 22.2583 18.0938 21.5786 17.4528 20.8955C17.3743 20.8111 17.2559 20.7173 17.2489 20.6224C17.2383 20.4666 17.2547 20.2474 17.352 20.1631C17.4469 20.081 17.6906 20.0764 17.8125 20.1432C17.993 20.2404 18.1289 20.4267 18.2766 20.5814C19.7765 22.1716 21.2741 23.7641 22.7728 25.3542C22.8513 25.4374 22.9416 25.5113 23.0166 25.5816C24.5587 24.9992 25.7082 25.2734 26.3809 26.3714C26.9926 27.3674 26.8027 28.6166 25.9215 29.3982C25.0848 30.1411 23.8345 30.2032 22.9545 29.5458C21.9162 28.7713 21.7147 27.569 22.4154 26.1616L22.4166 26.1604ZM25.9192 27.5971C25.9086 26.7546 25.161 26.0222 24.3349 26.0456C23.4806 26.0702 22.7658 26.8003 22.7799 27.6346C22.7939 28.4748 23.524 29.1814 24.3747 29.1767C25.2219 29.172 25.9309 28.4478 25.9192 27.5959V27.5971Z" fill="#E949DE"/>
<path id="Vector_3" d="M15.9075 4.47236C14.6982 3.32397 14.451 2.16622 15.1564 1.08463C15.7939 0.106157 17.009 -0.262966 18.0836 0.195216C19.1675 0.656913 19.757 1.83811 19.4488 2.99118C19.1851 3.97902 18.2676 4.88835 16.7243 4.74656C16.6329 4.93991 16.5274 5.14381 16.4395 5.35474C15.8817 6.70233 15.3298 8.05109 14.7732 9.39869C14.7146 9.54165 14.6689 9.71859 14.5588 9.80414C14.4404 9.89671 14.2236 9.97405 14.1041 9.92483C13.9869 9.87796 13.8897 9.66821 13.8744 9.51938C13.8604 9.37994 13.9576 9.22643 14.0162 9.08347C14.6009 7.66322 15.188 6.24415 15.7739 4.82508C15.8185 4.71844 15.856 4.60946 15.9075 4.47236ZM15.6017 2.35605C15.5947 3.22788 16.2591 3.9216 17.1274 3.94855C17.9723 3.97433 18.6871 3.27007 18.6976 2.40175C18.7082 1.52875 18.0297 0.824483 17.1707 0.817452C16.2989 0.811593 15.6087 1.48773 15.6017 2.35605Z" fill="#E949DE"/>
<path id="Vector_4" d="M7.18436 24.1485C7.86285 25.6214 7.65778 26.8003 6.60666 27.5526C5.68561 28.2123 4.42707 28.1174 3.60211 27.3264C2.74785 26.5062 2.60021 25.2523 3.24588 24.2891C3.94897 23.2391 5.14305 22.972 6.56213 23.5848C6.6922 23.4536 6.84219 23.3083 6.98516 23.1571C7.93316 22.1493 8.87999 21.1392 9.82682 20.1315C9.92056 20.0319 10.0143 19.9323 10.1163 19.842C10.2862 19.6909 10.4725 19.6838 10.6436 19.8315C10.8404 20.0002 10.8428 20.2018 10.6834 20.3986C10.5733 20.5346 10.4537 20.6635 10.333 20.7912C9.45066 21.7275 8.56594 22.6614 7.68356 23.5977C7.5113 23.7805 7.3449 23.9715 7.18436 24.1496V24.1485ZM5.24617 24.0325C4.40832 24.0325 3.67125 24.759 3.66422 25.5933C3.65719 26.4265 4.3802 27.16 5.22508 27.1753C6.04887 27.1905 6.79884 26.4511 6.80704 25.6144C6.81524 24.7836 6.07348 24.0325 5.24617 24.0325Z" fill="#E949DE"/>
<path id="Vector_5" d="M4.12807 9.35779C2.64689 10.2531 1.52078 10.2156 0.631364 9.25819C-0.140865 8.42854 -0.212346 7.18758 0.459107 6.25013C1.10478 5.34783 2.28597 5.02675 3.32069 5.47204C4.49251 5.97592 4.93194 7.04579 4.60032 8.64298C4.72922 8.73087 4.86632 8.83282 5.0128 8.92188C6.07447 9.57106 7.13965 10.2179 8.20132 10.8671C8.33373 10.948 8.50482 11.0147 8.57161 11.1366C8.6431 11.2643 8.67474 11.4928 8.6056 11.5983C8.53529 11.7061 8.31616 11.7671 8.16734 11.7577C8.02672 11.7483 7.89079 11.6276 7.7572 11.5468C6.726 10.921 5.69597 10.2941 4.66477 9.66833C4.48314 9.55817 4.29799 9.45623 4.1269 9.35779H4.12807ZM0.830574 7.65397C0.830574 8.52463 1.51257 9.216 2.37855 9.22186C3.23163 9.22889 3.92066 8.5258 3.92066 7.65045C3.92066 6.7751 3.23515 6.0849 2.37503 6.09076C1.50203 6.09779 0.830573 6.77745 0.831745 7.6528L0.830574 7.65397Z" fill="#E949DE"/>
<path id="Vector_6" d="M26.8605 9.70679C26.9343 9.77475 27.0949 9.85444 27.1347 9.97513C27.1746 10.0947 27.1382 10.2939 27.055 10.3864C26.9015 10.5552 26.6929 10.6747 26.5019 10.8071C26.1996 11.0181 25.8996 11.2337 25.5856 11.427C25.3922 11.5465 25.1778 11.4938 25.0864 11.2969C25.0266 11.1692 25.0243 10.9056 25.1063 10.8411C25.5914 10.4556 26.107 10.1087 26.6156 9.75366C26.659 9.72319 26.7281 9.7314 26.8617 9.70913L26.8605 9.70679Z" fill="#E949DE"/>
<path id="Vector_7" d="M26.5871 19.0147C26.4629 18.9619 26.3856 18.942 26.3246 18.8998C25.9414 18.6385 25.5547 18.3807 25.1821 18.1042C24.9946 17.9659 24.9044 17.769 25.0708 17.5511C25.2173 17.3577 25.4036 17.2886 25.6239 17.4432C26.02 17.7198 26.4301 17.9799 26.8027 18.2858C26.9 18.3655 26.934 18.601 26.8965 18.7381C26.866 18.8529 26.6902 18.9291 26.5871 19.0147Z" fill="#E949DE"/>
<path id="Vector_8" d="M27.0638 14.8347C26.8505 14.8347 26.6349 14.8546 26.424 14.8288C26.1954 14.8019 26.0197 14.6859 26.0255 14.4152C26.0326 14.1433 26.1978 14.0402 26.4427 14.0367C26.8704 14.032 27.297 14.0308 27.7247 14.0367C27.9649 14.039 28.1395 14.1316 28.1512 14.407C28.1629 14.6788 27.9895 14.7995 27.761 14.8277C27.5313 14.8558 27.2958 14.8335 27.0638 14.8335C27.0638 14.8335 27.0638 14.8335 27.0638 14.8347Z" fill="#E949DE"/>
<path id="Vector_9" d="M11.2984 12.6504C11.493 12.6504 11.7004 12.6071 11.8761 12.6645C12.0097 12.7078 12.1797 12.8719 12.1902 12.9938C12.2007 13.1238 12.0508 13.3758 11.9535 13.3851C11.5152 13.4273 11.0688 13.4262 10.6305 13.3816C10.5297 13.3711 10.3715 13.118 10.3868 12.9938C10.402 12.8672 10.5813 12.709 10.7207 12.6633C10.8965 12.6059 11.1051 12.6492 11.2996 12.6492L11.2984 12.6504Z" fill="#E949DE"/>
<path id="Vector_10" d="M11.2949 14.0451C11.4883 14.0451 11.6828 14.0345 11.8762 14.0486C12.0742 14.0626 12.1937 14.1775 12.2125 14.3826C12.2324 14.6134 12.1199 14.7845 11.9031 14.8009C11.5 14.8302 11.0922 14.829 10.6891 14.8009C10.4723 14.7857 10.3247 14.5958 10.3797 14.3896C10.4149 14.2548 10.5801 14.106 10.7196 14.0615C10.8953 14.0052 11.1028 14.0474 11.2961 14.0474C11.2961 14.0474 11.2961 14.0462 11.2961 14.0451H11.2949Z" fill="#E949DE"/>
<path id="Vector_11" d="M11.2907 16.2316C11.0833 16.2152 10.8548 16.2422 10.665 16.1683C10.5361 16.118 10.4001 15.9363 10.3826 15.7992C10.3697 15.6973 10.5337 15.4793 10.6322 15.4711C11.0716 15.4336 11.5192 15.4301 11.9575 15.4711C12.0536 15.4805 12.1872 15.7207 12.193 15.859C12.1977 15.9633 12.0454 16.1344 11.9282 16.1719C11.7313 16.2351 11.5075 16.2152 11.2895 16.2316H11.2907Z" fill="#E949DE"/>
</g>
</svg>
