<svg width="32" height="30" viewBox="0 0 32 30" fill="none" xmlns="http://www.w3.org/2000/svg">
<g id="icon">
<path id="Vector" d="M17.8387 19.2778C16.7334 19.883 15.5856 20.1124 14.3897 20.2575V22.3384C15.236 22.934 15.4695 23.4038 15.2488 24.0504C15.0789 24.5479 14.5369 24.9279 14.0048 24.921C13.4712 24.9154 12.9334 24.5244 12.7777 24.0283C12.5739 23.3775 12.8174 22.8953 13.6424 22.3647V20.263C11.8111 20.0737 10.1255 19.4989 8.70321 18.247C7.76632 18.7734 6.8464 19.2792 5.94347 19.8125C5.81327 19.8899 5.70854 20.0944 5.69155 20.2505C5.65334 20.5905 5.68023 20.9373 5.68023 21.2855C5.86846 21.4181 6.05103 21.5232 6.20529 21.66C6.78554 22.1726 6.80111 22.9657 6.25341 23.4936C5.74958 23.9786 4.89618 23.9717 4.40933 23.4784C3.91116 22.974 3.95504 22.0938 4.5084 21.6268C4.63153 21.5232 4.77871 21.4458 4.97543 21.3173C4.97543 20.9387 4.99808 20.5269 4.96836 20.1193C4.93722 19.6937 5.1113 19.445 5.49625 19.2474C6.2251 18.8729 6.92707 18.4515 7.63894 18.0452C7.79604 17.9554 7.94181 17.8476 8.13428 17.7219C6.88744 16.3111 6.16425 14.7262 6.0581 12.8525C5.8996 12.829 5.74533 12.7889 5.59107 12.7876C4.8608 12.7807 4.12911 12.7945 3.39884 12.7793C3.1073 12.7737 2.90916 12.8456 2.77613 13.1164C2.6346 13.4052 2.45345 13.676 2.36429 13.828C2.43647 14.3932 2.54544 14.8354 2.52705 15.2734C2.51855 15.4876 2.30485 15.7266 2.12511 15.8924C1.71327 16.2696 1.12311 16.289 0.620699 15.9919C0.172063 15.7266 -0.0784368 15.1822 0.0220462 14.6889C0.157911 14.0215 0.624944 13.7051 1.67082 13.6014C1.88027 13.2546 2.11945 12.8884 2.32608 12.5057C2.48742 12.2045 2.7082 12.0829 3.05918 12.0911C3.93098 12.1091 4.80419 12.0981 5.67599 12.0953C5.78779 12.0953 5.90101 12.0759 6.04678 12.0607C6.17557 10.2105 6.85348 8.60492 8.12862 7.19689C7.96445 7.07529 7.83142 6.95646 7.67857 6.86941C7.00915 6.48527 6.35106 6.07627 5.65476 5.74326C5.10847 5.4821 4.89901 5.11869 4.96836 4.54249C5.00657 4.22607 4.97543 3.90273 4.97543 3.61394C4.1461 3.00872 3.9055 2.49884 4.12487 1.86322C4.2947 1.37131 4.82966 1.0231 5.38869 1.03968C5.95054 1.05627 6.41192 1.40447 6.59024 1.94613C6.78979 2.55135 6.53221 3.03497 5.72693 3.56834C5.71278 3.61256 5.68872 3.65539 5.68731 3.69961C5.65806 4.52499 6.01046 5.14357 6.7445 5.55534C7.37571 5.90907 8.00832 6.26004 8.68623 6.63865C10.1114 5.45723 11.7503 4.77601 13.6722 4.66823C13.6722 3.98011 13.692 3.36384 13.658 2.74894C13.6509 2.60939 13.4797 2.45048 13.3438 2.35237C12.9829 2.08984 12.7466 1.77755 12.7339 1.32157C12.7169 0.67904 13.0622 0.210618 13.6877 0.0461861C14.2708 -0.105809 14.8468 0.124948 15.1384 0.626533C15.4398 1.1447 15.3818 1.87704 14.8666 2.17965C14.3515 2.48226 14.3331 2.8664 14.3501 3.33482C14.3642 3.74659 14.3529 4.15836 14.3529 4.64751C16.238 4.80779 17.9137 5.4061 19.3318 6.65385C20.2786 6.1191 21.1985 5.61199 22.1014 5.07724C22.2288 5.00124 22.325 4.79259 22.3406 4.63507C22.376 4.29515 22.3519 3.94833 22.3519 3.63052C21.4688 2.99214 21.2325 2.53339 21.4504 1.9185C21.65 1.35335 22.1439 1.01758 22.7425 1.03968C23.269 1.06041 23.7643 1.42106 23.9129 1.89224C24.1182 2.54306 23.8804 3.03359 23.0553 3.5863C23.0553 3.93589 23.0228 4.32693 23.0638 4.71107C23.1147 5.20022 22.8996 5.47105 22.4722 5.68937C21.7844 6.04034 21.1221 6.43829 20.4512 6.82104C20.2729 6.9233 20.1003 7.0366 19.888 7.16787C21.149 8.58005 21.8594 10.1719 21.9755 12.0511C22.1948 12.0663 22.3972 12.0911 22.601 12.0925C23.402 12.0967 24.2045 12.1063 25.0055 12.0898C25.3296 12.0829 25.5334 12.1975 25.6848 12.4739C25.8943 12.8567 26.1321 13.2256 26.3472 13.5821C27.4412 13.7272 27.8969 14.045 28.0144 14.7207C28.1035 15.2347 27.8021 15.8123 27.3237 16.0486C26.8128 16.3014 26.2325 16.2144 25.8235 15.8247C25.3537 15.3784 25.3296 14.8354 25.7514 13.9704C25.5716 13.6622 25.3891 13.343 25.1994 13.0266C25.1527 12.9492 25.0876 12.8829 25.0225 12.8014H21.9981C21.9005 13.98 21.6004 15.1007 21.0258 16.184C21.6783 16.8196 22.308 17.4359 22.9463 18.0466C23.0044 18.1019 23.1317 18.1572 23.1883 18.1323C23.5379 17.9761 23.7162 18.2207 23.9115 18.41C26.3146 20.7521 28.7177 23.0942 31.1138 25.4433C31.9077 26.2226 32.2106 27.1456 31.8483 28.2193C31.3119 29.8125 29.3843 30.4964 27.9266 29.6052C27.6506 29.4366 27.4044 29.2128 27.1723 28.9861C24.8668 26.7435 22.5685 24.4954 20.2687 22.2486C20.0224 22.0082 19.7252 21.8037 19.8172 21.3781C19.8384 21.2827 19.7096 21.1349 19.6177 21.0423C19.0445 20.4633 18.4628 19.8927 17.8401 19.2764L17.8387 19.2778ZM21.2565 12.4435C21.398 9.01945 18.4402 5.34116 13.992 5.35498C9.6019 5.3688 6.75724 8.99596 6.74875 12.4228C6.74026 15.9739 9.67549 19.5389 14.0076 19.5431C18.3793 19.5472 21.3881 15.956 21.2565 12.4421V12.4435ZM20.7074 21.6862C20.7527 21.7387 20.7937 21.7954 20.8433 21.8437C23.16 24.1071 25.4768 26.3704 27.7964 28.631C27.9294 28.7595 28.0738 28.8825 28.2295 28.982C29.332 29.6922 30.7345 29.2335 31.1732 28.0203C31.4874 27.1511 31.1675 26.4561 30.5363 25.8398C28.2833 23.6456 26.0344 21.4444 23.7813 19.2488C23.6709 19.141 23.5379 19.0553 23.4615 18.9959C22.5331 19.9037 21.6372 20.777 20.7088 21.6848L20.7074 21.6862ZM20.631 16.9301C19.9672 17.5823 19.2624 18.2718 18.61 18.913C19.1987 19.5265 19.8031 20.158 20.3423 20.719C21.0655 20.0239 21.7759 19.3386 22.4467 18.6933C21.8566 18.1198 21.2296 17.5119 20.631 16.9315V16.9301ZM14.5935 1.29255C14.6091 0.969214 14.384 0.705294 14.0684 0.677659C13.7571 0.650023 13.4769 0.883544 13.4457 1.19583C13.4118 1.54265 13.6651 1.83835 14.0033 1.84664C14.3104 1.85493 14.5779 1.60345 14.5935 1.29255ZM1.88169 14.9542C1.89584 14.6474 1.64817 14.36 1.34955 14.3352C1.02405 14.3089 0.714105 14.6018 0.716936 14.9321C0.719766 15.2347 0.985834 15.5028 1.29294 15.5138C1.59015 15.5249 1.86754 15.2596 1.88169 14.9528V14.9542ZM27.3195 14.91C27.3124 14.6087 27.0378 14.3407 26.7335 14.3365C26.4378 14.3324 26.1604 14.6046 26.1519 14.9072C26.142 15.243 26.442 15.5387 26.7661 15.5124C27.0746 15.4876 27.328 15.2112 27.3209 14.91H27.3195ZM13.9977 23.0638C13.6708 23.0763 13.4387 23.3181 13.4415 23.6442C13.4443 23.9565 13.6991 24.2218 14.0019 24.2287C14.3373 24.237 14.6105 23.9482 14.5921 23.6041C14.5751 23.2808 14.3232 23.0514 13.9963 23.0638H13.9977ZM5.94488 22.5927C5.94347 22.2928 5.68589 22.0482 5.36321 22.0399C5.01506 22.0317 4.78721 22.2348 4.77305 22.5664C4.75607 22.9271 5.00374 23.1702 5.37312 23.1564C5.69014 23.144 5.94771 22.8911 5.94488 22.5913V22.5927ZM5.33632 2.8581C5.66042 2.86087 5.9279 2.62735 5.94488 2.32888C5.96328 2.00831 5.66608 1.71952 5.33066 1.73057C5.00799 1.74163 4.77305 1.98206 4.77164 2.30539C4.77164 2.64117 4.98959 2.85534 5.33632 2.8581ZM22.6803 2.8581C23.0298 2.86501 23.2549 2.65775 23.2633 2.32474C23.2718 2.00417 23.0426 1.75268 22.7241 1.73196C22.3887 1.71123 22.0859 1.98897 22.0915 2.3123C22.0972 2.61353 22.3548 2.85258 22.6803 2.8581Z" fill="#E94951"/>
<path id="Vector_2" d="M8.04121 12.4602C7.9563 9.51836 10.392 6.58346 14.0433 6.59451C17.6819 6.60695 20.0086 9.54876 20.0128 12.4381C20.0171 15.4807 17.5078 18.2802 14.0645 18.3051C10.5844 18.33 7.97045 15.5222 8.04121 12.4602ZM19.2981 12.445C19.3519 9.78089 17.1427 7.27435 14.0136 7.27711C10.9085 7.27988 8.72478 9.76708 8.72761 12.456C8.73044 15.2845 11.1194 17.6294 14.0249 17.6252C16.9318 17.6211 19.3505 15.2831 19.2996 12.445H19.2981Z" fill="#E94951"/>
<path id="Vector_3" d="M12.7328 13.2228C12.6508 13.6967 12.6423 14.0505 13.0909 14.389C13.623 14.7897 13.5721 15.5359 13.0923 15.9698C12.6479 16.3718 11.9134 16.347 11.5002 15.9145C11.0685 15.464 11.0459 14.7648 11.5653 14.3835C12.0139 14.0532 12.0436 13.7036 11.9332 13.249C11.7209 13.1938 11.5157 13.1495 11.3176 13.086C10.777 12.9146 10.4415 12.5498 10.3481 12.0068C10.2547 11.4665 10.4217 10.9871 10.8902 10.672C11.152 10.4965 11.3119 10.2782 11.4775 10.0267C11.6346 9.78767 11.8724 9.5279 12.1328 9.43808C12.5559 9.293 12.9253 9.10508 13.2905 8.84945C13.8141 8.48328 14.4481 8.56066 14.9803 9.00697C15.1841 9.17831 15.3794 9.28333 15.6454 9.34689C15.903 9.40907 16.2568 9.55139 16.3432 9.75175C16.6503 10.4606 17.5673 10.7079 17.6933 11.5273C17.8023 12.2348 17.4202 12.8525 16.714 13.086C16.5172 13.1509 16.312 13.1924 16.104 13.2476C15.978 13.7105 16.0304 14.056 16.4705 14.3849C16.9913 14.7745 16.9701 15.4613 16.5356 15.9145C16.1224 16.3456 15.3907 16.3691 14.9435 15.9656C14.4651 15.5331 14.4142 14.7842 14.9463 14.3849C15.3978 14.0463 15.3794 13.6912 15.3029 13.2214H12.7328V13.2228ZM13.9769 12.4987C14.7071 12.4987 15.4374 12.5112 16.1662 12.4946C16.6375 12.4835 16.9319 12.2486 16.9913 11.8907C17.0522 11.5232 16.9291 11.2993 16.4748 11.1087C16.2073 10.9967 16.0559 10.8516 16.0134 10.5656C15.9525 10.1552 15.6709 9.96731 15.2647 10.0032C14.9605 10.0309 14.8062 9.89269 14.6307 9.67437C14.2387 9.18522 13.7929 9.17555 13.415 9.66332C13.2211 9.91342 13.0385 10.0295 12.7159 10.0032C12.3734 9.9756 12.0988 10.1511 12.045 10.4855C11.9856 10.8586 11.7818 11.0078 11.4435 11.1501C10.9284 11.367 10.8774 12.0372 11.3346 12.3246C11.5186 12.4393 11.7747 12.4835 11.9997 12.4904C12.6578 12.5112 13.3188 12.4973 13.9783 12.4973L13.9769 12.4987ZM12.7413 15.1821C12.7527 14.9555 12.522 14.693 12.3182 14.7635C12.1554 14.8201 11.9686 14.9887 11.9219 15.1448C11.8554 15.3632 12.028 15.5193 12.2686 15.5525C12.5234 15.5884 12.73 15.4212 12.7427 15.1808L12.7413 15.1821ZM15.8011 15.5525C15.9766 15.5386 16.1167 15.4115 16.1337 15.1752C16.1478 14.9597 15.9073 14.7248 15.6921 14.7538C15.4671 14.7828 15.3086 14.903 15.2987 15.1476C15.2874 15.3949 15.4714 15.5663 15.8025 15.5525H15.8011Z" fill="#E94951"/>
</g>
</svg>
