<svg width="30" height="30" viewBox="0 0 30 30" fill="none" xmlns="http://www.w3.org/2000/svg">
<g id="icon">
<path id="Vector" d="M14.0832 28.8733H15.8836C15.8943 28.6229 15.9145 28.3835 15.9145 28.1453C15.9171 25.1241 15.9158 22.1028 15.9158 19.0816C15.9158 18.9233 15.9131 18.7663 15.9158 18.608C15.9372 17.6839 16.4132 17.1806 17.314 17.1643C18.1184 17.1495 18.9227 17.1508 19.7271 17.1643C20.6467 17.1792 21.1588 17.7096 21.1615 18.6554C21.1669 21.8119 21.1642 24.9685 21.1642 28.125C21.1642 28.3659 21.1642 28.6067 21.1642 28.8787H22.9083C22.9217 28.6175 22.9458 28.3591 22.9458 28.1007C22.9485 22.0135 22.9472 15.925 22.9472 9.83782C22.9472 9.65787 22.9432 9.47657 22.9472 9.29662C22.978 8.24939 23.4365 7.78667 24.4835 7.76772C25.198 7.75419 25.9139 7.75825 26.6284 7.76772C27.788 7.78261 28.2411 8.24128 28.2425 9.4238C28.2479 12.7157 28.2438 16.0075 28.2438 19.2994C28.2438 22.23 28.2438 25.162 28.2438 28.0926V28.9138C28.6514 28.9138 29.0013 28.9044 29.3498 28.9165C29.7614 28.9314 29.9987 29.1317 30 29.4361C30 29.7419 29.7627 29.9543 29.3619 29.9922C29.2064 30.0071 29.0495 29.9962 28.8927 29.9962C19.6212 29.9962 10.3497 29.9962 1.07952 29.9962C0.878432 29.9962 0.673322 30.0098 0.478937 29.9719C0.18937 29.9151 -0.0211016 29.7338 0.00168838 29.4145C0.0244784 29.11 0.216182 28.9247 0.532561 28.9193C0.907925 28.9125 1.28329 28.9179 1.71764 28.9179C1.73105 28.6189 1.75115 28.3794 1.75115 28.1399C1.75384 26.4487 1.74981 24.7574 1.75652 23.0675C1.75652 22.8226 1.77394 22.5696 1.83427 22.3342C1.98576 21.7416 2.43619 21.3722 3.04348 21.36C3.93631 21.3411 4.83048 21.3424 5.72465 21.36C6.42444 21.3735 6.89096 21.7916 7.01296 22.4925C7.05183 22.7117 7.05049 22.9403 7.05049 23.1649C7.05317 24.8115 7.05183 26.4568 7.05183 28.1034C7.05183 28.3456 7.05183 28.5891 7.05183 28.8733H8.83347C8.83347 28.6108 8.83347 28.3699 8.83347 28.1291C8.83347 23.7548 8.83616 19.3806 8.82945 15.0063C8.82945 14.5639 8.86565 14.1458 9.17264 13.8075C9.44076 13.5126 9.77993 13.3665 10.1861 13.3705C10.9905 13.3773 11.7948 13.3678 12.5992 13.3732C13.6033 13.38 14.0778 13.8468 14.0792 14.8602C14.0859 17.8814 14.0819 20.9027 14.0819 23.924C14.0819 25.5462 14.0819 27.1685 14.0819 28.8773L14.0832 28.8733ZM24.0625 8.89748V28.8516H27.1137V8.89748H24.0625ZM9.95823 14.48V28.876H12.9236C13.0697 28.0899 13.0362 14.9968 12.8847 14.48H9.95823ZM20.0944 28.8746C20.0944 28.5986 20.0944 28.3564 20.0944 28.1142C20.0944 26.0644 20.0944 24.0133 20.0944 21.9635C20.0944 20.9271 20.0998 19.8907 20.0931 18.8542C20.089 18.2725 20.0649 18.2508 19.4818 18.2454C18.8115 18.2386 18.1425 18.2386 17.4722 18.2481C17.3261 18.2495 17.1813 18.3009 17.0513 18.3266C16.9119 19.4009 16.9655 28.4119 17.1076 28.876H20.0944V28.8746ZM2.88127 22.46V28.8719H5.97802C5.95792 26.726 6.02226 24.6072 5.93378 22.46H2.87993H2.88127Z" fill="#E94971"/>
<path id="Vector_2" d="M16.9285 7.18184C17.6631 6.53781 18.4339 6.29156 19.3107 6.70288C19.615 6.84494 19.7705 6.63252 19.9461 6.47422C20.965 5.56365 21.9798 4.64631 22.9946 3.73032C23.26 3.49084 23.5215 3.24595 23.811 2.97805C23.6341 2.32996 23.5121 1.64534 23.9223 1.05137C24.1542 0.715829 24.484 0.400579 24.8406 0.211158C25.6624 -0.225863 26.6611 0.0420325 27.2456 0.769949C27.8234 1.48975 27.8408 2.50991 27.2885 3.27571C26.6987 4.09158 25.775 4.27694 24.5296 3.79933C23.2198 4.98321 21.8953 6.19009 20.5588 7.38209C20.3335 7.58233 20.3429 7.77716 20.4019 8.03965C20.7371 9.53201 19.6311 10.7443 18.1323 10.5427C17.2569 10.425 16.5397 9.66731 16.4686 8.77568C16.4539 8.59708 16.466 8.41578 16.466 8.17359C15.8855 7.88134 15.2943 7.58098 14.7017 7.28738C14.124 7.00054 13.5421 6.71911 12.9389 6.42416C12.156 7.13043 11.2886 7.29008 10.3033 6.803C8.9265 8.064 7.5591 9.31688 6.17025 10.5901C6.34453 11.226 6.43971 11.8646 6.12199 12.4829C5.91018 12.8956 5.59514 13.2014 5.17151 13.3948C4.37386 13.7615 3.42875 13.5775 2.84425 12.9321C2.22222 12.2448 2.14447 11.2273 2.65121 10.4358C3.22498 9.54148 4.03335 9.34394 5.47046 9.76608C6.80971 8.5362 8.16236 7.29414 9.56596 6.00473C9.28041 5.22675 9.28309 4.44336 9.84882 3.75062C10.2068 3.31225 10.6773 3.08088 11.2377 3.02811C12.4911 2.91176 13.3075 3.79256 13.4389 5.4527C14.569 6.01284 15.7246 6.58652 16.9258 7.18184H16.9285ZM19.4085 8.57544C19.4287 8.07888 18.9983 7.60533 18.5023 7.57962C18.0197 7.55392 17.5585 7.9977 17.5411 8.50373C17.5237 9.04764 17.9004 9.46165 18.4299 9.47654C18.9501 9.49142 19.3871 9.08823 19.4085 8.57408V8.57544ZM11.3985 4.11458C10.8905 4.11728 10.4548 4.55295 10.4574 5.05762C10.4601 5.55282 10.9132 6.01284 11.4012 6.01284C11.8999 6.01284 12.3235 5.57312 12.3235 5.05492C12.3235 4.51913 11.924 4.11187 11.3999 4.11458H11.3985ZM26.578 2.02419C26.5646 1.50869 26.1262 1.06896 25.6383 1.08385C25.1503 1.09873 24.7307 1.55605 24.7387 2.06748C24.7468 2.59515 25.157 2.99429 25.6798 2.98482C26.1986 2.97399 26.5914 2.55456 26.578 2.02554V2.02419ZM4.36984 10.6036C3.8631 10.586 3.43545 10.9973 3.42071 11.5182C3.40596 12.031 3.8135 12.487 4.30683 12.5073C4.79347 12.5289 5.2372 12.0946 5.25195 11.5805C5.26803 11.0501 4.87926 10.6212 4.3685 10.6036H4.36984Z" fill="#E94971"/>
</g>
</svg>
