<svg width="30" height="30" viewBox="0 0 30 30" fill="none" xmlns="http://www.w3.org/2000/svg">
<g id="icon">
<path id="Vector" d="M9.95842 25.1927C9.39624 24.0523 9.46835 23.6383 10.4151 22.6408C10.2482 22.0078 9.86895 21.4964 9.36018 21.0851C8.98094 20.7793 8.56031 20.5243 8.16638 20.2358C7.97008 20.0929 7.77379 19.9421 7.60821 19.7658C7.38921 19.5321 7.32511 19.2463 7.55346 18.9859C7.78848 18.7175 8.05288 18.775 8.31995 18.9766C8.87011 19.3906 9.4363 19.7831 9.98246 20.2024C10.7449 20.786 11.2096 21.5845 11.5381 22.4819H18.3404C18.3765 22.4031 18.4232 22.3096 18.4619 22.2135C18.8786 21.1666 19.5876 20.3787 20.525 19.7538C23.6244 17.684 25.0639 14.7102 25.0546 11.046C25.0479 8.75983 24.2787 6.69271 22.7938 4.9207C22.3678 4.41327 22.3278 4.1462 22.6349 3.89916C22.9233 3.66814 23.2198 3.76295 23.6231 4.25436C25.5526 6.60324 26.3472 9.30065 26.0614 12.3172C25.777 15.3257 24.5258 17.8496 22.2236 19.8286C21.8377 20.1597 21.4117 20.4482 20.9911 20.7366C20.294 21.212 19.7586 21.8102 19.4207 22.7436C19.5182 22.8037 19.6704 22.8638 19.7759 22.9706C20.3288 23.5275 20.4449 24.1484 20.075 24.8535C19.9428 25.1045 19.9335 25.2634 20.075 25.5065C20.3808 26.0299 20.3742 26.5988 20.0109 27.0768C19.7692 27.396 19.7091 27.7151 19.7492 28.069C19.8734 29.1813 19.0214 30.0386 17.8316 29.9986C15.8994 29.9331 13.9605 29.9345 12.0269 29.9986C10.8411 30.0373 10.0105 29.1506 10.1293 28.1157C10.1734 27.7378 10.1026 27.4 9.85693 27.0595C9.45366 26.5013 9.51909 26.0232 9.95976 25.194L9.95842 25.1927ZM14.9112 24.6425C16.0236 24.6425 17.1346 24.6425 18.2469 24.6425C18.9226 24.6425 19.2151 24.4676 19.195 24.0843C19.1763 23.7304 18.8973 23.5742 18.2643 23.5729C16.0409 23.5729 13.8162 23.5729 11.5929 23.5729C11.4594 23.5729 11.3245 23.5649 11.1936 23.5809C10.8892 23.6169 10.6915 23.7972 10.6862 24.099C10.6808 24.4021 10.8705 24.5917 11.1749 24.6318C11.3285 24.6518 11.4861 24.6425 11.641 24.6425C12.7306 24.6425 13.8203 24.6425 14.9099 24.6425H14.9112ZM14.9406 26.779C15.8073 26.779 16.6726 26.779 17.5392 26.779C17.9171 26.779 18.295 26.7897 18.6716 26.7724C18.976 26.7577 19.1817 26.5787 19.1964 26.2743C19.2124 25.9324 18.9961 25.7522 18.6649 25.7134C18.5554 25.7014 18.4432 25.7081 18.3324 25.7081C16.0676 25.7081 13.8029 25.7081 11.5381 25.7081C11.3832 25.7081 11.1923 25.6694 11.0828 25.7442C10.9172 25.8577 10.6902 26.0633 10.7035 26.2129C10.7196 26.4038 10.9159 26.6228 11.0921 26.7443C11.215 26.8298 11.4367 26.7777 11.6129 26.7777C12.7226 26.779 13.8336 26.7777 14.9433 26.7777L14.9406 26.779ZM18.6422 27.882H11.2364C11.1696 28.7821 11.2804 28.9129 12.107 28.9143C13.9925 28.9169 15.8767 28.9169 17.7622 28.9143C18.5901 28.9143 18.6996 28.7847 18.6422 27.882Z" fill="#4993E9"/>
<path id="Vector_2" d="M14.9198 19.2984C10.5051 19.2957 6.92507 15.7023 6.92774 11.2783C6.93041 6.87299 10.5452 3.27021 14.9532 3.27956C19.3572 3.28891 22.9493 6.89702 22.9479 11.313C22.9479 15.721 19.3478 19.3011 14.9211 19.2984H14.9198ZM14.8944 18.2328C18.7069 18.2462 21.8569 15.1602 21.881 11.3878C21.9064 7.50861 18.7963 4.35185 14.9478 4.34784C11.1555 4.34383 8.01338 7.45653 7.99602 11.2342C7.97866 15.076 11.0767 18.2195 14.8944 18.2328Z" fill="#4993E9"/>
<path id="Vector_3" d="M14.8416 0C17.2733 0.0988159 19.4886 0.767826 21.4543 2.206C21.5798 2.2968 21.7721 2.3836 21.7988 2.50245C21.8455 2.7161 21.8615 3.00187 21.7534 3.16478C21.6746 3.28363 21.3688 3.29431 21.1712 3.27561C21.035 3.2636 20.9068 3.12472 20.7812 3.03392C14.8096 -1.31933 6.3007 2.28612 4.96268 9.36882C4.44457 12.1063 4.98672 14.6661 6.54774 16.9923C6.67059 17.1766 6.86556 17.3489 6.8976 17.5478C6.93099 17.7535 6.87357 18.078 6.73202 18.1795C6.59448 18.2783 6.28201 18.2062 6.08438 18.122C5.94149 18.0619 5.84935 17.8643 5.7492 17.7188C1.02741 10.8003 4.97604 2.08448 12.5421 0.336508C13.2939 0.162913 14.0738 0.109499 14.8416 0Z" fill="#4993E9"/>
<path id="Vector_4" d="M4.74106 0.0827727C5.09893 0.0787667 6.4009 1.40744 6.39155 1.76531C6.38087 2.18328 5.92284 2.441 5.58366 2.16325C5.12564 1.78935 4.69833 1.3607 4.3271 0.901342C4.06003 0.570176 4.33778 0.0867788 4.74239 0.0827727H4.74106Z" fill="#4993E9"/>
<path id="Vector_5" d="M23.9477 2.29138C23.8422 2.22328 23.6219 2.16052 23.5778 2.035C23.5137 1.85339 23.4964 1.55828 23.6032 1.43275C23.9704 0.996094 24.3897 0.600831 24.809 0.209573C25.0106 0.0212887 25.2871 0.00793515 25.4526 0.23628C25.5648 0.389845 25.665 0.722347 25.5848 0.815822C25.1562 1.31124 24.6715 1.75858 24.2014 2.2166C24.16 2.25666 24.0772 2.25533 23.9477 2.29138Z" fill="#4993E9"/>
<path id="Vector_6" d="M1.33229 11.2851C1.06655 11.2851 0.800818 11.2944 0.535083 11.2824C0.195905 11.2664 -0.00973935 11.0754 -0.00172725 10.7376C0.0049495 10.4318 0.210593 10.2422 0.511047 10.2328C1.06388 10.2141 1.61805 10.2088 2.16955 10.2408C2.466 10.2582 2.65562 10.4678 2.6396 10.7803C2.62491 11.0874 2.43395 11.2637 2.12682 11.2811C1.86242 11.2957 1.59535 11.2837 1.32962 11.2837C1.32962 11.2837 1.32962 11.2837 1.32962 11.2851H1.33229Z" fill="#4993E9"/>
<path id="Vector_7" d="M28.6203 10.2262C28.8633 10.2262 29.109 10.2088 29.3507 10.2302C29.6805 10.2596 29.8955 10.4505 29.8768 10.791C29.8608 11.0915 29.6619 11.2758 29.3521 11.2824C28.8206 11.2931 28.2891 11.2945 27.759 11.2824C27.4519 11.2758 27.2529 11.0982 27.2355 10.7924C27.2168 10.4479 27.4278 10.2569 27.7576 10.2302C28.0434 10.2075 28.3332 10.2249 28.6203 10.2249V10.2262Z" fill="#4993E9"/>
<path id="Vector_8" d="M4.75581 21.4591C4.30847 21.4538 4.04941 20.9918 4.33384 20.6499C4.71575 20.1905 5.15642 19.7726 5.61578 19.3907C5.72661 19.2985 6.05644 19.3519 6.20333 19.4548C6.32485 19.5402 6.429 19.8888 6.36224 19.9649C5.91222 20.4776 5.41814 20.9504 4.93074 21.4297C4.89202 21.4671 4.80255 21.4524 4.75715 21.4605L4.75581 21.4591Z" fill="#4993E9"/>
<path id="Vector_9" d="M23.9955 19.3025C24.3734 19.2985 25.6621 20.6312 25.6353 20.9971C25.61 21.3442 25.2481 21.6273 24.981 21.4204C24.4455 21.0051 23.9528 20.515 23.5228 19.9902C23.3105 19.7311 23.6417 19.3065 23.9955 19.3025Z" fill="#4993E9"/>
<path id="Vector_10" d="M15.1115 11.8725H12.123C12.123 12.643 12.1257 13.3895 12.1217 14.136C12.1217 14.3349 12.1631 14.5766 12.0682 14.7208C11.9521 14.8985 11.7037 15.1081 11.5288 15.0947C11.3618 15.0814 11.1989 14.8117 11.0707 14.63C11.0173 14.5553 11.0547 14.4137 11.0547 14.3029C11.0547 12.7459 11.0467 11.1875 11.0574 9.6305C11.0667 8.36325 11.8813 7.5567 13.1432 7.54067C13.5211 7.53533 13.9003 7.52999 14.2783 7.54468C15.2891 7.58741 16.1237 8.34055 16.1517 9.35408C16.1998 11.066 16.1744 12.7793 16.1785 14.4925C16.1785 14.8517 16.0236 15.1281 15.647 15.1188C15.2744 15.1094 15.1249 14.8143 15.1182 14.4685C15.1075 13.8676 15.1128 13.2667 15.1128 12.6671C15.1128 12.4254 15.1128 12.1823 15.1128 11.8739L15.1115 11.8725ZM15.1249 10.7509C15.0087 10.0151 15.4106 9.24324 14.6415 8.73982C14.2542 8.4861 12.76 8.54486 12.4648 8.82661C11.8719 9.39414 12.2018 10.0912 12.1377 10.7495H15.1249V10.7509Z" fill="#4993E9"/>
<path id="Vector_11" d="M18.8216 11.3452C18.8216 12.3453 18.8163 13.3455 18.8243 14.3457C18.827 14.7089 18.7829 15.0307 18.3396 15.0761C17.9817 15.1135 17.7573 14.8478 17.756 14.3537C17.748 12.3079 17.748 10.2635 17.756 8.21777C17.7573 7.74906 17.951 7.52872 18.2955 7.52472C18.6507 7.52071 18.8136 7.71701 18.8189 8.21109C18.8283 9.25533 18.8216 10.3009 18.8216 11.3452Z" fill="#4993E9"/>
</g>
</svg>
