<svg width="30" height="30" viewBox="0 0 30 30" fill="none" xmlns="http://www.w3.org/2000/svg">
<g id="icon" opacity="0.95">
<path id="Vector" d="M15.0137 29.999C10.5626 29.999 6.11142 29.999 1.66025 29.999C0.820167 29.999 0.269484 29.6205 0.0644417 28.9011C0.017575 28.7359 0.00703 28.5555 0.00703 28.3821C0.00468667 22.3292 0.00820167 16.2776 0 10.2259C0 9.87791 0.106622 9.65764 0.401882 9.45494C1.60753 8.62657 2.78037 7.75251 3.99187 6.93234C4.38086 6.66989 4.52146 6.38049 4.49803 5.92471C4.46288 5.2428 4.48631 4.55855 4.48983 3.87546C4.49569 2.85846 4.85656 2.49172 5.85951 2.48938C7.14834 2.48587 8.436 2.47766 9.72484 2.49524C10.0974 2.49993 10.3974 2.40033 10.6926 2.17772C11.3312 1.69733 11.992 1.24741 12.6435 0.782261C14.1127 -0.267553 15.9218 -0.259351 17.3864 0.798665C18.0191 1.25561 18.6705 1.68562 19.288 2.16131C19.6196 2.41557 19.9594 2.50227 20.3683 2.49641C21.6372 2.47766 22.9061 2.48469 24.175 2.49407C24.4058 2.49524 24.6507 2.51516 24.8628 2.59717C25.3432 2.7823 25.5072 3.19355 25.5119 3.67511C25.5189 4.45544 25.5353 5.23811 25.506 6.01727C25.492 6.41095 25.6162 6.65934 25.9442 6.88548C27.1663 7.72439 28.3602 8.60314 29.5834 9.43971C29.8974 9.6553 30.0052 9.89198 30.0052 10.2611C29.997 16.2928 30.0005 22.3257 29.997 28.3575C29.997 29.4155 29.3936 29.999 28.3087 29.999C23.8774 30.0013 19.4462 29.999 15.0137 29.999ZM5.53144 3.53568C5.51972 3.67276 5.50801 3.74892 5.50801 3.82625C5.50801 6.93 5.51152 10.0337 5.50215 13.1375C5.50215 13.4222 5.60408 13.5944 5.81733 13.7714C8.22393 15.7597 10.62 17.7609 13.0231 19.7539C14.2381 20.7615 15.7683 20.7604 16.9845 19.7516C19.3723 17.7703 21.752 15.7808 24.1457 13.8077C24.3953 13.6026 24.5031 13.4011 24.5019 13.0742C24.4902 10.049 24.4949 7.02256 24.4925 3.99732C24.4925 3.84851 24.4691 3.69854 24.455 3.53685H5.53144V3.53568ZM28.0579 28.9527C24.5546 26.0434 21.1615 23.2244 17.7672 20.4053C16.9318 21.1247 16.0343 21.4856 14.9915 21.488C13.9311 21.4915 13.036 21.0802 12.2217 20.4159C8.81211 23.249 5.42833 26.061 1.94965 28.9527H28.0591H28.0579ZM1.08028 11.1351C0.953737 11.9729 0.992402 27.8958 1.12246 28.3352C4.56013 25.4775 7.98491 22.6315 11.4495 19.7516C7.96265 16.854 4.5367 14.0069 1.07911 11.1339L1.08028 11.1351ZM28.9671 11.0988C25.4463 14.0256 22.0203 16.8739 18.5557 19.7539C22.0473 22.6503 25.4568 25.5068 28.9671 28.3926V11.0988ZM4.45937 7.81929C3.39081 8.57736 2.38669 9.28974 1.32984 10.0384C2.39489 10.9207 3.39081 11.7467 4.45937 12.6325V7.82047V7.81929ZM25.5459 12.6325C26.6203 11.7409 27.6162 10.9137 28.6742 10.0361C27.6139 9.28388 26.6074 8.57033 25.5459 7.81812V12.6325ZM17.9066 2.46829C15.5773 0.346401 13.9604 0.741253 12.1432 2.46829H17.9066Z" fill="#49E9E9"/>
<path id="Vector_2" d="M15.9081 13.6496C15.5062 13.9812 14.9954 14.2413 14.406 14.3608C12.9672 14.6525 11.6725 13.6719 11.6057 12.2061C11.5342 10.6361 12.1951 9.40347 13.437 8.49309C14.4786 7.72916 15.5495 7.80649 16.5408 8.64189C16.5982 8.6911 16.6568 8.73796 16.7552 8.81881C16.8032 8.68758 16.8396 8.58682 16.877 8.48606C17.0024 8.14393 17.1829 8.02325 17.4816 8.08183C17.7453 8.13456 17.8788 8.30445 17.8308 8.65829C17.7535 9.23592 17.6445 9.81121 17.5238 10.383C17.3645 11.1446 17.1782 11.9003 17.0094 12.6595C16.8841 13.2231 17.013 13.3778 17.5812 13.3696C18.0862 13.3614 18.4729 13.1341 18.7787 12.7427C19.6902 11.5757 19.8296 10.2764 19.3083 8.93598C18.7822 7.58387 17.764 6.76488 16.3029 6.55163C13.5882 6.15678 10.8348 7.93069 10.0661 10.5634C9.49555 12.5201 10.4505 14.6408 12.3415 15.393C14.126 16.1031 15.9842 16.2085 17.8437 15.6695C18.6404 15.4387 19.3376 15.0076 19.9023 14.3831C19.9808 14.2964 20.0558 14.2038 20.1448 14.1288C20.3921 13.9226 20.6194 13.9202 20.8256 14.1101C21.0154 14.2846 21.0681 14.5822 20.8595 14.792C20.4495 15.2044 20.0288 15.6215 19.5543 15.9507C18.5678 16.635 17.4242 16.8975 16.2455 16.9783C15.0106 17.0627 13.8026 16.8799 12.6052 16.56C9.71113 15.7855 8.0251 12.5365 9.35494 9.6296C10.379 7.39289 12.1037 5.92713 14.5618 5.55689C17.0048 5.18898 19.0224 6.02087 20.0874 8.22829C20.9662 10.0491 20.7892 11.8347 19.4992 13.434C18.863 14.2225 18.0042 14.5694 17.0024 14.2987C16.6333 14.1991 16.3193 13.9003 15.9057 13.6473L15.9081 13.6496ZM13.9151 13.3825C14.3978 13.3848 14.7891 13.2665 15.157 12.956C15.812 12.4029 16.3029 11.755 16.4142 10.8599C16.5045 10.1276 16.1588 9.61789 15.6351 9.21366C15.1816 8.8645 14.5337 8.92426 14.0018 9.31208C13.1511 9.93307 12.6567 10.786 12.5958 11.8288C12.536 12.8634 13.1113 13.4153 13.9151 13.3825Z" fill="#49E9E9"/>
</g>
</svg>
