<svg width="30" height="30" viewBox="0 0 30 30" fill="none" xmlns="http://www.w3.org/2000/svg">
<path id="icon" d="M18.346 22.2711C15.8022 20.9998 13.2788 19.7382 10.7613 18.4801C8.02233 21.9371 3.82821 21.3195 1.7551 19.2223C-0.533579 16.906 -0.585077 13.2634 1.62217 10.9232C3.65575 8.76619 7.82233 7.97017 10.7649 11.5349C13.2823 10.2768 15.807 9.01518 18.3603 7.73914C17.8765 5.90888 18.0968 4.20072 19.1496 2.63859C19.9711 1.41882 21.1053 0.606034 22.5209 0.209816C25.2863 -0.563466 28.2756 0.859804 29.4756 3.50644C30.6816 6.16504 29.7486 9.31922 27.2815 10.922C24.8898 12.4758 21.4562 12.2555 19.2466 9.40541C16.7232 10.6671 14.189 11.9335 11.6859 13.1844C11.7518 13.8308 11.8584 14.421 11.8608 15.0099C11.8632 15.5821 11.7578 16.1531 11.6883 16.8294C14.1554 18.0647 16.692 19.3336 19.2586 20.618C20.3736 19.1241 21.8562 18.2682 23.7102 18.1413C25.1545 18.042 26.4719 18.4633 27.6264 19.336C29.9882 21.1207 30.684 24.3252 29.2828 26.8845C27.8504 29.5024 24.7892 30.6455 22.0059 29.6352C19.7699 28.8236 17.3926 26.1938 18.346 22.2699V22.2711ZM24.0886 1.93953C22.1125 1.85813 20.0753 3.4406 20.0346 5.91726C19.9987 8.12698 21.8227 9.95724 24.0335 9.974C26.2623 9.99076 28.0312 8.20838 28.0756 5.97113C28.1187 3.765 26.2599 1.88566 24.0886 1.93953ZM28.0672 24.069C28.139 22.1298 26.5689 20.0722 24.0575 20.0482C21.8454 20.0267 20.0286 21.8653 20.0298 24.075C20.0298 26.3027 21.8215 28.0791 24.0647 28.0767C26.3282 28.0755 28.0684 26.3326 28.0672 24.0678V24.069ZM9.95532 15.0063C9.95532 12.7966 8.13132 10.9508 5.92288 10.9843C3.30245 11.0226 1.90121 13.1545 1.90241 15.0087C1.90361 16.8797 3.32281 18.9972 5.92527 19.0307C8.1409 19.0595 9.95651 17.2172 9.95651 15.0075L9.95532 15.0063Z" fill="#49E961"/>
</svg>
