<svg width="24" height="24" viewBox="0 0 24 24" fill="none" xmlns="http://www.w3.org/2000/svg">
<path d="M12.0026 17.1544C8.89995 17.1544 5.7973 17.1501 2.69466 17.1565C1.94309 17.1576 1.29536 16.9263 0.762196 16.3942C0.273995 15.9071 0.00634122 15.3172 0.0052706 14.6245C0.000988138 10.5947 -0.00543556 6.56382 0.00848245 2.53402C0.0138355 1.13901 1.13798 0.026641 2.53407 0.00951114C4.03186 -0.00868933 5.52965 0.00415806 7.02744 0.00415806C11.7703 0.00415806 16.5142 0.00844052 21.257 -0.000124405C22.0696 -0.00119502 22.7623 0.241835 23.3169 0.840309C23.7729 1.33172 24.0021 1.91628 24.0021 2.58863C24.0021 3.87229 24.0021 5.15596 24.0021 6.4407C24.0021 9.1515 24.0085 11.8612 23.9978 14.572C23.9924 15.8247 23.1616 16.8396 21.9454 17.0987C21.6874 17.1533 21.4144 17.1533 21.1478 17.1533C18.0987 17.1565 15.0496 17.1554 12.0005 17.1554L12.0026 17.1544ZM12.0047 15.421C15.0014 15.421 17.997 15.421 20.9936 15.421C21.136 15.421 21.2795 15.4285 21.4219 15.4178C21.924 15.3782 22.2323 15.0634 22.2687 14.557C22.2762 14.4511 22.2719 14.3429 22.2719 14.2359C22.2719 10.4726 22.2719 6.70943 22.2719 2.94621C22.2719 2.82095 22.2794 2.69569 22.2677 2.5715C22.2259 2.09507 21.9186 1.78459 21.4454 1.74177C21.3041 1.72892 21.1606 1.73749 21.0172 1.73749C15.0067 1.73749 8.9963 1.73749 2.98694 1.73749C2.84454 1.73749 2.70108 1.72892 2.55869 1.74177C2.08655 1.78566 1.78142 2.09828 1.73967 2.57471C1.73003 2.6807 1.73646 2.78883 1.73646 2.89589C1.73646 6.67731 1.73646 10.4577 1.73646 14.2391C1.73646 14.3643 1.72896 14.4896 1.74181 14.6138C1.78892 15.0613 2.08976 15.3664 2.53621 15.4135C2.69466 15.4307 2.85739 15.421 3.01691 15.421C6.01357 15.421 9.00915 15.421 12.0058 15.421H12.0047Z" fill="#1A71F5"/>
<path d="M1.85315 22.2934C1.53625 22.2934 1.2504 22.2731 0.967754 22.2977C0.461352 22.3416 0.00955224 21.923 0.00205792 21.4412C-0.00543639 20.9937 0.389621 20.5087 0.992378 20.5569C1.27395 20.5793 1.55873 20.5611 1.84352 20.5611C2.37133 19.4691 3.17322 18.8085 4.4055 18.8567C5.5168 18.8995 6.24803 19.5226 6.7373 20.5611H7.33792C12.4555 20.5611 17.5741 20.5611 22.6916 20.5611C22.8522 20.5611 23.0139 20.5526 23.1734 20.5654C23.667 20.605 24.0085 20.969 24.0031 21.439C23.9978 21.908 23.652 22.257 23.1509 22.2913C22.9914 22.302 22.8297 22.2945 22.6691 22.2945C17.5687 22.2945 12.4694 22.2945 7.36897 22.2945H6.75336C6.26516 23.3115 5.51359 23.9914 4.32949 24.001C3.14646 24.0107 2.36491 23.379 1.85529 22.2945L1.85315 22.2934ZM4.25347 22.2688C4.70206 22.2934 5.12067 21.908 5.13673 21.454C5.15279 21.0247 4.79628 20.6254 4.36161 20.5868C3.91302 20.5461 3.48691 20.9144 3.45265 21.3716C3.41946 21.8191 3.79846 22.2441 4.2524 22.2688H4.25347Z" fill="#1A71F5"/>
<path d="M8.5674 8.55853C8.5674 7.72131 8.58453 6.88408 8.56312 6.04793C8.52779 4.64971 10.0127 3.76645 11.2397 4.52338C12.6175 5.37344 14.004 6.21174 15.369 7.08215C16.551 7.83586 16.5542 9.32295 15.3754 10.0767C14.0115 10.9492 12.6347 11.8025 11.245 12.6333C9.98918 13.3849 8.58774 12.584 8.56847 11.1237C8.55777 10.2694 8.56633 9.41395 8.56633 8.5596L8.5674 8.55853ZM10.3339 6.00511V11.1537C11.7354 10.2854 13.0865 9.44821 14.4911 8.5778C13.0726 7.69989 11.73 6.86909 10.3339 6.00511Z" fill="#1A71F5"/>
</svg>
