<svg width="22" height="26" viewBox="0 0 22 26" fill="none" xmlns="http://www.w3.org/2000/svg">
<path d="M10.4754 16.8146C10.6496 17.0894 10.7571 17.2694 10.8752 17.4436C11.9333 19.008 12.9938 20.5712 14.0507 22.1367C14.433 22.7038 14.6353 23.307 14.4926 24.0097C14.2588 25.1625 13.4018 25.9763 12.2291 25.9997C11.8047 26.0078 11.3277 25.8675 10.9641 25.6466C10.563 25.4034 10.2041 25.0328 9.93286 24.6434C8.69471 22.8721 7.49279 21.0751 6.27802 19.2886C6.17045 19.1296 6.05353 18.9776 5.95766 18.8431C5.48181 19.001 5.05038 19.1799 4.60142 19.2863C2.48755 19.7855 0.337433 18.172 0.0428002 15.9927C-0.168821 14.4272 0.406414 13.1715 1.72174 12.2724C2.41272 11.8 3.1002 11.3207 3.8017 10.8658C4.12439 10.6566 4.34654 10.3958 4.51607 10.0498C5.89336 7.23555 7.33144 4.44941 8.65261 1.60948C9.3132 0.190097 10.5373 -0.244836 11.9719 0.125793C13.0487 0.404057 13.9911 0.950062 14.8411 1.64338C17.854 4.1045 19.927 7.19229 20.9395 10.9617C21.1815 11.8643 21.3089 12.788 21.1406 13.7327C21.0108 14.4646 20.7501 15.117 20.1737 15.6115C19.8253 15.9108 19.4324 16.0886 18.9624 16.126C16.7913 16.3002 14.6224 16.4943 12.4524 16.6755C11.8339 16.7269 11.2131 16.7632 10.4765 16.8146H10.4754ZM9.62654 3.41469C9.61251 3.41819 9.59848 3.4217 9.58445 3.42404C9.68032 3.97823 9.72592 4.54528 9.87791 5.0831C10.8659 8.56491 12.8266 11.4048 15.6361 13.6637C16.2897 14.1898 17.0192 14.606 17.8435 14.8247C18.7087 15.0538 19.395 14.7159 19.6967 13.8695C19.8124 13.5456 19.8779 13.1913 19.8954 12.8464C19.9387 12.0011 19.7528 11.1839 19.4897 10.3865C18.7964 8.28547 17.6354 6.4522 16.2394 4.75807C15.2783 3.5924 14.1863 2.56937 12.8476 1.84682C12.4244 1.61883 11.9626 1.43176 11.496 1.31718C10.5128 1.07399 9.76099 1.64689 9.66512 2.65823C9.64174 2.9096 9.63823 3.16331 9.62537 3.41585L9.62654 3.41469ZM15.4689 15.1345C11.9205 12.4618 9.64057 9.08051 8.46788 4.81653C7.4355 6.92689 6.45573 8.92852 5.47713 10.929C6.52004 12.4664 7.53137 13.9677 8.56025 15.4572C8.64092 15.5741 8.84553 15.6793 8.98466 15.6712C10.4403 15.5753 11.8947 15.4595 13.348 15.3403C14.0238 15.2853 14.6984 15.2105 15.4689 15.1345ZM4.57687 11.8491C3.75493 12.4115 3.00432 12.8979 2.28294 13.4228C1.20964 14.2027 0.940728 15.6092 1.61534 16.7515C2.34725 17.9896 3.707 18.5087 4.90891 17.8844C5.81502 17.4144 6.63695 16.7795 7.5302 16.1961C6.53173 14.7276 5.573 13.3176 4.57687 11.8503V11.8491ZM6.96783 18.0785C8.40124 20.1853 9.78204 22.2326 11.1851 24.2646C11.5522 24.7954 12.2934 24.8901 12.7927 24.53C13.3118 24.157 13.4334 23.4602 13.0359 22.8674C11.7685 20.9769 10.4859 19.0957 9.2033 17.2156C8.97764 16.8848 8.81045 16.8438 8.47256 17.0578C7.98151 17.3688 7.50799 17.709 6.96666 18.0785H6.96783Z" fill="#1A71F5"/>
<path d="M13.6968 5.65231C14.8847 5.57397 16.207 6.36433 16.6957 7.63523C17.1833 8.90262 16.8746 10.232 15.8715 11.1498C15.8422 11.1755 15.8142 11.2024 15.7838 11.2269C15.3325 11.6081 14.9981 11.635 14.7116 11.3135C14.4299 10.9966 14.5035 10.6879 14.9572 10.2799C15.6902 9.61932 15.8516 8.52731 15.3301 7.74396C14.7876 6.92671 13.7833 6.66364 12.8597 7.09741C12.772 7.13833 12.6913 7.19445 12.6025 7.2342C12.2774 7.37918 11.9571 7.29968 11.7817 7.03427C11.6063 6.77004 11.6554 6.42513 11.9419 6.20416C12.3826 5.86393 12.8889 5.67569 13.4501 5.65231C13.5471 5.64763 13.6442 5.65231 13.6956 5.65231H13.6968Z" fill="#1A71F5"/>
</svg>
