<svg width="25" height="24" viewBox="0 0 25 24" fill="none" xmlns="http://www.w3.org/2000/svg">
<path d="M3.38594e-05 12.0208C-0.0130671 6.53808 3.77685 1.62616 9.21187 0.338521C16.1086 -1.29535 22.4831 3.18423 23.739 9.4914C24.6981 14.306 23.1831 18.2999 19.4231 21.447C19.3277 21.5265 19.2266 21.6032 19.1171 21.6603C18.7971 21.8269 18.4611 21.753 18.2356 21.4778C18.0279 21.2242 18.0232 20.8293 18.2422 20.572C18.332 20.4663 18.448 20.383 18.5575 20.2959C20.5582 18.6995 21.8496 16.6539 22.3605 14.146C23.5134 8.49105 19.978 3.02609 14.4223 1.73564C8.61203 0.384375 2.87101 4.02831 1.70409 9.89753C0.901192 13.9373 2.14672 17.3679 5.25632 20.0976C5.39669 20.2211 5.55296 20.3259 5.6924 20.4503C6.00775 20.7311 6.06297 21.1522 5.83276 21.4554C5.57823 21.7913 5.1721 21.8512 4.79779 21.5761C4.04074 21.0193 3.37072 20.368 2.77276 19.6428C1.36347 17.9312 0.491319 15.9754 0.152566 13.7876C0.0627313 13.2046 0.0486945 12.6104 3.38594e-05 12.0208Z" fill="#1A71F5"/>
<path d="M14.4922 15.7752C15.3447 16.3779 15.9679 17.1246 16.258 18.1007C16.3937 18.5583 16.491 19.043 16.5051 19.5184C16.5397 20.7021 16.52 21.8878 16.5163 23.0734C16.5135 23.7472 16.2571 23.998 15.5777 23.9989C13.2074 24.0008 10.837 24.0008 8.46763 23.9989C7.79106 23.9989 7.53653 23.7462 7.53372 23.0687C7.52998 21.9458 7.53091 20.8238 7.53372 19.7009C7.53653 18.1353 8.12888 16.857 9.38844 15.9053C9.4371 15.8688 9.48295 15.8277 9.55875 15.7659C8.24117 14.8076 7.51781 13.5322 7.54401 11.9049C7.5646 10.65 8.06711 9.57756 8.98886 8.71571C10.823 7.00136 13.7155 7.15108 15.3896 9.05166C17.0282 10.912 16.9776 13.9374 14.4931 15.7762L14.4922 15.7752ZM15.0097 22.54C15.0097 21.33 15.0106 20.1631 15.0069 18.9962C15.0069 18.9054 14.9741 18.8128 14.9489 18.7239C14.5352 17.2407 13.1391 16.3058 11.5903 16.522C10.0023 16.7438 9.00851 18.1119 9.00758 19.4005C9.00758 20.3662 9.00477 21.3329 9.0057 22.2986C9.0057 22.3725 9.02629 22.4464 9.04126 22.541H15.0106L15.0097 22.54ZM12.0872 8.98615C10.3879 8.9534 9.03846 10.2476 9.0057 11.9432C8.97295 13.6426 10.2671 14.9911 11.9637 15.0248C13.6612 15.0584 15.0106 13.7633 15.0452 12.0667C15.0789 10.3674 13.7847 9.0189 12.0882 8.98615H12.0872Z" fill="#1A71F5"/>
<path d="M3.78125 12.3971C3.79154 7.97457 6.76452 4.48317 10.6967 3.86649C15.1866 3.16185 19.3854 6.15074 20.1509 10.6322C20.5299 12.8528 20.0433 14.9022 18.7584 16.7578C18.5909 17.0002 18.3982 17.1827 18.08 17.1845C17.5419 17.1873 17.1966 16.6642 17.4259 16.1758C17.4914 16.0363 17.5887 15.9109 17.6748 15.7818C20.4045 11.6831 18.0033 6.10207 13.1447 5.30385C9.39688 4.68811 5.93823 7.19788 5.32061 10.9195C5.02584 12.7003 5.41138 14.3557 6.42671 15.8567C6.49595 15.9596 6.57269 16.0607 6.62509 16.172C6.78698 16.5136 6.68498 16.8673 6.3743 17.0741C6.10012 17.2566 5.71177 17.222 5.47314 16.9805C5.37582 16.8813 5.29628 16.7625 5.21768 16.6474C4.26037 15.2419 3.79529 13.6838 3.78219 12.399L3.78125 12.3971Z" fill="#1A71F5"/>
</svg>
