<svg width="23" height="22" viewBox="0 0 23 22" fill="none" xmlns="http://www.w3.org/2000/svg">
<path d="M13.4138 16.3271C11.5688 15.4045 9.74647 14.4934 7.89966 13.57C6.96663 14.777 5.74038 15.4238 4.20954 15.3748C3.04019 15.338 2.03013 14.8671 1.22401 14.0138C-0.511639 12.1748 -0.344464 9.48426 1.36493 7.85189C3.17935 6.11886 6.05898 6.15037 7.89791 8.43569C9.73071 7.51929 11.5731 6.59851 13.4243 5.67335C13.1101 4.38934 13.23 3.19022 13.9259 2.07864C14.5053 1.15261 15.3219 0.532917 16.3652 0.199441C18.4046 -0.451756 20.6278 0.538169 21.5748 2.49176C22.5499 4.50312 21.8348 6.81207 20.0501 8.00856C18.3101 9.17616 15.8016 9.06063 14.1526 7.002C13.8418 7.04927 9.19943 9.32933 8.58937 9.73721C8.80556 10.5722 8.81606 11.4195 8.57536 12.3C10.4152 13.2199 12.248 14.1363 14.107 15.0658C14.9902 13.9525 16.0974 13.303 17.518 13.2619C18.6322 13.2295 19.6151 13.5875 20.4553 14.3035C22.0317 15.6452 22.493 17.9052 21.4365 19.7695C20.4256 21.555 18.1761 22.5161 16.086 21.7143C14.43 21.0789 12.753 19.1892 13.4138 16.3262V16.3271ZM20.535 4.36658C20.5718 2.79635 19.2291 1.44407 17.616 1.46683C16.2348 1.48608 14.7154 2.47601 14.7285 4.40159C14.7399 6.08473 15.9959 7.28997 17.63 7.27859C19.5888 7.26546 20.5551 5.72587 20.535 4.3657V4.36658ZM20.535 17.6496C20.563 16.3131 19.623 14.7481 17.6422 14.7253C15.9749 14.7061 14.7145 15.9568 14.7294 17.633C14.7469 19.5866 16.2733 20.5126 17.6046 20.5371C19.2221 20.5669 20.5665 19.2155 20.5359 17.6496H20.535ZM4.37147 13.893C5.75001 13.9595 7.28697 12.8785 7.28435 10.9985C7.28085 9.11489 5.74038 8.09608 4.36359 8.09784C2.85113 8.09959 1.47696 9.3731 1.46821 10.9845C1.45946 12.6203 2.84675 13.9586 4.37147 13.893Z" fill="#1A71F5"/>
</svg>
