<svg width="1920" height="950" viewBox="0 0 1920 950" fill="none" xmlns="http://www.w3.org/2000/svg">
<rect width="1920" height="950" fill="white"/>
<mask id="mask0_9265_13" style="mask-type:alpha" maskUnits="userSpaceOnUse" x="0" y="0" width="1920" height="950">
<rect width="1920" height="950" fill="url(#paint0_linear_9265_13)"/>
</mask>
<g mask="url(#mask0_9265_13)">
<path d="M0 -370H1920V590C1920 1120.19 1490.19 1550 960 1550V1550C429.807 1550 0 1120.19 0 590V-370Z" fill="#E7EAFA"/>
<rect x="113" width="1" height="950" fill="#D5D9EA"/>
<rect x="226" width="1" height="950" fill="#D5D9EA"/>
<rect x="339" width="1" height="950" fill="#D5D9EA"/>
<rect x="452" width="1" height="950" fill="#D5D9EA"/>
<rect x="565" width="1" height="950" fill="#D5D9EA"/>
<rect x="678" width="1" height="950" fill="#D5D9EA"/>
<rect x="791" width="1" height="950" fill="#D5D9EA"/>
<rect x="904" width="1" height="950" fill="#D5D9EA"/>
<rect x="1017" width="1" height="950" fill="#D5D9EA"/>
<rect x="1130" width="1" height="950" fill="#D5D9EA"/>
<rect x="1243" width="1" height="950" fill="#D5D9EA"/>
<rect x="1356" width="1" height="950" fill="#D5D9EA"/>
<rect x="1469" width="1" height="950" fill="#D5D9EA"/>
<rect x="1582" width="1" height="950" fill="#D5D9EA"/>
<rect x="1695" width="1" height="950" fill="#D5D9EA"/>
<rect x="1808" width="1" height="950" fill="#D5D9EA"/>
<rect y="105" width="1920" height="1" fill="#D5D9EA"/>
<rect y="210" width="1920" height="1" fill="#D5D9EA"/>
<rect y="315" width="1920" height="1" fill="#D5D9EA"/>
<rect y="420" width="1920" height="1" fill="#D5D9EA"/>
<rect y="525" width="1920" height="1" fill="#D5D9EA"/>
<rect y="630" width="1920" height="1" fill="#D5D9EA"/>
<rect y="735" width="1920" height="1" fill="#D5D9EA"/>
<rect y="840" width="1920" height="1" fill="#D5D9EA"/>
<rect x="904" y="315" width="114" height="106" fill="#CDD1E8"/>
<rect x="1356" y="420" width="114" height="106" fill="#D9DCED"/>
<rect x="565" y="735" width="114" height="106" fill="#BFC3D7"/>
<rect x="1356" y="105" width="114" height="106" fill="#D9DCED"/>
<rect x="1695" y="315" width="114" height="106" fill="#D9DCED"/>
<rect x="1809" y="421" width="114" height="106" fill="#D9DCED"/>
<rect x="226" y="210" width="114" height="106" fill="#D2D6EA"/>
<rect x="113" y="105" width="114" height="106" fill="#D2D6EA"/>
</g>
<defs>
<linearGradient id="paint0_linear_9265_13" x1="960" y1="0" x2="960" y2="950" gradientUnits="userSpaceOnUse">
<stop stop-color="white"/>
<stop offset="0.603551" stop-color="white" stop-opacity="0.5"/>
<stop offset="1" stop-color="white" stop-opacity="0"/>
</linearGradient>
</defs>
</svg>
