<svg width="27" height="20" viewBox="0 0 27 20" fill="none" xmlns="http://www.w3.org/2000/svg">
<g opacity="0.94">
<path d="M19.841 3.32413C20.4085 2.75147 20.9303 2.22153 21.4552 1.69567C21.8498 1.29999 22.2374 0.895167 22.6483 0.516786C23.2484 -0.0365446 24.1852 -0.153517 24.9237 0.204521C25.6458 0.555438 26.0964 1.33458 26.0354 2.15847C25.9957 2.7057 25.7445 3.15019 25.356 3.53569C23.8892 4.99226 22.4449 6.47221 20.9608 7.91047C20.5753 8.28478 20.4258 8.65807 20.435 9.19004C20.4655 11.0708 20.4492 12.9515 20.4462 14.8322C20.4441 16.0955 19.6823 16.9377 18.4291 17.0679C18.2278 17.0893 18.0233 17.0892 17.8199 17.0892C15.1427 17.0903 12.4656 17.0964 9.78844 17.0821C9.4243 17.0801 9.20256 17.191 9.00524 17.4992C8.59532 18.14 8.11726 18.7381 7.7104 19.3809C7.1825 20.217 5.92326 20.1987 5.40757 19.3717C4.98647 18.6974 4.49823 18.0667 4.05577 17.4056C3.8971 17.1686 3.71401 17.076 3.42717 17.0811C2.90334 17.0923 2.37442 17.0954 1.85466 17.0374C0.784611 16.9204 0.0095414 16.0477 0.00648995 14.9675C-0.00164727 11.562 -0.00266442 8.1556 0.00648995 4.75017C0.0095414 3.61605 0.874121 2.73418 2.01231 2.66298C2.21473 2.64975 2.41918 2.65179 2.62159 2.65179C7.65344 2.65179 12.6863 2.65382 17.7182 2.64874C18.4912 2.64874 19.2541 2.64467 19.8389 3.32413H19.841ZM19.3242 3.85406C19.0089 3.46958 18.6489 3.38007 18.243 3.38007C12.904 3.3821 7.56495 3.39126 2.22592 3.37193C1.2942 3.36888 0.706291 4.12666 0.710359 4.91495C0.728668 8.21968 0.725617 11.5254 0.711376 14.8302C0.708325 15.5411 1.21283 16.3732 2.19642 16.3457C2.72127 16.3305 3.24714 16.3508 3.773 16.3406C4.07205 16.3355 4.27446 16.4454 4.44534 16.7007C4.94375 17.4463 5.46351 18.1786 5.98328 18.91C6.35555 19.4338 6.77564 19.4297 7.15198 18.8988C7.63106 18.2213 8.12133 17.551 8.56786 16.8523C8.81605 16.4627 9.11305 16.3305 9.57077 16.3335C12.4351 16.3528 15.2994 16.3467 18.1637 16.3406C19.1839 16.3386 19.7291 15.7873 19.7321 14.7691C19.7362 13.04 19.7342 11.3118 19.7321 9.58267C19.7321 9.47688 19.7158 9.37211 19.7016 9.18699C18.8726 10.017 18.0813 10.7585 17.35 11.5549C16.6929 12.271 15.9331 12.7908 15.0247 13.1295C14.329 13.3888 13.6587 13.7174 12.9711 13.9991C12.488 14.1965 12.0496 14.0317 11.9529 13.5923C11.9102 13.398 11.9682 13.1569 12.0475 12.9637C12.3557 12.214 12.7148 11.4837 13.0108 10.729C13.2946 10.0038 13.6933 9.37415 14.2843 8.86557C14.4562 8.71707 14.6026 8.54008 14.8417 8.29393H14.1551C11.1209 8.29393 8.08776 8.29393 5.0536 8.29393C4.90103 8.29393 4.74845 8.29393 4.59588 8.28783C4.39855 8.27969 4.2826 8.18103 4.26632 7.97658C4.25107 7.77519 4.35278 7.64397 4.53485 7.60024C4.6803 7.56565 4.83695 7.57481 4.98952 7.57481C7.20996 7.57379 9.43041 7.57481 11.6508 7.57481C12.8368 7.57481 14.0239 7.57481 15.2099 7.57481C15.4143 7.57481 15.5964 7.56769 15.7642 7.39884C16.935 6.22098 18.1159 5.0543 19.3242 3.85305V3.85406ZM22.158 2.17474C19.5826 4.74 16.9848 7.32866 14.4053 9.89798C14.979 10.4605 15.5781 11.0484 16.1202 11.5804C18.6814 9.01916 21.2741 6.42644 23.8496 3.84999C23.2932 3.2987 22.6951 2.70672 22.158 2.17474ZM24.5321 3.30073C24.9938 2.93761 25.42 2.5043 25.301 1.8045C25.2125 1.28067 24.8972 0.898218 24.3724 0.768023C23.6288 0.582901 23.104 0.941956 22.7164 1.49529C23.3206 2.09642 23.9167 2.68942 24.5321 3.30073ZM13.8581 10.613C13.6801 11.0321 13.4858 11.4888 13.3556 11.794C13.6841 12.1489 13.9313 12.4175 14.2049 12.7135C14.5823 12.5395 15.0237 12.3371 15.4031 12.1632C14.8834 11.6414 14.3738 11.1308 13.8581 10.613ZM13.4614 13.042C13.2661 12.8681 13.1461 12.7602 12.9731 12.6056C12.906 12.8945 12.7046 13.0705 12.7524 13.3614C12.9803 13.2587 13.1766 13.1702 13.4614 13.042Z" fill="#101221"/>
<path d="M7.72096 12.1419C6.774 12.1419 5.82703 12.143 4.88006 12.1399C4.74681 12.1399 4.58407 12.1592 4.48744 12.0931C4.38267 12.0209 4.29927 11.8653 4.27892 11.7341C4.25248 11.5642 4.37759 11.4564 4.55254 11.434C4.63594 11.4238 4.72138 11.4238 4.80581 11.4238C6.71704 11.4238 8.62826 11.4238 10.5395 11.4238C10.6239 11.4238 10.7094 11.4238 10.7928 11.4309C10.9921 11.4493 11.0949 11.5632 11.101 11.7636C11.1071 11.9639 10.9982 12.084 10.8151 12.1246C10.7012 12.1501 10.5802 12.1409 10.4622 12.1409C9.54879 12.1419 8.63539 12.1409 7.72198 12.1409L7.72096 12.1419Z" fill="#101221"/>
</g>
</svg>
