<svg width="28" height="27" viewBox="0 0 28 27" fill="none" xmlns="http://www.w3.org/2000/svg">
<g clip-path="url(#clip0_2086_191)">
<path d="M22.1445 10.278C22.6354 10.0859 23.1354 9.91442 23.6149 9.69733C24.3842 9.34975 25.1347 9.72119 25.3527 10.4676C25.4228 10.708 25.5369 10.935 25.6151 11.1729C25.8162 11.7877 25.5705 12.3493 24.9866 12.6215C24.8913 12.6659 24.7907 12.7009 24.6922 12.7387C21.3244 14.0327 17.9554 15.3253 14.5896 16.6245C14.3349 16.7229 14.0928 16.7636 13.82 16.7115C13.1847 16.5902 12.5459 16.4906 11.9087 16.3814C11.8436 16.3698 11.7788 16.3575 11.7158 16.3372C11.3616 16.2221 11.2709 15.9638 11.5011 15.6652C11.8151 15.2581 12.1699 14.8805 12.466 14.4611C12.8311 13.9431 13.3092 13.6395 13.9018 13.4198C16.1574 12.5846 18.3963 11.7029 20.6447 10.8489C20.8851 10.7572 21.0333 10.6252 21.1352 10.3867C21.5037 9.52388 21.8957 8.67063 22.2744 7.8123C22.5384 7.21365 22.3967 6.82594 21.8034 6.56177C17.9524 4.8446 14.1015 3.12919 10.2482 1.41709C9.65853 1.15453 9.2754 1.31121 9.00768 1.91251C7.15157 6.07752 5.30342 10.2461 3.43571 14.4059C3.2246 14.8762 3.29607 15.4176 3.93159 15.6962C5.68713 16.4656 7.43194 17.2572 9.1878 18.026C9.49594 18.1606 9.70621 18.3531 9.87109 18.6418C10.4215 19.6048 10.9914 20.5573 11.5543 21.5137C11.6073 21.6032 11.6644 21.6894 11.7451 21.8182L12.3996 20.3483C12.3182 20.2912 12.2179 20.2318 12.1294 20.1577C11.9907 20.0421 11.961 19.8848 12.0302 19.7273C12.107 19.5548 12.253 19.4627 12.4475 19.5076C12.5615 19.5341 12.6721 19.5842 12.7807 19.6326C13.6022 19.9966 14.4234 20.3631 15.2442 20.7285C15.3406 20.7714 15.436 20.8183 15.535 20.8554C16.0486 21.045 16.4488 20.8872 16.6735 20.3883C17.2269 19.159 17.7716 17.9258 18.3207 16.6945C18.3636 16.5982 18.4006 16.4975 18.4548 16.407C18.5794 16.2012 18.7637 16.1383 18.9585 16.2233C19.1557 16.3085 19.2348 16.4878 19.169 16.7154C19.1468 16.7906 19.1088 16.8623 19.0766 16.9347C18.5283 18.1663 17.9564 19.3883 17.4403 20.6333C17.1087 21.4328 16.1731 22.0406 15.1198 21.5247C14.6094 21.2749 14.0829 21.0596 13.5635 20.8283C13.4447 20.7754 13.3258 20.7225 13.186 20.6603C13.116 20.794 13.0566 20.8926 13.0101 20.9969C12.7554 21.5632 12.5011 22.1305 12.2521 22.6994C12.1642 22.9007 12.0699 23.0931 11.8169 23.1037C11.5798 23.1136 11.4795 22.9353 11.3769 22.7602C10.6765 21.5629 9.96803 20.3699 9.27522 19.1691C9.13552 18.9272 8.9592 18.7714 8.70282 18.659C7.03237 17.9266 5.36708 17.1825 3.70307 16.4356C3.48791 16.3398 3.2676 16.2321 3.08733 16.0833C2.57454 15.6597 2.40511 14.9601 2.63195 14.318C2.66284 14.2311 2.70275 14.1473 2.74049 14.0625C4.58339 9.91942 6.42741 5.77768 8.27329 1.63762C8.35296 1.45868 8.4497 1.2804 8.56881 1.12596C9.01075 0.55448 9.74601 0.365339 10.4184 0.635196C10.5164 0.674473 10.6128 0.719144 10.7092 0.762043C14.4764 2.43931 18.2436 4.11657 22.0101 5.79529C22.2021 5.88076 22.4019 5.96624 22.5676 6.09124C23.1525 6.53222 23.3548 7.29245 23.0673 7.97346C22.7995 8.606 22.5119 9.23056 22.2323 9.85867C22.18 9.97603 22.1278 10.0934 22.0755 10.2108C22.0985 10.2332 22.1212 10.2563 22.1442 10.2787L22.1445 10.278ZM14.3789 15.7564C17.4948 14.5603 20.6198 13.3613 23.6942 12.1806C23.5324 11.7309 23.3548 11.2369 23.2015 10.811C20.0827 12.0058 16.9569 13.2027 13.8625 14.3875C14.0333 14.8403 14.219 15.3319 14.3789 15.7564ZM24.0578 10.4067C24.2532 10.9269 24.4394 11.4212 24.6224 11.909C24.9189 11.7441 24.9554 11.67 24.8429 11.3474C24.761 11.1122 24.6728 10.8775 24.5748 10.649C24.4477 10.3537 24.3266 10.3137 24.0574 10.4074L24.0578 10.4067ZM13.1489 14.9101C12.9334 15.1718 12.7469 15.3978 12.5145 15.6798C12.882 15.7358 13.1804 15.781 13.5075 15.8302C13.3799 15.5026 13.2724 15.2273 13.1492 14.9094L13.1489 14.9101Z" fill="black"/>
<path d="M14.5243 9.50133C15.0915 9.75388 15.6588 10.0064 16.2268 10.2593C16.3115 10.2971 16.3996 10.3293 16.4764 10.3791C16.653 10.4933 16.7137 10.661 16.6477 10.8599C16.5864 11.0445 16.3723 11.1375 16.1554 11.0826C16.0922 11.0666 16.0319 11.0363 15.9718 11.0095C14.7887 10.4828 13.6057 9.95606 12.4226 9.42933C12.3386 9.39192 12.2486 9.35619 12.1796 9.29857C12.0339 9.17552 11.9882 9.01888 12.0709 8.83697C12.1544 8.65537 12.3017 8.5838 12.4899 8.61726C12.5922 8.63504 12.6893 8.68608 12.7849 8.72865C13.3651 8.98524 13.9441 9.24473 14.5236 9.50277L14.5243 9.50133Z" fill="black"/>
<path d="M8.8044 14.1207C9.31008 14.3458 9.81567 14.5692 10.3201 14.7973C10.4273 14.845 10.5372 14.8983 10.6268 14.972C10.7661 15.0861 10.7834 15.2501 10.7118 15.4031C10.6405 15.5554 10.5044 15.6467 10.3269 15.6163C10.2253 15.5988 10.1257 15.5554 10.0301 15.5128C9.00654 15.0588 7.984 14.6044 6.96203 14.1468C6.59255 13.9823 6.48372 13.8114 6.58267 13.5716C6.68663 13.3167 6.9014 13.2769 7.28851 13.4467C7.79515 13.6696 8.29913 13.8966 8.8048 14.1218L8.8044 14.1207Z" fill="black"/>
<path d="M12.5473 5.04704C12.9689 5.23476 13.3912 5.42104 13.8111 5.61061C13.9067 5.65319 14.008 5.69481 14.0876 5.75976C14.2247 5.87289 14.267 6.04709 14.1795 6.18697C14.1129 6.29361 13.9699 6.38096 13.8442 6.4118C13.7437 6.43654 13.6129 6.37743 13.5072 6.33034C12.6504 5.95407 11.7957 5.57097 10.9409 5.19036C10.8808 5.16359 10.8193 5.13794 10.764 5.10207C10.5461 4.9599 10.4855 4.76452 10.5922 4.56377C10.6918 4.37719 10.8642 4.31764 11.0992 4.4058C11.2844 4.47525 11.4623 4.56313 11.6427 4.64345C11.9441 4.77763 12.2448 4.91149 12.5461 5.04567L12.5473 5.04704Z" fill="black"/>
<path d="M16.662 6.88152C17.0235 7.04248 17.3899 7.19433 17.746 7.3676C18.02 7.50088 18.0894 7.79136 17.9105 7.98255C17.7767 8.12523 17.6067 8.15024 17.4373 8.07653C16.711 7.7601 15.9853 7.44222 15.2674 7.10872C15.0285 6.99801 14.9567 6.78113 15.0416 6.58455C15.132 6.37567 15.3478 6.30423 15.613 6.41447C15.9665 6.56229 16.3131 6.72356 16.663 6.87935C16.663 6.87935 16.6627 6.88007 16.6623 6.8808L16.662 6.88152Z" fill="black"/>
<path d="M10.4603 7.69173C10.6769 7.78817 10.8992 7.87584 11.1096 7.98428C11.3272 8.09594 11.3967 8.27707 11.3232 8.47349C11.2436 8.68721 11.0439 8.79273 10.8071 8.69683C10.3428 8.50924 9.88458 8.30434 9.43349 8.08528C9.21865 7.98094 9.16419 7.77961 9.24709 7.58561C9.33741 7.37495 9.52693 7.2944 9.77253 7.38812C10.0062 7.47741 10.2317 7.58908 10.4603 7.69173Z" fill="black"/>
<path d="M11.4341 12.5597C11.2537 12.4794 11.0704 12.4056 10.8943 12.3176C10.6535 12.1974 10.5705 12.0155 10.649 11.8099C10.7294 11.6001 10.9286 11.4978 11.1682 11.5932C11.5835 11.7581 11.9928 11.9404 12.3933 12.1386C12.6267 12.2539 12.6852 12.4657 12.5849 12.6675C12.4866 12.8668 12.297 12.93 12.0469 12.8308C11.8395 12.7489 11.6377 12.6503 11.4334 12.5594L11.4341 12.5597Z" fill="black"/>
<path d="M8.83151 11.3971C8.69965 11.3384 8.56248 11.2878 8.43619 11.2185C8.24873 11.1151 8.18974 10.9473 8.26322 10.7492C8.33735 10.5495 8.50482 10.4444 8.70132 10.5119C9.00964 10.6188 9.31311 10.7522 9.59885 10.9098C9.77504 11.0073 9.82645 11.2038 9.72986 11.3935C9.63521 11.5788 9.46736 11.6516 9.26554 11.5843C9.1167 11.5345 8.97664 11.4592 8.83247 11.395C8.83247 11.395 8.83215 11.3957 8.83183 11.3964L8.83151 11.3971Z" fill="black"/>
<path d="M19.1126 8.83755C19.0039 8.77959 18.8675 8.72322 18.7506 8.64077C18.5776 8.51859 18.5335 8.34448 18.6325 8.15331C18.7315 7.96214 18.8979 7.8947 19.0977 7.97237C19.343 8.06859 19.5836 8.17744 19.8213 8.29282C20.0147 8.38675 20.0749 8.55588 20.0175 8.7569C19.9632 8.9489 19.7617 9.05449 19.5398 8.99911C19.4006 8.96488 19.269 8.89764 19.113 8.83683L19.1126 8.83755Z" fill="black"/>
</g>
<defs>
<clipPath id="clip0_2086_191">
<rect width="20.0515" height="20" fill="white" transform="translate(9) rotate(24)"/>
</clipPath>
</defs>
</svg>
