<svg width="34" height="26" viewBox="0 0 34 26" fill="none" xmlns="http://www.w3.org/2000/svg">
<g opacity="0.94">
<path d="M25.7932 4.32136C26.5311 3.57691 27.2094 2.88799 27.8917 2.20437C28.4048 1.68999 28.9086 1.16372 29.4428 0.671822C30.2229 -0.047508 31.4408 -0.199572 32.4008 0.265877C33.3396 0.72207 33.9254 1.73495 33.846 2.80601C33.7945 3.51741 33.4679 4.09525 32.9627 4.5964C31.056 6.48993 29.1783 8.41388 27.2491 10.2836C26.7479 10.7702 26.5536 11.2555 26.5655 11.9471C26.6051 14.392 26.584 16.8369 26.58 19.2818C26.5774 20.9241 25.587 22.019 23.9579 22.1883C23.6961 22.216 23.4303 22.216 23.1658 22.216C19.6856 22.2173 16.2053 22.2253 12.725 22.2068C12.2516 22.2041 11.9633 22.3483 11.7068 22.7489C11.1739 23.582 10.5524 24.3595 10.0235 25.1952C9.33725 26.2821 7.70024 26.2583 7.02984 25.1833C6.48241 24.3066 5.8477 23.4868 5.2725 22.6273C5.06623 22.3192 4.82821 22.1988 4.45532 22.2054C3.77434 22.22 3.08675 22.224 2.41105 22.1486C1.01999 21.9965 0.0124038 20.862 0.00843693 19.4577C-0.00214145 15.0307 -0.00346375 10.6023 0.00843693 6.17523C0.0124038 4.70086 1.13636 3.55443 2.61601 3.46187C2.87915 3.44468 3.14493 3.44733 3.40806 3.44733C9.94947 3.44733 16.4922 3.44997 23.0336 3.44336C24.0386 3.44336 25.0303 3.43807 25.7906 4.32136H25.7932ZM25.1215 5.01028C24.7116 4.51045 24.2435 4.39409 23.7159 4.39409C16.7752 4.39674 9.83443 4.40864 2.89369 4.38351C1.68247 4.37955 0.918178 5.36466 0.923467 6.38944C0.947268 10.6856 0.943302 14.9831 0.924789 19.2792C0.920822 20.2035 1.57668 21.2851 2.85534 21.2494C3.53765 21.2296 4.22128 21.256 4.90491 21.2428C5.29366 21.2362 5.5568 21.379 5.77894 21.7109C6.42687 22.6802 7.10256 23.6322 7.77826 24.5829C8.26222 25.2639 8.80833 25.2586 9.29758 24.5684C9.92038 23.6877 10.5577 22.8163 11.1382 21.9079C11.4609 21.4015 11.847 21.2296 12.442 21.2336C16.1656 21.2587 19.8892 21.2507 23.6128 21.2428C24.939 21.2402 25.6478 20.5235 25.6518 19.1999C25.657 16.952 25.6544 14.7054 25.6518 12.4575C25.6518 12.3199 25.6306 12.1837 25.6121 11.9431C24.5344 13.0221 23.5057 13.986 22.5549 15.0214C21.7007 15.9523 20.713 16.628 19.5322 17.0683C18.6277 17.4055 17.7563 17.8326 16.8624 18.1989C16.2344 18.4554 15.6644 18.2412 15.5388 17.67C15.4833 17.4174 15.5587 17.104 15.6618 16.8528C16.0625 15.8782 16.5292 14.9288 16.914 13.9477C17.2829 13.0049 17.8013 12.1864 18.5695 11.5252C18.793 11.3322 18.9834 11.1021 19.2942 10.7821H18.4016C14.4572 10.7821 10.5141 10.7821 6.56968 10.7821C6.37133 10.7821 6.17299 10.7821 5.97464 10.7742C5.71812 10.7636 5.56738 10.6353 5.54622 10.3696C5.52639 10.1077 5.65862 9.93717 5.89531 9.88031C6.0844 9.83535 6.28803 9.84725 6.48637 9.84725C9.37295 9.84593 12.2595 9.84725 15.1461 9.84725C16.6879 9.84725 18.231 9.84725 19.7728 9.84725C20.0386 9.84725 20.2753 9.83799 20.4935 9.61849C22.0154 8.08727 23.5506 6.57059 25.1215 5.00896V5.01028ZM28.8054 2.82717C25.4574 6.162 22.0802 9.52725 18.7269 12.8674C19.4727 13.5986 20.2515 14.3629 20.9563 15.0545C24.2858 11.7249 27.6564 8.35437 31.0044 5.00499C30.2811 4.28831 29.5036 3.51873 28.8054 2.82717ZM31.8917 4.29095C32.492 3.81889 33.0461 3.25559 32.8913 2.34585C32.7763 1.66487 32.3664 1.16768 31.6841 0.99843C30.7175 0.757772 30.0352 1.22454 29.5314 1.94387C30.3168 2.72535 31.0917 3.49625 31.8917 4.29095ZM18.0155 13.797C17.7841 14.3417 17.5315 14.9355 17.3623 15.3321C17.7894 15.7936 18.1107 16.1427 18.4664 16.5275C18.957 16.3014 19.5308 16.0382 20.0241 15.8121C19.3484 15.1338 18.6859 14.47 18.0155 13.797ZM17.4998 16.9546C17.2459 16.7285 17.0899 16.5883 16.8651 16.3873C16.7778 16.7629 16.516 16.9916 16.5782 17.3698C16.8743 17.2362 17.1295 17.1212 17.4998 16.9546Z" fill="#101221"/>
<path d="M10.0378 15.7845C8.80678 15.7845 7.57572 15.7858 6.34466 15.7819C6.17144 15.7819 5.95987 15.807 5.83426 15.721C5.69806 15.6271 5.58963 15.4248 5.56319 15.2543C5.52881 15.0334 5.69145 14.8933 5.91888 14.8642C6.02731 14.851 6.13838 14.851 6.24814 14.851C8.73273 14.851 11.2173 14.851 13.7019 14.851C13.8117 14.851 13.9228 14.851 14.0312 14.8602C14.2903 14.884 14.4239 15.0321 14.4318 15.2926C14.4398 15.5531 14.2983 15.7091 14.0603 15.762C13.9122 15.7951 13.7548 15.7832 13.6014 15.7832C12.414 15.7845 11.2266 15.7832 10.0392 15.7832L10.0378 15.7845Z" fill="#101221"/>
</g>
</svg>
