<svg xmlns="http://www.w3.org/2000/svg" width="18" height="16" viewBox="0 0 18 16" fill="none">
  <path d="M7.66771 8.51065C7.66771 8.51065 5.35986 6.92398 2.61914 6.34696L7.95628 12.4053L17.4765 0.000181198C17.4765 0.000181198 10.8413 3.60624 7.66771 8.51065Z" fill="#2C3EB5"/>
  <path d="M15.2921 7.29195C14.901 7.29195 14.584 7.60895 14.584 8C14.584 9.75921 13.8991 11.4123 12.6549 12.6554C11.4123 13.8991 9.75933 14.584 8 14.584C4.36949 14.584 1.41596 11.6305 1.41596 8C1.41596 6.24067 2.10106 4.58759 3.34521 3.34458C4.58759 2.10093 6.24079 1.41597 8 1.41597C8.36505 1.41597 8.73099 1.44601 9.08755 1.50523C9.47302 1.56939 9.83795 1.30857 9.90198 0.922716C9.96602 0.536994 9.70519 0.172447 9.3196 0.108414C8.88633 0.0363913 8.4424 0 8 0C5.86217 0 3.85329 0.832436 2.344 2.34337C0.83256 3.85329 0 5.8623 0 8C0 12.4112 3.58879 16 8 16C10.1378 16 12.1466 15.1676 13.656 13.6565C15.1677 12.1465 16 10.1378 16 8C16 7.60895 15.6831 7.29195 15.2921 7.29195Z" fill="#2C3EB5"/>
</svg>