<svg width="20" height="20" viewBox="0 0 20 20" fill="none" xmlns="http://www.w3.org/2000/svg">
<path d="M6.64025 16.7951C6.26546 16.0349 6.31354 15.7589 6.94471 15.0939C6.83344 14.6719 6.58061 14.331 6.24143 14.0568C5.9886 13.8529 5.70818 13.6829 5.44556 13.4906C5.31469 13.3953 5.18383 13.2947 5.07344 13.1772C4.92744 13.0214 4.88471 12.8309 5.03694 12.6573C5.19362 12.4784 5.36989 12.5167 5.54793 12.6511C5.91471 12.9271 6.29217 13.1888 6.65628 13.4683C7.1646 13.8574 7.4744 14.3897 7.6934 14.988H12.2283C12.2523 14.9354 12.2835 14.8731 12.3093 14.809C12.587 14.1111 13.0597 13.5858 13.6847 13.1692C15.7509 11.7893 16.7106 9.80679 16.7044 7.36398C16.6999 5.8399 16.1871 4.46181 15.1972 3.28047C14.9132 2.94218 14.8865 2.76413 15.0913 2.59944C15.2836 2.44543 15.4812 2.50864 15.75 2.83624C17.0364 4.40217 17.5661 6.20044 17.3756 8.21148C17.186 10.2172 16.3518 11.8997 14.8171 13.2191C14.5598 13.4398 14.2758 13.6321 13.9954 13.8244C13.5307 14.1413 13.1737 14.5402 12.9485 15.1624C13.0135 15.2025 13.1149 15.2426 13.1853 15.3138C13.5538 15.685 13.6313 16.099 13.3847 16.569C13.2965 16.7364 13.2903 16.8423 13.3847 17.0043C13.5885 17.3533 13.5841 17.7326 13.3419 18.0513C13.1808 18.264 13.1408 18.4768 13.1675 18.7127C13.2503 19.4543 12.6823 20.0258 11.8891 19.9991C10.6009 19.9555 9.30829 19.9564 8.01923 19.9991C7.2287 20.0249 6.67497 19.4338 6.7542 18.7439C6.78358 18.4919 6.7364 18.2667 6.5726 18.0397C6.30374 17.6676 6.34737 17.3489 6.64114 16.796L6.64025 16.7951ZM9.94214 16.4284C10.6837 16.4284 11.4244 16.4284 12.1659 16.4284C12.6164 16.4284 12.8114 16.3117 12.798 16.0562C12.7856 15.8203 12.5995 15.7162 12.1775 15.7153C10.6953 15.7153 9.21214 15.7153 7.7299 15.7153C7.64088 15.7153 7.55096 15.7099 7.46372 15.7206C7.26075 15.7447 7.12899 15.8648 7.12543 16.066C7.12187 16.2681 7.24828 16.3945 7.45126 16.4212C7.55364 16.4346 7.65868 16.4284 7.76195 16.4284C8.48838 16.4284 9.21482 16.4284 9.94125 16.4284H9.94214ZM9.96172 17.8527C10.5395 17.8527 11.1164 17.8527 11.6941 17.8527C11.9461 17.8527 12.198 17.8599 12.449 17.8483C12.652 17.8385 12.7891 17.7192 12.7989 17.5162C12.8096 17.2883 12.6654 17.1681 12.4446 17.1423C12.3716 17.1343 12.2968 17.1388 12.2229 17.1388C10.7131 17.1388 9.20324 17.1388 7.6934 17.1388C7.59014 17.1388 7.46283 17.113 7.38983 17.1628C7.27944 17.2385 7.1281 17.3756 7.13701 17.4753C7.14769 17.6026 7.27855 17.7486 7.39606 17.8296C7.47797 17.8866 7.62575 17.8518 7.74326 17.8518C8.48304 17.8527 9.22372 17.8518 9.9635 17.8518L9.96172 17.8527ZM12.4295 18.5881H7.49221C7.4477 19.1881 7.52159 19.2753 8.07264 19.2762C9.32966 19.278 10.5858 19.278 11.8428 19.2762C12.3947 19.2762 12.4677 19.1899 12.4295 18.5881Z" fill="#101221"/>
<path d="M9.94916 12.8656C7.00604 12.8638 4.61931 10.4682 4.62109 7.5188C4.62288 4.58192 7.03274 2.18006 9.97141 2.18629C12.9074 2.19252 15.3021 4.59794 15.3013 7.54195C15.3013 10.4806 12.9012 12.8673 9.95005 12.8656H9.94916ZM9.93224 12.1552C12.4739 12.1641 14.5739 10.1067 14.59 7.5918C14.6069 5.00567 12.5335 2.90115 9.96785 2.89848C7.43958 2.89581 5.34486 4.97095 5.33328 7.48943C5.32171 10.0506 7.38706 12.1462 9.93224 12.1552Z" fill="#101221"/>
<path d="M9.89768 0C11.5188 0.0658774 12.9957 0.511885 14.3061 1.47067C14.3898 1.53121 14.518 1.58907 14.5358 1.6683C14.567 1.81074 14.5776 2.00125 14.5055 2.10986C14.453 2.18909 14.2491 2.19621 14.1174 2.18375C14.0266 2.17574 13.9411 2.08315 13.8574 2.02262C9.87631 -0.879553 4.20373 1.52408 3.31171 6.24589C2.9663 8.07088 3.32774 9.77746 4.36842 11.3282C4.45032 11.4511 4.5803 11.5659 4.60166 11.6986C4.62392 11.8357 4.58564 12.052 4.49127 12.1197C4.39958 12.1855 4.19127 12.1375 4.05951 12.0814C3.96425 12.0413 3.90283 11.9096 3.83606 11.8125C0.688187 7.20023 3.32061 1.38966 8.36469 0.224339C8.86589 0.108609 9.38579 0.0729993 9.89768 0Z" fill="#101221"/>
<path d="M3.16071 0.0551818C3.39929 0.0525111 4.26727 0.938296 4.26104 1.17688C4.25392 1.45552 3.94857 1.62734 3.72245 1.44217C3.41709 1.1929 3.13222 0.907137 2.88473 0.600896C2.70669 0.380118 2.89186 0.0578525 3.1616 0.0551818H3.16071Z" fill="#101221"/>
<path d="M15.9664 1.52784C15.8961 1.48244 15.7492 1.44059 15.7198 1.35691C15.6771 1.23584 15.6655 1.0391 15.7368 0.955416C15.9816 0.664309 16.2611 0.400799 16.5406 0.13996C16.6751 0.0144365 16.8593 0.00553413 16.9697 0.157764C17.0445 0.260142 17.1113 0.48181 17.0579 0.544127C16.7721 0.874404 16.4489 1.17263 16.1356 1.47798C16.108 1.50469 16.0528 1.5038 15.9664 1.52784Z" fill="#101221"/>
<path d="M0.889496 7.52354C0.712339 7.52354 0.535182 7.52977 0.358025 7.52176C0.131905 7.51108 -0.00519083 7.38377 0.000150581 7.15855C0.00460176 6.95468 0.141698 6.82827 0.342001 6.82204C0.710559 6.80957 1.08001 6.80601 1.44767 6.82738C1.64531 6.83895 1.77172 6.97872 1.76104 7.18703C1.75124 7.39179 1.62394 7.5093 1.41919 7.52087C1.24292 7.53066 1.06487 7.52265 0.887716 7.52265C0.887716 7.52265 0.887716 7.52265 0.887716 7.52354H0.889496Z" fill="#101221"/>
<path d="M19.0802 6.81738C19.2422 6.81738 19.406 6.8058 19.5671 6.82005C19.787 6.83963 19.9304 6.96694 19.9179 7.19395C19.9072 7.39425 19.7746 7.5171 19.568 7.52155C19.2137 7.52868 18.8594 7.52957 18.506 7.52155C18.3012 7.5171 18.1686 7.3987 18.157 7.19484C18.1446 6.96516 18.2852 6.83785 18.5051 6.82005C18.6956 6.80491 18.8888 6.81649 19.0802 6.81649V6.81738Z" fill="#101221"/>
<path d="M3.17119 14.3061C2.87296 14.3025 2.70026 13.9945 2.88988 13.7666C3.14449 13.4604 3.43826 13.1817 3.7445 12.9271C3.81839 12.8657 4.03828 12.9013 4.13621 12.9698C4.21722 13.0268 4.28666 13.2592 4.24215 13.3099C3.94214 13.6518 3.61275 13.9669 3.28781 14.2865C3.262 14.3114 3.20235 14.3016 3.17208 14.307L3.17119 14.3061Z" fill="#101221"/>
<path d="M15.9983 12.8684C16.2503 12.8657 17.1093 13.7542 17.0915 13.9981C17.0746 14.2296 16.8334 14.4183 16.6553 14.2803C16.2983 14.0035 15.9698 13.6767 15.6832 13.3269C15.5416 13.1542 15.7624 12.8711 15.9983 12.8684Z" fill="#101221"/>
<path d="M10.0763 7.91504H8.08395C8.08395 8.42871 8.08573 8.92635 8.08306 9.42399C8.08306 9.55663 8.11066 9.71777 8.04745 9.81391C7.97 9.93231 7.80442 10.0721 7.6878 10.0632C7.57652 10.0543 7.46791 9.87445 7.38245 9.75338C7.34684 9.70352 7.37176 9.60916 7.37176 9.53527C7.37176 8.49725 7.36642 7.45835 7.37354 6.42033C7.37978 5.5755 7.92282 5.0378 8.76409 5.02712C9.01603 5.02355 9.26886 5.01999 9.52079 5.02979C10.1947 5.05827 10.7511 5.56037 10.7698 6.23606C10.8018 7.37734 10.7849 8.51951 10.7876 9.66168C10.7876 9.90116 10.6843 10.0854 10.4333 10.0792C10.1849 10.073 10.0852 9.87623 10.0808 9.64566C10.0736 9.24505 10.0772 8.84445 10.0772 8.44473C10.0772 8.2836 10.0772 8.12157 10.0772 7.91593L10.0763 7.91504ZM10.0852 7.16724C10.0078 6.67672 10.2757 6.16217 9.76294 5.82655C9.50477 5.6574 8.50859 5.69657 8.31185 5.88441C7.91659 6.26276 8.13648 6.72747 8.09374 7.16635H10.0852V7.16724Z" fill="#101221"/>
<path d="M12.5484 7.56336C12.5484 8.23015 12.5448 8.89693 12.5502 9.56372C12.552 9.80587 12.5226 10.0204 12.227 10.0507C11.9884 10.0756 11.8389 9.89845 11.838 9.56906C11.8326 8.20522 11.8326 6.84227 11.838 5.47843C11.8389 5.16596 11.968 5.01907 12.1976 5.0164C12.4344 5.01373 12.5431 5.14459 12.5466 5.47398C12.5529 6.17014 12.5484 6.8672 12.5484 7.56336Z" fill="#101221"/>
</svg>
