<svg width="24" height="26" viewBox="0 0 24 26" fill="none" xmlns="http://www.w3.org/2000/svg">
<path d="M0.0066807 12.9396C0.0066807 10.7096 0.0310123 8.47958 0.000597795 6.25081C-0.0395494 3.41618 1.94591 0.765247 4.92045 0.14844C5.37302 0.0547635 5.84505 0.0133998 6.30857 0.0121832C9.89626 1.74242e-05 13.484 -0.00606548 17.0717 0.00853349C20.0438 0.0206993 22.4283 1.83827 23.1679 4.63641C23.2762 5.04396 23.3492 5.4722 23.3553 5.8907C23.3784 7.45157 23.3699 9.01245 23.365 10.5733C23.3626 11.195 23.0426 11.5904 22.5232 11.6488C21.9355 11.7145 21.4623 11.3179 21.4282 10.6962C21.4039 10.2509 21.4221 9.80444 21.4221 9.35917C21.4221 8.34576 21.3881 7.33113 21.4294 6.31894C21.511 4.34686 20.0389 1.99278 17.1702 1.96358C13.5217 1.92586 9.87315 1.93438 6.22462 1.96236C4.05546 1.97939 2.44227 3.34926 2.01404 5.45273C1.96173 5.70821 1.95321 5.97586 1.95321 6.23743C1.94956 10.7376 1.97389 15.2377 1.93983 19.7378C1.92523 21.7002 3.38026 23.9837 6.20394 24.0372C7.90594 24.0701 9.60915 24.0433 11.3124 24.0445C11.4949 24.0445 11.6786 24.0372 11.8598 24.0542C12.3173 24.098 12.6384 24.4058 12.7175 24.8608C12.7917 25.2842 12.5581 25.7246 12.1348 25.8828C11.9316 25.9582 11.7017 25.9874 11.4839 25.9886C9.71986 25.9971 7.95703 26.0093 6.19299 25.9886C3.01042 25.9533 0.455599 23.6881 0.0334455 20.542C-0.00426853 20.2622 0.0066807 19.9751 0.0066807 19.6916C0.00424754 17.4421 0.0066807 15.1915 0.0066807 12.942V12.9396Z" fill="#101221"/>
<path d="M22.8034 22.2588C22.7548 24.0593 21.464 25.5143 19.7024 25.7881C18.0892 26.0387 16.2303 25.0922 15.7083 23.1809C14.9358 20.3572 14.1791 17.5299 13.4321 14.6989C13.2618 14.0541 13.319 13.4142 13.673 12.8217C13.9832 12.301 14.2703 11.7645 14.5903 11.2499C15.274 10.155 16.5076 9.81922 17.6524 10.4226C18.2242 10.7244 18.779 11.0601 19.335 11.391C19.925 11.7426 20.2535 12.284 20.4262 12.9349C20.9555 14.9252 21.4895 16.9143 22.02 18.9034C22.228 19.6833 22.4421 20.4631 22.6343 21.2466C22.7158 21.5775 22.7487 21.9205 22.8034 22.2575V22.2588ZM20.8168 22.103C20.8034 22.0361 20.7766 21.8366 20.7255 21.6432C20.4335 20.5312 20.1355 19.4217 19.8399 18.311C19.425 16.7513 19.0053 15.1941 18.6002 13.632C18.5089 13.2792 18.3495 13.02 18.0028 12.857C17.6208 12.677 17.2692 12.4324 16.8957 12.2317C16.4943 12.0164 16.3969 12.0431 16.1633 12.4239C15.9517 12.7682 15.774 13.1344 15.5478 13.4677C15.3093 13.8169 15.2984 14.1502 15.4103 14.5542C15.9358 16.4593 16.4286 18.373 16.9395 20.283C17.1634 21.12 17.3726 21.9631 17.6439 22.7868C17.9067 23.586 18.6573 23.9948 19.4578 23.85C20.2754 23.7016 20.8155 23.0629 20.818 22.1055L20.8168 22.103Z" fill="#101221"/>
<path d="M11.6828 8.7569C10.0416 8.7569 8.40165 8.75934 6.76049 8.7569C5.97093 8.75569 5.53296 8.42234 5.51228 7.825C5.49281 7.22158 5.98431 6.81159 6.76414 6.81038C10.0453 6.80551 13.3264 6.80673 16.6087 6.81281C16.8265 6.81281 17.0564 6.84566 17.2608 6.91987C17.6477 7.06099 17.8958 7.50139 17.8496 7.88948C17.7973 8.33597 17.4725 8.68026 17.0284 8.73744C16.8484 8.76055 16.6647 8.75569 16.4822 8.75569C14.8824 8.75569 13.2814 8.75569 11.6816 8.75569L11.6828 8.7569Z" fill="#101221"/>
<path d="M8.76677 17.2221C9.47482 17.2221 10.1841 17.2148 10.8921 17.2245C11.5759 17.2331 11.998 17.5883 12.0187 18.1528C12.0394 18.7173 11.5746 19.1565 10.8909 19.1662C9.77775 19.182 8.66458 19.1723 7.55141 19.1711C7.18765 19.1711 6.81903 19.1978 6.45892 19.1565C5.70829 19.0701 5.31168 18.3754 5.63043 17.744C5.81291 17.3839 6.11828 17.2221 6.51975 17.2245C7.26916 17.227 8.01736 17.2245 8.76677 17.2245V17.2221Z" fill="#101221"/>
<path d="M8.80763 12.017C9.49621 12.017 10.1836 12.0122 10.8722 12.0182C11.551 12.0243 12.0267 12.438 12.0157 13.0025C12.006 13.5499 11.5474 13.955 10.905 13.9575C9.46823 13.9636 8.03145 13.9648 6.59467 13.9575C5.96569 13.9538 5.50096 13.5183 5.51191 12.9733C5.52286 12.4234 5.97786 12.0243 6.62265 12.0182C7.35138 12.0109 8.08011 12.017 8.80763 12.017Z" fill="#101221"/>
</svg>
