<svg width="20" height="20" viewBox="0 0 20 20" fill="none" xmlns="http://www.w3.org/2000/svg">
<g opacity="0.95">
<path d="M10.0092 19.9993C7.04172 19.9993 4.07428 19.9993 1.10684 19.9993C0.546778 19.9993 0.179656 19.747 0.0429611 19.2674C0.0117167 19.1573 0.00468667 19.037 0.00468667 18.9214C0.00312445 14.8861 0.00546778 10.8517 0 6.81727C0 6.58528 0.0710812 6.43843 0.267921 6.3033C1.07169 5.75105 1.85358 5.16834 2.66125 4.62156C2.92058 4.44659 3.01431 4.25366 2.99869 3.94981C2.97525 3.4952 2.99088 3.03903 2.99322 2.58364C2.99713 1.90564 3.23771 1.66115 3.90634 1.65959C4.76556 1.65724 5.624 1.65178 6.48323 1.66349C6.73162 1.66662 6.93158 1.60022 7.12842 1.45181C7.55413 1.13156 7.99468 0.831609 8.42898 0.521508C9.40849 -0.178368 10.6145 -0.172901 11.5909 0.532443C12.0127 0.837077 12.447 1.12374 12.8587 1.44088C13.0797 1.61038 13.3062 1.66818 13.5788 1.66427C14.4248 1.65178 15.2707 1.65646 16.1167 1.66271C16.2706 1.66349 16.4338 1.67677 16.5752 1.73145C16.8954 1.85486 17.0048 2.12904 17.0079 2.45007C17.0126 2.97029 17.0235 3.49207 17.004 4.01151C16.9946 4.27397 17.0774 4.43956 17.2962 4.59032C18.1109 5.14959 18.9068 5.73543 19.7223 6.29314C19.9316 6.43687 20.0035 6.59465 20.0035 6.8407C19.998 10.8619 20.0004 14.8838 19.998 18.905C19.998 19.6103 19.5957 19.9993 18.8724 19.9993C15.9183 20.0009 12.9641 19.9993 10.0092 19.9993ZM3.68763 2.35712C3.67982 2.44851 3.67201 2.49928 3.67201 2.55084C3.67201 4.62 3.67435 6.68916 3.6681 8.75833C3.6681 8.94814 3.73606 9.06296 3.87822 9.18091C5.48262 10.5065 7.08 11.8406 8.68206 13.1693C9.49207 13.841 10.5122 13.8402 11.323 13.1677C12.9149 11.8468 14.5013 10.5205 16.0971 9.20512C16.2635 9.06843 16.3354 8.93408 16.3346 8.71615C16.3268 6.69932 16.3299 4.68171 16.3284 2.66488C16.3284 2.56568 16.3127 2.46569 16.3034 2.3579H3.68763V2.35712ZM18.7053 19.3018C16.3698 17.3623 14.1077 15.4829 11.8448 13.6036C11.2878 14.0832 10.6895 14.3237 9.99432 14.3253C9.28742 14.3277 8.69065 14.0535 8.14777 13.6106C5.87474 15.4993 3.61889 17.374 1.29977 19.3018H18.7061H18.7053ZM0.720185 7.42341C0.635825 7.9819 0.661601 18.5972 0.748305 18.8901C3.04009 16.985 5.32328 15.0877 7.63302 13.1677C5.30843 11.236 3.02446 9.33791 0.719404 7.42263L0.720185 7.42341ZM19.3114 7.3992C16.9642 9.35041 14.6802 11.2493 12.3705 13.1693C14.6982 15.1002 16.9712 17.0045 19.3114 18.9284V7.3992ZM2.97291 5.21286C2.26054 5.71824 1.59112 6.19316 0.886562 6.69229C1.59659 7.28047 2.26054 7.83115 2.97291 8.42167V5.21364V5.21286ZM17.0306 8.42167C17.7469 7.82724 18.4108 7.27578 19.1161 6.69073C18.4092 6.18925 17.7383 5.71356 17.0306 5.21208V8.42167ZM11.9377 1.64553C10.3849 0.230934 9.30694 0.494169 8.09544 1.64553H11.9377Z" fill="#101221"/>
<path d="M10.6041 9.09981C10.3362 9.32087 9.9956 9.49427 9.6027 9.57395C8.6435 9.76844 7.78037 9.11465 7.73584 8.13748C7.6882 7.09079 8.12874 6.26906 8.95672 5.66214C9.65113 5.15285 10.3651 5.20441 11.0259 5.76134C11.0642 5.79415 11.1032 5.82539 11.1688 5.87929C11.2009 5.7918 11.2251 5.72463 11.2501 5.65745C11.3336 5.42937 11.4539 5.34891 11.6531 5.38797C11.8289 5.42312 11.9179 5.53638 11.8859 5.77228C11.8343 6.15736 11.7617 6.54089 11.6812 6.92207C11.575 7.42979 11.4508 7.93361 11.3383 8.43977C11.2548 8.81549 11.3407 8.91859 11.7195 8.91313C12.0562 8.90766 12.3139 8.75612 12.5178 8.49523C13.1255 7.71724 13.2185 6.85099 12.8709 5.9574C12.5202 5.056 11.8414 4.51 10.8673 4.36784C9.05748 4.1046 7.22187 5.28721 6.70946 7.04236C6.32906 8.34682 6.96567 9.76063 8.22638 10.2621C9.41601 10.7355 10.6549 10.8058 11.8945 10.4464C12.4256 10.2926 12.8904 10.0051 13.2669 9.58879C13.3192 9.53098 13.3692 9.46928 13.4286 9.41929C13.5934 9.28181 13.7449 9.28025 13.8824 9.40679C14.009 9.52317 14.0441 9.72158 13.9051 9.86139C13.6317 10.1363 13.3513 10.4144 13.0349 10.6339C12.3772 11.0901 11.6148 11.2651 10.829 11.3189C10.0058 11.3752 9.20043 11.2533 8.40213 11.0401C6.47279 10.5238 5.34877 8.35776 6.23533 6.41982C6.91802 4.92868 8.06782 3.9515 9.70659 3.70467C11.3352 3.4594 12.6803 4.01399 13.3903 5.48561C13.9761 6.69946 13.8582 7.88987 12.9982 8.95609C12.574 9.48177 12.0015 9.71298 11.3336 9.53255C11.0876 9.46615 10.8783 9.26697 10.6025 9.09825L10.6041 9.09981ZM9.27541 8.92172C9.59723 8.92328 9.85812 8.84439 10.1034 8.63739C10.54 8.26871 10.8673 7.83675 10.9415 7.23998C11.0017 6.75179 10.7712 6.41201 10.4221 6.14252C10.1198 5.90975 9.68784 5.94959 9.33322 6.20814C8.76613 6.62213 8.4365 7.19077 8.39588 7.88596C8.35605 8.57569 8.73957 8.94359 9.27541 8.92172Z" fill="#101221"/>
</g>
</svg>
