<svg width="26" height="26" viewBox="0 0 26 26" fill="none" xmlns="http://www.w3.org/2000/svg">
<g opacity="0.95">
<path d="M13.0139 25.9991C9.15619 25.9991 5.29852 25.9991 1.44084 25.9991C0.712765 25.9991 0.235506 25.6711 0.0578026 25.0476C0.0171848 24.9044 0.0080458 24.7481 0.0080458 24.5978C0.00601491 19.352 0.00906124 14.1072 0.00195312 8.86245C0.00195312 8.56086 0.0943586 8.36996 0.350251 8.19428C1.39514 7.47636 2.4116 6.71884 3.46157 6.00803C3.7987 5.78057 3.92056 5.52976 3.90025 5.13475C3.86978 4.54376 3.89009 3.95074 3.89314 3.35873C3.89822 2.47733 4.21097 2.15949 5.08019 2.15746C6.19718 2.15442 7.31316 2.14731 8.43015 2.16254C8.75306 2.1666 9.01301 2.08029 9.26891 1.88735C9.82232 1.47102 10.395 1.08109 10.9596 0.67796C12.233 -0.231879 13.8008 -0.224771 15.0701 0.692176C15.6185 1.0882 16.1831 1.46087 16.7182 1.87314C17.0056 2.09349 17.3001 2.16863 17.6545 2.16356C18.7542 2.14731 19.8539 2.1534 20.9536 2.16153C21.1537 2.16254 21.3659 2.1798 21.5497 2.25088C21.966 2.41132 22.1082 2.76775 22.1123 3.18509C22.1183 3.86138 22.1326 4.5397 22.1072 5.21497C22.095 5.55616 22.2026 5.77143 22.487 5.96741C23.5461 6.69447 24.5808 7.45606 25.6409 8.18108C25.9131 8.36792 26.0065 8.57304 26.0065 8.89291C25.9994 14.1204 26.0024 19.3489 25.9994 24.5765C25.9994 25.4934 25.4764 25.9991 24.5361 25.9991C20.6957 26.0011 16.8553 25.9991 13.0139 25.9991ZM4.79587 3.06426C4.78572 3.18306 4.77556 3.24907 4.77556 3.31609C4.77556 6.006 4.77861 8.69591 4.77048 11.3858C4.77048 11.6326 4.85883 11.7819 5.04364 11.9352C7.12936 13.6584 9.20595 15.3928 11.2886 17.12C12.3416 17.9933 13.6678 17.9923 14.7218 17.118C16.7913 15.4009 18.8537 13.6767 20.9282 11.9667C21.1445 11.789 21.238 11.6143 21.2369 11.331C21.2268 8.70911 21.2308 6.08622 21.2288 3.46434C21.2288 3.33538 21.2085 3.2054 21.1963 3.06527H4.79587V3.06426ZM24.3188 25.0923C21.2826 22.571 18.3419 20.1278 15.4002 17.6846C14.6762 18.3081 13.8983 18.6209 12.9946 18.6229C12.0756 18.6259 11.2998 18.2695 10.5941 17.6938C7.63912 20.1491 4.70651 22.5862 1.69165 25.0923H24.3198H24.3188ZM0.938194 9.65043C0.828525 10.3765 0.862035 24.1764 0.97475 24.5572C3.95407 22.0805 6.92221 19.614 9.92488 17.118C6.90292 14.6068 3.93376 12.1393 0.937178 9.64942L0.938194 9.65043ZM25.1068 9.61895C22.0554 12.1555 19.0862 14.6241 16.0836 17.12C19.1096 19.6302 22.0645 22.1059 25.1068 24.6069V9.61895ZM3.86674 6.77672C2.94065 7.43372 2.07042 8.05111 1.15448 8.69998C2.07752 9.46461 2.94065 10.1805 3.86674 10.9482V6.77774V6.77672ZM22.1417 10.9482C23.0729 10.1754 23.936 9.45851 24.8529 8.69794C23.934 8.04603 23.0617 7.42762 22.1417 6.77571V10.9482ZM15.521 2.13918C13.5023 0.300214 12.101 0.642419 10.526 2.13918H15.521Z" fill="#101221"/>
<path d="M13.7882 11.8298C13.4399 12.1171 12.9972 12.3426 12.4864 12.4461C11.2395 12.699 10.1174 11.849 10.0595 10.5787C9.99758 9.21803 10.5703 8.14978 11.6467 7.36078C12.5494 6.69871 13.4775 6.76573 14.3366 7.48974C14.3863 7.53239 14.4371 7.57301 14.5224 7.64307C14.564 7.52934 14.5955 7.44202 14.628 7.35469C14.7367 7.05818 14.893 6.95359 15.152 7.00436C15.3805 7.05005 15.4962 7.19729 15.4546 7.50396C15.3876 8.00457 15.2931 8.50316 15.1885 8.99869C15.0504 9.65873 14.889 10.3137 14.7428 10.9717C14.6341 11.4601 14.7458 11.5942 15.2383 11.5871C15.676 11.58 16.0111 11.383 16.2761 11.0438C17.0661 10.0324 17.1869 8.90629 16.7351 7.74462C16.2791 6.5728 15.3967 5.863 14.1304 5.67819C11.7777 5.33598 9.39136 6.87337 8.72523 9.15507C8.23071 10.8509 9.0583 12.6888 10.6972 13.3407C12.2437 13.9561 13.8542 14.0475 15.4658 13.5804C16.1563 13.3803 16.7604 13.0067 17.2499 12.4654C17.3179 12.3903 17.3829 12.3101 17.4601 12.2451C17.6743 12.0664 17.8713 12.0643 18.0501 12.2288C18.2146 12.3801 18.2603 12.638 18.0795 12.8198C17.7241 13.1772 17.3596 13.5387 16.9483 13.8241C16.0933 14.4171 15.1022 14.6446 14.0807 14.7146C13.0104 14.7877 11.9635 14.6293 10.9257 14.3521C8.41755 13.6809 6.95633 10.8651 8.10886 8.34576C8.99635 6.40728 10.4911 5.13696 12.6215 4.81608C14.7387 4.49723 16.4873 5.21819 17.4103 7.13129C18.1719 8.70929 18.0186 10.2568 16.9006 11.6429C16.3492 12.3263 15.6049 12.6269 14.7367 12.3923C14.4168 12.306 14.1447 12.0471 13.7862 11.8277L13.7882 11.8298ZM12.061 11.5982C12.4793 11.6003 12.8185 11.4977 13.1373 11.2286C13.705 10.7493 14.1304 10.1878 14.2269 9.41198C14.3051 8.77733 14.0055 8.33561 13.5516 7.98528C13.1587 7.68268 12.5971 7.73446 12.1361 8.07058C11.3989 8.60876 10.9704 9.34801 10.9176 10.2518C10.8658 11.1484 11.3644 11.6267 12.061 11.5982Z" fill="#101221"/>
</g>
</svg>
