<svg width="28" height="28" viewBox="0 0 28 28" fill="none" xmlns="http://www.w3.org/2000/svg">
<path d="M9.29635 23.5131C8.77165 22.4488 8.83895 22.0624 9.72259 21.1314C9.5668 20.5407 9.21285 20.0633 8.73799 19.6794C8.38404 19.394 7.99144 19.156 7.62378 18.8868C7.44057 18.7534 7.25736 18.6126 7.10281 18.4481C6.89842 18.23 6.83859 17.9632 7.05172 17.7202C7.27107 17.4697 7.51784 17.5233 7.76711 17.7115C8.28059 18.0979 8.80903 18.4643 9.31878 18.8556C10.0304 19.4003 10.4642 20.1456 10.7708 20.9831H17.1195C17.1532 20.9096 17.1968 20.8223 17.233 20.7326C17.6218 19.7555 18.2836 19.0201 19.1585 18.4369C22.0513 16.505 23.3948 13.7295 23.3861 10.3096C23.3798 8.17584 22.662 6.24653 21.276 4.59265C20.8785 4.11905 20.8411 3.86978 21.1277 3.63921C21.3969 3.4236 21.6736 3.51209 22.05 3.97074C23.851 6.16303 24.5925 8.68061 24.3258 11.4961C24.0603 14.304 22.8925 16.6596 20.7439 18.5066C20.3837 18.8157 19.9861 19.0849 19.5935 19.3541C18.9429 19.7978 18.4431 20.3562 18.1278 21.2274C18.2188 21.2835 18.3609 21.3395 18.4593 21.4393C18.9753 21.959 19.0838 22.5385 18.7385 23.1966C18.6151 23.4309 18.6064 23.5792 18.7385 23.806C19.0239 24.2946 19.0177 24.8255 18.6787 25.2717C18.4531 25.5696 18.397 25.8675 18.4344 26.1977C18.5503 27.2359 17.7552 28.0361 16.6447 27.9987C14.8413 27.9376 13.0316 27.9388 11.2269 27.9987C10.1202 28.0348 9.34496 27.2073 9.45588 26.2414C9.49701 25.8886 9.43095 25.5733 9.20163 25.2555C8.82524 24.7345 8.88631 24.2884 9.2976 23.5144L9.29635 23.5131ZM13.919 22.9997C14.9572 22.9997 15.9941 22.9997 17.0323 22.9997C17.6629 22.9997 17.9359 22.8364 17.9172 22.4787C17.8997 22.1484 17.6393 22.0026 17.0485 22.0013C14.9734 22.0013 12.897 22.0013 10.8219 22.0013C10.6972 22.0013 10.5713 21.9939 10.4492 22.0088C10.165 22.0425 9.98058 22.2107 9.9756 22.4924C9.97061 22.7753 10.1476 22.9523 10.4318 22.9897C10.5751 23.0084 10.7221 22.9997 10.8667 22.9997C11.8837 22.9997 12.9007 22.9997 13.9177 22.9997H13.919ZM13.9464 24.9938C14.7553 24.9938 15.5629 24.9938 16.3717 24.9938C16.7245 24.9938 17.0772 25.0037 17.4286 24.9875C17.7128 24.9738 17.9047 24.8068 17.9184 24.5227C17.9334 24.2036 17.7315 24.0354 17.4224 23.9992C17.3202 23.988 17.2155 23.9942 17.1121 23.9942C14.9983 23.9942 12.8845 23.9942 10.7708 23.9942C10.6262 23.9942 10.448 23.9581 10.3458 24.0279C10.1912 24.1338 9.97934 24.3257 9.9918 24.4653C10.0068 24.6436 10.19 24.848 10.3545 24.9614C10.4691 25.0411 10.676 24.9925 10.8405 24.9925C11.8762 24.9938 12.9132 24.9925 13.9489 24.9925L13.9464 24.9938ZM17.4012 26.0232H10.4891C10.4268 26.8633 10.5302 26.9854 11.3017 26.9867C13.0615 26.9891 14.8201 26.9891 16.5799 26.9867C17.3526 26.9867 17.4548 26.8658 17.4012 26.0232Z" fill="#101221"/>
<path d="M13.928 18.0117C9.80766 18.0093 6.46626 14.6554 6.46875 10.5263C6.47124 6.41467 9.84505 3.05208 13.9592 3.06081C18.0696 3.06953 21.4222 6.43711 21.4209 10.5587C21.4209 14.6728 18.0608 18.0142 13.9293 18.0117H13.928ZM13.9043 17.0172C17.4626 17.0296 20.4027 14.1494 20.4251 10.6285C20.4488 7.00793 17.5461 4.06161 13.9542 4.05787C10.4146 4.05413 7.48202 6.95932 7.46581 10.4852C7.44961 14.0709 10.3411 17.0047 13.9043 17.0172Z" fill="#101221"/>
<path d="M13.8559 0C16.1255 0.0922282 18.1932 0.716638 20.0277 2.05893C20.1449 2.14368 20.3244 2.22469 20.3493 2.33562C20.3929 2.53503 20.4079 2.80174 20.3069 2.95379C20.2334 3.06472 19.948 3.07469 19.7635 3.05724C19.6364 3.04602 19.5168 2.9164 19.3996 2.83165C13.826 -1.23137 5.88443 2.13371 4.63561 8.74423C4.15204 11.2992 4.65805 13.6884 6.115 15.8595C6.22966 16.0315 6.41163 16.1923 6.44154 16.378C6.4727 16.5699 6.41911 16.8728 6.287 16.9675C6.15862 17.0597 5.86698 16.9924 5.68253 16.9139C5.54917 16.8578 5.46317 16.6734 5.3697 16.5375C0.962688 10.0803 4.64808 1.94552 11.7098 0.314074C12.4114 0.152052 13.1393 0.102199 13.8559 0Z" fill="#101221"/>
<path d="M4.42616 0.0771569C4.76018 0.0734179 5.97534 1.31351 5.96662 1.64753C5.95665 2.03763 5.52916 2.27817 5.21259 2.01893C4.7851 1.66996 4.38628 1.26989 4.0398 0.841155C3.79053 0.532066 4.04977 0.0808959 4.42741 0.0771569H4.42616Z" fill="#101221"/>
<path d="M22.3522 2.1388C22.2538 2.07523 22.0481 2.01666 22.007 1.8995C21.9472 1.73 21.931 1.45456 22.0307 1.33741C22.3734 0.929859 22.7648 0.560946 23.1561 0.195772C23.3443 0.0200403 23.6023 0.00757703 23.7568 0.220699C23.8615 0.364026 23.955 0.674362 23.8802 0.761605C23.4802 1.22399 23.0277 1.64151 22.589 2.069C22.5504 2.10639 22.4731 2.10514 22.3522 2.1388Z" fill="#101221"/>
<path d="M1.24529 10.5328C0.997272 10.5328 0.749253 10.5415 0.501234 10.5303C0.184667 10.5153 -0.00726715 10.3371 0.000210813 10.0218C0.00644245 9.73636 0.198377 9.55938 0.4788 9.55065C0.99478 9.53321 1.51201 9.52822 2.02674 9.55813C2.30342 9.57434 2.4804 9.77001 2.46545 10.0616C2.45174 10.3483 2.27351 10.5128 1.98686 10.529C1.74008 10.5427 1.49082 10.5315 1.2428 10.5315C1.2428 10.5315 1.2428 10.5315 1.2428 10.5328H1.24529Z" fill="#101221"/>
<path d="M26.7134 9.5444C26.9403 9.5444 27.1696 9.5282 27.3952 9.54814C27.703 9.57556 27.9037 9.75378 27.8862 10.0716C27.8713 10.352 27.6856 10.524 27.3964 10.5302C26.9004 10.5402 26.4043 10.5415 25.9096 10.5302C25.6229 10.524 25.4372 10.3583 25.421 10.0728C25.4035 9.75129 25.6005 9.57307 25.9083 9.54814C26.175 9.52695 26.4455 9.54315 26.7134 9.54315V9.5444Z" fill="#101221"/>
<path d="M4.44045 20.0285C4.02293 20.0235 3.78114 19.5923 4.04661 19.2732C4.40306 18.8445 4.81435 18.4544 5.24308 18.098C5.34653 18.012 5.65437 18.0618 5.79147 18.1578C5.90488 18.2375 6.0021 18.5628 5.93978 18.6339C5.51977 19.1125 5.05863 19.5537 4.60372 20.0011C4.56757 20.036 4.48407 20.0223 4.4417 20.0298L4.44045 20.0285Z" fill="#101221"/>
<path d="M22.398 18.0156C22.7508 18.0119 23.9535 19.2557 23.9285 19.5972C23.9049 19.9213 23.5671 20.1855 23.3178 19.9923C22.8181 19.6047 22.3582 19.1473 21.9568 18.6575C21.7587 18.4157 22.0678 18.0194 22.398 18.0156Z" fill="#101221"/>
<path d="M14.1068 11.0809H11.3175C11.3175 11.8001 11.32 12.4968 11.3163 13.1935C11.3163 13.3792 11.3549 13.6048 11.2664 13.7394C11.158 13.9051 10.9262 14.1008 10.7629 14.0883C10.6071 14.0759 10.4551 13.8241 10.3354 13.6546C10.2856 13.5848 10.3205 13.4527 10.3205 13.3493C10.3205 11.896 10.313 10.4416 10.323 8.98837C10.3317 7.8056 11.0919 7.05282 12.2697 7.03786C12.6224 7.03288 12.9764 7.02789 13.3291 7.0416C14.2726 7.08149 15.0515 7.78441 15.0777 8.73038C15.1226 10.3282 15.0989 11.9272 15.1026 13.5262C15.1026 13.8615 14.9581 14.1195 14.6066 14.1108C14.2589 14.102 14.1193 13.8266 14.113 13.5038C14.1031 12.943 14.1081 12.3821 14.1081 11.8225C14.1081 11.5969 14.1081 11.3701 14.1081 11.0822L14.1068 11.0809ZM14.1193 10.034C14.0108 9.34731 14.386 8.62693 13.6681 8.15706C13.3067 7.92026 11.912 7.9751 11.6366 8.23808C11.0832 8.76776 11.3911 9.41835 11.3312 10.0328H14.1193V10.034Z" fill="#101221"/>
<path d="M17.5685 10.5887C17.5685 11.5222 17.5636 12.4557 17.571 13.3892C17.5735 13.7282 17.5324 14.0286 17.1186 14.071C16.7846 14.1059 16.5752 13.8579 16.574 13.3967C16.5665 11.4873 16.5665 9.57922 16.574 7.66985C16.5752 7.23239 16.7559 7.02674 17.0775 7.02301C17.409 7.01927 17.5611 7.20248 17.566 7.66362C17.5748 8.63824 17.5685 9.61412 17.5685 10.5887Z" fill="#101221"/>
</svg>
