<svg xmlns="http://www.w3.org/2000/svg" width="41" height="41" viewBox="0 0 41 41" fill="none">
  <path d="M18.812 9.41563C18.812 11.2146 18.7537 13.0157 18.8271 14.8125C18.9135 16.9828 17.0994 18.8747 14.8362 18.8336C11.2383 18.771 7.63822 18.7818 4.04034 18.8336C2.02976 18.8617 0.0472481 17.404 0.0234926 14.8103C-0.00674176 11.247 -0.00890135 7.68363 0.0234926 4.12246C0.0450885 1.6886 1.6691 0.0516225 4.09865 0.0257074C7.66198 -0.0131653 11.2253 -0.00236733 14.7865 0.0213882C17.432 0.038665 18.9653 2.07084 18.812 4.12462C18.8076 4.19589 18.812 4.26931 18.812 4.34058C18.812 6.03154 18.812 7.7225 18.812 9.41563ZM9.40909 16.62C11.1346 16.62 12.8601 16.6265 14.5835 16.62C16.0326 16.6136 16.6113 16.0456 16.6157 14.6073C16.6221 11.1563 16.6243 7.70739 16.6157 4.25635C16.6113 2.86989 16.0563 2.29328 14.6591 2.28464C11.1735 2.26737 7.68574 2.26521 4.20015 2.28464C2.83313 2.29328 2.28675 2.82238 2.27811 4.18077C2.25435 7.70307 2.25219 11.2254 2.27811 14.7477C2.28891 16.0607 2.90223 16.6092 4.23254 16.6179C5.95806 16.6287 7.68358 16.62 9.40693 16.62H9.40909Z" fill="#101221"/>
  <path d="M31.5924 18.8208C29.8281 18.8208 28.0637 18.7604 26.3036 18.836C23.8265 18.9418 22.1053 16.9204 22.1615 14.7392C22.25 11.2148 22.2436 7.68597 22.1615 4.15936C22.1118 2.0084 23.6473 0.0172517 26.2842 0.0150921C29.8108 0.0129326 33.3374 -0.010823 36.864 0.0237305C39.3497 0.0474861 40.9565 1.68878 40.9759 4.19607C41.0018 7.68597 40.9759 11.178 40.9845 14.6679C40.991 17.0824 39.2633 18.972 36.7733 18.8208C36.702 18.8165 36.6286 18.8208 36.5574 18.8208C34.9009 18.8208 33.2467 18.8208 31.5903 18.8208H31.5924ZM24.3794 9.40069C24.3794 11.1262 24.3729 12.8517 24.3794 14.5751C24.3859 16.035 24.9474 16.6137 26.3813 16.6159C29.8324 16.6224 33.2812 16.6224 36.7323 16.6159C38.1101 16.6137 38.7126 16.0479 38.7191 14.6658C38.7407 11.1802 38.7407 7.69245 38.7191 4.20687C38.7105 2.842 38.1684 2.29131 36.823 2.28483C33.3007 2.26323 29.7784 2.26323 26.2561 2.28483C24.9366 2.29347 24.3859 2.89167 24.3772 4.22414C24.3664 5.94966 24.3751 7.67518 24.3751 9.39853L24.3794 9.40069Z" fill="#101221"/>
  <path d="M22.1814 31.5428C22.1814 29.7438 22.2354 27.9427 22.1684 26.146C22.0864 23.9691 23.9414 22.1399 26.0924 22.1723C29.727 22.2263 33.3616 22.2198 36.9962 22.1723C38.8988 22.1464 40.9288 23.5091 40.9655 26.1222C41.0152 29.7201 41.0087 33.3201 40.9677 36.918C40.9396 39.3368 39.2897 40.9565 36.8537 40.9802C33.327 41.0148 29.8004 40.9932 26.2738 40.9867C23.6866 40.9824 22.0691 39.0344 22.1663 36.8316C22.244 35.0716 22.1814 33.305 22.1814 31.5428ZM24.3777 31.532C24.3777 33.2921 24.3669 35.0543 24.382 36.8144C24.3906 38.0734 24.9608 38.7062 26.1939 38.7148C29.7508 38.7407 33.3098 38.7386 36.8688 38.7148C38.1473 38.7062 38.7109 38.1468 38.7196 36.8532C38.7455 33.3309 38.7433 29.8086 38.7196 26.2863C38.7109 24.9582 38.1106 24.3859 36.7997 24.3837C33.3141 24.3729 29.8263 24.3751 26.3408 24.3837C24.9586 24.388 24.3885 24.9647 24.3798 26.3533C24.369 28.0788 24.3777 29.8043 24.3777 31.5277V31.532Z" fill="#101221"/>
  <path d="M9.4055 22.1832C11.2044 22.1832 13.0055 22.2394 14.8023 22.1703C17.0915 22.0839 18.8926 23.9865 18.8386 26.2562C18.7544 29.7807 18.7609 33.3095 18.8386 36.8361C18.884 39.0043 17.3528 40.9803 14.7224 40.9868C11.1958 40.9955 7.66919 41.0149 4.14257 40.9803C1.66119 40.9566 0.0458148 39.3067 0.028538 36.808C0.00262285 33.3181 0.0328572 29.826 0.01774 26.3361C0.00478244 23.9044 1.75405 22.0688 4.22463 22.1703C5.95015 22.2415 7.67998 22.1832 9.4055 22.1854V22.1832ZM9.5178 24.3839C7.72102 24.3839 5.92423 24.3731 4.12745 24.3882C2.92671 24.399 2.30259 24.954 2.29179 26.1482C2.2594 29.7418 2.2594 33.3354 2.28963 36.9311C2.30043 38.1513 2.8792 38.7085 4.10369 38.7171C7.66271 38.7408 11.2196 38.7408 14.7786 38.7171C16.0355 38.7085 16.6185 38.0973 16.6229 36.849C16.6358 33.3267 16.6337 29.8044 16.6229 26.2821C16.6185 24.9799 16.016 24.3947 14.6965 24.386C12.971 24.3752 11.2455 24.3839 9.52212 24.3839H9.5178Z" fill="#101221"/>
</svg>