<svg width="44" height="28" viewBox="0 0 44 28" fill="none" xmlns="http://www.w3.org/2000/svg">
<path d="M44 14.2302C44 21.6793 37.9141 27.706 30.3918 27.706C27.2165 27.706 24.3058 26.6205 22 24.8237C25.1753 22.3531 27.1787 18.535 27.1787 14.2302C27.1787 9.92543 25.1375 6.10729 22 3.63672C24.3058 1.83995 27.2165 0.754395 30.3918 0.754395C37.9141 0.754395 44 6.81851 44 14.2302Z" fill="#F79E1B"/>
<path d="M22.0182 3.74902C22.0182 3.74903 22.0182 3.74902 22.0182 3.74902C25.0364 6.1934 27 9.97107 27 14.2302C27 18.4893 25.0727 22.267 22.0182 24.7114L21.9817 24.7114C18.9636 22.304 17 18.4894 17 14.2303C17 9.97114 18.9636 6.19348 21.9818 3.74911C21.9818 3.74908 21.9818 3.74913 21.9818 3.74911L22.0182 3.74902Z" fill="#FF5F00"/>
<path d="M16.8213 14.2302C16.8213 9.92543 18.8625 6.10729 22 3.63672C19.6942 1.83995 16.7835 0.754395 13.6083 0.754395C6.08591 0.754395 0 6.78108 0 14.2302C0 21.6793 6.08591 27.706 13.6083 27.706C16.7835 27.706 19.6942 26.6205 22 24.8237C18.8625 22.3906 16.8213 18.535 16.8213 14.2302Z" fill="#EB001B"/>
</svg>
