<svg width="34" height="28" viewBox="0 0 34 28" fill="none" xmlns="http://www.w3.org/2000/svg">
<path d="M19.9184 27.7059C27.2803 27.7411 34 21.6981 34 14.3468C34 6.30837 27.2803 0.751395 19.9184 0.754396H13.5823C6.13257 0.751395 0 6.30987 0 14.3468C0 21.6996 6.13257 27.7411 13.5823 27.7059H19.9184Z" fill="#DCE0F5"/>
<path d="M13.9993 1.75244C7.37179 1.75463 2.00221 7.11514 2 13.7313C2.00221 20.3467 7.37179 25.7072 13.9993 25.7094C20.6275 25.7072 25.9993 20.3467 26 13.7313C25.9993 7.11514 20.6282 1.75463 13.9993 1.75244ZM6.39376 13.7313C6.39237 12.2016 6.85764 10.707 7.72877 9.44298C8.59989 8.17893 9.83635 7.20417 11.2765 6.6461V20.8158C9.83623 20.2581 8.59963 19.2835 7.72846 18.0195C6.85729 16.7555 6.39211 15.261 6.39376 13.7313ZM16.7212 20.8187V6.64537C18.1625 7.20264 19.4 8.17732 20.2718 9.4418C21.1436 10.7063 21.6089 12.2016 21.607 13.732C21.6086 15.2624 21.1432 16.7576 20.2714 18.022C19.3997 19.2864 18.1623 20.2612 16.7212 20.8187Z" fill="#0079BE"/>
</svg>
