<svg width="31" height="28" viewBox="0 0 31 28" fill="none" xmlns="http://www.w3.org/2000/svg">
<path d="M11.2739 17.9929C11.134 18.0625 10.9765 18.1028 10.8091 18.1028C10.4215 18.1028 10.0846 17.8927 9.90773 17.5817L9.83999 17.4357L7.01815 11.3338C6.98769 11.2675 6.96883 11.1924 6.96883 11.1193C6.96883 10.8381 7.20024 10.6103 7.48562 10.6103C7.60138 10.6103 7.70857 10.6481 7.79474 10.7112L11.1247 13.0476C11.3679 13.2043 11.6586 13.2962 11.9711 13.2962C12.1576 13.2962 12.3354 13.2621 12.5012 13.2026L28.1608 6.33468C25.3538 3.07488 20.731 0.944336 15.4997 0.944336C6.93913 0.944336 0 6.64281 0 13.6727C0 17.5077 2.08774 20.96 5.3556 23.2935C5.61768 23.478 5.78937 23.781 5.78937 24.123C5.78937 24.2361 5.76476 24.3392 5.73474 24.4471C5.47374 25.4064 5.05602 26.9428 5.03662 27.0148C5.004 27.1352 4.95316 27.261 4.95316 27.3869C4.95316 27.6681 5.18435 27.8959 5.47017 27.8959C5.58213 27.8959 5.67383 27.8548 5.76845 27.8012L9.16171 25.8706C9.41696 25.7257 9.68717 25.6355 9.98501 25.6355C10.1434 25.6355 10.2964 25.6598 10.4403 25.7031C12.0233 26.1518 13.7313 26.4011 15.4998 26.4011C24.0599 26.4011 31 20.7023 31 13.6727C31 11.5435 30.3596 9.53819 29.2343 7.7742L11.3875 17.9284L11.2739 17.9929Z" fill="#1AAD19"/>
</svg>
