<svg width="67" height="28" viewBox="0 0 67 28" fill="none" xmlns="http://www.w3.org/2000/svg">
<path d="M46.327 6.4808C45.6804 6.47709 45.0395 6.60025 44.4409 6.84323C43.8424 7.0862 43.298 7.44422 42.8389 7.89674L42.6097 6.77375H38.6959V27.8012L43.1501 26.841V21.7469C44.036 22.4842 45.155 22.8876 46.3106 22.8861C49.4875 22.8861 52.4024 20.2984 52.4024 14.5695C52.4024 9.32895 49.4547 6.4808 46.327 6.4808ZM45.2625 18.8987C44.8719 18.9211 44.4811 18.8568 44.1185 18.7104C43.756 18.564 43.4307 18.3392 43.1664 18.0524V11.3633C43.4318 11.066 43.7607 10.8314 44.129 10.6765C44.4973 10.5216 44.8958 10.4505 45.2953 10.4682C46.9329 10.4682 48.0464 12.3073 48.0464 14.6672C48.0464 17.0271 46.9165 18.8987 45.2625 18.8987Z" fill="#4E45FF"/>
<path d="M60.623 6.4808C56.3325 6.4808 53.7288 10.159 53.7288 14.7974C53.7288 20.2821 56.8074 23.0652 61.1961 23.0652C62.909 23.0929 64.6004 22.6839 66.1089 21.8771V18.2152C64.7389 18.9021 63.2217 19.2484 61.6874 19.2242C59.9188 19.2242 58.4123 18.5895 58.183 16.4575H66.9931C66.9931 16.2133 66.9931 15.2531 66.9931 14.8299C67.1405 10.159 64.9134 6.4808 60.623 6.4808ZM58.2157 13.1048C58.2157 11.0541 59.4767 10.1915 60.5902 10.1915C61.7038 10.1915 62.8828 11.0541 62.8828 13.1048H58.2157Z" fill="#4E45FF"/>
<path d="M26.6761 7.99439L26.3977 6.65983H22.5985V22.463H26.9872V11.7539C27.3836 11.2757 27.9174 10.9291 28.5173 10.7604C29.1171 10.5917 29.7545 10.609 30.3443 10.81V6.65983C29.6743 6.39899 28.9315 6.3907 28.2558 6.63653C27.5801 6.88235 27.0183 7.36531 26.6761 7.99439Z" fill="#4E45FF"/>
<path d="M4.50332 11.4122C4.50332 10.6961 5.09285 10.4194 6.02627 10.4194C7.57323 10.4525 9.08957 10.8544 10.4477 11.5912V7.31084C9.04354 6.74657 7.54078 6.46446 6.02627 6.48081C2.40723 6.48081 0 8.40127 0 11.6237C0 16.669 6.77955 15.8553 6.77955 18.0199C6.77955 18.8662 6.05902 19.1429 5.14198 19.1429C3.41182 19.0424 1.72936 18.5407 0.229259 17.6781V22.0561C1.77535 22.7414 3.44907 23.0963 5.14198 23.0977C8.84289 23.0977 11.3975 21.2261 11.3975 17.9548C11.3156 12.4863 4.50332 13.4628 4.50332 11.4122Z" fill="#4E45FF"/>
<path d="M17.3092 2.91655L12.9696 3.8605V18.3942C12.9472 19.0067 13.0507 19.6173 13.2738 20.1887C13.4969 20.76 13.8349 21.2802 14.2671 21.7174C14.6993 22.1546 15.2167 22.4996 15.7876 22.7313C16.3585 22.963 16.971 23.0766 17.5875 23.0652C18.6634 23.113 19.7353 22.9066 20.7153 22.463V18.8011C20.1422 19.0452 17.3419 19.8752 17.3419 17.1736V10.6635H20.7153V6.85513H17.3419L17.3092 2.91655Z" fill="#4E45FF"/>
<path d="M31.9982 5.29272L36.4688 4.36504V0.849609L31.9982 1.77729V5.29272Z" fill="#4E45FF"/>
<path d="M36.4688 6.77376H31.9982V22.463H36.4688V6.77376Z" fill="#4E45FF"/>
</svg>
