<svg width="29" height="28" viewBox="0 0 29 28" fill="none" xmlns="http://www.w3.org/2000/svg">
<path d="M14.1614 13.4669C15.2495 13.735 17.6173 14.3184 18.03 12.7887C18.4511 11.2237 16.1507 10.751 15.0243 10.5196C14.8967 10.4933 14.7841 10.4702 14.6923 10.4489L13.8968 13.4029C13.9726 13.4204 14.0616 13.4423 14.1614 13.4669Z" fill="#DC7D0A"/>
<path d="M12.9285 18.2229C14.2318 18.542 17.0822 19.2397 17.5358 17.5542C18 15.8308 15.2362 15.2567 13.8877 14.9766C13.7372 14.9453 13.6042 14.9177 13.4954 14.8926L12.6179 18.1482C12.7071 18.1687 12.8116 18.1943 12.9285 18.2229Z" fill="#DC7D0A"/>
<path fill-rule="evenodd" clip-rule="evenodd" d="M29 14.4201C29 21.8626 22.5081 27.8959 14.5 27.8959C6.49187 27.8959 0 21.8626 0 14.4201C0 6.97766 6.49187 0.944336 14.5 0.944336C22.5081 0.944336 29 6.97766 29 14.4201ZM17.9836 9.41341C20.0006 10.0571 21.476 11.021 21.1866 12.8148C20.9763 14.1283 20.1899 14.7636 19.145 14.9861C20.5786 15.677 21.0671 16.9882 20.6131 18.5737C19.7512 20.8553 17.7023 21.0474 14.9772 20.5705L14.3155 23.0232L12.7181 22.6541L13.3707 20.2343C12.9565 20.1391 12.5333 20.0372 12.0973 19.9285L11.442 22.3601L9.84639 21.9911L10.5072 19.5333L7.28964 18.7818L8.08333 17.0882C8.08333 17.0882 9.26113 17.3772 9.24475 17.3562C9.69712 17.4598 9.89827 17.1868 9.97746 17.0057L11.7706 10.3486C11.7906 10.0344 11.6732 9.63837 11.026 9.48839C11.0506 9.47239 9.8655 9.2213 9.8655 9.2213L10.2906 7.64152L13.5127 8.38043L14.168 5.95051L15.7645 6.31955L15.1228 8.70145C15.5524 8.7916 15.9839 8.88344 16.4035 8.98033L17.0406 6.6136L18.638 6.98264L17.9836 9.41341Z" fill="#DC7D0A"/>
</svg>
