<svg width="16" height="24" viewBox="0 0 16 24" fill="none" xmlns="http://www.w3.org/2000/svg">
<path d="M10.985 15.657C12.1583 14.6517 12.669 13.3263 12.6652 11.7887C12.6618 10.4321 12.6622 9.07546 12.6626 7.71884C12.6629 6.85548 12.6631 5.99212 12.6624 5.12876M10.985 15.657L2.80063 8.41696C2.80063 8.03645 2.80053 7.65594 2.80042 7.27546C2.80021 6.5146 2.8 5.75389 2.80063 4.9936C2.80345 2.4141 4.55409 0.785491 6.18551 0.248566C9.20619 -0.744558 12.3846 1.35152 12.6333 4.5205C12.6493 4.72326 12.6615 4.92601 12.6624 5.12876M10.985 15.657C9.48028 16.9468 7.75499 17.2753 5.91142 16.5309L10.985 15.657ZM12.6624 5.12876L12.6124 5.12881M12.6624 5.12876L12.6124 5.129C12.6124 5.12893 12.6124 5.12887 12.6124 5.12881M12.6124 5.12881C12.6131 5.99206 12.6129 6.85541 12.6126 7.71878C12.6122 9.07545 12.6118 10.4322 12.6152 11.7888C12.6189 13.3141 12.113 14.6247 10.9525 15.619L10.9524 15.619C9.46116 16.8973 7.75549 17.2216 5.93014 16.4846L5.93012 16.4845C4.11092 15.7507 3.04612 14.3596 2.89836 12.397L2.8485 12.4007L2.89836 12.397C2.82982 11.4872 2.84701 10.5722 2.86424 9.65461C2.87198 9.24252 2.87973 8.82989 2.87973 8.41696V8.36696H2.85063C2.85062 8.00309 2.85052 7.63923 2.85042 7.2754C2.85021 6.51457 2.85001 5.75391 2.85063 4.99364C2.85342 2.43979 4.58606 0.827606 6.20114 0.29606M12.6124 5.12881C12.6115 4.92789 12.5994 4.72658 12.5835 4.52442L12.5835 4.52441C12.3373 1.38806 9.19133 -0.687029 6.20114 0.29606M6.20114 0.29606L6.18551 0.248573L6.20113 0.296065C6.20113 0.296063 6.20114 0.296062 6.20114 0.29606ZM11.0871 4.26261H9.22802V5.57627H11.2225H11.2725V5.62627V7.72703V7.77703H11.2225H9.22145V9.10852H11.215H11.265V9.15852V11.2424V11.2924H11.215H9.22709V12.607H11.1155H11.1684L11.1654 12.6599C11.1231 13.3952 10.7066 14.0997 10.1019 14.6263C9.49692 15.1531 8.69893 15.5061 7.8854 15.5352C7.88539 15.5352 7.88538 15.5352 7.88537 15.5352L7.88358 15.4852C6.16986 15.5475 4.56367 14.3064 4.34104 12.7351L11.0871 4.26261ZM11.0871 4.26261L11.0893 4.28029L11.1472 4.26099L11.15 4.26005L11.1423 4.2122L11.181 4.2074C10.9794 2.58056 9.34023 1.30359 7.58054 1.36444L7.58227 1.41441M11.0871 4.26261L7.58227 1.41441M7.58227 1.41441L7.58054 1.36444C6.76791 1.39257 5.96989 1.74515 5.36467 2.27172C4.75971 2.79806 4.34274 3.50249 4.30047 4.2379L4.29744 4.29077H4.35039H6.23971M7.58227 1.41441L6.23971 4.29077M6.23971 4.29077V5.60536H4.25183H4.20183V5.65536V7.73923V7.78924H4.25183H6.24628V9.12072H4.24526H4.19526V9.17072V11.2715V11.3215H4.24526H6.23971V12.6351V4.29077Z" fill="black" stroke="#E7EAFA" stroke-width="0.1"/>
<path d="M14.1472 12.0477H15.4136C15.386 14.0262 14.7113 15.7138 13.408 17.1494L13.408 17.1494C12.0914 18.6004 10.4319 19.4044 8.46506 19.6396L8.421 19.6449V19.6893V22.5982V22.6482H8.471H13.2749V23.9497H2.14642V22.6773H6.98601H7.03601V22.6273V19.7024V19.6587L6.99271 19.6529C4.45327 19.3093 2.44992 18.094 1.10854 15.8777C0.404469 14.7129 0.0457013 13.4447 0.0500389 12.0458H1.32688C1.43822 14.2792 2.38531 16.0809 4.28418 17.3327C5.48243 18.123 6.81516 18.437 8.24264 18.3368L8.23914 18.2869L8.24265 18.3368C10.8837 18.1511 13.9607 15.9833 14.1472 12.0477Z" fill="black" stroke="#E7EAFA" stroke-width="0.1"/>
</svg>
