<svg xmlns="http://www.w3.org/2000/svg" width="36" height="36" viewBox="0 0 36 36" fill="none">
  <path d="M0.00390625 0H11.1777V11.1752H0.00390625V0ZM8.91617 8.9517V2.27559H2.24007V8.9517H8.91617Z" fill="#101221"/>
  <path d="M24.7656 11.1823V0.00854492H35.9408V11.1823H24.7656ZM33.7201 2.27146H27.0201V8.94334H33.7201V2.27146Z" fill="#101221"/>
  <path d="M0.00390625 24.7854H11.1805V35.9606H0.00390625V24.7854ZM2.25978 27.03V33.7301H8.92603V27.03H2.25978Z" fill="#101221"/>
  <path d="M17.928 26.9902H13.5078V24.8047H20.2191V31.4935H24.683V33.7536H20.2459V35.9644H13.5149V33.7803H17.928V26.9902Z" fill="#101221"/>
  <path d="M13.4521 22.4464V20.2778H8.98544V22.4548H6.76758V18.0135H8.93615V13.5439H11.1977V17.9712H15.6883V20.2341H17.9357V22.4464H13.4521Z" fill="#101221"/>
  <path d="M29.21 15.7111H31.4715V13.5425H35.9523V15.7196H33.7725V17.9487H24.7715V15.7717H26.9753V13.5256H29.21V15.7111Z" fill="#101221"/>
  <path d="M20.2107 8.96263H18.0027V6.73914H13.5078V2.27808H15.7031V4.47199H22.4454V6.70253H20.2107V8.96263Z" fill="#101221"/>
  <path d="M13.4922 15.6896V13.5281H20.2091V11.2778H22.4509V15.6896H13.4922Z" fill="#101221"/>
  <path d="M2.18124 18.0141H4.42586V20.2263H2.23053V22.4427H0V13.5234H2.18124V18.0127V18.0141Z" fill="#101221"/>
  <path d="M29.2678 36.0002H27.0527V29.3101H33.7105V31.473H29.2692V36.0002H29.2678Z" fill="#101221"/>
  <path d="M24.7969 20.282H29.2143V26.9525H27.0077V22.5167H24.7969V20.282Z" fill="#101221"/>
  <path d="M22.4243 2.1958H18.0195V0.00610352H22.4243V2.1958Z" fill="#101221"/>
  <path d="M20.2773 18.0261H22.4417V22.4407H20.2773V18.0261Z" fill="#101221"/>
  <path d="M35.9712 20.2969V22.4612H31.5566V20.2969H35.9712Z" fill="#101221"/>
  <path d="M22.5273 24.7876H24.6973V29.2022H22.5273V24.7876Z" fill="#101221"/>
  <path d="M35.9673 33.8186V35.9773H31.5273V33.8186H35.9673Z" fill="#101221"/>
  <path d="M15.6883 9.03369V11.1952H13.5254V9.03369H15.6883Z" fill="#101221"/>
  <path d="M6.67725 13.5281V15.6882H4.50586V13.5281H6.67725Z" fill="#101221"/>
  <path d="M35.9565 26.9737H33.7949V24.8108H35.9565V26.9737Z" fill="#101221"/>
  <path d="M15.6797 31.4766H13.5195V29.3052H15.6797V31.4766Z" fill="#101221"/>
  <path d="M6.66675 6.71294H4.51367V4.52466H6.66675V6.71294Z" fill="#101221"/>
  <path d="M29.3027 4.50269H31.46V6.69097H29.3027V4.50269Z" fill="#101221"/>
  <path d="M4.5 29.293H6.66012V31.4644H4.5V29.293Z" fill="#101221"/>
</svg>