<svg width="29" height="29" viewBox="0 0 29 29" fill="none" xmlns="http://www.w3.org/2000/svg">
<path d="M21.2705 20.9704L22.023 20.0352C21.8975 19.925 21.7815 19.8145 21.6578 19.715C20.0897 18.4509 18.5199 17.1889 16.9506 15.9263C16.8684 15.8601 16.7857 15.7959 16.7046 15.7284C16.2336 15.331 16.1711 14.8735 16.5392 14.3988C16.8676 13.9748 17.2045 13.5575 17.5477 13.1454C17.9397 12.674 18.4292 12.6296 18.9216 13.0235C20.5633 14.3399 22.2018 15.6606 23.8413 16.9798C23.9664 17.0804 24.0915 17.1811 24.2327 17.2947L24.9616 16.3889C24.8316 16.2728 24.7075 16.1522 24.5732 16.0442C21.4127 13.4988 18.2497 10.9549 15.088 8.41091C14.9945 8.33571 14.8987 8.26202 14.8069 8.18473C14.2759 7.73105 14.2271 7.29952 14.6549 6.74779C14.9465 6.37101 15.2478 6.00088 15.5513 5.63371C16.0437 5.03762 16.4713 4.99397 17.086 5.48748C18.7981 6.86047 20.5062 8.23832 22.216 9.61409C23.7382 10.8389 25.261 12.0642 26.7832 13.289L27.2098 13.6323C27.3801 13.4206 27.5214 13.2349 27.6734 13.0589C27.8531 12.8514 28.0563 12.8118 28.215 12.9384C28.3738 13.0662 28.385 13.2782 28.2371 13.5022C28.1799 13.5892 28.1087 13.6662 28.0432 13.7476C24.1683 18.5633 20.2935 23.3789 16.4192 28.1938C16.3351 28.2983 16.2565 28.4105 16.1555 28.4956C16.005 28.6223 15.8229 28.6558 15.6665 28.5105C15.518 28.3715 15.5018 28.1944 15.6312 28.0278C15.7846 27.83 15.9443 27.6373 16.1258 27.4117C15.9761 27.2798 15.8601 27.1693 15.7357 27.0692C14.8584 26.361 13.9783 25.6562 13.1033 24.9465C12.9761 24.8441 12.852 24.7293 12.7549 24.5996C12.5104 24.2733 12.5068 23.8849 12.7543 23.5644C13.1176 23.0928 13.492 22.6289 13.8749 22.1718C14.1743 21.814 14.5865 21.7464 15.0015 21.9759C15.1316 22.0474 15.2498 22.1436 15.3664 22.2375C16.2228 22.9243 17.0768 23.6126 17.932 24.3007C18.0578 24.4019 18.1843 24.5037 18.3319 24.6225L19.0765 23.6971C18.9402 23.5874 18.8151 23.4867 18.69 23.3861C16.418 21.5579 14.1471 19.7284 11.8723 17.9038C11.6425 17.7188 11.4405 17.5253 11.3931 17.2245C11.352 16.962 11.4178 16.7247 11.5897 16.5155C11.9294 16.1005 12.2606 15.6788 12.5996 15.2632C13.0227 14.7445 13.4635 14.6931 13.9904 15.116C15.5625 16.3752 17.1301 17.6399 18.6993 18.9026C19.5419 19.5806 20.3845 20.2586 21.2721 20.9727L21.2705 20.9704ZM15.0657 7.43859L25.43 15.778L26.7051 14.1932L16.3409 5.85381L15.0657 7.43859ZM12.0707 17.0975L19.548 23.114L20.7873 21.5738C20.4401 21.1694 13.6255 15.7148 13.2938 15.5775L12.0707 17.0975ZM23.7835 17.8487C23.6401 17.7333 23.5143 17.6321 23.3886 17.5309C22.3239 16.6742 21.2585 15.817 20.1938 14.9603C19.6555 14.5272 19.1195 14.0912 18.5783 13.6616C18.2745 13.4205 18.2532 13.424 18.0066 13.7246C17.723 14.07 17.4434 14.4174 17.1682 14.7695C17.1078 14.846 17.074 14.9427 17.033 15.021C17.5327 15.5424 22.2355 19.2805 22.5359 19.4006L23.7842 17.8493L23.7835 17.8487ZM13.2579 24.1084L16.5882 26.7881L17.8824 25.1796C16.7595 24.2933 15.6858 23.3743 14.5336 22.5229L13.2573 24.1091L13.2579 24.1084Z" fill="#101221"/>
<path d="M11.1917 10.4291C11.1643 9.77837 11.3585 9.27508 11.9386 8.9916C12.1395 8.89291 12.0942 8.72336 12.0854 8.56599C12.0382 7.65624 11.9859 6.74576 11.9342 5.83584C11.9208 5.59788 11.9028 5.35975 11.8847 5.09739C11.4741 4.91845 11.0676 4.69569 10.9305 4.23438C10.8531 3.97369 10.8272 3.67064 10.8779 3.40626C10.9943 2.79678 11.5509 2.39 12.1732 2.39063C12.7886 2.39135 13.3257 2.80865 13.4927 3.41558C13.6699 4.06293 13.3802 4.62015 12.6116 5.06741C12.6791 6.24248 12.7524 7.43482 12.813 8.6272C12.8228 8.82787 12.928 8.90442 13.0889 8.98348C14.0042 9.43311 14.1716 10.5142 13.4405 11.2084C13.0135 11.6139 12.3202 11.6698 11.8274 11.3341C11.7285 11.2671 11.6394 11.185 11.5136 11.0838C11.1192 11.2632 10.7161 11.4447 10.3159 11.6298C9.92548 11.81 9.53615 11.9946 9.13082 12.1846C9.17046 12.8865 8.89089 13.4037 8.2261 13.7119C8.30567 14.954 8.38494 16.1879 8.46579 17.4413C8.86892 17.6166 9.2404 17.834 9.42877 18.2575C9.55459 18.54 9.58175 18.8314 9.5052 19.1323C9.36228 19.6998 8.87172 20.1138 8.29222 20.1477C7.67526 20.1835 7.11429 19.7987 6.91496 19.2047C6.69024 18.5329 6.92548 18.0305 7.74535 17.4604C7.66626 16.2508 7.58645 15.0292 7.50333 13.7613C6.97991 13.5844 6.57413 13.2556 6.45076 12.6723C6.37266 12.3032 6.44914 11.9621 6.65593 11.6489C7.11935 10.9493 7.91804 10.8933 8.83523 11.5189C9.59848 11.166 10.3794 10.8056 11.1906 10.4305L11.1917 10.4291ZM12.9521 9.72337C12.7026 9.5054 12.2768 9.531 12.0561 9.77789C11.8411 10.0178 11.8788 10.4428 12.1344 10.6633C12.4096 10.8997 12.7821 10.8771 13.0111 10.6083C13.2362 10.3443 13.2095 9.94882 12.9514 9.7228L12.9521 9.72337ZM7.28747 12.0195C7.07653 12.2845 7.12073 12.6929 7.38398 12.9024C7.64231 13.108 8.07062 13.0649 8.27456 12.8114C8.48298 12.5524 8.43163 12.1486 8.16247 11.932C7.88418 11.7081 7.50569 11.7454 7.28803 12.0188L7.28747 12.0195ZM12.5457 3.26157C12.2723 3.05309 11.8607 3.09701 11.6645 3.35668C11.4683 3.61636 11.5305 4.02543 11.7995 4.23499C12.0769 4.45135 12.4557 4.40509 12.6692 4.12957C12.8805 3.85558 12.8268 3.47627 12.5464 3.26214L12.5457 3.26157ZM7.72037 18.3821C7.49946 18.638 7.53437 19.032 7.79876 19.2574C8.05894 19.4793 8.46609 19.4582 8.68282 19.2105C8.89744 18.9668 8.8573 18.5548 8.59642 18.3322C8.32766 18.1022 7.94241 18.1249 7.71981 18.3828L7.72037 18.3821Z" fill="#101221"/>
</svg>
