<svg width="26" height="26" viewBox="0 0 26 26" fill="none" xmlns="http://www.w3.org/2000/svg">
<path d="M12.2055 25.0232H13.7658C13.7751 24.8063 13.7925 24.5987 13.7925 24.3924C13.7949 21.7739 13.7937 19.1555 13.7937 16.5371C13.7937 16.3999 13.7914 16.2639 13.7937 16.1267C13.8123 15.3258 14.2247 14.8896 15.0055 14.8755C15.7026 14.8626 16.3997 14.8638 17.0968 14.8755C17.8938 14.8884 18.3377 15.3481 18.34 16.1677C18.3446 18.9034 18.3423 21.6391 18.3423 24.3748C18.3423 24.5835 18.3423 24.7922 18.3423 25.0279H19.8539C19.8655 24.8016 19.8864 24.5776 19.8864 24.3537C19.8887 19.0781 19.8875 13.8014 19.8875 8.52586C19.8875 8.3699 19.8841 8.21278 19.8875 8.05682C19.9143 7.14922 20.3116 6.74819 21.219 6.73178C21.8383 6.72005 22.4587 6.72357 23.078 6.73178C24.083 6.74467 24.4757 7.14219 24.4768 8.16704C24.4815 11.02 24.478 13.8729 24.478 16.7259C24.478 19.2657 24.478 21.8068 24.478 24.3466V25.0584C24.8312 25.0584 25.1344 25.0502 25.4365 25.0608C25.7932 25.0737 25.9988 25.2472 26 25.511C26 25.776 25.7944 25.9601 25.447 25.993C25.3122 26.0059 25.1763 25.9965 25.0403 25.9965C17.005 25.9965 8.96972 25.9965 0.935584 25.9965C0.761308 25.9965 0.583546 26.0082 0.415079 25.9754C0.164121 25.9261 -0.0182881 25.769 0.00146326 25.4923C0.0212146 25.2284 0.187358 25.0678 0.461553 25.0631C0.786868 25.0572 1.11218 25.0619 1.48862 25.0619C1.50024 24.8028 1.51767 24.5952 1.51767 24.3877C1.51999 22.9219 1.51651 21.4562 1.52231 19.9916C1.52231 19.7793 1.53742 19.5601 1.5897 19.356C1.72099 18.8424 2.11137 18.5223 2.63768 18.5118C3.41147 18.4953 4.18642 18.4965 4.96137 18.5118C5.56785 18.5235 5.97217 18.8858 6.0779 19.4932C6.11159 19.6832 6.11043 19.8814 6.11043 20.076C6.11275 21.5031 6.11159 22.929 6.11159 24.356C6.11159 24.5659 6.11159 24.777 6.11159 25.0232H7.65568C7.65568 24.7957 7.65568 24.587 7.65568 24.3783C7.65568 20.5873 7.658 16.7962 7.65219 13.0052C7.65219 12.6218 7.68356 12.2594 7.94962 11.9663C8.18199 11.7107 8.47594 11.584 8.82798 11.5875C9.52508 11.5934 10.2222 11.5852 10.9193 11.5899C11.7895 11.5957 12.2008 12.0003 12.202 12.8786C12.2078 15.497 12.2043 18.1154 12.2043 20.7338C12.2043 22.1398 12.2043 23.5457 12.2043 25.0267L12.2055 25.0232ZM20.8542 7.7109V25.0045H23.4986V7.7109H20.8542ZM8.63046 12.5491V25.0256H11.2005C11.3271 24.3443 11.2981 12.997 11.1668 12.5491H8.63046ZM17.4151 25.0244C17.4151 24.7852 17.4151 24.5753 17.4151 24.3654C17.4151 22.5889 17.4151 20.8112 17.4151 19.0347C17.4151 18.1365 17.4198 17.2383 17.414 16.3401C17.4105 15.8359 17.3896 15.8171 16.8842 15.8124C16.3033 15.8066 15.7235 15.8066 15.1426 15.8148C15.0159 15.8159 14.8905 15.8605 14.7778 15.8828C14.6569 16.8138 14.7034 24.6234 14.8266 25.0256H17.4151V25.0244ZM2.4971 19.4651V25.0221H5.18095C5.16353 23.1623 5.2193 21.326 5.14261 19.4651H2.49594H2.4971Z" fill="#101221"/>
<path d="M14.6679 6.22426C15.3046 5.6661 15.9727 5.45269 16.7325 5.80916C16.9963 5.93228 17.131 5.74818 17.2832 5.61099C18.1663 4.82183 19.0458 4.0268 19.9253 3.23295C20.1553 3.0254 20.3819 2.81316 20.6328 2.58098C20.4795 2.0193 20.3737 1.42596 20.7293 0.911191C20.9303 0.620385 21.2161 0.347168 21.5251 0.183004C22.2373 -0.195748 23.1029 0.0364282 23.6095 0.667289C24.1102 1.29112 24.1253 2.17526 23.6467 2.83895C23.1354 3.54603 22.3349 3.70668 21.2556 3.29275C20.1205 4.31878 18.9726 5.36474 17.8142 6.39781C17.619 6.57135 17.6272 6.74021 17.6783 6.96769C17.9687 8.26108 17.0102 9.31173 15.7113 9.13701C14.9526 9.035 14.331 8.37834 14.2694 7.60559C14.2567 7.45081 14.2671 7.29368 14.2671 7.08378C13.764 6.8305 13.2517 6.57018 12.7381 6.31573C12.2374 6.06713 11.7331 5.82323 11.2103 5.5676C10.5318 6.1797 9.78008 6.31807 8.92612 5.89593C7.73291 6.9888 6.54783 8.07463 5.34416 9.17805C5.4952 9.72918 5.57769 10.2826 5.30234 10.8185C5.11877 11.1762 4.84573 11.4412 4.47859 11.6089C3.7873 11.9266 2.9682 11.7672 2.46163 11.2078C1.92254 10.6121 1.85515 9.73035 2.29433 9.04438C2.7916 8.26928 3.49219 8.09808 4.73768 8.46394C5.89836 7.39804 7.07066 6.32159 8.28711 5.2041C8.03964 4.52985 8.04196 3.85091 8.53226 3.25054C8.84247 2.87061 9.25028 2.6701 9.73593 2.62437C10.8222 2.52352 11.5298 3.28689 11.6437 4.72567C12.6231 5.21113 13.6246 5.70832 14.6656 6.22426H14.6679ZM16.8174 7.43204C16.8348 7.0017 16.4618 6.59129 16.0319 6.56901C15.6137 6.54673 15.214 6.93134 15.1989 7.3699C15.1838 7.84128 15.5103 8.2001 15.9692 8.213C16.42 8.2259 16.7988 7.87646 16.8174 7.43087V7.43204ZM9.87535 3.56597C9.43501 3.56831 9.05741 3.94589 9.05973 4.38327C9.06206 4.81245 9.45476 5.21113 9.87767 5.21113C10.3099 5.21113 10.677 4.83004 10.677 4.38093C10.677 3.91658 10.3308 3.56362 9.87651 3.56597H9.87535ZM23.0309 1.75429C23.0193 1.30753 22.6393 0.926435 22.2164 0.939334C21.7935 0.952232 21.4299 1.34857 21.4368 1.79182C21.4438 2.24913 21.7993 2.59505 22.2524 2.58684C22.7021 2.57746 23.0425 2.21395 23.0309 1.75547V1.75429ZM3.78381 9.18978C3.34463 9.17453 2.97401 9.53101 2.96123 9.98246C2.94845 10.4269 3.30165 10.822 3.7292 10.8396C4.15095 10.8584 4.53552 10.482 4.5483 10.0364C4.56224 9.57674 4.22531 9.20502 3.78265 9.18978H3.78381Z" fill="#101221"/>
</svg>
