<svg xmlns="http://www.w3.org/2000/svg" width="67" height="64" viewBox="0 0 67 64" fill="none">
  <path d="M8.76864 53.5367V53.4906L4.86754 32.7875C4.87014 31.7926 4.86783 30.7984 4.86553 29.8043C4.86091 27.8169 4.85631 25.8303 4.89088 23.8423L4.89088 23.8422C4.89872 23.3703 4.84087 22.9963 4.65965 22.6875C4.47804 22.3779 4.17671 22.1407 3.71221 21.9334L3.71219 21.9334C1.57981 20.9828 0.441302 18.8998 0.61872 16.6397L0.568874 16.6358L0.618721 16.6397C0.783106 14.5412 2.27613 12.6645 4.31964 11.9884C7.00493 11.1019 9.891 12.4404 10.9809 15.0804C12.0343 17.6317 10.9504 20.5718 8.46459 21.8751C8.20542 22.0108 7.93761 22.1256 7.6425 22.2522C7.50553 22.3109 7.36267 22.3721 7.21206 22.4391L7.18239 22.4524V22.4848V33.921V33.971H7.23239H8.73161H8.77296L8.78072 33.9303C8.81662 33.7425 8.85089 33.5556 8.88499 33.3696C8.96701 32.9223 9.04809 32.4801 9.14867 32.0412L9.14868 32.0412C10.264 27.1537 14.5549 23.7071 19.5767 23.6683C20.5166 23.6607 21.4568 23.662 22.3971 23.6634C23.0556 23.6643 23.714 23.6653 24.3725 23.6631C24.6617 23.6631 24.9517 23.6462 25.2762 23.6272C25.4279 23.6184 25.5871 23.6091 25.7572 23.6008L25.8023 23.5987L25.8048 23.5536C25.8144 23.3776 25.8255 23.2073 25.8363 23.041C25.8605 22.6704 25.8834 22.3199 25.8852 21.9715V21.9713C25.8875 19.8196 25.8878 17.6681 25.8881 15.5165C25.8884 12.8281 25.8887 10.1397 25.893 7.45115V7.45107C25.893 6.76274 25.9267 6.07188 25.9965 5.38627L25.9965 5.38612C26.2976 2.33687 28.6842 0.0800959 31.7389 0.0723821L31.7389 0.072382C41.074 0.0438503 50.409 0.0412566 59.7414 0.072382L59.7416 0.0223822L59.7414 0.072382C63.1577 0.0826641 65.5799 2.68704 65.634 6.37537C65.6648 8.45409 65.6577 10.5338 65.6506 12.6144C65.6475 13.5163 65.6444 14.4184 65.6444 15.3207C65.6444 16.0622 65.6452 16.8033 65.6461 17.5444C65.6482 19.3961 65.6503 21.247 65.6392 23.0993L65.6892 23.0996L65.6392 23.0993C65.6289 24.9774 65.0876 26.641 63.6709 27.9548C62.4398 29.096 60.9536 29.5291 59.315 29.5704C58.7631 29.5845 58.2131 29.5807 57.6496 29.5767C57.3821 29.5749 57.1117 29.573 56.8365 29.573H56.7725L56.788 29.6351L56.9217 30.1717C57.2441 31.4659 57.5482 32.6865 57.8904 34.0576L57.8998 34.0955H57.9389C58.1834 34.0955 58.4364 34.093 58.6953 34.0906C59.2846 34.0849 59.9048 34.079 60.5258 34.1006C63.4151 34.2036 65.6672 35.9636 66.3462 38.6643C66.4693 39.1538 66.4978 39.6781 66.503 40.1907C66.5185 42.5664 66.5211 44.9447 66.5081 47.3203C66.4875 50.8598 64.019 53.3825 60.4742 53.488C59.898 53.5055 59.3215 53.5006 58.7267 53.4955C58.4388 53.4931 58.1466 53.4906 57.8481 53.4906H57.805L57.7987 53.5332C57.7721 53.7113 57.7485 53.8783 57.7261 54.0374C57.676 54.3923 57.6315 54.7083 57.5708 55.0225L57.6199 55.032L57.5708 55.0226C56.4399 60.881 51.2914 63.9953 46.7783 63.9437C37.8345 63.8399 28.8854 63.8166 19.9413 63.9489C14.7845 64.0263 9.42732 60.1524 8.88777 54.0005L8.88774 54.0002C8.88338 53.9537 8.87176 53.9081 8.8527 53.8403C8.84839 53.8249 8.84365 53.8083 8.83847 53.7901C8.82082 53.7281 8.79794 53.6478 8.76864 53.5367ZM0.0559681 40.4474C-0.0649628 37.6712 1.66399 35.2505 4.15896 34.4145L6.37188 53.4906C6.37184 53.4906 6.37179 53.4906 6.37174 53.4906C4.47379 53.4661 2.9041 52.8293 1.80745 51.732C0.7108 50.6348 0.0832115 49.0729 0.0767657 47.1908C0.0741523 46.4363 0.0818033 45.6806 0.0894592 44.9244C0.10457 43.4318 0.119699 41.9374 0.0559698 40.4475L0.0559681 40.4474ZM33.6096 29.7527V29.7075L33.5647 29.703C33.3892 29.685 33.2444 29.6668 33.1182 29.6509C33.0713 29.645 33.027 29.6394 32.9846 29.6343C32.8286 29.6155 32.6988 29.6028 32.5683 29.6041C31.2619 29.617 30.0903 29.386 29.0845 28.8596C28.0791 28.3334 27.2365 27.5108 26.5898 26.3359C26.4556 26.0917 26.2967 25.9488 26.109 25.8688C25.9234 25.7897 25.7144 25.7744 25.4848 25.7757C24.7897 25.7793 24.0939 25.774 23.398 25.7688C22.1046 25.759 20.8107 25.7492 19.5201 25.7964C14.6766 25.9712 11.0291 29.7334 11.0109 34.577C10.9849 40.7141 10.9875 46.8512 11.0109 52.9909C11.0317 57.9463 14.8069 61.7662 19.7681 61.7845C28.8025 61.8208 37.8343 61.8234 46.8687 61.7845C51.7623 61.7636 55.5506 57.9543 55.5766 53.0766C55.6022 48.3873 55.595 43.6979 55.5877 39.0088C55.5854 37.5169 55.5831 36.0249 55.5818 34.5331C55.5818 33.1654 55.2451 31.877 54.6746 30.6345C54.5102 30.2755 54.3126 30.0072 54.0473 29.831C53.7817 29.6546 53.4538 29.5742 53.0358 29.5808L53.0357 29.5808C50.4867 29.6249 47.9375 29.6119 45.3879 29.586L45.3878 29.586C44.7268 29.5807 44.2093 29.7799 43.7153 30.2104C43.0524 30.7873 42.3661 31.3374 41.6787 31.8884C41.4553 32.0675 41.2317 32.2467 41.0087 32.427L41.0087 32.427C40.5521 32.7974 40.0954 33.1677 39.6389 33.538C38.35 34.5831 37.0615 35.628 35.7744 36.6757C35.5472 36.86 35.3237 37.0272 35.0844 37.1112C34.8484 37.1941 34.5956 37.1965 34.3063 37.0462L34.3063 37.0462C33.7609 36.7636 33.6302 36.2439 33.6148 35.6627C33.607 35.3387 33.608 35.0163 33.609 34.6925C33.6093 34.5843 33.6096 34.4758 33.6096 34.3671V34.3583V34.3495V34.3407V34.3318V34.323V34.3142V34.3054V34.2966V34.2878V34.2789V34.2701V34.2613V34.2525V34.2437V34.2349V34.2261V34.2172V34.2084V34.1996V34.1908V34.182V34.1732V34.1643V34.1555V34.1467V34.1379V34.1291V34.1203V34.1115V34.1026V34.0938V34.085V34.0762V34.0674V34.0585V34.0497V34.0409V34.0321V34.0233V34.0145V34.0056V33.9968V33.988V33.9792V33.9704V33.9615V33.9527V33.9439V33.9351V33.9263V33.9174V33.9086V33.8998V33.891V33.8822V33.8733V33.8645V33.8557V33.8469V33.838V33.8292V33.8204V33.8116V33.8027V33.7939V33.7851V33.7763V33.7674V33.7586V33.7498V33.741V33.7321V33.7233V33.7145V33.7057V33.6968V33.688V33.6792V33.6703V33.6615V33.6527V33.6439V33.635V33.6262V33.6174V33.6085V33.5997V33.5909V33.582V33.5732V33.5644V33.5555V33.5467V33.5379V33.529V33.5202V33.5114V33.5025V33.4937V33.4849V33.476V33.4672V33.4583V33.4495V33.4407V33.4318V33.423V33.4141V33.4053V33.3965V33.3876V33.3788V33.3699V33.3611V33.3522V33.3434V33.3345V33.3257V33.3169V33.308V33.2992V33.2903V33.2815V33.2726V33.2638V33.2549V33.2461V33.2372V33.2284V33.2195V33.2107V33.2018V33.1929V33.1841V33.1752V33.1664V33.1575V33.1487V33.1398V33.1309V33.1221V33.1132V33.1044V33.0955V33.0866V33.0778V33.0689V33.06V33.0512V33.0423V33.0335V33.0246V33.0157V33.0068V32.998V32.9891V32.9802V32.9714V32.9625V32.9536V32.9448V32.9359V32.927V32.9181V32.9093V32.9004V32.8915V32.8826V32.8737V32.8649V32.856V32.8471V32.8382V32.8293V32.8204V32.8116V32.8027V32.7938V32.7849V32.776V32.7671V32.7582V32.7494V32.7405V32.7316V32.7227V32.7138V32.7049V32.696V32.6871V32.6782V32.6693V32.6604V32.6515V32.6426V32.6337V32.6248V32.6159V32.607V32.5981V32.5892V32.5803V32.5714V32.5625V32.5535V32.5446V32.5357V32.5268V32.5179V32.509V32.5001V32.4912V32.4822V32.4733V32.4644V32.4555V32.4466V32.4376V32.4287V32.4198V32.4109V32.4019V32.393V32.3841V32.3752V32.3662V32.3573V32.3484V32.3394V32.3305V32.3216V32.3126V32.3037V32.2948V32.2858V32.2769V32.2679V32.259V32.25V32.2411V32.2322V32.2232V32.2143V32.2053V32.1964V32.1874V32.1785V32.1695V32.1605V32.1516V32.1426V32.1337V32.1247V32.1158V32.1068V32.0978V32.0889V32.0799V32.0709V32.062V32.053V32.044V32.0351V32.0261V32.0171V32.0081V31.9992V31.9902V31.9812V31.9722V31.9633V31.9543V31.9453V31.9363V31.9273V31.9183V31.9093V31.9004V31.8914V31.8824V31.8734V31.8644V31.8554V31.8464V31.8374V31.8284V31.8194V31.8104V31.8014V31.7924V31.7834V31.7744V31.7654V31.7564V31.7473V31.7383V31.7293V31.7203V31.7113V31.7023V31.6933V31.6842V31.6752V31.6662V31.6572V31.6481V31.6391V31.6301V31.6211V31.612V31.603V31.594V31.5849V31.5759V31.5668V31.5578V31.5488V31.5397V31.5307V31.5216V31.5126V31.5035V31.4945V31.4854V31.4764V31.4673V31.4583V31.4492V31.4401V31.4311V31.422V31.413V31.4039V31.3948V31.3858V31.3767V31.3676V31.3586V31.3495V31.3404V31.3313V31.3222V31.3132V31.3041V31.295V31.2859V31.2768V31.2677V31.2587V31.2496V31.2405V31.2314V31.2223V31.2132V31.2041V31.195V31.1859V31.1768V31.1677V31.1586V31.1495V31.1403V31.1312V31.1221V31.113V31.1039V31.0948V31.0856V31.0765V31.0674V31.0583V31.0491V31.04V31.0309V31.0218V31.0126V31.0035V30.9944V30.9852V30.9761V30.9669V30.9578V30.9486V30.9395V30.9303V30.9212V30.912V30.9029V30.8937V30.8846V30.8754V30.8663V30.8571V30.8479V30.8388V30.8296V30.8204V30.8112V30.8021V30.7929V30.7837V30.7745V30.7654V30.7562V30.747V30.7378V30.7286V30.7194V30.7102V30.701V30.6918V30.6826V30.6734V30.6642V30.655V30.6458V30.6366V30.6274V30.6182V30.609V30.5998V30.5906V30.5813V30.5721V30.5629V30.5537V30.5444V30.5352V30.526V30.5168V30.5075V30.4983V30.4891V30.4798V30.4706V30.4613V30.4521V30.4428V30.4336V30.4243V30.4151V30.4058V30.3966V30.3873V30.378V30.3688V30.3595V30.3502V30.341V30.3317V30.3224V30.3132V30.3039V30.2946V30.2853V30.276V30.2667V30.2575V30.2482V30.2389V30.2296V30.2203V30.211V30.2017V30.1924V30.1831V30.1738V30.1645V30.1551V30.1458V30.1365V30.1272V30.1179V30.1086V30.0992V30.0899V30.0806V30.0713V30.0619V30.0526V30.0432V30.0339V30.0246V30.0152V30.0059V29.9965V29.9872V29.9778V29.9685V29.9591V29.9498V29.9404V29.931V29.9217V29.9123V29.9029V29.8936V29.8842V29.8748V29.8654V29.856V29.8467V29.8373V29.8279V29.8185V29.8091V29.7997V29.7903V29.7809V29.7715V29.7621V29.7527ZM35.8907 33.646H35.9324L35.9697 33.6874C36.6531 33.1306 37.316 32.5924 37.9632 32.067C39.6374 30.7079 41.2073 29.4334 42.7582 28.1388L42.7583 28.1388C43.4494 27.5603 44.1693 27.3024 45.0835 27.31L45.0839 27.26L45.0835 27.31C46.9774 27.3256 48.8705 27.3217 50.7631 27.3179C53.6214 27.312 56.4786 27.3062 59.3359 27.3671C61.6578 27.417 63.4701 25.5647 63.4333 23.2648L63.3833 23.2656L63.4333 23.2647C63.3399 17.6082 63.3477 11.949 63.4281 6.29235C63.4622 3.97219 61.7726 2.16153 59.3421 2.16416C50.3156 2.18231 41.2866 2.18491 32.2603 2.15897C30.8706 2.15504 29.8109 2.67873 29.1051 3.46569C28.4001 4.25183 28.0507 5.29815 28.0756 6.33693C28.1435 9.23902 28.1296 12.1434 28.1156 15.0484C28.1099 16.2475 28.1041 17.4467 28.1041 18.646C28.1041 19.1336 28.1016 19.6215 28.0991 20.1095C28.0931 21.2633 28.0871 22.4176 28.1145 23.5702C28.1644 25.7319 29.7192 27.2628 31.8674 27.31L31.8675 27.31C32.2126 27.3169 32.5578 27.3121 32.9017 27.3073C32.9465 27.3067 32.9913 27.3061 33.036 27.3055C33.4247 27.3003 33.812 27.2971 34.1983 27.3126L34.1983 27.3126C34.8865 27.3398 35.2995 27.447 35.5455 27.7071C35.7919 27.9676 35.883 28.394 35.8881 29.0968V29.0969C35.897 30.0571 35.895 31.0159 35.8928 32.0731C35.8918 32.572 35.8907 33.0928 35.8907 33.646ZM8.81014 36.3981V36.3481L4.87201 51.022L4.86378 51.0713C4.86381 51.0713 4.86384 51.0713 4.86386 51.0713C5.48975 51.1758 6.12958 51.1861 6.77934 51.1705C7.0261 51.1646 7.27367 51.155 7.5225 51.1453C7.93098 51.1295 8.34285 51.1135 8.76014 51.1135V51.0661H8.81014V51.0635V51.0135V36.3981ZM57.7566 51.1906V51.2406H57.8066C58.1336 51.2406 58.4487 51.2436 58.7556 51.2464C59.4013 51.2525 60.0111 51.2583 60.6202 51.2354L60.6203 51.2354C61.6876 51.1935 62.6049 50.8272 63.2656 50.2017C63.9266 49.5759 64.3277 48.6936 64.3671 47.6259C64.4605 45.0801 64.4527 42.5266 64.3671 39.9784C64.312 38.3069 63.4307 37.0211 61.8001 36.524L61.8 36.524C60.5324 36.1393 59.1949 36.2798 57.8563 36.4204L57.8014 36.4261L57.7566 36.4308V36.4759V51.188V51.1906ZM2.86372 17.1577C2.87475 18.105 3.18714 18.8921 3.73283 19.4428C4.27911 19.994 5.05513 20.3041 5.98476 20.3041C6.9319 20.3041 7.73378 19.9709 8.29596 19.3952C8.8581 18.8195 9.17731 18.0047 9.16549 17.0476L9.16549 17.0475C9.1418 15.2313 7.79762 13.8729 6.00593 13.8597C6.00592 13.8597 6.0059 13.8597 6.00588 13.8597L6.00551 13.9097L2.86372 17.1577Z" fill="black" stroke="#E7EAFA" stroke-width="0.1"/>
  <path d="M33.4786 49.1033L33.4812 49.1059H33.3606C32.872 49.1059 32.3835 49.1056 31.895 49.1053C30.9181 49.1047 29.9412 49.1042 28.9643 49.1059C28.9643 49.1059 28.9642 49.1059 28.9642 49.1059L33.4786 49.1033ZM33.4786 49.1033C33.8048 49.1032 34.131 49.1029 34.4572 49.1027C35.5563 49.1017 36.6552 49.1007 37.7541 49.1085L33.4786 49.1033ZM38.7213 49.2267C38.6244 49.1469 38.474 49.1155 38.296 49.1061C38.1864 49.1004 38.0742 49.1031 37.9633 49.1057C37.8927 49.1074 37.8227 49.109 37.7542 49.1085L38.7213 49.2267ZM38.7213 49.2267C38.8812 49.3587 39.0451 49.5347 39.1702 49.7241C39.2958 49.9143 39.3793 50.1134 39.3853 50.2922C39.3875 50.3576 39.367 50.4338 39.3264 50.5161C39.2861 50.598 39.2274 50.683 39.1574 50.7648C39.017 50.9289 38.8353 51.0755 38.676 51.1564C38.5056 51.2428 38.3031 51.281 38.087 51.2973C37.923 51.3097 37.7547 51.3094 37.5887 51.3091C37.5355 51.309 37.4826 51.3089 37.4301 51.3092C34.673 51.3196 31.9133 51.3196 29.1562 51.3092H29.156C28.7727 51.3092 28.3865 51.2732 28.0079 51.2062C27.7195 51.1548 27.5049 51.0297 27.3643 50.8522C27.2236 50.6745 27.1533 50.4397 27.1621 50.1626C27.1721 49.8859 27.2601 49.657 27.413 49.485C27.5661 49.3129 27.7874 49.1943 28.0702 49.144L38.7213 49.2267Z" fill="black" stroke="#E7EAFA" stroke-width="0.1"/>
  <path d="M22.4195 37.5782L22.4694 37.5817C22.4987 37.1605 22.615 36.8582 22.8017 36.662C22.9873 36.4669 23.2489 36.3703 23.5836 36.3728C23.9159 36.3766 24.1796 36.4776 24.3639 36.6762C24.5488 36.8755 24.6601 37.1799 24.6728 37.6031L24.6728 37.6031C24.7169 39.0597 24.7143 40.519 24.6728 41.9759C24.65 42.7663 24.1869 43.2624 23.6176 43.2943L23.6176 43.2943C23.314 43.3116 23.0464 43.1892 22.8426 42.9566C22.6381 42.7231 22.4971 42.3772 22.4537 41.9492C22.4462 41.8663 22.4461 41.7831 22.4461 41.6972V41.6934V41.6897V41.6859V41.6821V41.6783V41.6746V41.6708V41.667V41.6633V41.6595V41.6557V41.652V41.6482V41.6444V41.6407V41.6369V41.6331V41.6293V41.6256V41.6218V41.618V41.6143V41.6105V41.6067V41.603V41.5992V41.5954V41.5917V41.5879V41.5841V41.5803V41.5766V41.5728V41.569V41.5653V41.5615V41.5577V41.554V41.5502V41.5464V41.5427V41.5389V41.5351V41.5313V41.5276V41.5238V41.52V41.5163V41.5125V41.5087V41.505V41.5012V41.4974V41.4937V41.4899V41.4861V41.4823V41.4786V41.4748V41.471V41.4673V41.4635V41.4597V41.456V41.4522V41.4484V41.4447V41.4409V41.4371V41.4334V41.4296V41.4258V41.422V41.4183V41.4145V41.4107V41.407V41.4032V41.3994V41.3957V41.3919V41.3881V41.3844V41.3806V41.3768V41.373V41.3693V41.3655V41.3617V41.358V41.3542V41.3504V41.3467V41.3429V41.3391V41.3354V41.3316V41.3278V41.324V41.3203V41.3165V41.3127V41.309V41.3052V41.3014V41.2977V41.2939V41.2901V41.2864V41.2826V41.2788V41.275V41.2713V41.2675V41.2637V41.26V41.2562V41.2524V41.2487V41.2449V41.2411V41.2374V41.2336V41.2298V41.226V41.2223V41.2185V41.2147V41.211V41.2072V41.2034V41.1997V41.1959V41.1921V41.1884V41.1846V41.1808V41.177V41.1733V41.1695V41.1657V41.162V41.1582V41.1544V41.1507V41.1469V41.1431V41.1394V41.1356V41.1318V41.1281V41.1243V41.1205V41.1167V41.113V41.1092V41.1054V41.1017V41.0979V41.0941V41.0904V41.0866V41.0828V41.0791V41.0753V41.0715V41.0677V41.064V41.0602V41.0564V41.0527V41.0489V41.0451V41.0414V41.0376V41.0338V41.0301V41.0263V41.0225V41.0187V41.015V41.0112V41.0074V41.0037V40.9999V40.9961V40.9924V40.9886V40.9848V40.9811V40.9773V40.9735V40.9697V40.966V40.9622V40.9584V40.9547V40.9509V40.9471V40.9434V40.9396V40.9358V40.9321V40.9283V40.9245V40.9207V40.917V40.9132V40.9094V40.9057V40.9019V40.8981V40.8944V40.8906V40.8868V40.8831V40.8793V40.8755V40.8718V40.868V40.8642V40.8604V40.8567V40.8529V40.8491V40.8454V40.8416V40.8378V40.8341V40.8303V40.8265V40.8228V40.819V40.8152V40.8114V40.8077V40.8039V40.8001V40.7964V40.7926V40.7888V40.7851V40.7813V40.7775V40.7738V40.77V40.7662V40.7624V40.7587V40.7549V40.7511V40.7474V40.7436V40.7398V40.7361V40.7323V40.7285V40.7248V40.721V40.7172V40.7134V40.7097V40.7059V40.7021V40.6984V40.6946V40.6908V40.6871V40.6833V40.6795V40.6758V40.672V40.6682V40.6644V40.6607V40.6569V40.6531V40.6494V40.6456V40.6418V40.6381V40.6343V40.6305V40.6268V40.623V40.6192V40.6154V40.6117V40.6079V40.6041V40.6004V40.5966V40.5928V40.5891V40.5853V40.5815V40.5778V40.574V40.5702V40.5665V40.5627V40.5589V40.5551V40.5514V40.5476V40.5438V40.5401V40.5363V40.5325V40.5288V40.525V40.5212V40.5175V40.5137V40.5099V40.5061V40.5024V40.4986V40.4948V40.4911V40.4873V40.4835V40.4798V40.476V40.4722V40.4685V40.4647V40.4609V40.4571V40.4534V40.4496V40.4458V40.4421V40.4383V40.4345V40.4308V40.427V40.4232V40.4195V40.4157V40.4119V40.4081V40.4044V40.4006V40.3968V40.3931V40.3893V40.3855V40.3818V40.378V40.3742V40.3705V40.3667V40.3629V40.3591V40.3554V40.3516V40.3478V40.3441V40.3403V40.3365V40.3328V40.329V40.3252V40.3215V40.3177V40.3139V40.3101V40.3064V40.3026V40.2988V40.2951V40.2913V40.2875V40.2838V40.28V40.2762V40.2725V40.2687V40.2649V40.2612V40.2574V40.2536V40.2498V40.2461V40.2423V40.2385V40.2348V40.231V40.2272V40.2235V40.2197V40.2159V40.2122V40.2084V40.2046V40.2008V40.1971V40.1933V40.1895V40.1858V40.182V40.1782V40.1745V40.1707V40.1669V40.1632V40.1594V40.1556V40.1518V40.1481V40.1443V40.1405V40.1368V40.133V40.1292V40.1255V40.1217V40.1179V40.1142V40.1104V40.1066V40.1028V40.0991V40.0953V40.0915V40.0878V40.084V40.0802V40.0765V40.0727V40.0689V40.0652V40.0614V40.0576V40.0538V40.0501V40.0463V40.0425V40.0388V40.035V40.0312V40.0275V40.0237V40.0199V40.0162V40.0124V40.0086V40.0048V40.0011V39.9973V39.9935V39.9898V39.986V39.9822V39.9785V39.9747V39.9709V39.9672V39.9634V39.9596V39.9559V39.9521V39.9483V39.9445V39.9408V39.937V39.9332V39.9295V39.9257V39.9219V39.9182V39.9144V39.9106V39.9069V39.9031V39.8993V39.8955V39.8918V39.888V39.8842V39.8805V39.8767V39.8729V39.8692V39.8654V39.8616V39.8579V39.8541V39.8503V39.8465V39.8428V39.839V39.8352V39.8315V39.8277V39.8239V39.8202V39.8164V39.8126V39.8089V39.8051V39.8013V39.7985L22.4591 39.7855V39.7648C22.4591 39.5399 22.4555 39.3156 22.4518 39.0917C22.4435 38.5864 22.4353 38.0834 22.4694 37.5816L22.4195 37.5782ZM22.4195 37.5782C22.3853 38.0822 22.3936 38.5886 22.4018 39.095C22.4055 39.3184 22.4091 39.5417 22.4091 39.7648M22.4195 37.5782C22.4791 36.7223 22.8942 36.3176 23.5841 36.3228C24.2689 36.3306 24.6969 36.7404 24.7228 37.6016L22.4091 39.7648M22.4091 39.7648L22.4065 39.7674L22.4091 39.7648Z" fill="black" stroke="#E7EAFA" stroke-width="0.1"/>
  <path d="M44.1272 41.8425L44.1272 41.8424C44.1524 41.3686 44.1463 40.8932 44.1403 40.4161C44.1377 40.2157 44.1352 40.015 44.135 39.8139L44.1298 39.8113V39.7804V39.7766V39.7729V39.7691V39.7653V39.7615V39.7578V39.754V39.7502V39.7465V39.7427V39.7389V39.7352V39.7314V39.7276V39.7239V39.7201V39.7163V39.7125V39.7088V39.705V39.7012V39.6975V39.6937V39.6899V39.6862V39.6824V39.6786V39.6748V39.6711V39.6673V39.6635V39.6598V39.656V39.6522V39.6484V39.6447V39.6409V39.6371V39.6334V39.6296V39.6258V39.622V39.6183V39.6145V39.6107V39.607V39.6032V39.5994V39.5956V39.5919V39.5881V39.5843V39.5806V39.5768V39.573V39.5692V39.5655V39.5617V39.5579V39.5541V39.5504V39.5466V39.5428V39.5391V39.5353V39.5315V39.5277V39.524V39.5202V39.5164V39.5127V39.5089V39.5051V39.5013V39.4976V39.4938V39.49V39.4862V39.4825V39.4787V39.4749V39.4711V39.4674V39.4636V39.4598V39.4561V39.4523V39.4485V39.4447V39.441V39.4372V39.4334V39.4296V39.4259V39.4221V39.4183V39.4145V39.4108V39.407V39.4032V39.3995V39.3957V39.3919V39.3881V39.3844V39.3806V39.3768V39.373V39.3693V39.3655V39.3617V39.3579V39.3542V39.3504V39.3466V39.3428V39.3391V39.3353V39.3315V39.3277V39.324V39.3202V39.3164V39.3126V39.3089V39.3051V39.3013V39.2975V39.2938V39.29V39.2862V39.2824V39.2787V39.2749V39.2711V39.2673V39.2636V39.2598V39.256V39.2522V39.2485V39.2447V39.2409V39.2371V39.2334V39.2296V39.2258V39.222V39.2183V39.2145V39.2107V39.2069V39.2032V39.1994V39.1956V39.1918V39.1881V39.1843V39.1805V39.1767V39.173V39.1692V39.1654V39.1616V39.1579V39.1541V39.1503V39.1465V39.1428V39.139V39.1352V39.1314V39.1276V39.1239V39.1201V39.1163V39.1125V39.1088V39.105V39.1012V39.0974V39.0937V39.0899V39.0861V39.0823V39.0786V39.0748V39.071V39.0672V39.0635V39.0597V39.0559V39.0521V39.0483V39.0446V39.0408V39.037V39.0332V39.0295V39.0257V39.0219V39.0181V39.0144V39.0106V39.0068V39.003V38.9993V38.9955V38.9917V38.9879V38.9841V38.9804V38.9766V38.9728V38.969V38.9653V38.9615V38.9577V38.9539V38.9502V38.9464V38.9426V38.9388V38.9351V38.9313V38.9275V38.9237V38.9199V38.9162V38.9124V38.9086V38.9048V38.9011V38.8973V38.8935V38.8897V38.886V38.8822V38.8784V38.8746V38.8709V38.8671V38.8633V38.8595V38.8557V38.852V38.8482V38.8444V38.8406V38.8369V38.8331V38.8293V38.8255V38.8218V38.818V38.8142V38.8104V38.8066V38.8029V38.7991V38.7953V38.7915V38.7878V38.784V38.7802V38.7764V38.7727V38.7689V38.7651V38.7613V38.7575V38.7538V38.75V38.7462V38.7424V38.7387V38.7349V38.7311V38.7273V38.7236V38.7198V38.716V38.7122V38.7085V38.7047V38.7009V38.6971V38.6933V38.6896V38.6858V38.682V38.6782V38.6745V38.6707V38.6669V38.6631V38.6594V38.6556V38.6518V38.648V38.6443V38.6405V38.6367V38.6329V38.6291V38.6254V38.6216V38.6178V38.614V38.6103V38.6065V38.6027V38.5989V38.5952V38.5914V38.5876V38.5838V38.5801V38.5763V38.5725V38.5687V38.5649V38.5612V38.5574V38.5536V38.5498V38.5461V38.5423V38.5385V38.5347V38.531V38.5272V38.5234V38.5196V38.5159V38.5121V38.5083V38.5045V38.5008V38.497V38.4932V38.4894V38.4856V38.4819V38.4781V38.4743V38.4705V38.4668V38.463V38.4592V38.4554V38.4517V38.4479V38.4441V38.4403V38.4366V38.4328V38.429V38.4252V38.4215V38.4177V38.4139V38.4101V38.4064V38.4026V38.3988V38.395V38.3913V38.3875V38.3837V38.3799V38.3762V38.3724V38.3686V38.3648V38.3611V38.3573V38.3535V38.3497V38.346V38.3422V38.3384V38.3346V38.3309V38.3271V38.3233V38.3195V38.3158V38.312V38.3082V38.3044V38.3007V38.2969V38.2931V38.2893V38.2856V38.2818V38.278V38.2742V38.2705V38.2667V38.2629V38.2591V38.2554V38.2516V38.2478V38.244V38.2403V38.2365V38.2327V38.229V38.2252V38.2214V38.2176V38.2139V38.2101V38.2063V38.2025V38.1988V38.195V38.1912V38.1874V38.1837V38.1799V38.1761V38.1723V38.1686V38.1648V38.161V38.1573V38.1535V38.1497V38.1459V38.1422V38.1384V38.1346V38.1308V38.1271V38.1233V38.1195V38.1157V38.112V38.1082V38.1044V38.1007V38.0969V38.0931V38.0893V38.0856V38.0818V38.078V38.0743V38.0705V38.0667V38.0629V38.0592V38.0554V38.0516V38.0478V38.0441V38.0403V38.0365V38.0328V38.029V38.0252V38.0214V38.0177V38.0139V38.0101V38.0064V38.0026V37.9988V37.995V37.9913V37.9875V37.9837V37.98V37.9762V37.9724V37.9686V37.9649V37.9611V37.9573V37.9536V37.9498V37.946V37.9423V37.9385V37.9347V37.9309V37.9272V37.9234V37.9196V37.9159V37.9121V37.9083V37.9045V37.9008V37.897V37.8932V37.8895V37.8857V37.8819V37.8782V37.8744V37.8706V37.8669V37.8631V37.8593V37.8555V37.8518V37.848C44.1298 37.7634 44.1272 37.6801 44.1172 37.5975C44.0621 37.1778 43.9382 36.8731 43.7508 36.6756C43.5649 36.4797 43.3111 36.3835 42.9826 36.391L44.1272 41.8425ZM44.1272 41.8425C44.1042 42.2921 43.9844 42.6443 43.7955 42.8848C43.6075 43.1241 43.3491 43.2558 43.0399 43.2632C42.7269 43.2706 42.4513 43.1455 42.2502 42.9119C42.0486 42.6777 41.9197 42.3316 41.9083 41.8956L41.9083 41.8956M44.1272 41.8425L41.9083 41.8956M41.9083 41.8956C41.8694 40.4802 41.8668 39.0623 41.9083 37.6472M41.9083 41.8956L41.9083 37.6472M41.9083 37.6472L41.8583 37.6457M41.9083 37.6472L41.8583 37.6457M41.8583 37.6457L41.9083 37.6472C41.921 37.2241 42.0323 36.9147 42.2159 36.7096M41.8583 37.6457L42.2159 36.7096M42.2159 36.7096C42.3987 36.5053 42.6588 36.3985 42.9826 36.391L42.2159 36.7096Z" fill="black" stroke="#E7EAFA" stroke-width="0.1"/>
  <path d="M37.4255 14.8027C37.4388 13.8651 36.6512 13.0773 35.7412 13.1283L35.7412 13.1283C35.2902 13.1537 34.911 13.3395 34.6475 13.6401C34.3841 13.9404 34.2386 14.3525 34.2492 14.8264L34.2492 14.8266C34.2612 15.3042 34.4233 15.7035 34.7015 15.9825C34.9799 16.2615 35.3707 16.4161 35.8324 16.4109L35.8348 16.4109L35.8354 16.4109C36.7397 16.4002 37.4147 15.719 37.4255 14.8027ZM37.4255 14.8027L37.3755 14.802L37.4255 14.8026C37.4255 14.8026 37.4255 14.8026 37.4255 14.8027ZM39.5901 14.7701H39.5878L39.5873 14.8197C39.5668 16.9833 37.9195 18.5801 35.7343 18.5493L35.7343 18.5493C33.6706 18.5212 32.0018 16.8441 31.9992 14.7993C31.9967 12.6948 33.7121 10.9742 35.8192 10.9716C37.9041 10.9716 39.5841 12.6674 39.5901 14.7701Z" fill="black" stroke="#E7EAFA" stroke-width="0.1"/>
  <path d="M45.7987 16.4108C46.241 16.4047 46.6143 16.2514 46.8817 15.9821C47.1591 15.7027 47.3185 15.3025 47.3265 14.8236C47.3345 14.3447 47.1891 13.932 46.9256 13.6328C46.6618 13.3334 46.2825 13.151 45.8291 13.1283M45.8291 13.1283C45.8291 13.1283 45.8291 13.1283 45.8291 13.1283L45.8266 13.1783L45.8291 13.1283ZM41.9235 14.6793L41.9236 14.6793C41.9978 12.644 43.7318 10.9691 45.7642 10.9716H45.7643C47.851 10.9716 49.628 12.7521 49.5998 14.8091V14.8091C49.5717 16.9128 47.8392 18.5724 45.6975 18.5467L45.6764 18.5465L45.6739 18.549C43.5679 18.5119 41.8471 16.7391 41.9235 14.6793Z" fill="black" stroke="#E7EAFA" stroke-width="0.1"/>
  <path d="M54.0707 14.7569C54.052 15.6561 54.743 16.3788 55.6442 16.4082L55.6442 16.4082C56.558 16.4376 57.2816 15.7843 57.3351 14.875L57.3351 14.8749C57.3885 13.9576 56.6016 13.1072 55.6972 13.1179M54.0707 14.7569C54.0868 13.8954 54.8498 13.1259 55.6972 13.1179M54.0707 14.7569C54.0707 14.7569 54.0707 14.7569 54.0707 14.7568L54.1207 14.7579L54.0707 14.757C54.0707 14.7569 54.0707 14.7569 54.0707 14.7569ZM55.6972 13.1179L55.6977 13.1679L55.6971 13.1179C55.6972 13.1179 55.6972 13.1179 55.6972 13.1179ZM59.4995 14.812C59.4842 16.947 57.8033 18.5749 55.6438 18.5493C53.4908 18.5237 51.899 16.8612 51.9374 14.6784C51.9758 12.6176 53.6551 10.9691 55.7158 10.9716C57.8225 10.9742 59.5149 12.6892 59.4995 14.812Z" fill="black" stroke="#E7EAFA" stroke-width="0.1"/>
</svg>