<svg width="64" height="64" viewBox="0 0 64 64" fill="none" xmlns="http://www.w3.org/2000/svg">
<path d="M0.00242837 32.0051C-0.21312 14.8348 13.9649 0.0177682 31.9492 1.71619e-05C49.0916 -0.0177338 63.9441 13.7368 63.9466 31.9949C63.9466 50.2734 49.0814 64.0127 31.9593 64C13.9471 63.9873 -0.21312 49.1323 0.00242837 32.0051ZM61.9534 31.9645C62.0853 16.3842 49.5506 1.93995 31.8858 1.97291C14.6724 2.00588 1.92714 15.9607 1.91446 31.9721C1.90179 48.123 14.7865 62.0499 31.9542 62.0296C49.6951 62.0093 62.1259 47.4789 61.9534 31.967V31.9645Z" fill="#101221"/>
<path d="M32.1758 31.3635C33.3803 30.1158 34.3643 29.0736 35.3735 28.0542C37.245 26.165 39.1291 24.2834 41.0158 22.4094C41.7208 21.7095 42.3167 21.6004 42.763 22.0417C43.2068 22.4829 43.1028 23.089 42.4055 23.7889C39.8442 26.3628 37.2754 28.929 34.7015 31.4928C34.3744 31.8199 34.0016 32.0989 33.5426 32.4919C34.3998 33.349 35.1326 34.0844 35.868 34.8173C36.1368 35.0861 36.4208 35.3422 36.6668 35.6288C37.1258 36.1664 37.1309 36.6837 36.7125 37.0818C36.3295 37.4445 35.8553 37.4445 35.3558 37.0032C34.8511 36.5569 34.3769 36.0726 33.918 35.5755C33.4311 35.0506 32.9797 34.4927 32.4142 33.8334C31.5647 34.6652 30.8851 35.3346 30.2004 35.9965C29.8986 36.2881 29.5994 36.5924 29.2647 36.846C28.8285 37.1731 28.3898 37.1148 28.0195 36.7141C27.6873 36.3566 27.6595 35.9483 27.9536 35.5629C28.2097 35.2307 28.4988 34.9187 28.8006 34.6271C29.4675 33.9855 30.1547 33.3617 30.918 32.6491C30.4895 32.1927 30.1877 31.858 29.8707 31.5384C25.6333 27.296 21.3908 23.056 17.1509 18.816C16.9125 18.5777 16.6564 18.352 16.4434 18.0908C16.0224 17.5709 16.03 17.1373 16.4307 16.7468C16.8085 16.3791 17.2979 16.374 17.7924 16.7696C18.0562 16.9801 18.2819 17.2337 18.5202 17.472C22.8819 21.8312 27.241 26.1903 31.5976 30.5545C31.7751 30.732 31.8969 30.9679 32.1758 31.3584V31.3635Z" fill="#101221"/>
<path d="M57.1713 33.0499C56.6692 33.0499 56.1645 33.0854 55.665 33.0397C55.0792 32.989 54.6608 32.5655 54.6582 32.1066C54.6557 31.6425 55.069 31.1987 55.6523 31.1759C56.697 31.1353 57.7444 31.1328 58.7891 31.1734C59.4459 31.1987 59.7502 31.5411 59.7502 32.0913C59.7502 32.6315 59.4307 32.989 58.8018 33.0423C58.2617 33.0879 57.7139 33.0524 57.1713 33.0524V33.0499Z" fill="#101221"/>
<path d="M32.8724 6.80874C32.8724 7.35649 32.8978 7.90677 32.8648 8.45198C32.8344 8.98958 32.4996 9.33446 31.9747 9.33953C31.4675 9.3446 31.044 9.04284 31.0238 8.50777C30.9756 7.37171 30.973 6.23057 31.0212 5.09451C31.044 4.56705 31.432 4.27796 31.9772 4.29317C32.5301 4.30839 32.8394 4.62284 32.8673 5.16297C32.8952 5.71072 32.8724 6.25846 32.8749 6.80621L32.8724 6.80874Z" fill="#101221"/>
<path d="M6.7706 31.1581C7.23466 31.1581 7.70126 31.1327 8.16532 31.1632C8.8069 31.2063 9.18727 31.541 9.22024 32.0355C9.25574 32.5604 8.82972 33.0143 8.15011 33.0397C7.1383 33.0803 6.12142 33.0803 5.10962 33.0346C4.51115 33.0067 4.13078 32.5706 4.12317 32.0735C4.11556 31.5588 4.46804 31.2088 5.1223 31.1632C5.67004 31.1251 6.22032 31.1556 6.7706 31.1556V31.1581Z" fill="#101221"/>
<path d="M32.8672 57.4093C32.8672 57.9596 32.8901 58.5099 32.8596 59.0551C32.8343 59.5344 32.5503 59.8488 32.0735 59.9021C31.5308 59.9629 31.0871 59.651 31.0541 59.1616C30.973 57.985 30.9755 56.7982 31.0389 55.619C31.0642 55.122 31.4751 54.7771 32.0177 54.8304C32.5427 54.8786 32.8546 55.2184 32.8723 55.761C32.8901 56.3088 32.8774 56.8591 32.8774 57.4093C32.8748 57.4093 32.8723 57.4093 32.8672 57.4093Z" fill="#101221"/>
</svg>
