<svg xmlns="http://www.w3.org/2000/svg" width="54" height="54" viewBox="0 0 54 54" fill="none">
  <path d="M18.4518 41.4687C18.1503 41.8441 17.817 42.3503 17.391 42.7615C16.7309 43.4005 16.2986 43.4068 15.6659 42.7889C14.158 41.3148 12.6691 39.8237 11.197 38.3158C10.6149 37.719 10.6213 37.2845 11.197 36.6666C11.6019 36.2322 12.0828 35.8694 12.5109 35.4898C11.9183 34.0684 11.3847 32.7861 10.7984 31.3794C10.3239 31.3794 9.76925 31.3984 9.21459 31.3752C8.16854 31.333 7.82478 30.9914 7.81846 29.9664C7.80791 27.9988 7.80791 26.0311 7.81846 24.0656C7.82478 23.0322 8.17487 22.6694 9.18928 22.6293C9.71441 22.6083 10.2417 22.6251 10.7921 22.6251C11.3362 21.3218 11.8719 20.0417 12.4582 18.6371C12.106 18.2807 11.6821 17.8736 11.2856 17.4413C10.6234 16.7221 10.6023 16.3067 11.2624 15.6339C12.7134 14.1534 14.1791 12.6877 15.6617 11.2388C16.2986 10.6167 16.7373 10.6167 17.3889 11.2388C17.817 11.648 18.1629 12.1457 18.4814 12.5232C19.9576 11.9095 21.2146 11.3865 22.6297 10.7981C22.6297 10.3278 22.6065 9.73937 22.6339 9.15097C22.6782 8.18506 23.0388 7.83076 24.0047 7.82443C26.0062 7.81178 28.0097 7.81178 30.0111 7.82443C30.9749 7.83076 31.3228 8.18506 31.3798 9.15519C31.3967 9.43568 31.3798 9.71828 31.3861 9.99877C31.3946 10.275 31.4135 10.5534 31.4262 10.8128C32.7464 11.3633 34.0286 11.8968 35.5344 12.5253C35.8761 12.1204 36.2431 11.5953 36.7007 11.165C37.2701 10.6294 37.7172 10.6272 38.2719 11.1671C39.8072 12.6603 41.3257 14.1745 42.8209 15.7098C43.3945 16.2982 43.3566 16.7158 42.7956 17.3654C42.5889 17.6037 42.3675 17.8336 42.1271 18.036C41.9119 18.2174 41.661 18.3566 41.4902 18.4726C42.106 19.9573 42.6374 21.2395 43.2111 22.623C43.7467 22.623 44.3415 22.5977 44.932 22.6293C45.8241 22.6779 46.1868 23.0532 46.1931 23.9559C46.2079 25.9931 46.21 28.0304 46.1931 30.0677C46.1847 30.964 45.8304 31.3141 44.9046 31.3668C44.3457 31.3984 43.7847 31.3731 43.2237 31.3731C42.6648 32.7039 42.1292 33.984 41.5534 35.3527C41.952 35.7598 42.4097 36.19 42.823 36.6582C43.3819 37.2909 43.3988 37.7169 42.8167 38.3137C41.3467 39.8237 39.8557 41.3148 38.3478 42.7868C37.7172 43.4026 37.2807 43.3942 36.6227 42.7531C36.1988 42.3397 35.8677 41.8315 35.5703 41.4624C34.0434 42.0951 32.7865 42.616 31.3861 43.1981C31.3861 43.6852 31.4093 44.2757 31.3819 44.8641C31.3355 45.8343 30.977 46.1865 30.0132 46.1928C28.0118 46.2054 26.0083 46.2054 24.0069 46.1928C23.0431 46.1865 22.6951 45.8322 22.6381 44.862C22.6213 44.5815 22.6339 44.301 22.6339 44.0184C22.6339 43.7401 22.6339 43.4638 22.6339 43.1981C21.2863 42.6371 20.0019 42.1035 18.4603 41.4624L18.4518 41.4687ZM9.98014 29.2726C10.558 29.2726 11.0452 29.2873 11.5323 29.2684C12.2452 29.2409 12.667 29.5931 12.8146 30.2596C13.1752 31.8856 13.8163 33.3914 14.7021 34.7981C15.0564 35.3612 14.9931 35.8779 14.506 36.3081C14.1137 36.6561 13.6708 36.945 13.4072 37.1432C14.6346 38.3706 15.6596 39.3977 16.809 40.5471C17.0093 40.3003 17.2687 39.9144 17.5935 39.5981C18.2747 38.9358 18.5004 38.9148 19.3482 39.4061C20.719 40.2012 22.151 40.8297 23.7053 41.184C24.4982 41.3633 24.7049 41.6859 24.7323 42.538C24.7471 43.0209 24.7344 43.5039 24.7344 44.0163H29.2687C29.2687 43.449 29.2856 42.9619 29.2645 42.4768C29.235 41.7619 29.5872 41.3422 30.2536 41.1924C31.8796 40.8318 33.3875 40.1949 34.79 39.3049C35.3531 38.9485 35.8719 39.0139 36.3021 39.4926C36.6522 39.8828 36.9411 40.3278 37.1752 40.6399C38.4047 39.4019 39.4276 38.3728 40.5728 37.2213C40.2649 36.9598 39.8494 36.635 39.4656 36.2743C39.029 35.8631 38.9446 35.3822 39.2736 34.8508C40.1699 33.4125 40.8322 31.8771 41.2012 30.2153C41.3383 29.5974 41.739 29.2515 42.4097 29.2684C42.9285 29.281 43.4494 29.2705 44.0061 29.2705V24.7341C43.4452 24.7341 42.958 24.7172 42.4708 24.7383C41.7538 24.7699 41.3341 24.4114 41.1865 23.7471C40.8237 22.1211 40.1847 20.6132 39.2989 19.2086C38.9446 18.6455 39.0269 18.1499 39.4803 17.6902C39.8452 17.319 40.2037 16.9457 40.4504 16.6926C39.3559 15.6234 38.3225 14.6111 37.1668 13.4828C36.9728 13.719 36.7112 14.1007 36.3844 14.417C35.7306 15.0518 35.4796 15.0919 34.7162 14.6385C33.32 13.8097 31.8543 13.1643 30.262 12.8121C29.5977 12.6645 29.2329 12.2575 29.2582 11.5404C29.275 11.0258 29.2624 10.5113 29.2624 9.98401H24.726C24.726 10.5218 24.7408 11.0069 24.7239 11.4898C24.6944 12.3334 24.4877 12.6413 23.6715 12.8269C22.1151 13.1812 20.6852 13.8139 19.3144 14.6111C18.4856 15.0919 18.2557 15.0603 17.5661 14.377C17.2434 14.0564 16.9882 13.6705 16.7794 13.409C15.6111 14.5773 14.5798 15.6044 13.3798 16.8044C13.7088 17.0659 14.1475 17.3675 14.5313 17.7281C14.9636 18.133 15.0501 18.6244 14.719 19.1538C13.8185 20.5921 13.1626 22.1274 12.7893 23.7872C12.6522 24.4009 12.2557 24.7531 11.583 24.7341C11.0641 24.7193 10.5453 24.732 9.9696 24.732V29.2684L9.98014 29.2726Z" fill="#101221"/>
  <path d="M7.34566 42.198C10.353 41.4261 12.3144 42.0525 13.411 44.1066C14.3938 45.9477 13.9741 48.1622 12.3798 49.5583C10.855 50.8933 8.6005 50.9882 6.92176 49.7903C5.06798 48.4679 4.65041 46.3737 5.7534 43.6869C5.55726 43.4149 5.33582 43.1049 5.11438 42.7948C1.39206 37.573 -0.339396 31.7375 0.0549805 25.3558C0.843732 12.6388 10.1485 2.74985 21.9439 0.478498C25.2508 -0.158409 28.5766 -0.152082 31.894 0.453191C32.1007 0.491152 32.3052 0.548094 32.5014 0.61769C33.0518 0.813823 33.2564 1.23351 33.1615 1.78184C33.0624 2.35547 32.6659 2.63808 32.107 2.59168C31.2697 2.52208 30.4367 2.37867 29.6015 2.29221C22.9689 1.59625 17.0005 3.32982 11.7534 7.3959C6.56113 11.4177 3.45674 16.7513 2.40226 23.23C1.35199 29.6855 3.09189 36.8708 7.34356 42.198H7.34566ZM9.52422 43.8831C8.2483 43.8725 7.17906 44.9333 7.18538 46.205C7.1896 47.4767 8.26728 48.5375 9.53899 48.5186C10.7706 48.5017 11.7977 47.4767 11.8209 46.243C11.8462 44.9629 10.8044 43.8915 9.52422 43.8831Z" fill="#101221"/>
  <path d="M46.703 11.8527C45.969 11.9919 45.29 12.207 44.6067 12.2323C42.6221 12.3061 40.8843 11.0407 40.2938 9.17851C39.7096 7.33316 40.3655 5.34652 41.9283 4.22877C43.4973 3.1068 45.6 3.12157 47.1416 4.26673C48.7107 5.43299 49.4172 7.53141 48.6284 9.33035C48.2615 10.1655 48.4597 10.6421 48.9195 11.2854C52.6228 16.4671 54.3374 22.2731 53.9578 28.6126C53.1712 41.7008 43.5058 51.1933 32.6552 53.414C29.1353 54.1353 25.626 54.1943 22.0956 53.5722C21.891 53.5363 21.6822 53.4794 21.4924 53.395C20.9631 53.163 20.7817 52.7328 20.8998 52.1887C21.0137 51.6699 21.3891 51.4084 21.8995 51.4463C22.703 51.5075 23.5002 51.6319 24.3016 51.7226C30.4133 52.408 36.019 50.9887 41.0573 47.5089C46.9898 43.4112 50.556 37.7296 51.6168 30.6098C52.6123 23.9286 51.0074 17.8042 47.0615 12.3061C46.9413 12.1395 46.8042 11.9834 46.7009 11.8527H46.703ZM46.8253 7.82244C46.8253 6.55074 45.7476 5.48993 44.4759 5.50469C43.2443 5.51946 42.2151 6.5423 42.1898 7.77605C42.1624 9.05619 43.2021 10.1296 44.4822 10.1423C45.7581 10.155 46.8274 9.09837 46.8253 7.82244Z" fill="#101221"/>
  <path d="M18.363 51.1378C18.3398 51.7452 17.8779 52.1543 17.2642 52.1121C16.7327 52.0763 16.2793 51.606 16.2793 51.0914C16.2793 50.5705 16.8403 50.0179 17.3591 50.0285C17.9137 50.0411 18.3862 50.5641 18.363 51.1378Z" fill="#101221"/>
  <path d="M37.7502 2.99189C37.727 3.54655 37.1787 4.04848 36.643 4.0063C36.1453 3.96834 35.6665 3.45797 35.6602 2.96026C35.6539 2.39295 36.1495 1.90999 36.7252 1.91632C37.3115 1.92476 37.7734 2.40982 37.7481 2.98978L37.7502 2.99189Z" fill="#101221"/>
  <path d="M35.6894 27.0408C35.6768 31.8935 31.8385 35.7065 26.9773 35.6938C22.1246 35.6812 18.3116 31.8429 18.3243 26.9817C18.3369 22.1269 22.1731 18.3181 27.0385 18.3286C31.8933 18.3413 35.7021 22.1775 35.6916 27.0408H35.6894ZM33.5784 27.0155C33.5784 23.3501 30.7165 20.4608 27.0617 20.4418C23.3436 20.4228 20.4353 23.3037 20.4353 27.0091C20.4353 30.6724 23.2993 33.5638 26.9499 33.5849C30.668 33.6039 33.5763 30.723 33.5763 27.0155H33.5784Z" fill="#101221"/>
</svg>