<svg width="566" height="483" viewBox="0 0 566 483" fill="none" xmlns="http://www.w3.org/2000/svg">
<path d="M532.692 426.194C523.448 444.092 515.399 457.1 508.114 466.028C500.824 474.963 494.343 479.759 488.251 481.329C482.189 482.891 476.413 481.284 470.456 477.174C464.485 473.054 458.378 466.449 451.697 458.104C447.01 452.25 442.051 445.552 436.673 438.287C411.42 404.175 376.907 357.556 317.742 327C281.858 308.467 240.313 297.599 199.37 289.478C181.212 285.876 163.165 282.814 145.779 279.863C143.562 279.487 141.357 279.113 139.163 278.739C119.757 275.436 101.283 272.207 84.5085 268.438C67.7329 264.669 52.6763 260.363 40.1028 254.913C27.5273 249.462 17.4673 242.88 10.6527 234.575C-2.92643 218.026 -3.76972 194.424 14.6943 158.672C88.5683 15.6313 264.413 -40.4396 407.454 33.4344C550.495 107.308 606.566 283.153 532.692 426.194Z" fill="url(#paint0_linear_2076_295)" fill-opacity="0.2" stroke="url(#paint1_linear_2076_295)"/>
<defs>
<linearGradient id="paint0_linear_2076_295" x1="-20.0008" y1="224.762" x2="572.295" y2="434.624" gradientUnits="userSpaceOnUse">
<stop stop-color="#E3B419"/>
<stop offset="0.505" stop-color="#23E173"/>
<stop offset="1" stop-color="#27A1ED"/>
</linearGradient>
<linearGradient id="paint1_linear_2076_295" x1="144.043" y1="-103.167" x2="625.82" y2="363.92" gradientUnits="userSpaceOnUse">
<stop stop-color="#E3B419"/>
<stop offset="0.5" stop-color="#23E173"/>
<stop offset="1" stop-color="#27A1ED"/>
</linearGradient>
</defs>
</svg>
