<svg xmlns="http://www.w3.org/2000/svg" width="560" height="502" viewBox="0 0 560 502" fill="none">
  <path d="M529.385 122.652C541.118 139.027 549.039 152.113 553.675 162.662C558.315 173.22 559.637 181.173 558.263 187.312C556.896 193.421 552.837 197.833 546.467 201.268C540.081 204.71 531.421 207.144 520.95 209.296C513.604 210.807 505.384 212.175 496.467 213.659C454.601 220.626 397.384 230.149 343.255 268.932C310.424 292.456 281.844 324.507 255.984 357.271C244.515 371.802 233.576 386.48 223.038 400.619C221.695 402.422 220.358 404.216 219.027 405.999C207.257 421.778 195.976 436.76 184.987 449.982C173.998 463.206 163.313 474.655 152.739 483.372C142.164 492.09 131.725 498.054 121.229 500.343C100.314 504.906 78.9125 494.919 55.4766 462.21C-38.2897 331.344 -8.21428 149.243 122.652 55.4767C253.518 -38.2896 435.619 -8.2142 529.385 122.652Z" fill="url(#paint0_linear_2065_34)" fill-opacity="0.2" stroke="url(#paint1_linear_2065_34)"/>
  <defs>
    <linearGradient id="paint0_linear_2065_34" x1="98.5438" y1="523.176" x2="554.911" y2="91.2211" gradientUnits="userSpaceOnUse">
      <stop stop-color="#E3B419"/>
      <stop offset="0.505" stop-color="#23E173"/>
      <stop offset="1" stop-color="#27A1ED"/>
    </linearGradient>
    <linearGradient id="paint1_linear_2065_34" x1="-118.84" y1="227.892" x2="516.302" y2="11.3873" gradientUnits="userSpaceOnUse">
      <stop stop-color="#E3B419"/>
      <stop offset="0.5" stop-color="#23E173"/>
      <stop offset="1" stop-color="#27A1ED"/>
    </linearGradient>
  </defs>
</svg>