<svg xmlns="http://www.w3.org/2000/svg" width="503" height="445" viewBox="0 0 503 445" fill="none">
  <path d="M469.692 426.274C460.448 444.173 452.399 457.181 445.114 466.109C437.824 475.044 431.343 479.839 425.251 481.41C419.189 482.972 413.413 481.364 407.456 477.254C401.485 473.135 395.378 466.53 388.697 458.185C384.01 452.33 379.051 445.633 373.673 438.367C348.42 404.256 313.907 357.637 254.742 327.081C218.858 308.548 177.313 297.68 136.37 289.559C118.212 285.957 100.165 282.894 82.7788 279.944C80.5624 279.567 78.3568 279.193 76.1631 278.82C56.7569 275.517 38.2828 272.288 21.5085 268.519C4.73291 264.749 -10.3237 260.444 -22.8972 254.994C-35.4727 249.543 -45.5327 242.961 -52.3473 234.655C-65.9264 218.106 -66.7697 194.504 -48.3057 158.753C25.5683 15.7119 201.413 -40.359 344.454 33.515C487.495 107.389 543.566 283.233 469.692 426.274Z" fill="url(#paint0_linear_2065_33)" fill-opacity="0.2" stroke="url(#paint1_linear_2065_33)"/>
  <defs>
    <linearGradient id="paint0_linear_2065_33" x1="-83.0008" y1="224.843" x2="509.295" y2="434.705" gradientUnits="userSpaceOnUse">
      <stop stop-color="#E3B419"/>
      <stop offset="0.505" stop-color="#23E173"/>
      <stop offset="1" stop-color="#27A1ED"/>
    </linearGradient>
    <linearGradient id="paint1_linear_2065_33" x1="81.0434" y1="-103.087" x2="562.82" y2="364" gradientUnits="userSpaceOnUse">
      <stop stop-color="#E3B419"/>
      <stop offset="0.5" stop-color="#23E173"/>
      <stop offset="1" stop-color="#27A1ED"/>
    </linearGradient>
  </defs>
</svg>