<svg width="26" height="26" viewBox="0 0 26 26" fill="none" xmlns="http://www.w3.org/2000/svg">
<path d="M15.8981 19.3016C13.6935 18.1999 11.5066 17.1064 9.32479 16.0161C6.95099 19.0122 3.31609 18.4769 1.5194 16.6593C-0.464128 14.6519 -0.50876 11.495 1.40418 9.46681C3.16663 7.59737 6.77766 6.90748 9.3279 9.99694C11.5097 8.9066 13.6977 7.81315 15.9106 6.70726C15.4913 5.12103 15.6822 3.64062 16.5946 2.28678C17.3066 1.22964 18.2896 0.525229 19.5164 0.181841C21.9131 -0.488337 24.5038 0.745163 25.5438 3.03891C26.589 5.34304 25.7805 8.07666 23.6423 9.46577C21.5695 10.8124 18.5937 10.6215 16.6787 8.15135C14.4917 9.2448 12.2954 10.3424 10.1261 11.4265C10.1832 11.9867 10.2756 12.4982 10.2776 13.0086C10.2797 13.5045 10.1884 13.9993 10.1282 14.5855C12.2663 15.6561 14.4647 16.7558 16.6891 17.8689C17.6554 16.5742 18.9404 15.8325 20.5471 15.7225C21.7989 15.6364 22.9406 16.0016 23.9412 16.7578C25.9881 18.3046 26.5911 21.0818 25.3767 23.2999C24.1353 25.5687 21.4823 26.5595 19.0701 25.6839C17.1323 24.9805 15.0719 22.7013 15.8981 19.3006V19.3016ZM20.8751 1.68092C19.1625 1.61038 17.3969 2.98186 17.3616 5.12829C17.3305 7.04338 18.9113 8.62961 20.8274 8.64413C22.759 8.65865 24.292 7.11393 24.3305 5.17498C24.3678 3.263 22.7569 1.63424 20.8751 1.68092ZM24.3232 20.8598C24.3855 19.1792 23.0247 17.3959 20.8481 17.3751C18.931 17.3564 17.3565 18.9499 17.3575 20.865C17.3575 22.7957 18.9103 24.3352 20.8544 24.3331C22.8161 24.3321 24.3242 22.8216 24.3232 20.8588V20.8598ZM8.62625 13.0055C8.62625 11.0904 7.04545 9.49067 5.13147 9.51972C2.86043 9.55292 1.64603 11.4006 1.64706 13.0075C1.6481 14.629 2.87808 16.4643 5.13354 16.4933C7.05375 16.5182 8.62729 14.9216 8.62729 13.0065L8.62625 13.0055Z" fill="#101221"/>
</svg>
