<svg width="20" height="20" viewBox="0 0 20 20" fill="none" xmlns="http://www.w3.org/2000/svg">
<path d="M12.2293 14.8474C10.5335 13.9999 8.8512 13.1588 7.17291 12.3201C5.34692 14.6247 2.55084 14.213 1.16877 12.8148C-0.357022 11.2707 -0.391354 8.84229 1.08014 7.28216C2.43587 5.84413 5.21358 5.31345 7.17531 7.68995C8.8536 6.85123 10.5367 6.01012 12.2389 5.15943C11.9164 3.93925 12.0633 2.80048 12.7651 1.75906C13.3128 0.945878 14.0689 0.404022 15.0126 0.139878C16.8562 -0.375644 18.8491 0.573203 19.6491 2.33763C20.4531 4.11003 19.8311 6.21281 18.1864 7.28136C16.5919 8.31719 14.3028 8.17036 12.8298 6.27027C11.1475 7.11139 9.458 7.95569 7.7893 8.78962C7.83321 9.22055 7.90427 9.61398 7.90587 10.0066C7.90747 10.3881 7.8372 10.7687 7.7909 11.2196C9.43565 12.0432 11.1267 12.8891 12.8377 13.7453C13.5811 12.7494 14.5695 12.1788 15.8055 12.0942C16.7684 12.028 17.6466 12.3089 18.4163 12.8907C19.9908 14.0805 20.4547 16.2168 19.5205 17.923C18.5656 19.6682 16.5249 20.4303 14.6693 19.7568C13.1787 19.2158 11.5938 17.4625 12.2293 14.8466V14.8474ZM16.0578 1.29302C14.7404 1.23875 13.3823 2.29373 13.3551 3.94484C13.3312 5.41799 14.5472 6.63816 16.0211 6.64933C17.5069 6.6605 18.6862 5.47225 18.7157 3.98075C18.7445 2.51 17.5053 1.25711 16.0578 1.29302ZM18.7101 16.046C18.758 14.7532 17.7113 13.3814 16.037 13.3655C14.5623 13.3511 13.3511 14.5769 13.3519 16.05C13.3519 17.5351 14.5464 18.7194 16.0418 18.7178C17.5508 18.717 18.7109 17.5551 18.7101 16.0452V16.046ZM6.63558 10.0042C6.63558 8.53106 5.41958 7.30052 3.94728 7.32286C2.20033 7.3484 1.26617 8.76967 1.26697 10.0058C1.26777 11.2531 2.2139 12.6648 3.94888 12.6872C5.42596 12.7063 6.63637 11.4782 6.63637 10.005L6.63558 10.0042Z" fill="#101221"/>
</svg>
