<svg xmlns="http://www.w3.org/2000/svg" width="45" height="44" viewBox="0 0 45 44" fill="none">
  <path d="M21.0668 43.998C15.4537 43.998 9.84056 43.9946 4.22746 43.9997C2.71287 43.9997 1.50429 43.4255 0.658456 42.1568C0.166773 41.4227 -0.00170617 40.5958 1.30044e-05 39.7138C0.010328 35.5895 0.00517052 31.467 0.00517052 27.3427C0.00517052 23.5914 -0.00514451 19.8402 0.010328 16.089C0.0172047 14.1068 1.25157 12.52 3.14094 12.1074C3.74609 11.975 4.40109 11.9595 5.02 12.0266C6.69103 12.2088 8.09904 11.6844 9.52939 10.8317C15.2474 7.41745 21.0221 4.10117 26.7761 0.747062C27.7939 0.153947 28.8391 -0.191606 30.0443 0.112687C31.301 0.429015 32.1451 1.21296 32.7657 2.29947C34.466 5.2788 36.1783 8.24953 37.8596 11.2375C38.145 11.7446 38.4785 12.0437 39.0613 12.1916C40.7771 12.63 41.91 14.0225 41.9616 15.7881C42.0149 17.6482 41.9994 19.5101 41.9839 21.372C41.9788 21.8688 42.0613 22.2023 42.5547 22.474C43.5329 23.0121 43.9988 23.9163 44.0057 25.0287C44.0194 26.9765 44.0126 28.9226 44.0091 30.8704C44.0091 32.0498 43.5449 32.9987 42.4928 33.5626C42.0527 33.7982 41.9839 34.0956 41.9856 34.5271C41.996 36.3889 41.9667 38.2491 41.9822 40.111C41.9942 41.6582 40.8837 43.484 38.7553 43.9189C38.3668 43.998 37.9593 43.9963 37.5605 43.9963C32.0626 44.0014 26.5647 43.9997 21.065 43.9997L21.0668 43.998ZM39.9914 34.0165C38.0986 34.0165 36.2952 34.0302 34.4935 34.0096C33.8952 34.0027 33.2901 33.958 32.7038 33.8429C30.1337 33.3409 28.1308 30.8945 28.0174 28.2916C27.8695 24.898 30.5978 21.9376 34.1669 21.9926C35.8568 22.0184 37.5485 21.9995 39.2384 21.9943C39.4843 21.9943 39.7301 21.9599 40.0224 21.9376C40.0224 19.9004 40.0653 17.9268 40.0052 15.9566C39.9708 14.8082 39.2401 14.1394 38.0952 14.0139C37.784 13.9795 37.4659 13.9847 37.1513 13.9847C26.379 13.9847 15.6049 13.9847 4.83261 13.9847C4.60396 13.9847 4.37359 13.9847 4.14494 13.9898C2.71459 14.026 1.94268 15.0489 2.02864 16.1732C2.04239 16.3434 2.02864 16.517 2.02864 16.6889C2.02864 24.2241 2.02864 31.7592 2.02864 39.2961C2.02864 39.6107 2.02348 39.927 2.05442 40.2399C2.14554 41.1717 2.85212 41.8697 3.79079 41.9539C4.1329 41.9849 4.47846 41.978 4.82057 41.978C13.2445 41.978 21.6685 41.978 30.0924 41.978C32.6419 41.978 35.1932 41.9453 37.7427 41.99C39.3295 42.0175 40.0464 40.9413 40.0361 39.7052C40.0224 37.9861 40.0327 36.2669 40.0309 34.5477C40.0309 34.4102 40.012 34.2709 39.9931 34.0199L39.9914 34.0165ZM37.3043 31.9741V31.9775C38.4201 31.9775 39.5358 31.9827 40.6498 31.9775C41.6814 31.9707 41.9788 31.687 41.9856 30.6624C41.9977 28.8899 41.996 27.1157 41.9856 25.3433C41.9788 24.298 41.7089 24.0281 40.6584 24.0229C38.5129 24.0126 36.3691 24.0126 34.2236 24.0264C33.8007 24.0298 33.3606 24.059 32.9566 24.1725C30.952 24.733 29.8294 26.4985 30.0855 28.6355C30.3039 30.4578 32.0041 31.9346 33.9588 31.9724C35.0746 31.9947 36.1903 31.9758 37.3043 31.9758V31.9741ZM11.7024 11.8907C11.7127 11.9303 11.7248 11.9698 11.7351 12.0094C12.6669 12.0094 13.6004 11.9836 14.5322 12.018C15.0995 12.0386 15.5809 11.8873 16.0657 11.6036C20.7521 8.86328 25.4472 6.13839 30.1388 3.40662C30.3572 3.2794 30.5635 3.13327 30.8059 2.97511C30.4397 2.34933 29.9274 2.06739 29.25 2.02097C28.6707 1.98143 28.203 2.23415 27.7285 2.51093C22.5951 5.50573 17.4582 8.49365 12.323 11.4867C12.1099 11.6105 11.9087 11.7566 11.7024 11.8907ZM19.6089 11.8546C19.6244 11.9062 19.6398 11.9578 19.6536 12.0111C20.5544 12.0111 21.457 11.9887 22.3579 12.0197C22.9785 12.0403 23.5131 11.8942 24.0547 11.5727C26.6334 10.0409 29.2345 8.54695 31.8271 7.03751C32.1468 6.85184 32.4597 6.65586 32.819 6.43752C32.4941 5.87192 32.1881 5.33553 31.8425 4.7321C27.7251 7.13035 23.6679 9.49249 19.6106 11.8564L19.6089 11.8546ZM35.984 11.9664C35.2379 10.6598 34.5382 9.43748 33.823 8.18592C31.6826 9.43576 29.63 10.634 27.579 11.8323C27.5979 11.877 27.6185 11.9217 27.6374 11.9664H35.9857H35.984Z" fill="#101221"/>
  <path d="M35.9785 28.0201C35.9665 29.1289 35.1241 29.973 34.0204 29.9816C32.9098 29.9902 31.9797 29.0636 32.0003 27.9685C32.0192 26.9232 32.9459 26.0017 33.9894 25.9863C35.0966 25.9708 35.9905 26.8854 35.9785 28.0201Z" fill="#101221"/>
</svg>