<svg width="14" height="13" viewBox="0 0 14 13" fill="none" xmlns="http://www.w3.org/2000/svg">
<path id="Vector" fill-rule="evenodd" clip-rule="evenodd" d="M0.756611 6.81152C0.756611 7.03881 0.841696 7.25679 0.993151 7.41751C1.14461 7.57822 1.35002 7.66851 1.56421 7.66851L10.9211 7.66851L7.45325 11.3467C7.37816 11.4264 7.3186 11.521 7.27796 11.6251C7.23732 11.7292 7.21641 11.8408 7.21641 11.9535C7.21641 12.0661 7.23732 12.1777 7.27796 12.2818C7.3186 12.3859 7.37816 12.4805 7.45325 12.5602C7.52833 12.6399 7.61748 12.7031 7.71558 12.7462C7.81369 12.7893 7.91884 12.8115 8.02503 12.8115C8.13122 12.8115 8.23637 12.7893 8.33448 12.7462C8.43258 12.7031 8.52172 12.6399 8.59681 12.5602L13.4424 7.41827C13.5176 7.33866 13.5773 7.24409 13.618 7.13998C13.6587 7.03586 13.6797 6.92425 13.6797 6.81152C13.6797 6.6988 13.6587 6.58718 13.618 6.48307C13.5773 6.37895 13.5176 6.28438 13.4424 6.20478L8.59681 1.06285C8.44517 0.901927 8.23949 0.811523 8.02503 0.811523C7.81057 0.811523 7.60489 0.901927 7.45325 1.06285C7.3016 1.22377 7.21641 1.44202 7.21641 1.66959C7.21641 1.89717 7.3016 2.11542 7.45325 2.27634L10.9211 5.95454L1.56421 5.95454C1.35002 5.95454 1.14461 6.04483 0.993151 6.20554C0.841696 6.36626 0.756611 6.58424 0.756611 6.81152Z" fill="white"/>
</svg>
