<svg width="20" height="18" viewBox="0 0 20 18" fill="none" xmlns="http://www.w3.org/2000/svg">
<path d="M8.62488 9.57416C8.62488 9.57416 6.02858 7.78919 2.94531 7.14004L8.94953 13.9556L19.6597 -1.90735e-06C19.6597 -1.90735e-06 12.1951 4.05677 8.62488 9.57416Z" fill="#1A71F5"/>
<path d="M15.1275 9.38566C14.7407 9.38566 14.4271 9.69925 14.4271 10.0861C14.4271 11.8264 13.7495 13.4617 12.5187 14.6914C11.2895 15.9217 9.65431 16.5993 7.91391 16.5993C4.32247 16.5993 1.40073 13.6775 1.40073 10.0861C1.40073 8.34569 2.07845 6.7104 3.30922 5.48076C4.53822 4.2505 6.17363 3.57291 7.91391 3.57291C8.27503 3.57291 8.63704 3.60263 8.98976 3.66121C9.37108 3.72468 9.73208 3.46666 9.79543 3.08496C9.85877 2.70339 9.60076 2.34277 9.21931 2.27942C8.7907 2.20818 8.35155 2.17218 7.91391 2.17218C5.79908 2.17218 3.81183 2.99566 2.31878 4.49033C0.823601 5.98401 0 7.97139 0 10.0861C0 14.4498 3.55017 18 7.91391 18C10.0287 18 12.0159 17.1765 13.509 15.6817C15.0045 14.1879 15.8278 12.2009 15.8278 10.0861C15.8278 9.69925 15.5144 9.38566 15.1275 9.38566Z" fill="#1A71F5"/>
</svg>
