<svg width="16" height="16" viewBox="0 0 16 16" fill="none" xmlns="http://www.w3.org/2000/svg">
<path d="M11.4747 8.19483C10.971 8.86758 10.4837 9.51919 9.99654 10.1701C9.93704 10.2494 9.87887 10.3294 9.81408 10.4047C9.67195 10.5706 9.49016 10.6281 9.27928 10.5733C9.07963 10.5211 8.95271 10.3869 8.92098 10.1847C8.87338 9.88068 8.83834 9.57536 8.80066 9.27005C8.7253 8.66139 8.65258 8.05208 8.57656 7.42492C8.15744 7.37073 7.75617 7.31654 7.3549 7.26896C6.90735 7.21543 6.45849 7.16983 6.01094 7.11762C5.92368 7.10771 5.8351 7.09251 5.75246 7.06409C5.3935 6.94117 5.2831 6.51359 5.5429 6.23537C5.63215 6.14021 5.74453 6.06553 5.8503 5.98623C6.4922 5.50446 7.13542 5.02401 7.7998 4.52771C7.66164 4.1986 7.52876 3.87676 7.39192 3.55624C7.18434 3.07117 6.97611 2.5861 6.76456 2.10301C6.65945 1.86245 6.63565 1.6338 6.83926 1.43356C7.04353 1.23199 7.27491 1.26636 7.51223 1.36813C8.19909 1.66353 8.88594 1.95828 9.57345 2.25236C9.68319 2.29928 9.79425 2.34224 9.92845 2.39643C10.0322 2.25897 10.1307 2.12944 10.2286 1.99859C10.6642 1.41703 11.0985 0.834815 11.5348 0.254579C11.677 0.0649116 11.8548 -0.0454523 12.1034 0.0179904C12.3493 0.0801114 12.459 0.258544 12.504 0.490506C12.5079 0.512315 12.5113 0.534123 12.5139 0.555931C12.6058 1.34236 12.7049 2.12746 12.7843 2.91454C12.8048 3.11941 12.8722 3.19409 13.0811 3.21524C13.8691 3.29322 14.6544 3.39103 15.4405 3.48553C15.6963 3.51593 15.9078 3.61506 15.9812 3.89262C16.0513 4.15762 15.9204 4.3354 15.7227 4.48343C15.106 4.94537 14.4892 5.40665 13.8724 5.86859C13.7858 5.93336 13.7018 6.00143 13.602 6.07941C13.7567 6.44486 13.9048 6.79776 14.0555 7.15C14.2366 7.57428 14.4165 7.99987 14.6035 8.42216C14.7159 8.67593 14.7933 8.92574 14.5685 9.15572C14.3444 9.3857 14.0998 9.32027 13.84 9.2066C13.0646 8.86692 12.2838 8.53979 11.4754 8.19483H11.4747Z" fill="#101221"/>
<path d="M7.84567 9.33833C7.9131 9.49694 7.80733 9.62382 7.67313 9.75732C5.68463 11.7399 3.69943 13.7271 1.71226 15.7117C1.32355 16.0996 1.10605 16.0956 0.710073 15.7024C0.530262 15.524 0.345823 15.3502 0.174606 15.1632C-0.0587518 14.9081 -0.0561076 14.6556 0.169979 14.3979C0.220881 14.3397 0.277733 14.2875 0.332602 14.2333C2.28739 12.2792 4.24482 10.327 6.19365 8.36686C6.36487 8.19438 6.52419 8.10913 6.76945 8.15935C7.00545 8.2076 7.24938 8.22148 7.49067 8.23998C7.66454 8.2532 7.7432 8.33713 7.75643 8.50961C7.77692 8.77263 7.81196 9.03433 7.84501 9.33833H7.84567Z" fill="#101221"/>
</svg>
