<svg width="100" height="275" viewBox="0 0 100 275" fill="none" xmlns="http://www.w3.org/2000/svg">
<path d="M2.04171 274.265C3.16972 274.265 4.08342 273.351 4.08342 272.223C4.08342 271.095 3.16972 270.182 2.04171 270.182C0.913693 270.182 0 271.095 0 272.223C0 273.351 0.913693 274.265 2.04171 274.265Z" fill="#ED57C0"/>
<path d="M2.04171 251.75C3.16972 251.75 4.08342 250.836 4.08342 249.708C4.08342 248.58 3.16972 247.667 2.04171 247.667C0.913693 247.667 0 248.58 0 249.708C0 250.836 0.913693 251.75 2.04171 251.75Z" fill="#ED57C0"/>
<path d="M2.04171 229.235C3.16972 229.235 4.08342 228.321 4.08342 227.193C4.08342 226.065 3.16972 225.151 2.04171 225.151C0.913693 225.151 0 226.065 0 227.193C0 228.321 0.913693 229.235 2.04171 229.235Z" fill="#ED57C0"/>
<path d="M2.04171 206.72C3.16972 206.72 4.08342 205.806 4.08342 204.678C4.08342 203.55 3.16972 202.636 2.04171 202.636C0.913693 202.636 0 203.55 0 204.678C0 205.806 0.913693 206.72 2.04171 206.72Z" fill="#ED57C0"/>
<path d="M2.04171 184.204C3.16972 184.204 4.08342 183.291 4.08342 182.163C4.08342 181.035 3.16972 180.121 2.04171 180.121C0.913693 180.121 0 181.035 0 182.163C0 183.291 0.913693 184.204 2.04171 184.204Z" fill="#ED57C0"/>
<path d="M2.04171 161.689C3.16972 161.689 4.08342 160.776 4.08342 159.648C4.08342 158.52 3.16972 157.606 2.04171 157.606C0.913693 157.606 0 158.52 0 159.648C0 160.776 0.913693 161.689 2.04171 161.689Z" fill="#ED57C0"/>
<path d="M2.04171 139.174C3.16972 139.174 4.08342 138.261 4.08342 137.133C4.08342 136.005 3.16972 135.091 2.04171 135.091C0.913693 135.091 0 136.005 0 137.133C0 138.261 0.913693 139.174 2.04171 139.174Z" fill="#ED57C0"/>
<path d="M2.04171 116.659C3.16972 116.659 4.08342 115.745 4.08342 114.617C4.08342 113.489 3.16972 112.576 2.04171 112.576C0.913693 112.576 0 113.489 0 114.617C0 115.745 0.913693 116.659 2.04171 116.659Z" fill="#ED57C0"/>
<path d="M2.04171 94.1439C3.16972 94.1439 4.08342 93.2302 4.08342 92.1022C4.08342 90.9742 3.16972 90.0605 2.04171 90.0605C0.913693 90.0605 0 90.9742 0 92.1022C0 93.2302 0.913693 94.1439 2.04171 94.1439Z" fill="#ED57C0"/>
<path d="M2.04171 71.6289C3.16972 71.6289 4.08342 70.7152 4.08342 69.5872C4.08342 68.4592 3.16972 67.5455 2.04171 67.5455C0.913693 67.5455 0 68.4592 0 69.5872C0 70.7152 0.913693 71.6289 2.04171 71.6289Z" fill="#ED57C0"/>
<path d="M2.04171 49.1135C3.16972 49.1135 4.08342 48.1998 4.08342 47.0718C4.08342 45.9438 3.16972 45.0301 2.04171 45.0301C0.913693 45.0301 0 45.9438 0 47.0718C0 48.1998 0.913693 49.1135 2.04171 49.1135Z" fill="#ED57C0"/>
<path d="M2.04171 26.5985C3.16972 26.5985 4.08342 25.6848 4.08342 24.5568C4.08342 23.4288 3.16972 22.5151 2.04171 22.5151C0.913693 22.5151 0 23.4288 0 24.5568C0 25.6848 0.913693 26.5985 2.04171 26.5985Z" fill="#ED57C0"/>
<path d="M2.04171 4.0835C3.16972 4.0835 4.08342 3.16981 4.08342 2.04179C4.08342 0.913774 3.16972 8.39233e-05 2.04171 8.39233e-05C0.913693 8.39233e-05 0 0.913774 0 2.04179C0 3.16981 0.913693 4.0835 2.04171 4.0835Z" fill="#ED57C0"/>
<path d="M21.2312 274.265C22.3592 274.265 23.2729 273.351 23.2729 272.223C23.2729 271.095 22.3592 270.182 21.2312 270.182C20.1031 270.182 19.1895 271.095 19.1895 272.223C19.1895 273.351 20.1031 274.265 21.2312 274.265Z" fill="#ED57C0"/>
<path d="M21.2312 251.75C22.3592 251.75 23.2729 250.836 23.2729 249.708C23.2729 248.58 22.3592 247.667 21.2312 247.667C20.1031 247.667 19.1895 248.58 19.1895 249.708C19.1895 250.836 20.1031 251.75 21.2312 251.75Z" fill="#ED57C0"/>
<path d="M21.2312 229.235C22.3592 229.235 23.2729 228.321 23.2729 227.193C23.2729 226.065 22.3592 225.151 21.2312 225.151C20.1031 225.151 19.1895 226.065 19.1895 227.193C19.1895 228.321 20.1031 229.235 21.2312 229.235Z" fill="#ED57C0"/>
<path d="M21.2312 206.72C22.3592 206.72 23.2729 205.806 23.2729 204.678C23.2729 203.55 22.3592 202.636 21.2312 202.636C20.1031 202.636 19.1895 203.55 19.1895 204.678C19.1895 205.806 20.1031 206.72 21.2312 206.72Z" fill="#ED57C0"/>
<path d="M21.2312 184.204C22.3592 184.204 23.2729 183.291 23.2729 182.163C23.2729 181.035 22.3592 180.121 21.2312 180.121C20.1031 180.121 19.1895 181.035 19.1895 182.163C19.1895 183.291 20.1031 184.204 21.2312 184.204Z" fill="#ED57C0"/>
<path d="M21.2312 161.689C22.3592 161.689 23.2729 160.776 23.2729 159.648C23.2729 158.52 22.3592 157.606 21.2312 157.606C20.1031 157.606 19.1895 158.52 19.1895 159.648C19.1895 160.776 20.1031 161.689 21.2312 161.689Z" fill="#ED57C0"/>
<path d="M21.2312 139.174C22.3592 139.174 23.2729 138.261 23.2729 137.133C23.2729 136.005 22.3592 135.091 21.2312 135.091C20.1031 135.091 19.1895 136.005 19.1895 137.133C19.1895 138.261 20.1031 139.174 21.2312 139.174Z" fill="#ED57C0"/>
<path d="M21.2312 116.659C22.3592 116.659 23.2729 115.745 23.2729 114.617C23.2729 113.489 22.3592 112.576 21.2312 112.576C20.1031 112.576 19.1895 113.489 19.1895 114.617C19.1895 115.745 20.1031 116.659 21.2312 116.659Z" fill="#ED57C0"/>
<path d="M21.2312 94.1439C22.3592 94.1439 23.2729 93.2302 23.2729 92.1022C23.2729 90.9742 22.3592 90.0605 21.2312 90.0605C20.1031 90.0605 19.1895 90.9742 19.1895 92.1022C19.1895 93.2302 20.1031 94.1439 21.2312 94.1439Z" fill="#ED57C0"/>
<path d="M21.2312 71.6289C22.3592 71.6289 23.2729 70.7152 23.2729 69.5872C23.2729 68.4592 22.3592 67.5455 21.2312 67.5455C20.1031 67.5455 19.1895 68.4592 19.1895 69.5872C19.1895 70.7152 20.1031 71.6289 21.2312 71.6289Z" fill="#ED57C0"/>
<path d="M21.2312 49.1135C22.3592 49.1135 23.2729 48.1998 23.2729 47.0718C23.2729 45.9438 22.3592 45.0301 21.2312 45.0301C20.1031 45.0301 19.1895 45.9438 19.1895 47.0718C19.1895 48.1998 20.1031 49.1135 21.2312 49.1135Z" fill="#ED57C0"/>
<path d="M21.2312 26.5985C22.3592 26.5985 23.2729 25.6848 23.2729 24.5568C23.2729 23.4288 22.3592 22.5151 21.2312 22.5151C20.1031 22.5151 19.1895 23.4288 19.1895 24.5568C19.1895 25.6848 20.1031 26.5985 21.2312 26.5985Z" fill="#ED57C0"/>
<path d="M21.2312 4.0835C22.3592 4.0835 23.2729 3.16981 23.2729 2.04179C23.2729 0.913774 22.3592 8.39233e-05 21.2312 8.39233e-05C20.1031 8.39233e-05 19.1895 0.913774 19.1895 2.04179C19.1895 3.16981 20.1031 4.0835 21.2312 4.0835Z" fill="#ED57C0"/>
<path d="M40.4069 274.265C41.535 274.265 42.4487 273.351 42.4487 272.223C42.4487 271.095 41.535 270.182 40.4069 270.182C39.2789 270.182 38.3652 271.095 38.3652 272.223C38.3652 273.351 39.2789 274.265 40.4069 274.265Z" fill="#ED57C0"/>
<path d="M40.4069 251.75C41.535 251.75 42.4487 250.836 42.4487 249.708C42.4487 248.58 41.535 247.667 40.4069 247.667C39.2789 247.667 38.3652 248.58 38.3652 249.708C38.3652 250.836 39.2789 251.75 40.4069 251.75Z" fill="#ED57C0"/>
<path d="M40.4069 229.235C41.535 229.235 42.4487 228.321 42.4487 227.193C42.4487 226.065 41.535 225.151 40.4069 225.151C39.2789 225.151 38.3652 226.065 38.3652 227.193C38.3652 228.321 39.2789 229.235 40.4069 229.235Z" fill="#ED57C0"/>
<path d="M40.4069 206.72C41.535 206.72 42.4487 205.806 42.4487 204.678C42.4487 203.55 41.535 202.636 40.4069 202.636C39.2789 202.636 38.3652 203.55 38.3652 204.678C38.3652 205.806 39.2789 206.72 40.4069 206.72Z" fill="#ED57C0"/>
<path d="M40.4069 184.204C41.535 184.204 42.4487 183.291 42.4487 182.163C42.4487 181.035 41.535 180.121 40.4069 180.121C39.2789 180.121 38.3652 181.035 38.3652 182.163C38.3652 183.291 39.2789 184.204 40.4069 184.204Z" fill="#ED57C0"/>
<path d="M40.4069 161.689C41.535 161.689 42.4487 160.776 42.4487 159.648C42.4487 158.52 41.535 157.606 40.4069 157.606C39.2789 157.606 38.3652 158.52 38.3652 159.648C38.3652 160.776 39.2789 161.689 40.4069 161.689Z" fill="#ED57C0"/>
<path d="M40.4069 139.174C41.535 139.174 42.4487 138.261 42.4487 137.133C42.4487 136.005 41.535 135.091 40.4069 135.091C39.2789 135.091 38.3652 136.005 38.3652 137.133C38.3652 138.261 39.2789 139.174 40.4069 139.174Z" fill="#ED57C0"/>
<path d="M40.4069 116.659C41.535 116.659 42.4487 115.745 42.4487 114.617C42.4487 113.489 41.535 112.576 40.4069 112.576C39.2789 112.576 38.3652 113.489 38.3652 114.617C38.3652 115.745 39.2789 116.659 40.4069 116.659Z" fill="#ED57C0"/>
<path d="M40.4069 94.1439C41.535 94.1439 42.4487 93.2302 42.4487 92.1022C42.4487 90.9742 41.535 90.0605 40.4069 90.0605C39.2789 90.0605 38.3652 90.9742 38.3652 92.1022C38.3652 93.2302 39.2789 94.1439 40.4069 94.1439Z" fill="#ED57C0"/>
<path d="M40.4069 71.6289C41.535 71.6289 42.4487 70.7152 42.4487 69.5872C42.4487 68.4592 41.535 67.5455 40.4069 67.5455C39.2789 67.5455 38.3652 68.4592 38.3652 69.5872C38.3652 70.7152 39.2789 71.6289 40.4069 71.6289Z" fill="#ED57C0"/>
<path d="M40.4069 49.1135C41.535 49.1135 42.4487 48.1998 42.4487 47.0718C42.4487 45.9438 41.535 45.0301 40.4069 45.0301C39.2789 45.0301 38.3652 45.9438 38.3652 47.0718C38.3652 48.1998 39.2789 49.1135 40.4069 49.1135Z" fill="#ED57C0"/>
<path d="M40.4069 26.5985C41.535 26.5985 42.4487 25.6848 42.4487 24.5568C42.4487 23.4288 41.535 22.5151 40.4069 22.5151C39.2789 22.5151 38.3652 23.4288 38.3652 24.5568C38.3652 25.6848 39.2789 26.5985 40.4069 26.5985Z" fill="#ED57C0"/>
<path d="M40.4069 4.0835C41.535 4.0835 42.4487 3.16981 42.4487 2.04179C42.4487 0.913774 41.535 8.39233e-05 40.4069 8.39233e-05C39.2789 8.39233e-05 38.3652 0.913774 38.3652 2.04179C38.3652 3.16981 39.2789 4.0835 40.4069 4.0835Z" fill="#ED57C0"/>
<path d="M59.5925 274.265C60.7205 274.265 61.6342 273.351 61.6342 272.223C61.6342 271.095 60.7205 270.182 59.5925 270.182C58.4645 270.182 57.5508 271.095 57.5508 272.223C57.5508 273.351 58.4645 274.265 59.5925 274.265Z" fill="#ED57C0"/>
<path d="M59.5925 251.75C60.7205 251.75 61.6342 250.836 61.6342 249.708C61.6342 248.58 60.7205 247.667 59.5925 247.667C58.4645 247.667 57.5508 248.58 57.5508 249.708C57.5508 250.836 58.4645 251.75 59.5925 251.75Z" fill="#ED57C0"/>
<path d="M59.5925 229.235C60.7205 229.235 61.6342 228.321 61.6342 227.193C61.6342 226.065 60.7205 225.151 59.5925 225.151C58.4645 225.151 57.5508 226.065 57.5508 227.193C57.5508 228.321 58.4645 229.235 59.5925 229.235Z" fill="#ED57C0"/>
<path d="M59.5925 206.72C60.7205 206.72 61.6342 205.806 61.6342 204.678C61.6342 203.55 60.7205 202.636 59.5925 202.636C58.4645 202.636 57.5508 203.55 57.5508 204.678C57.5508 205.806 58.4645 206.72 59.5925 206.72Z" fill="#ED57C0"/>
<path d="M59.5925 184.204C60.7205 184.204 61.6342 183.291 61.6342 182.163C61.6342 181.035 60.7205 180.121 59.5925 180.121C58.4645 180.121 57.5508 181.035 57.5508 182.163C57.5508 183.291 58.4645 184.204 59.5925 184.204Z" fill="#ED57C0"/>
<path d="M59.5925 161.689C60.7205 161.689 61.6342 160.776 61.6342 159.648C61.6342 158.52 60.7205 157.606 59.5925 157.606C58.4645 157.606 57.5508 158.52 57.5508 159.648C57.5508 160.776 58.4645 161.689 59.5925 161.689Z" fill="#ED57C0"/>
<path d="M59.5925 139.174C60.7205 139.174 61.6342 138.261 61.6342 137.133C61.6342 136.005 60.7205 135.091 59.5925 135.091C58.4645 135.091 57.5508 136.005 57.5508 137.133C57.5508 138.261 58.4645 139.174 59.5925 139.174Z" fill="#ED57C0"/>
<path d="M59.5925 116.659C60.7205 116.659 61.6342 115.745 61.6342 114.617C61.6342 113.489 60.7205 112.576 59.5925 112.576C58.4645 112.576 57.5508 113.489 57.5508 114.617C57.5508 115.745 58.4645 116.659 59.5925 116.659Z" fill="#ED57C0"/>
<path d="M59.5925 94.1439C60.7205 94.1439 61.6342 93.2302 61.6342 92.1022C61.6342 90.9742 60.7205 90.0605 59.5925 90.0605C58.4645 90.0605 57.5508 90.9742 57.5508 92.1022C57.5508 93.2302 58.4645 94.1439 59.5925 94.1439Z" fill="#ED57C0"/>
<path d="M59.5925 71.6289C60.7205 71.6289 61.6342 70.7152 61.6342 69.5872C61.6342 68.4592 60.7205 67.5455 59.5925 67.5455C58.4645 67.5455 57.5508 68.4592 57.5508 69.5872C57.5508 70.7152 58.4645 71.6289 59.5925 71.6289Z" fill="#ED57C0"/>
<path d="M59.5925 49.1135C60.7205 49.1135 61.6342 48.1998 61.6342 47.0718C61.6342 45.9438 60.7205 45.0301 59.5925 45.0301C58.4645 45.0301 57.5508 45.9438 57.5508 47.0718C57.5508 48.1998 58.4645 49.1135 59.5925 49.1135Z" fill="#ED57C0"/>
<path d="M59.5925 26.5985C60.7205 26.5985 61.6342 25.6848 61.6342 24.5568C61.6342 23.4288 60.7205 22.5151 59.5925 22.5151C58.4645 22.5151 57.5508 23.4288 57.5508 24.5568C57.5508 25.6848 58.4645 26.5985 59.5925 26.5985Z" fill="#ED57C0"/>
<path d="M59.5925 4.0835C60.7205 4.0835 61.6342 3.16981 61.6342 2.04179C61.6342 0.913774 60.7205 8.39233e-05 59.5925 8.39233e-05C58.4645 8.39233e-05 57.5508 0.913774 57.5508 2.04179C57.5508 3.16981 58.4645 4.0835 59.5925 4.0835Z" fill="#ED57C0"/>
<path d="M78.7819 274.265C79.91 274.265 80.8237 273.351 80.8237 272.223C80.8237 271.095 79.91 270.182 78.7819 270.182C77.6539 270.182 76.7402 271.095 76.7402 272.223C76.7402 273.351 77.6539 274.265 78.7819 274.265Z" fill="#ED57C0"/>
<path d="M78.7819 251.75C79.91 251.75 80.8237 250.836 80.8237 249.708C80.8237 248.58 79.91 247.667 78.7819 247.667C77.6539 247.667 76.7402 248.58 76.7402 249.708C76.7402 250.836 77.6539 251.75 78.7819 251.75Z" fill="#ED57C0"/>
<path d="M78.7819 229.235C79.91 229.235 80.8237 228.321 80.8237 227.193C80.8237 226.065 79.91 225.151 78.7819 225.151C77.6539 225.151 76.7402 226.065 76.7402 227.193C76.7402 228.321 77.6539 229.235 78.7819 229.235Z" fill="#ED57C0"/>
<path d="M80.8237 204.678C80.8237 203.55 79.9095 202.636 78.7819 202.636C77.6543 202.636 76.7402 203.55 76.7402 204.678C76.7402 205.806 77.6543 206.72 78.7819 206.72C79.9095 206.72 80.8237 205.806 80.8237 204.678Z" fill="#ED57C0"/>
<path d="M80.8237 182.163C80.8237 181.035 79.9095 180.121 78.7819 180.121C77.6543 180.121 76.7402 181.035 76.7402 182.163C76.7402 183.29 77.6543 184.204 78.7819 184.204C79.9095 184.204 80.8237 183.29 80.8237 182.163Z" fill="#ED57C0"/>
<path d="M80.8237 159.648C80.8237 158.52 79.9095 157.606 78.7819 157.606C77.6543 157.606 76.7402 158.52 76.7402 159.648C76.7402 160.775 77.6543 161.689 78.7819 161.689C79.9095 161.689 80.8237 160.775 80.8237 159.648Z" fill="#ED57C0"/>
<path d="M78.7819 139.174C79.91 139.174 80.8237 138.261 80.8237 137.133C80.8237 136.005 79.91 135.091 78.7819 135.091C77.6539 135.091 76.7402 136.005 76.7402 137.133C76.7402 138.261 77.6539 139.174 78.7819 139.174Z" fill="#ED57C0"/>
<path d="M78.7819 116.659C79.91 116.659 80.8237 115.745 80.8237 114.617C80.8237 113.489 79.91 112.576 78.7819 112.576C77.6539 112.576 76.7402 113.489 76.7402 114.617C76.7402 115.745 77.6539 116.659 78.7819 116.659Z" fill="#ED57C0"/>
<path d="M78.7819 94.1439C79.91 94.1439 80.8237 93.2302 80.8237 92.1022C80.8237 90.9742 79.91 90.0605 78.7819 90.0605C77.6539 90.0605 76.7402 90.9742 76.7402 92.1022C76.7402 93.2302 77.6539 94.1439 78.7819 94.1439Z" fill="#ED57C0"/>
<path d="M78.7819 71.6289C79.91 71.6289 80.8237 70.7152 80.8237 69.5872C80.8237 68.4592 79.91 67.5455 78.7819 67.5455C77.6539 67.5455 76.7402 68.4592 76.7402 69.5872C76.7402 70.7152 77.6539 71.6289 78.7819 71.6289Z" fill="#ED57C0"/>
<path d="M78.7819 49.1135C79.91 49.1135 80.8237 48.1998 80.8237 47.0718C80.8237 45.9438 79.91 45.0301 78.7819 45.0301C77.6539 45.0301 76.7402 45.9438 76.7402 47.0718C76.7402 48.1998 77.6539 49.1135 78.7819 49.1135Z" fill="#ED57C0"/>
<path d="M78.7819 26.5985C79.91 26.5985 80.8237 25.6848 80.8237 24.5568C80.8237 23.4288 79.91 22.5151 78.7819 22.5151C77.6539 22.5151 76.7402 23.4288 76.7402 24.5568C76.7402 25.6848 77.6539 26.5985 78.7819 26.5985Z" fill="#ED57C0"/>
<path d="M78.7819 4.0835C79.91 4.0835 80.8237 3.16981 80.8237 2.04179C80.8237 0.913774 79.91 8.39233e-05 78.7819 8.39233e-05C77.6539 8.39233e-05 76.7402 0.913774 76.7402 2.04179C76.7402 3.16981 77.6539 4.0835 78.7819 4.0835Z" fill="#ED57C0"/>
<path d="M97.9577 274.265C99.0857 274.265 99.9994 273.351 99.9994 272.223C99.9994 271.095 99.0857 270.182 97.9577 270.182C96.8297 270.182 95.916 271.095 95.916 272.223C95.916 273.351 96.8297 274.265 97.9577 274.265Z" fill="#ED57C0"/>
<path d="M97.9577 251.75C99.0857 251.75 99.9994 250.836 99.9994 249.708C99.9994 248.58 99.0857 247.667 97.9577 247.667C96.8297 247.667 95.916 248.58 95.916 249.708C95.916 250.836 96.8297 251.75 97.9577 251.75Z" fill="#ED57C0"/>
<path d="M97.9577 229.235C99.0857 229.235 99.9994 228.321 99.9994 227.193C99.9994 226.065 99.0857 225.151 97.9577 225.151C96.8297 225.151 95.916 226.065 95.916 227.193C95.916 228.321 96.8297 229.235 97.9577 229.235Z" fill="#ED57C0"/>
<path d="M97.9577 206.72C99.0857 206.72 99.9994 205.806 99.9994 204.678C99.9994 203.55 99.0857 202.636 97.9577 202.636C96.8297 202.636 95.916 203.55 95.916 204.678C95.916 205.806 96.8297 206.72 97.9577 206.72Z" fill="#ED57C0"/>
<path d="M97.9577 184.204C99.0857 184.204 99.9994 183.291 99.9994 182.163C99.9994 181.035 99.0857 180.121 97.9577 180.121C96.8297 180.121 95.916 181.035 95.916 182.163C95.916 183.291 96.8297 184.204 97.9577 184.204Z" fill="#ED57C0"/>
<path d="M97.9577 161.689C99.0857 161.689 99.9994 160.776 99.9994 159.648C99.9994 158.52 99.0857 157.606 97.9577 157.606C96.8297 157.606 95.916 158.52 95.916 159.648C95.916 160.776 96.8297 161.689 97.9577 161.689Z" fill="#ED57C0"/>
<path d="M97.9577 139.174C99.0857 139.174 99.9994 138.261 99.9994 137.133C99.9994 136.005 99.0857 135.091 97.9577 135.091C96.8297 135.091 95.916 136.005 95.916 137.133C95.916 138.261 96.8297 139.174 97.9577 139.174Z" fill="#ED57C0"/>
<path d="M97.9577 116.659C99.0857 116.659 99.9994 115.745 99.9994 114.617C99.9994 113.489 99.0857 112.576 97.9577 112.576C96.8297 112.576 95.916 113.489 95.916 114.617C95.916 115.745 96.8297 116.659 97.9577 116.659Z" fill="#ED57C0"/>
<path d="M97.9577 94.1439C99.0857 94.1439 99.9994 93.2302 99.9994 92.1022C99.9994 90.9742 99.0857 90.0605 97.9577 90.0605C96.8297 90.0605 95.916 90.9742 95.916 92.1022C95.916 93.2302 96.8297 94.1439 97.9577 94.1439Z" fill="#ED57C0"/>
<path d="M97.9577 71.6289C99.0857 71.6289 99.9994 70.7152 99.9994 69.5872C99.9994 68.4592 99.0857 67.5455 97.9577 67.5455C96.8297 67.5455 95.916 68.4592 95.916 69.5872C95.916 70.7152 96.8297 71.6289 97.9577 71.6289Z" fill="#ED57C0"/>
<path d="M97.9577 49.1135C99.0857 49.1135 99.9994 48.1998 99.9994 47.0718C99.9994 45.9438 99.0857 45.0301 97.9577 45.0301C96.8297 45.0301 95.916 45.9438 95.916 47.0718C95.916 48.1998 96.8297 49.1135 97.9577 49.1135Z" fill="#ED57C0"/>
<path d="M97.9577 26.5985C99.0857 26.5985 99.9994 25.6848 99.9994 24.5568C99.9994 23.4288 99.0857 22.5151 97.9577 22.5151C96.8297 22.5151 95.916 23.4288 95.916 24.5568C95.916 25.6848 96.8297 26.5985 97.9577 26.5985Z" fill="#ED57C0"/>
<path d="M97.9577 4.0835C99.0857 4.0835 99.9994 3.16981 99.9994 2.04179C99.9994 0.913774 99.0857 8.39233e-05 97.9577 8.39233e-05C96.8297 8.39233e-05 95.916 0.913774 95.916 2.04179C95.916 3.16981 96.8297 4.0835 97.9577 4.0835Z" fill="#ED57C0"/>
</svg>
