<svg xmlns="http://www.w3.org/2000/svg" width="84" height="50" viewBox="0 0 84 50" fill="none">
  <path fill-rule="evenodd" clip-rule="evenodd" d="M20.8518 49.9643C20.6644 49.8818 20.447 49.7056 20.282 49.4507C19.5061 48.2923 19.9634 46.0469 20.6044 44.7536C21.4891 43.0442 22.3138 42.137 23.7983 40.1802C24.5256 44.5174 20.6982 48.3486 20.8518 49.9643Z" fill="#101221"/>
  <path fill-rule="evenodd" clip-rule="evenodd" d="M20.8527 49.968C20.8527 49.7656 20.774 49.4957 20.6091 49.2407C19.8593 48.0712 17.6288 47.5988 16.1931 47.6738C14.2813 47.805 13.1267 48.1986 10.75 48.7759C14.42 51.1601 19.4357 49.1845 20.849 49.9642L20.8527 49.968Z" fill="#101221"/>
  <path fill-rule="evenodd" clip-rule="evenodd" d="M15.0764 45.2029C14.9227 45.0867 14.7615 44.8767 14.6603 44.6106C14.1955 43.3847 15.0914 41.4204 15.9574 40.3746C17.1345 38.995 18.0829 38.339 19.8598 36.8583C19.6049 40.9893 15.2826 43.6884 15.0764 45.2029Z" fill="#101221"/>
  <path fill-rule="evenodd" clip-rule="evenodd" d="M15.0722 45.2032C15.1135 45.0158 15.0985 44.7534 14.9973 44.4872C14.5512 43.2614 12.6019 42.3692 11.2711 42.1443C9.49044 41.8707 8.35084 41.9944 6.05664 42.0356C8.93189 44.9746 13.9326 44.1948 15.0722 45.2032Z" fill="#101221"/>
  <path fill-rule="evenodd" clip-rule="evenodd" d="M10.3952 39.3401C10.279 39.2051 10.1703 38.9802 10.1328 38.714C9.94915 37.4957 11.1637 35.8763 12.1646 35.089C13.5142 34.0619 14.5151 33.6458 16.4381 32.6449C15.381 36.3786 10.8826 37.9905 10.3952 39.3363V39.3401Z" fill="#101221"/>
  <path fill-rule="evenodd" clip-rule="evenodd" d="M10.3912 39.3401C10.4624 39.1752 10.4999 38.9353 10.4586 38.6691C10.2824 37.462 8.66676 36.2699 7.49342 35.8089C5.91522 35.2203 4.84684 35.1116 2.73633 34.7142C4.80936 37.9569 9.54021 38.1968 10.3912 39.3401Z" fill="#101221"/>
  <path fill-rule="evenodd" clip-rule="evenodd" d="M7.00658 32.8173C6.92411 32.6711 6.86413 32.4462 6.87538 32.1988C6.92036 31.0517 8.31863 29.7809 9.37201 29.2336C10.7928 28.5288 11.7824 28.3227 13.7205 27.7454C12.0973 30.9842 7.68885 31.6702 7.00284 32.8211L7.00658 32.8173Z" fill="#101221"/>
  <path fill-rule="evenodd" clip-rule="evenodd" d="M7.00688 32.8173C7.1006 32.6786 7.17557 32.4649 7.18307 32.2138C7.22431 31.0779 5.93851 29.7171 4.9376 29.0986C3.58808 28.2964 2.62841 28.019 0.757812 27.303C2.11859 30.6206 6.41834 31.629 7.00688 32.8173Z" fill="#101221"/>
  <path fill-rule="evenodd" clip-rule="evenodd" d="M4.96832 26.2722C4.91209 26.126 4.89334 25.9123 4.94208 25.6836C5.15575 24.6377 6.62524 23.6818 7.67487 23.3369C9.08063 22.9021 10.0178 22.8609 11.8847 22.6172C9.91284 25.3425 5.77054 25.32 4.97207 26.2722H4.96832Z" fill="#101221"/>
  <path fill-rule="evenodd" clip-rule="evenodd" d="M4.96702 26.2723C5.07198 26.1599 5.16945 25.9724 5.21068 25.7438C5.40561 24.7091 4.41596 23.2846 3.58375 22.5761C2.45914 21.6539 1.61569 21.2678 0 20.3531C0.790974 23.5845 4.59215 25.1027 4.97077 26.2723H4.96702Z" fill="#101221"/>
  <path fill-rule="evenodd" clip-rule="evenodd" d="M4.19301 19.1648C4.16302 19.0224 4.17427 18.8274 4.25299 18.625C4.59787 17.7028 6.07485 17.0356 7.0795 16.8706C8.42528 16.6719 9.28748 16.7694 11.0231 16.8144C8.83764 19.0224 5.05896 18.4076 4.19301 19.1648Z" fill="#101221"/>
  <path fill-rule="evenodd" clip-rule="evenodd" d="M4.19337 19.161C4.30209 19.071 4.4183 18.9135 4.48577 18.7111C4.79691 17.7889 4.08091 16.3607 3.41365 15.6072C2.50646 14.6175 1.78671 14.1564 0.429688 13.1068C0.729583 16.1582 4.00594 18.0438 4.19712 19.161H4.19337Z" fill="#101221"/>
  <path fill-rule="evenodd" clip-rule="evenodd" d="M4.7627 12.6796C4.7627 12.5484 4.80393 12.3722 4.90889 12.2035C5.37748 11.4275 6.82448 11.0827 7.7579 11.1052C9.00622 11.1576 9.76345 11.3938 11.3229 11.7274C8.97248 13.3431 5.67363 12.1435 4.7627 12.6759V12.6796Z" fill="#101221"/>
  <path fill-rule="evenodd" clip-rule="evenodd" d="M4.76366 12.6796C4.87612 12.6159 5.00357 12.4884 5.09729 12.3197C5.52464 11.5362 5.09729 10.1342 4.61371 9.347C3.95019 8.31236 3.36914 7.78005 2.30826 6.6217C2.10209 9.42573 4.76366 11.6412 4.75991 12.6796H4.76366Z" fill="#101221"/>
  <path fill-rule="evenodd" clip-rule="evenodd" d="M6.84082 6.19065C6.85956 6.07069 6.92704 5.92074 7.047 5.78579C7.58681 5.1635 8.93634 5.07354 9.7723 5.24223C10.8819 5.48214 11.5304 5.80828 12.8762 6.35184C10.5183 7.43896 7.74051 5.85326 6.84457 6.19439L6.84082 6.19065Z" fill="#101221"/>
  <path fill-rule="evenodd" clip-rule="evenodd" d="M6.83962 6.19053C6.95208 6.1493 7.08329 6.05183 7.18825 5.90938C7.67933 5.26461 7.49189 3.94132 7.16201 3.16909C6.70467 2.14569 6.25857 1.59089 5.46385 0.398804C4.89405 2.89543 6.98582 5.25336 6.83962 6.18678V6.19053Z" fill="#101221"/>
  <path fill-rule="evenodd" clip-rule="evenodd" d="M62.4423 49.949C62.6297 49.8665 62.8472 49.6866 63.0121 49.4317C63.7881 48.2733 63.327 46.0279 62.6822 44.7346C61.7938 43.0252 60.9691 42.118 59.4846 40.1649C58.7611 44.5022 62.5923 48.3296 62.4423 49.949Z" fill="#101221"/>
  <path fill-rule="evenodd" clip-rule="evenodd" d="M62.4424 49.9526C62.4424 49.7502 62.5211 49.4803 62.686 49.2254C63.432 48.0558 65.6663 47.5834 67.0983 47.6547C69.0101 47.7821 70.1647 48.1757 72.5414 48.7493C68.8751 51.1372 63.8556 49.1654 62.4424 49.9489V49.9526Z" fill="#101221"/>
  <path fill-rule="evenodd" clip-rule="evenodd" d="M68.2282 45.1732C68.3819 45.057 68.5431 44.8471 68.6405 44.5772C69.1054 43.3514 68.2057 41.3871 67.3397 40.3412C66.1626 38.9654 65.2142 38.3094 63.4336 36.8324C63.696 40.9635 68.022 43.655 68.2282 45.1732Z" fill="#101221"/>
  <path fill-rule="evenodd" clip-rule="evenodd" d="M68.2284 45.173C68.1872 44.9856 68.2022 44.7232 68.3034 44.457C68.7495 43.2312 70.6951 42.3353 72.0258 42.1103C73.8027 41.8367 74.9423 41.9566 77.2403 41.9941C74.3688 44.9368 69.3643 44.1646 68.2284 45.173Z" fill="#101221"/>
  <path fill-rule="evenodd" clip-rule="evenodd" d="M72.9029 39.2956C73.0191 39.1569 73.1278 38.9357 73.1653 38.6696C73.3453 37.4513 72.1307 35.8356 71.1298 35.0483C69.7765 34.0212 68.7756 33.6088 66.8525 32.6117C67.9134 36.3416 72.4156 37.9461 72.9067 39.2956H72.9029Z" fill="#101221"/>
  <path fill-rule="evenodd" clip-rule="evenodd" d="M72.9073 39.2955C72.8361 39.1343 72.7986 38.8906 72.8361 38.6244C73.0085 37.4174 74.6242 36.2253 75.7975 35.7604C77.372 35.1681 78.4404 35.0594 80.5546 34.6583C78.4891 37.9047 73.7545 38.1521 72.9073 39.2955Z" fill="#101221"/>
  <path fill-rule="evenodd" clip-rule="evenodd" d="M76.2904 32.7687C76.3729 32.6225 76.4329 32.3976 76.4179 32.1464C76.3691 30.9993 74.9709 29.7285 73.9137 29.185C72.493 28.4802 71.5033 28.2778 69.5615 27.7042C71.1922 30.9393 75.6007 31.6179 76.2867 32.7687H76.2904Z" fill="#101221"/>
  <path fill-rule="evenodd" clip-rule="evenodd" d="M76.2904 32.7686C76.1967 32.6299 76.1218 32.4162 76.1143 32.1651C76.073 31.0292 77.3513 29.6684 78.3522 29.0462C79.698 28.2402 80.6614 27.9628 82.5283 27.243C81.175 30.5606 76.8752 31.5803 76.2867 32.7686H76.2904Z" fill="#101221"/>
  <path fill-rule="evenodd" clip-rule="evenodd" d="M78.3205 26.2049C78.3767 26.0587 78.3954 25.845 78.3467 25.6163C78.133 24.5705 76.6598 23.6145 75.6102 23.2734C74.2044 22.8386 73.2635 22.8011 71.4004 22.5612C73.376 25.2827 77.5183 25.2527 78.3205 26.2049Z" fill="#101221"/>
  <path fill-rule="evenodd" clip-rule="evenodd" d="M78.3204 26.2049C78.2154 26.0924 78.1179 25.905 78.0767 25.6763C77.8818 24.6417 78.8677 23.2134 79.6999 22.5087C80.8245 21.5827 81.6679 21.1966 83.2799 20.2782C82.4964 23.5096 78.6952 25.0353 78.3204 26.2049Z" fill="#101221"/>
  <path fill-rule="evenodd" clip-rule="evenodd" d="M79.0847 19.0935C79.1147 18.951 79.0997 18.7561 79.0247 18.5537C78.6798 17.6315 77.1991 16.968 76.1907 16.8068C74.8449 16.6119 73.9827 16.7131 72.2471 16.7618C74.4401 18.9623 78.215 18.34 79.0847 19.0935Z" fill="#101221"/>
  <path fill-rule="evenodd" clip-rule="evenodd" d="M79.0809 19.0897C78.9722 18.9997 78.8559 18.8423 78.7885 18.6399C78.4736 17.7214 79.1896 16.2894 79.8531 15.5322C80.7565 14.5425 81.4763 14.0777 82.8296 13.0281C82.5372 16.0795 79.2683 17.9726 79.0771 19.0897H79.0809Z" fill="#101221"/>
  <path fill-rule="evenodd" clip-rule="evenodd" d="M78.4958 12.6008C78.4958 12.4696 78.4545 12.2934 78.3496 12.1247C77.881 11.3525 76.434 11.0076 75.4968 11.0339C74.2485 11.0901 73.4913 11.3263 71.9355 11.6674C74.2897 13.2756 77.5886 12.0685 78.4958 12.6008Z" fill="#101221"/>
  <path fill-rule="evenodd" clip-rule="evenodd" d="M78.4971 12.6008C78.3847 12.5371 78.2535 12.4134 78.1635 12.2409C77.7361 11.4575 78.156 10.0555 78.6396 9.26823C79.2993 8.22984 79.8766 7.70128 80.9375 6.53918C81.1512 9.34321 78.4971 11.5624 78.5009 12.6046L78.4971 12.6008Z" fill="#101221"/>
  <path fill-rule="evenodd" clip-rule="evenodd" d="M76.3957 6.10444C76.377 5.98448 76.3095 5.83453 76.1896 5.69958C75.6498 5.0773 74.2965 4.99482 73.4605 5.16351C72.3509 5.40718 71.7061 5.73706 70.3604 6.28062C72.722 7.364 75.4923 5.7708 76.392 6.10444H76.3957Z" fill="#101221"/>
  <path fill-rule="evenodd" clip-rule="evenodd" d="M76.3919 6.10447C76.2795 6.06324 76.1483 5.96952 76.0395 5.82707C75.5447 5.1823 75.7321 3.85901 76.0583 3.08678C76.5119 2.06338 76.958 1.50483 77.749 0.312744C78.3262 2.80562 76.242 5.17105 76.3882 6.10447H76.3919Z" fill="#101221"/>
</svg>