<svg width="43" height="28" viewBox="0 0 43 28" fill="none" xmlns="http://www.w3.org/2000/svg">
<path d="M43 14.4201C43 21.8693 37.1907 27.8959 30.0103 27.8959C26.9794 27.8959 24.201 26.8104 22 25.0136C25.0309 22.5431 26.9433 18.7249 26.9433 14.4201C26.9433 10.1154 24.9948 6.29723 22 3.82667C24.201 2.02989 26.9794 0.944336 30.0103 0.944336C37.1907 0.944336 43 7.00845 43 14.4201Z" fill="#0099DF"/>
<path d="M21.5164 3.93897C21.5164 3.93897 21.5164 3.93896 21.5164 3.93897C24.2327 6.38334 26 10.161 26 14.4201C26 18.6793 24.2655 22.457 21.5164 24.9013L21.4835 24.9013C18.7672 22.494 17 18.6793 17 14.4202C17 10.1611 18.7673 6.38342 21.4836 3.93905C21.4836 3.93902 21.4837 3.93907 21.4836 3.93905L21.5164 3.93897Z" fill="#6C6BBD"/>
<path d="M16.0567 14.4201C16.0567 10.1154 18.0052 6.29723 21 3.82667C18.799 2.02989 16.0206 0.944336 12.9897 0.944336C5.80928 0.944336 0 6.97102 0 14.4201C0 21.8693 5.80928 27.8959 12.9897 27.8959C16.0206 27.8959 18.799 26.8104 21 25.0136C18.0052 22.5805 16.0567 18.7249 16.0567 14.4201Z" fill="#EB001B"/>
</svg>
