<svg width="85" height="28" viewBox="0 0 85 28" fill="none" xmlns="http://www.w3.org/2000/svg">
<path d="M61.7942 1.86514C60.4361 1.33725 58.2819 0.754395 55.6183 0.754395C48.8186 0.754395 44.0303 4.30687 44.0009 9.38585C43.9444 13.1331 47.4292 15.2144 50.0355 16.4639C52.6995 17.7406 53.605 18.574 53.605 19.712C53.5779 21.4598 51.4524 22.2655 49.47 22.2655C46.7209 22.2655 45.248 21.8501 43.0095 20.8777L42.1028 20.4609L41.1393 26.3175C42.7542 27.0383 45.7295 27.678 48.8186 27.706C56.0434 27.706 60.7471 24.2085 60.8028 18.796C60.8303 15.8261 58.9902 13.5503 55.023 11.6907C52.6148 10.497 51.1399 9.69203 51.1399 8.47061C51.1681 7.36023 52.3873 6.22292 55.1059 6.22292C57.3444 6.16722 58.989 6.69437 60.235 7.2219L60.8578 7.49894L61.7942 1.86514Z" fill="url(#paint0_linear_2092_2292)"/>
<path d="M36.8333 27.3172H29.9477L34.2544 1.22732H41.1396L36.8333 27.3172Z" fill="url(#paint1_linear_2092_2292)"/>
<path fill-rule="evenodd" clip-rule="evenodd" d="M79.4451 1.22732H74.1191C72.4767 1.22732 71.2288 1.69877 70.5202 3.39201L60.2926 27.3168H67.5174C67.5174 27.3168 68.7068 24.0967 68.9625 23.4032H77.803C78.0007 24.3191 78.6246 27.3168 78.6246 27.3168H85L79.4451 1.22732ZM70.9457 18.0745C71.5127 16.5756 73.6947 10.7747 73.6947 10.7747C73.6833 10.7971 73.772 10.5561 73.9043 10.1967L73.9059 10.1923L73.907 10.1894C74.1046 9.65259 74.398 8.8558 74.6007 8.27694L75.0819 10.525C75.0819 10.525 76.3858 16.77 76.6689 18.0745H70.9457Z" fill="url(#paint2_linear_2092_2292)"/>
<path d="M24.1965 1.22732L17.4533 19.0181L16.7164 15.4099L16.7157 15.4077L14.3081 3.42041C13.9116 1.7541 12.6932 1.28228 11.1916 1.22732H0.113335L0 1.75447C2.70195 2.4314 5.11859 3.40686 7.23606 4.61972L13.3732 27.2895H20.6545L31.4775 1.22732H24.1965Z" fill="url(#paint3_linear_2092_2292)"/>
<defs>
<linearGradient id="paint0_linear_2092_2292" x1="-5.46428e-08" y1="14.2869" x2="85" y2="14.2869" gradientUnits="userSpaceOnUse">
<stop stop-color="#222357"/>
<stop offset="1" stop-color="#254AA5"/>
</linearGradient>
<linearGradient id="paint1_linear_2092_2292" x1="-5.46428e-08" y1="14.2869" x2="85" y2="14.2869" gradientUnits="userSpaceOnUse">
<stop stop-color="#222357"/>
<stop offset="1" stop-color="#254AA5"/>
</linearGradient>
<linearGradient id="paint2_linear_2092_2292" x1="-5.46428e-08" y1="14.2869" x2="85" y2="14.2869" gradientUnits="userSpaceOnUse">
<stop stop-color="#222357"/>
<stop offset="1" stop-color="#254AA5"/>
</linearGradient>
<linearGradient id="paint3_linear_2092_2292" x1="-5.46428e-08" y1="14.2869" x2="85" y2="14.2869" gradientUnits="userSpaceOnUse">
<stop stop-color="#222357"/>
<stop offset="1" stop-color="#254AA5"/>
</linearGradient>
</defs>
</svg>
