<svg width="23" height="28" viewBox="0 0 23 28" fill="none" xmlns="http://www.w3.org/2000/svg">
<path fill-rule="evenodd" clip-rule="evenodd" d="M20.7829 7.83691C20.7586 7.99566 20.7304 8.15788 20.6989 8.32458C19.6144 13.9574 15.9035 15.9034 11.1643 15.9034H8.75124C8.17161 15.9034 7.68311 16.3289 7.59297 16.9073L6.00759 27.0791C5.94889 27.459 6.23821 27.8011 6.61693 27.8011H10.8968C11.4035 27.8011 11.8341 27.4287 11.9139 26.9231L11.9559 26.7033L12.7617 21.5308L12.8135 21.247C12.8924 20.7398 13.3239 20.3671 13.8306 20.3671H14.4706C18.6172 20.3671 21.8634 18.6644 22.8121 13.7366C23.2083 11.6781 23.0032 9.95923 21.9545 8.75038C21.6372 8.38594 21.2435 8.08335 20.7829 7.83691Z" fill="#298FC2"/>
<path fill-rule="evenodd" clip-rule="evenodd" d="M19.7959 7.23502C19.6199 7.18578 19.4385 7.14129 19.2523 7.10105C19.0652 7.06181 18.8736 7.02707 18.6762 6.99658C17.9857 6.8896 17.2289 6.83887 16.4184 6.83887H9.57612C9.40746 6.83887 9.24739 6.87536 9.10428 6.94134C8.78858 7.08681 8.55422 7.37324 8.49739 7.7239L7.04171 16.5633L7 16.8209C7.09567 16.2391 7.61418 15.8109 8.22941 15.8109H10.7907C15.8209 15.8109 19.7596 13.8522 20.9108 8.18604C20.9453 8.01833 20.9742 7.85512 21 7.69541C20.7088 7.5472 20.3934 7.42048 20.0537 7.3125C19.9698 7.28576 19.8832 7.26002 19.7959 7.23502Z" fill="#22284F"/>
<path fill-rule="evenodd" clip-rule="evenodd" d="M8.70829 7.72419C8.7636 7.37328 8.9917 7.08666 9.29895 6.94209C9.43925 6.87581 9.59402 6.83929 9.75818 6.83929H16.4175C17.2063 6.83929 17.9429 6.89032 18.615 6.99737C18.807 7.02763 18.9935 7.06264 19.1757 7.10191C19.3568 7.14193 19.5334 7.1867 19.7047 7.23572C19.7897 7.26073 19.8739 7.28675 19.9564 7.31251C20.287 7.42056 20.5942 7.54836 20.8776 7.69568C21.211 5.59999 20.8748 4.1731 19.7255 2.88102C18.4582 1.45838 16.1712 0.849609 13.2445 0.849609H4.74801C4.15025 0.849609 3.64027 1.27805 3.54792 1.86131L0.00905677 23.9745C-0.0607157 24.4119 0.28155 24.8066 0.729109 24.8066H5.97448L8.70829 7.72419Z" fill="#28356A"/>
</svg>
