<svg width="16" height="16" viewBox="0 0 16 16" fill="none" xmlns="http://www.w3.org/2000/svg">
<path d="M11.4746 8.19466C10.9708 8.8674 10.4836 9.519 9.99644 10.1699C9.93695 10.2492 9.87878 10.3292 9.81399 10.4045C9.67186 10.5704 9.49007 10.6279 9.2792 10.5731C9.07956 10.5208 8.95264 10.3867 8.9209 10.1845C8.87331 9.88048 8.83827 9.57517 8.80059 9.26986C8.72523 8.66122 8.65251 8.05192 8.57649 7.42477C8.15738 7.37058 7.75612 7.31639 7.35486 7.26881C6.90732 7.21528 6.45847 7.16968 6.01093 7.11748C5.92367 7.10756 5.83509 7.09236 5.75246 7.06395C5.3935 6.94103 5.28311 6.51346 5.5429 6.23525C5.63214 6.14008 5.74452 6.06541 5.85029 5.98611C6.49218 5.50435 7.13539 5.02391 7.79975 4.52761C7.66159 4.19851 7.52872 3.87668 7.39188 3.55617C7.18431 3.07111 6.97607 2.58604 6.76454 2.10296C6.65943 1.86242 6.63563 1.63376 6.83923 1.43353C7.0435 1.23197 7.27487 1.26633 7.51219 1.3681C8.19903 1.6635 8.88587 1.95824 9.57337 2.25232C9.6831 2.29924 9.79416 2.34219 9.92835 2.39638C10.0321 2.25892 10.1306 2.1294 10.2285 1.99855C10.6641 1.417 11.0984 0.834798 11.5347 0.254574C11.6769 0.0649103 11.8547 -0.0454513 12.1032 0.01799C12.3491 0.0801097 12.4589 0.258539 12.5038 0.490496C12.5078 0.512304 12.5111 0.534112 12.5137 0.55592C12.6056 1.34233 12.7048 2.12742 12.7841 2.91449C12.8046 3.11935 12.872 3.19402 13.0809 3.21517C13.8689 3.29315 14.6543 3.39096 15.4402 3.48546C15.6961 3.51586 15.9076 3.61498 15.981 3.89254C16.0511 4.15754 15.9202 4.33531 15.7225 4.48334C15.1058 4.94527 14.489 5.40654 13.8722 5.86847C13.7856 5.93324 13.7017 6.00131 13.6019 6.07929C13.7565 6.44473 13.9046 6.79763 14.0553 7.14986C14.2365 7.57412 14.4163 7.99971 14.6034 8.42199C14.7157 8.67576 14.7931 8.92556 14.5683 9.15553C14.3442 9.38551 14.0996 9.32008 13.8398 9.20642C13.0644 8.86674 12.2837 8.53962 11.4752 8.19466H11.4746Z" fill="white"/>
<path d="M7.84551 9.33826C7.91294 9.49686 7.80717 9.62375 7.67297 9.75724C5.68451 11.7398 3.69936 13.7269 1.71222 15.7115C1.32352 16.0994 1.10603 16.0954 0.710059 15.7022C0.530251 15.5238 0.345816 15.35 0.174603 15.163C-0.0587506 14.9079 -0.0561064 14.6554 0.169975 14.3977C0.220877 14.3396 0.277727 14.2873 0.332595 14.2332C2.28734 12.279 4.24473 10.3269 6.19353 8.36681C6.36474 8.19433 6.52406 8.10908 6.76931 8.15931C7.00531 8.20755 7.24924 8.22143 7.49052 8.23993C7.66438 8.25315 7.74305 8.33708 7.75627 8.50956C7.77676 8.77257 7.8118 9.03427 7.84485 9.33826H7.84551Z" fill="white"/>
</svg>
